<svg id="Layer_1" data-name="Layer 1" xmlns="http://www.w3.org/2000/svg" xmlns:xlink="http://www.w3.org/1999/xlink" viewBox="0 0 480 480"><defs><style>.cls-1,.cls-12{fill:none;}.cls-2{clip-path:url(#clip-path);}.cls-3{fill:#1e1411;stroke-width:4.38px;}.cls-12,.cls-3,.cls-5{stroke:#000;stroke-miterlimit:10;}.cls-4{clip-path:url(#clip-path-2);}.cls-5{fill:#eaa5a2;}.cls-6{fill:#a8651a;}.cls-7{opacity:0.2;}.cls-8{fill:#7a5547;}.cls-9{fill:#bd772a;}.cls-10{fill:#42280a;}.cls-11{fill:#5b5450;}.cls-12{stroke-width:0.84px;}.cls-13{fill:#382a26;}.cls-14{fill:#f6e4d0;opacity:0.77;}</style><clipPath id="clip-path"><rect class="cls-1" x="-463.83" y="26.17" width="427.65" height="427.65" rx="150.64" transform="translate(96.48 247.07) rotate(45)"/></clipPath><clipPath id="clip-path-2"><rect class="cls-1" x="26.17" y="26.17" width="427.65" height="427.65" rx="150.64" transform="translate(240 -99.41) rotate(45)"/></clipPath></defs><title>BEAR</title><g class="cls-2"><path class="cls-3" d="M-245.56,668.8-516.68,466.14l137-109.15c74.05-51.65,194.11-51.65,268.16,0l137,109.15Z"/></g><g class="cls-4"><path class="cls-5" d="M462.65,485.89c-2.86,2.18-7.24,2.4-10.67,2.94-21.11,3.29-42.77,2.93-64.06,3.8-34.86,1.42-69.75,1.05-104.61.87-10.5-.06-20.91.1-31.35-.78-3.86-.32-8.76-.27-12.84-1.05-4.06.78-8.91.73-12.73,1.05-10.37.88-20.7.72-31.1.78-34.59.18-69.21.55-103.79-.87-21.13-.87-42.6-.51-63.55-3.8-3.41-.54-7.76-.76-10.6-2.94A159.11,159.11,0,0,0,25.49,451c2.3-18,6.11-35.82,8.55-53.72,19.33-1.45,37.34-5.54,55.71-11.53,25-8.14,50.67-15,74.79-25.35,6.06,3.69,14,2.78,21,2.78,13.52,0,27.6-.64,41,1.24,5.73.8,10.1,1.94,12.64,6,2.55-4,7-5.18,12.73-6,13.46-1.88,27.67-1.24,41.3-1.24,7,0,15,.91,21.12-2.78,24.33,10.32,50.25,17.21,75.4,25.35,18.53,6,36.68,10.08,56.16,11.53,2.46,17.9,6.29,35.75,8.63,53.72A157.52,157.52,0,0,0,462.65,485.89Z"/><path class="cls-6" d="M321.15,327c-8.29,22.52-71.19,69.35-84.48,69.35S160.46,349.49,152.18,327s84.49-46.87,84.49-46.87S329.43,304.47,321.15,327Z"/><path d="M323.13,327.7a41.37,41.37,0,0,1-5.14,9.38,86.88,86.88,0,0,1-6.48,8.11,178.62,178.62,0,0,1-14.63,14.37,306.58,306.58,0,0,1-32.31,24.95,158.85,158.85,0,0,1-17.69,10.43A52.54,52.54,0,0,1,242,397a16.22,16.22,0,0,1-5.63,1.16,12.26,12.26,0,0,1-2.92-.5c-.89-.25-1.74-.55-2.57-.87-1.66-.64-3.23-1.38-4.78-2.15A160.46,160.46,0,0,1,208.64,384q-8.41-5.79-16.38-12.14t-15.52-13.18a190.88,190.88,0,0,1-14.4-14.47,92.42,92.42,0,0,1-6.41-8,37.42,37.42,0,0,1-5-9.2,9.7,9.7,0,0,1,0-5.67,15.22,15.22,0,0,1,2.56-4.83,36.07,36.07,0,0,1,7.66-7.07,111.19,111.19,0,0,1,17.84-10c6.17-2.85,12.47-5.36,18.82-7.71,12.73-4.65,25.66-8.67,38.75-12.15l.13,0,.15,0c8.24,2.08,16.4,4.42,24.52,6.95s16.14,5.35,24.07,8.5a159.06,159.06,0,0,1,23.15,11.11A50.81,50.81,0,0,1,319,314.17a19.07,19.07,0,0,1,3.93,5.87,11.7,11.7,0,0,1,.82,3.76A10.72,10.72,0,0,1,323.13,327.7Zm-4-1.45a6.52,6.52,0,0,0,0-4.78,15.14,15.14,0,0,0-3-4.71,47.23,47.23,0,0,0-9.45-7.7,156.19,156.19,0,0,0-22.35-11.54c-7.74-3.34-15.66-6.34-23.65-9.13s-16-5.42-24.17-7.76h.28c-13,3.63-25.85,7.81-38.45,12.61-6.3,2.41-12.53,5-18.6,7.88a110.57,110.57,0,0,0-17.38,10,34.69,34.69,0,0,0-7.11,6.71,12.79,12.79,0,0,0-2.14,4.1,7.28,7.28,0,0,0,.06,4.31,35.78,35.78,0,0,0,4.77,8.48,91.19,91.19,0,0,0,6.33,7.73,189,189,0,0,0,14.36,14.08q7.53,6.71,15.53,12.87c5.32,4.11,10.77,8.06,16.34,11.8a155.94,155.94,0,0,0,17.22,10.22c1.48.72,3,1.39,4.48,2,.75.27,1.5.53,2.24.72a9.35,9.35,0,0,0,2.06.35,12.88,12.88,0,0,0,4.22-1,48.3,48.3,0,0,0,4.45-2,155.51,155.51,0,0,0,17.09-10.36,303.47,303.47,0,0,0,31.53-25c4.95-4.51,9.73-9.2,14.19-14.12,2.23-2.45,4.37-5,6.33-7.59A37,37,0,0,0,319.17,326.25Z"/><g class="cls-7"><path d="M321.15,327c-8.29,22.52-71.19,69.35-84.48,69.35S160.46,349.49,152.18,327s84.49-46.87,84.49-46.87S329.43,304.47,321.15,327Z"/></g><path class="cls-5" d="M327.17,328.41c3.09,8-1.24,52.51-1.24,52.51-104.27,25-93.93,18.95-179.64,0,0,0,0-35.72.57-50.69.58-15.29,34.48,0,34.48,0l-3.75,3.79,50,51.59a10.85,10.85,0,0,0,16.24,0l47.48-51.54-1-3.84S322.54,316.44,327.17,328.41Z"/><g class="cls-7"><path d="M184,362.89a227.48,227.48,0,0,0,32.17,11l-38.58-39.78,3.75-3.79s-33.9-15.34-34.48,0c-.15,3.88-.26,9.14-.34,14.82C159.41,350.11,171.28,357.39,184,362.89Z"/></g><g class="cls-7"><path d="M257.5,370.85a232.1,232.1,0,0,0,30.31-6.37,249.47,249.47,0,0,0,29-10.64c3.76-1.59,7.64-3.13,11.33-5,.33-9.12.23-17.42-.95-20.45-4.63-12-36.85,1.87-36.85,1.87l1,3.84Z"/></g><path class="cls-6" d="M280.07,112.26c0-.22.06-.44.1-.65.92-5.53,8.23-9.49,13.08-10.59,5.83-1.32,12-.36,17.69,1.35,9.17,2.73,17.91,7.52,24.15,14.76s9.75,17.13,8.15,26.57c-.91,5.36-3.37,10.34-6.2,15a31.65,31.65,0,0,1-6.81,8.39,14.62,14.62,0,0,1-7.59,3.28c-2.7.27-3.94.21-5.91-1.86a75.41,75.41,0,0,0-14.26-12.25c-4.68-2.92-13.54-1.07-17.77-3.81s-2.8-13.81-3.62-18.49a79.85,79.85,0,0,1-1.18-11.65A64.63,64.63,0,0,1,280.07,112.26Z"/><path d="M279.49,112.18a14.51,14.51,0,0,1,.37-1.73,10.3,10.3,0,0,1,.71-1.63,11.8,11.8,0,0,1,2.14-2.76,16.26,16.26,0,0,1,2.68-2.16,23,23,0,0,1,3-1.71,22.23,22.23,0,0,1,6.52-2.06,28.67,28.67,0,0,1,6.8-.22,51.42,51.42,0,0,1,13.16,3,55.51,55.51,0,0,1,12.09,6,43.12,43.12,0,0,1,10,9.16,36.76,36.76,0,0,1,6.22,12.09,30.78,30.78,0,0,1,.93,13.6,40.55,40.55,0,0,1-4.78,12.73c-1.11,2-2.26,3.89-3.57,5.76a26.07,26.07,0,0,1-4.59,5.15,16.63,16.63,0,0,1-6.18,3.33,16.26,16.26,0,0,1-3.49.51,8.58,8.58,0,0,1-1.87-.1,5.33,5.33,0,0,1-1.85-.74,8.29,8.29,0,0,1-1.42-1.19l-1.17-1.21c-.77-.8-1.55-1.59-2.34-2.36-1.57-1.55-3.19-3.06-4.88-4.47a54.46,54.46,0,0,0-5.29-3.93,12.65,12.65,0,0,0-5.94-1.95c-2.16-.27-4.39-.34-6.65-.61a19.54,19.54,0,0,1-3.41-.66,7.6,7.6,0,0,1-3.24-1.78c-1.72-2-2.08-4.41-2.38-6.64s-.28-4.52-.33-6.75c0-1.11,0-2.22-.11-3.3,0-.55-.1-1.07-.17-1.6l-.27-1.66c-.33-2.23-.57-4.46-.71-6.71s-.17-4.48-.23-6.71A45.29,45.29,0,0,1,279.49,112.18Zm1.15.16a43.65,43.65,0,0,0-.22,6.58c.07,2.23.11,4.46.28,6.66s.41,4.4.76,6.58l.27,1.64c.09.58.17,1.16.21,1.72.09,1.14.12,2.27.15,3.38a65.39,65.39,0,0,0,.37,6.61c.27,2.12.75,4.34,2,5.77a6.18,6.18,0,0,0,2.58,1.35,18,18,0,0,0,3.16.57c2.17.24,4.4.31,6.67.58a21.81,21.81,0,0,1,3.41.66,12.18,12.18,0,0,1,1.68.62l.81.44c.26.14.49.3.73.45a55.18,55.18,0,0,1,5.46,4c1.74,1.44,3.4,3,5,4.54.8.78,1.6,1.58,2.38,2.38a14.87,14.87,0,0,0,2.29,2.14,4.21,4.21,0,0,0,2.7.55,14.32,14.32,0,0,0,3.11-.46,14.91,14.91,0,0,0,5.5-3c3.25-2.76,5.59-6.58,7.78-10.39a38.87,38.87,0,0,0,4.66-12.16,29.2,29.2,0,0,0-.83-12.87,35,35,0,0,0-5.89-11.59,41.89,41.89,0,0,0-9.59-8.91,54,54,0,0,0-11.73-6,50.52,50.52,0,0,0-12.81-3.08,23.94,23.94,0,0,0-12.73,2.06,19,19,0,0,0-5.35,3.66A9,9,0,0,0,280.64,112.34Z"/><path class="cls-8" d="M293.32,115.91a1.91,1.91,0,0,1,.67-1.26,1.89,1.89,0,0,1,1.37-.11c10.26,1.73,21.55,4.18,27.67,12.59a23.36,23.36,0,0,1,3.79,17.53,31.59,31.59,0,0,1-8.36,16.11,3.74,3.74,0,0,1-2.18,1.39c-3.57.37-12.15-4.34-15.56-5.91-3.19-1.47-5.26-2.87-7-6C288,139.94,290.77,126.65,293.32,115.91Z"/><path class="cls-6" d="M195.18,113l-.21-.6c-1.93-5.1-9.92-7.59-14.95-7.78-6-.24-12,1.75-17.36,4.38-8.63,4.21-16.47,10.3-21.37,18.29s-6.59,18-3.29,26.72c1.87,4.94,5.23,9.25,8.89,13.18a31.38,31.38,0,0,0,8.3,6.78,15.27,15.27,0,0,0,8.15,1.8c2.73-.22,3.95-.5,5.54-2.81a74.21,74.21,0,0,1,12-14.16c4.13-3.6,13.29-3.39,17-6.75s.29-13.64.26-18.23a73.85,73.85,0,0,0-1-11.3A59,59,0,0,0,195.18,113Z"/><path d="M194.79,113.1a8.92,8.92,0,0,0-3.91-4.82,20.63,20.63,0,0,0-5.93-2.57,25.44,25.44,0,0,0-12.91,0,50.94,50.94,0,0,0-12.13,4.94,56.72,56.72,0,0,0-10.73,7.56A40,40,0,0,0,141,128.43a32.89,32.89,0,0,0-4,12.35,27.16,27.16,0,0,0,1.54,12.71,36.63,36.63,0,0,0,6.88,10.88c2.87,3.26,5.88,6.51,9.58,8.59a15.94,15.94,0,0,0,5.93,2,13.68,13.68,0,0,0,3.13,0,5.35,5.35,0,0,0,2.75-.83,9.58,9.58,0,0,0,2-2.32c.64-.91,1.28-1.81,1.94-2.7,1.32-1.78,2.7-3.52,4.16-5.2a56.81,56.81,0,0,1,4.66-4.78,13,13,0,0,1,2.78-2,20.87,20.87,0,0,1,3.17-1.25c2.14-.66,4.3-1.11,6.41-1.68s4.23-1.24,5.68-2.63a4.88,4.88,0,0,0,1.26-2.66,13.29,13.29,0,0,0,.2-3.17,53.69,53.69,0,0,0-.79-6.49c-.18-1.08-.35-2.17-.5-3.28a27.08,27.08,0,0,1-.17-3.34c-.05-2.19-.19-4.38-.43-6.55s-.61-4.34-.95-6.52A42.63,42.63,0,0,0,194.79,113.1Zm.78-.26a41.88,41.88,0,0,1,1.53,6.49c.35,2.18.74,4.35,1,6.55s.41,4.42.47,6.63a26.65,26.65,0,0,0,.19,3.25c.15,1.08.33,2.16.52,3.24a53.45,53.45,0,0,1,.83,6.62,13.94,13.94,0,0,1-.2,3.4,5.77,5.77,0,0,1-1.53,3.21c-1.77,1.68-4,2.31-6.14,2.94s-4.29,1.06-6.35,1.73a19.71,19.71,0,0,0-3,1.2,12.1,12.1,0,0,0-2.5,1.89,57.43,57.43,0,0,0-4.5,4.73c-1.42,1.66-2.75,3.39-4,5.17-.65.88-1.27,1.78-1.89,2.68a10.44,10.44,0,0,1-2.28,2.7,6.8,6.8,0,0,1-3.46,1.14,15.35,15.35,0,0,1-3.46.06,17.12,17.12,0,0,1-6.54-2.12,27.59,27.59,0,0,1-5.42-4.08c-1.63-1.55-3.13-3.18-4.59-4.86a37.09,37.09,0,0,1-7-11.44A28,28,0,0,1,136,140.65a35,35,0,0,1,4.4-12.54,43.66,43.66,0,0,1,8.42-10.23,57.46,57.46,0,0,1,10.81-7.65,52,52,0,0,1,12.26-5,25.87,25.87,0,0,1,13.22-.17,21.07,21.07,0,0,1,6.17,2.61,11.29,11.29,0,0,1,2.59,2.2,9.44,9.44,0,0,1,1,1.41A11.4,11.4,0,0,1,195.57,112.84Z"/><path class="cls-8" d="M183.39,117.59a1.45,1.45,0,0,0-2-1.37c-10.26,1.73-21.55,4.17-27.68,12.59a23.43,23.43,0,0,0-3.79,17.53,31.65,31.65,0,0,0,8.37,16.11,3.74,3.74,0,0,0,2.18,1.39c3.56.37,12.14-4.34,15.56-5.91,3.18-1.47,5.26-2.87,7-6C188.74,141.62,185.94,128.33,183.39,117.59Z"/><path class="cls-6" d="M340.77,300.79A88.57,88.57,0,0,0,343.25,290a8.07,8.07,0,0,0,4.55,2c-.34-13.2-5.69-34.29-8-47.22a9.36,9.36,0,0,0,4.67,2.5,64.61,64.61,0,0,0-6.66-27.14c-1.12-2.26-2.51-3.75-2.09-6,.3-1.53,2.16-3.44,2.69-5.11a20.75,20.75,0,0,0,.18-11c-1.44-5.85-4.88-11-8.53-15.78-2.59-3.39-5.42-8-3.09-11.54-4.45-.77-5.64-6.4-7.39-10.57-5.91-14.12-30.73-14-43.74-14.64l5-2.4c-1.14-2-4-2.8-6.56-3.14s-5.35-.45-7.45-1.77-2.82-4.46-.62-5.65a38,38,0,0,0-13.19-1.31,22.09,22.09,0,0,0,2.32-7.64c-10.15-1.56-18.75-1-19.7,8.27-.78,7.65-13.11-9.83-23.26-8.27a22.09,22.09,0,0,0,2.32,7.64,38,38,0,0,0-13.19,1.31c2.2,1.19,1.48,4.32-.62,5.65s-4.87,1.44-7.45,1.77-5.42,1.14-6.56,3.14l5,2.4a152.93,152.93,0,0,0-25.13,3.32c-2.38.53-10.07,1.18-11.5,3.23s.1,8.34-.7,11.11c-1.06,3.64-3.93,7-7.7,7.46l3.39,2.22c-3,.91-6.16,2-8,4.44s-1.45,6.87,1.5,7.86c-2.93,4.32-9.21,5.14-12.48,9.2-3.39,4.22,5.42,7.59,8.07,8.77a7.75,7.75,0,0,1,1.81.79c.89.76.74.43.14,1.54a54.67,54.67,0,0,1-3.26,4.54,57.09,57.09,0,0,0-5.52,9.67c-3,7-4,14.8-4.31,22.47a14.41,14.41,0,0,1,6.32-2.38c-3.22,7.53-4.31,15.79-5,24-.46,5.24-6.28,18.71-4.26,23.63.76-1.27,7.4-10.27,8.8-10.7-.9,11.27-2.66,31,4.53,40a9.45,9.45,0,0,1,2.93-3.14c1.77,3.89,3.42,7.41,6.54,10.31l10,9.34c2.76,2.56,5.57,5.17,8.94,6.86,3.54,1.79,7.53,2.49,11.47,3a147.7,147.7,0,0,0,17.2,1.27l-.2-3.6a70.59,70.59,0,0,0,19.39,13.37A26.88,26.88,0,0,0,225.47,357c3.67.08,7.52-1.23,9.79-4.11L234.07,357A80.86,80.86,0,0,0,267,348.9l-2.31,5.4a118.9,118.9,0,0,0,36.43-19.41l.1,5.32a119.76,119.76,0,0,0,13.44-8.84q3.21-2.43,6.26-5.06c1.88-1.64,3.74-4,5.82-5.26a14.12,14.12,0,0,0,2.24,4.87A92.55,92.55,0,0,0,340.77,300.79Z"/><path d="M339.79,300.5a76.58,76.58,0,0,0,2.9-10.58l.21-1.06.74.73a6.82,6.82,0,0,0,4.21,1.92l-.59.54a100.51,100.51,0,0,0-1.4-11.82c-.66-3.92-1.46-7.82-2.27-11.73l-1.21-5.86c-.42-1.95-.8-3.91-1.06-5.89s-.54-4-.91-5.94l-1.09-5.9-.3-1.68,1.2,1.21a8.71,8.71,0,0,0,4.39,2.38l-.61.51a64.25,64.25,0,0,0-3.63-20c-.57-1.6-1.19-3.2-1.89-4.75-.33-.78-.72-1.55-1.08-2.31s-.81-1.48-1.23-2.25a6.74,6.74,0,0,1-.87-2.58,4.8,4.8,0,0,1,.1-1.41,5.24,5.24,0,0,1,.54-1.28c.86-1.56,2-2.83,2.32-4.45a20.47,20.47,0,0,0,0-10,33.25,33.25,0,0,0-4.05-9.27c-.88-1.45-1.85-2.85-2.85-4.23s-2.09-2.71-3.06-4.17a16.68,16.68,0,0,1-2.33-4.75,6.5,6.5,0,0,1,.63-5.39l.36.83c-.35-.09-.69-.16-1-.26s-.74-.11-1.12-.21a3.07,3.07,0,0,1-1.9-1.21,14.21,14.21,0,0,1-2.17-3.6c-.54-1.24-1-2.47-1.42-3.68-.22-.6-.45-1.19-.68-1.76a16.15,16.15,0,0,0-.81-1.61,16.92,16.92,0,0,0-4.93-5.26,29,29,0,0,0-6.67-3.36,66.86,66.86,0,0,0-14.92-3.19c-5.1-.6-10.25-.75-15.42-1l-2.3-.12,2.08-1,5-2.37-.24.76c-.8-1.39-2.54-2.12-4.24-2.53s-3.56-.48-5.42-.8a13.23,13.23,0,0,1-2.78-.72,9,9,0,0,1-1.32-.65,5.08,5.08,0,0,1-1.16-1,4.55,4.55,0,0,1-1.09-2.87,3,3,0,0,1,1.62-2.71l.1,1a37.33,37.33,0,0,0-13-1.3l-.91.07.42-.81a21.48,21.48,0,0,0,2.28-7.46l.42.54a54.92,54.92,0,0,0-6.38-.64,21.62,21.62,0,0,0-6.28.58,11.07,11.07,0,0,0-1.47.5,13.49,13.49,0,0,0-1.36.71,8.39,8.39,0,0,0-1.18,1l-.53.54-.43.63a9,9,0,0,0-1.22,2.8c-.13.5-.18,1-.27,1.53a4.53,4.53,0,0,1-.5,1.74,1.3,1.3,0,0,1-.33.41,1.11,1.11,0,0,1-.48.3,1.28,1.28,0,0,1-.53.12,1.65,1.65,0,0,1-.5,0,5.17,5.17,0,0,1-1.67-.59,25.34,25.34,0,0,1-2.79-1.76c-1.77-1.25-3.49-2.55-5.27-3.74a32.68,32.68,0,0,0-5.57-3.09,11.65,11.65,0,0,0-6.06-1l.4-.52a21.6,21.6,0,0,0,2.28,7.47l.4.77-.87-.06a37.41,37.41,0,0,0-13,1.3l.1-.92a3.05,3.05,0,0,1,1.61,2.69,4.53,4.53,0,0,1-1.09,2.86,5.07,5.07,0,0,1-1.16,1,8.4,8.4,0,0,1-1.31.65,13.31,13.31,0,0,1-2.77.72c-1.86.31-3.7.38-5.42.8s-3.45,1.14-4.26,2.54l-.23-.73,5,2.4,1.89.9-2.09.1c-5,.25-10,.73-14.89,1.47-2.47.38-4.92.81-7.37,1.31-1.23.23-2.4.53-3.69.76l-3.7.61c-1.22.22-2.43.46-3.6.79a12.33,12.33,0,0,0-1.68.6,3.16,3.16,0,0,0-1.23.87,3.45,3.45,0,0,0-.42,1.51,13.14,13.14,0,0,0-.07,1.79c0,1.23.12,2.47.17,3.73a10.63,10.63,0,0,1-1.94,7.52,9.45,9.45,0,0,1-6.56,4.34l.31-1.3,3.4,2.21,1.3.84-1.49.46a29.45,29.45,0,0,0-4.23,1.55,9.59,9.59,0,0,0-3.39,2.57,5.27,5.27,0,0,0-1.14,3.86,3.49,3.49,0,0,0,2.19,3.11l.68.22-.41.59a12.15,12.15,0,0,1-3.48,3.23c-1.31.86-2.69,1.53-4,2.26a22.06,22.06,0,0,0-3.72,2.43,10.23,10.23,0,0,0-1.46,1.57,2.21,2.21,0,0,0-.42,1.75c.28,1.21,1.5,2.22,2.69,3a28.12,28.12,0,0,0,4,2.09l2.06.88c.34.13.71.24,1.11.42a2.54,2.54,0,0,1,.62.37l.45.38a1,1,0,0,1,.36.51.92.92,0,0,1-.14.7l-.3.49c-.16.3-.38.69-.59,1-.43.67-.91,1.29-1.38,1.89a50.39,50.39,0,0,0-8.42,15.84,72,72,0,0,0-2.63,17.87l-1.07-.6a14.85,14.85,0,0,1,6.63-2.49l1.18-.13-.47,1.08a57.26,57.26,0,0,0-3.48,11.53c-.4,2-.71,4-1,6s-.53,4-.67,6.05a55.59,55.59,0,0,1-1,6.13l-1.24,6c-.43,2-.89,3.92-1.24,5.84a12.62,12.62,0,0,0-.08,5.32l-2.29-.18c.74-1.08,1.43-1.93,2.17-2.86s1.46-1.83,2.22-2.71,1.54-1.77,2.34-2.64c.41-.43.82-.86,1.25-1.28l.69-.62.4-.31a2.88,2.88,0,0,1,.61-.33l1.1-.47-.14,1.25c-.36,3.4-.84,6.79-.91,10.21a91,91,0,0,0,.38,10.19A64.41,64.41,0,0,0,136,307a35.81,35.81,0,0,0,3.58,8.92l-1.94.15A10.55,10.55,0,0,1,141.2,313l.74-.4.23.68a25.93,25.93,0,0,0,3.8,7.24,19.58,19.58,0,0,0,2.72,3l3.1,2.77,6.22,5.52a74.11,74.11,0,0,0,6.31,5.21,21.73,21.73,0,0,0,7.08,3.35,56.9,56.9,0,0,0,8,1.37q4.08.46,8.19.75c2.74.19,5.47.27,8.21.54l-1.36,1.42c0-1.2.08-2.41.13-3.62l.11-2.71,1.6,1.93a37.79,37.79,0,0,0,3.92,4.08,15.55,15.55,0,0,0,2.23,1.74c.83.48,1.75.81,2.61,1.21a18.65,18.65,0,0,1,2.4,1.45c.79.51,1.58,1,2.39,1.47,1.61.95,3.25,1.84,4.94,2.66a27.62,27.62,0,0,0,10.37,3.2c3.47.2,7.14-1,9.27-3.58l3.66-4.49-1.69,5.51-1.25,4L234,355.89a79.56,79.56,0,0,0,32.68-7.63l1.71-.8-.76,1.71-2.37,5.38-.78-.86c3.28-1,6.5-2.23,9.68-3.56s6.28-2.8,9.32-4.43,6-3.36,8.88-5.24a8.41,8.41,0,0,0,1.87-1.85,8.17,8.17,0,0,1,1.8-1.9l2.07-1.5,2-1.55,2.5-1.89,0,3.09,0,5.32-2.22-1.26A132.68,132.68,0,0,0,314,330.65l6.34-4.8c2-1.6,3.72-3.77,6.15-5.21l.56-.34.16.61a16,16,0,0,0,.86,2.5,7.91,7.91,0,0,0,1.44,2.1l-1.09,0c1.11-2,1.95-4.21,2.85-6.32s1.89-4.16,2.88-6.21l3-6.16A63,63,0,0,0,339.79,300.5Zm2,.58c-.56,2.28-1.15,4.57-1.82,6.83a50.61,50.61,0,0,1-2.43,6.67,35.77,35.77,0,0,1-3.5,6.17c-1.38,1.94-3,3.72-4.44,5.55l-.61.75-.48-.71a12.85,12.85,0,0,1-1.26-2.55c-.34-.87-.62-1.74-.92-2.59l.73.27c-2.13,1.41-3.68,3.62-5.72,5.47l-6.1,5.27A113,113,0,0,1,302,341.5l-2.12,1.27-.09-2.53-.18-5.32,2.52,1.2c-1.38,1.08-2.77,2.14-4.19,3.16s-3.49,1.11-4.91,2.1q-4.37,2.83-9,5.29t-9.38,4.52c-3.19,1.38-6.45,2.6-9.74,3.72l-1.33.45.55-1.31,2.25-5.43.95.91a82.06,82.06,0,0,1-33.23,8.53l-1.48.05.41-1.44,1.15-4.07,2,1a11.37,11.37,0,0,1-5.08,3.65,15.26,15.26,0,0,1-6.08.94,29.63,29.63,0,0,1-11.34-3.34q-2.62-1.25-5.15-2.7c-.84-.49-1.67-1-2.49-1.51a13,13,0,0,1-2.34-1.72c-.7-.69-1.31-1.48-2-2.15a27.68,27.68,0,0,0-2.24-1.81c-1.52-1.17-3.06-2.33-4.58-3.54l1.72-.78c.18,1.19.38,2.38.54,3.58l.17,1.32-1.54.1a58.74,58.74,0,0,1-8.39-.18q-4.18-.3-8.35-.89a48.82,48.82,0,0,1-8.35-1.73,23.92,23.92,0,0,1-7.7-4,74.1,74.1,0,0,1-6.23-5.69l-6-5.8-3-2.89a21.53,21.53,0,0,1-2.76-3.27c-1.63-2.34-2.62-5-4-7.38l1,.28a7.82,7.82,0,0,0-2.28,3.16l-.65,1.63-1.29-1.47c-.3-.35-.61-.7-.9-1.06a8,8,0,0,1-.83-1.11c-.23-.4-.47-.79-.68-1.2l-.32-.61-.26-.63a28.05,28.05,0,0,1-1.54-5.14,51.35,51.35,0,0,1-.84-10.45c0-3.47.23-6.9.52-10.32s.31-6.86.49-10.28l1,.78c0,.06,0,0-.14.12l-.27.24c-.19.19-.38.39-.56.59-.36.42-.72.86-1.07,1.31-.7.9-1.38,1.82-2.05,2.76l-2,2.82c-.63.92-1.33,1.94-1.84,2.8L125,290.47l-.84-2.62a7.69,7.69,0,0,1-.46-1.8l-.1-.88v-.83a19.87,19.87,0,0,1,.31-3.23,37.8,37.8,0,0,1,1.5-6.06c.64-1.95,1.41-3.85,2.11-5.75a27.74,27.74,0,0,0,1.6-5.77c.22-2,.37-4.07.6-6.1s.52-4.05.89-6.07a56,56,0,0,1,3.4-11.84l.71.95a14.06,14.06,0,0,0-6,2.26l-1.13.77.06-1.36A73.5,73.5,0,0,1,130.33,224a42.27,42.27,0,0,1,3.64-8.5q1.13-2,2.39-3.94l1.29-1.91c.45-.65.94-1.25,1.41-1.84s.92-1.19,1.32-1.8c.21-.32.37-.59.57-1l.3-.49c.05-.06,0-.1,0,.16s.06.11,0,.08l-.43-.36a1.24,1.24,0,0,0-.35-.21c-.3-.14-.65-.25-1-.39l-2.13-.93a28.46,28.46,0,0,1-4.1-2.2,12.05,12.05,0,0,1-1.86-1.51,4.63,4.63,0,0,1-1.27-2.22,3.27,3.27,0,0,1,.59-2.57,10.64,10.64,0,0,1,1.65-1.76,22.61,22.61,0,0,1,3.92-2.54c2.67-1.44,5.47-2.78,7.1-5.18l.28.81a4.13,4.13,0,0,1-2.08-1.59,5.89,5.89,0,0,1-.89-2.39,6.74,6.74,0,0,1,1.11-4.89,10.1,10.1,0,0,1,3.9-3,32.15,32.15,0,0,1,4.45-1.61l-.18,1.3-3.39-2.23-1.64-1.09,2-.21a8,8,0,0,0,5.58-3.7,11.39,11.39,0,0,0,1.53-3.18,12.19,12.19,0,0,0,.23-3.52c-.05-1.23-.13-2.48-.15-3.76a18.61,18.61,0,0,1,.09-2,4.75,4.75,0,0,1,.65-2.06,4.28,4.28,0,0,1,1.76-1.31,15.24,15.24,0,0,1,1.86-.65,38.12,38.12,0,0,1,3.73-.79l3.71-.58c1.18-.2,2.45-.51,3.67-.73,2.47-.49,4.94-.9,7.43-1.26,5-.73,10-1.2,15-1.44l-.2,1-5-2.41-.51-.24.28-.49a5.54,5.54,0,0,1,2.21-2,11.4,11.4,0,0,1,2.72-1c1.86-.44,3.72-.5,5.49-.8a12.73,12.73,0,0,0,2.57-.65,5.1,5.1,0,0,0,2.07-1.36,3.48,3.48,0,0,0,.85-2.2,2,2,0,0,0-1.07-1.82l-1.06-.59,1.16-.33a38.42,38.42,0,0,1,13.37-1.31l-.47.71a22.59,22.59,0,0,1-2.37-7.82l-.05-.46.45-.06a12.47,12.47,0,0,1,6.57,1.07,33,33,0,0,1,5.72,3.2c1.81,1.21,3.54,2.52,5.29,3.75a24,24,0,0,0,2.69,1.68c.89.48,2,.79,2.29.12a3.8,3.8,0,0,0,.35-1.36c.1-.55.15-1.11.29-1.65a10,10,0,0,1,1.35-3.1l.49-.71.6-.61a8,8,0,0,1,1.32-1.08,15.46,15.46,0,0,1,1.5-.8,13.54,13.54,0,0,1,1.59-.54,22.5,22.5,0,0,1,6.57-.63,56.32,56.32,0,0,1,6.5.64l.47.07-.05.48a22.66,22.66,0,0,1-2.37,7.82l-.49-.74a38.5,38.5,0,0,1,13.38,1.31l1.21.34-1.11.62a2,2,0,0,0-1.06,1.8,3.43,3.43,0,0,0,.85,2.18,5.06,5.06,0,0,0,2.06,1.36,12.64,12.64,0,0,0,2.56.65c1.77.3,3.64.36,5.5.8a11.56,11.56,0,0,1,2.72,1,5.59,5.59,0,0,1,2.22,2l.29.51-.53.25-5,2.44-.22-1.11c5.14.19,10.33.33,15.5.78a67.34,67.34,0,0,1,15.39,2.86A30.89,30.89,0,0,1,314,152a18,18,0,0,1,5.66,5.86,17.69,17.69,0,0,1,.94,1.84c.26.62.5,1.23.73,1.84.47,1.22.9,2.41,1.41,3.53a11.73,11.73,0,0,0,1.83,3,7.5,7.5,0,0,0,.57.56,4.48,4.48,0,0,1,.49.69,1.81,1.81,0,0,0,.63.63,4.94,4.94,0,0,0,.83.25l.75.24-.38.59a5.48,5.48,0,0,0-.53,4.52,16.07,16.07,0,0,0,2.17,4.47c.92,1.4,2,2.73,3,4.15s2,2.83,2.87,4.32a33.92,33.92,0,0,1,4.09,9.56,21.28,21.28,0,0,1,0,10.4,9.55,9.55,0,0,1-.42,1.28,11.09,11.09,0,0,1-.64,1.18c-.46.74-1,1.44-1.36,2.16a3.74,3.74,0,0,0-.53,2.24,6.2,6.2,0,0,0,.8,2.26c.4.73.86,1.47,1.25,2.26s.77,1.55,1.11,2.34c.73,1.57,1.36,3.18,1.95,4.8A64.87,64.87,0,0,1,345,247.31l0,.64-.63-.13a9.73,9.73,0,0,1-4.94-2.63l.9-.47c.36,2,.72,3.92,1.14,5.87s1,3.88,1.48,5.81,1,3.88,1.36,5.84l1.14,5.89c.71,3.94,1.35,7.9,1.87,11.88a109.43,109.43,0,0,1,1,12v.62l-.59-.07a9.26,9.26,0,0,1-4.88-2.14l.94-.32A105.87,105.87,0,0,1,341.75,301.08Z"/><path class="cls-9" d="M211.55,301a9.59,9.59,0,0,0,2,7.49,20,20,0,0,0,6.16,5,35.38,35.38,0,0,0,18.74,5A25.2,25.2,0,0,0,256,310.83c2.22-2.42,4-5.76,3.06-8.92a24.64,24.64,0,0,0-8.52-12.84c-3.62-2.83-8.36-3.86-13-4a29.21,29.21,0,0,0-16.08,3.67C216.7,291.59,212.65,295.57,211.55,301Z"/><path d="M212.14,301.15a9,9,0,0,0,1.93,7,19,19,0,0,0,6,4.81,36.73,36.73,0,0,0,14.77,4.77,26.6,26.6,0,0,0,15-3,22,22,0,0,0,6-4.75c1.64-1.91,2.9-4.3,2.76-6.7a14.25,14.25,0,0,0-1-3.62,24.12,24.12,0,0,0-6.65-9.41,17,17,0,0,0-6.74-3.57,29.8,29.8,0,0,0-7.72-1,27.83,27.83,0,0,0-15,3.75,24.88,24.88,0,0,0-6,5A15.13,15.13,0,0,0,212.14,301.15Zm-1.18-.23a16.23,16.23,0,0,1,3.69-7.31,26,26,0,0,1,6.25-5.17,29.25,29.25,0,0,1,15.54-4,31,31,0,0,1,8.05,1,18.35,18.35,0,0,1,7.25,3.78,25,25,0,0,1,5.26,6.23,26.53,26.53,0,0,1,1.82,3.66c.25.64.48,1.28.68,1.93a9.2,9.2,0,0,1,.45,2.1,8.86,8.86,0,0,1-.8,4.21,14.55,14.55,0,0,1-2.25,3.52,23.56,23.56,0,0,1-6.39,5.12,27.94,27.94,0,0,1-15.83,3.15,37.54,37.54,0,0,1-15.32-5,20.7,20.7,0,0,1-6.31-5.2A10.21,10.21,0,0,1,211,300.92Z"/><path class="cls-9" d="M210.11,219q-7.05,27.54-11.36,55.67c-1.18,7.72-1.82,16.71,3.72,22.22,4,4,10.16,4.87,15.83,5,7,.13,15.45-1.64,17.75-8.24a21.22,21.22,0,0,0,38.3-6.08c1.71-6.41.35-13.2-1-19.7l-10.6-50.25c-2.3-10.89-17.06-17.35-28.18-16.84S212.87,208.25,210.11,219Z"/><path d="M286.39,196.79,288,229.25c.13,2.47-2.21,4.49-5.19,4.49s-5.5-2-5.6-4.49l-.49-12.14c3.68,0,6.41-5.34,6.11-11.86a17.18,17.18,0,0,0-2.47-8.46Z"/><path d="M198.34,196.8,197,229.33c-.11,2.47-2.64,4.5-5.62,4.5s-5.32-2-5.18-4.5l.64-12.17c3.69,0,6.93-5.35,7.23-11.88a16.14,16.14,0,0,0-1.67-8.48Z"/><rect class="cls-10" x="271.8" y="184.51" width="32.01" height="6.72" rx="3.36"/><rect class="cls-10" x="178.77" y="184.51" width="32.01" height="6.72" rx="3.36" transform="translate(389.55 375.75) rotate(180)"/><path d="M210.92,219.24q-3.69,14.28-6.65,28.73c-2,9.62-3.71,19.32-5.15,29a49.07,49.07,0,0,0-.49,7.25,22.91,22.91,0,0,0,1.11,7.06,13.31,13.31,0,0,0,3.86,5.79,16.06,16.06,0,0,0,6.29,3.17,33.57,33.57,0,0,0,7.16,1,35.09,35.09,0,0,0,7.25-.34,19.83,19.83,0,0,0,6.76-2.25,9.75,9.75,0,0,0,4.47-5.19h0l.31-1,.66.85a22.76,22.76,0,0,0,11.74,7.86,19.58,19.58,0,0,0,13.75-1,20.7,20.7,0,0,0,9.89-9.7c2.1-4.21,2.29-9.17,1.71-14s-1.79-9.73-2.76-14.64l-3-14.69-5.9-29.43,1.64-.35,6.49,29.3,3.18,14.67,1.58,7.34c.53,2.45,1,4.95,1.33,7.49a36.62,36.62,0,0,1,.16,7.77,27.37,27.37,0,0,1-.7,3.89,22.68,22.68,0,0,1-6,10.14,23,23,0,0,1-6.49,4.5,21,21,0,0,1-7.68,2,21.65,21.65,0,0,1-7.84-1,22.25,22.25,0,0,1-6.92-3.67,20.29,20.29,0,0,1-5-5.9l1-.12h0a10.87,10.87,0,0,1-4.93,5.8,20.9,20.9,0,0,1-7.15,2.43,36.68,36.68,0,0,1-7.47.39,34.23,34.23,0,0,1-7.44-1,17.35,17.35,0,0,1-6.8-3.39,14.62,14.62,0,0,1-4.26-6.33,24.19,24.19,0,0,1-1.23-7.46,51.45,51.45,0,0,1,.47-7.46c1.4-9.78,3.11-19.47,5-29.15s4.1-19.28,6.52-28.83Z"/><path class="cls-11" d="M219.8,260.6a16.51,16.51,0,0,1,5.91-.55l17.52.46c4.66.13,9.69.38,13.31,3.32,2.1,1.7,3.55,4.47,3,7.11a10.46,10.46,0,0,1-2.14,3.92,79.53,79.53,0,0,1-21,19.07,68.22,68.22,0,0,1-23.19-18.3C208.39,269.8,213.47,262.8,219.8,260.6Z"/><path d="M246,282.36a3.68,3.68,0,0,1-2.3-.76,3,3,0,0,1-.8-2.86,5.74,5.74,0,0,1,1.55-2.64c1.83-1.91,7.94-5.72,9.39-1.91C255.48,278.38,249.54,282.5,246,282.36Z"/><path d="M224.12,282.36a3.69,3.69,0,0,0,2.31-.76,3,3,0,0,0,.8-2.86,5.74,5.74,0,0,0-1.55-2.64c-1.83-1.91-7.94-5.72-9.39-1.91C214.69,278.38,220.63,282.5,224.12,282.36Z"/><path class="cls-12" d="M252.1,309.4l-31,1"/><path class="cls-6" d="M154.59,274a14,14,0,0,0-5.57,3.62c3,.26,6.14.58,8.5,2.42a17.16,17.16,0,0,0-3,5.61l6.6,2.4a1.54,1.54,0,0,1,.68.39,1.62,1.62,0,0,1,.22,1.09,15.5,15.5,0,0,0,4.7,11.51"/><path d="M154.73,274.44a13.63,13.63,0,0,0-5.4,3.51h0l-.27-.7a16.57,16.57,0,0,1,4.52.48,9.68,9.68,0,0,1,4.19,2h0l.33.27-.26.32A16.7,16.7,0,0,0,155,285.8h0l-.25-.51c1.8.35,3.55.83,5.29,1.34l1.31.39a4.72,4.72,0,0,1,.8.31,2,2,0,0,1,.93,1.12,3.34,3.34,0,0,1,.14,1v.65c0,.41,0,.83.08,1.25a18.1,18.1,0,0,0,1.25,4.87,23.35,23.35,0,0,0,2.53,4.53l-.58.61a12.16,12.16,0,0,1-3.8-4.25A13.9,13.9,0,0,1,161,291.6a14.13,14.13,0,0,1-.07-1.46c0-.23,0-.5,0-.71a2.07,2.07,0,0,0,0-.33s.13.15.1.1a3.21,3.21,0,0,0-.46-.21l-1.25-.53c-1.66-.73-3.31-1.49-4.92-2.38l-.36-.2.1-.31h0a17.66,17.66,0,0,1,3-5.74l.07.59h0a11.08,11.08,0,0,0-3.92-1.6c-1.41-.31-2.87-.43-4.34-.73l-.83-.17.56-.53h0a14.55,14.55,0,0,1,5.73-3.72Z"/><path class="cls-6" d="M316.75,285.66a14.05,14.05,0,0,1,5,4.41c-3-.19-6.16-.34-8.76,1.14a17,17,0,0,1,2.08,6l-6.88,1.39a1.47,1.47,0,0,0-.73.29,1.58,1.58,0,0,0-.37,1.05,15.52,15.52,0,0,1-6.36,10.68"/><path d="M317,285.29a14.57,14.57,0,0,1,5.11,4.54h0l.47.59-.84.07c-1.5.13-3,.13-4.38.26a20.11,20.11,0,0,0-4.14.82h0l.16-.57a17.51,17.51,0,0,1,2.13,6.12h0l.05.34-.38.13c-1.74.57-3.49,1.07-5.24,1.53l-1.32.34a2.43,2.43,0,0,0-.49.14c-.06.05.08,0,.06,0l0,.35-.09.71a13.79,13.79,0,0,1-.25,1.43,14.93,14.93,0,0,1-2.36,5.29,10.34,10.34,0,0,1-4.46,3.59l-.48-.69a40.5,40.5,0,0,0,3.09-4.15,16.45,16.45,0,0,0,2.09-4.57,11,11,0,0,0,.29-1.23l.11-.64a3.15,3.15,0,0,1,.28-1,1.83,1.83,0,0,1,1-.92,4.69,4.69,0,0,1,.83-.18l1.35-.2c1.8-.26,3.6-.49,5.42-.63l-.33.47h0a16.76,16.76,0,0,0-2-5.82l-.18-.32.34-.26h0a7.58,7.58,0,0,1,4.43-1.57,16.39,16.39,0,0,1,4.55.38l-.37.66h0a13.56,13.56,0,0,0-4.82-4.27Z"/><polygon class="cls-13" points="146.29 380.92 232 399.87 242 399.87 325.93 380.92 327.56 365.64 240.34 392.77 231.33 392.77 146.29 365.64 146.29 380.92"/><rect class="cls-13" x="229.46" y="389.12" width="14.4" height="14.4" rx="4.61" transform="translate(227.66 -65.2) rotate(29.73)"/><polygon class="cls-13" points="230.65 394.6 225.29 486.33 267.93 484.98 242.86 394.6 230.65 394.6"/><path class="cls-13" d="M310.5,132.16A72.42,72.42,0,0,1,308,144.51l-133.1-21.18s-.11-2.36.12-6.17c1.17-18,10.23-68.34,76.12-57.36C310.12,69.63,313,111.12,310.5,132.16Z"/><path class="cls-14" d="M310.5,132.16A72.42,72.42,0,0,1,308,144.51l-133.1-21.18s-.11-2.36.12-6.17c6.12-1.38,19.29-3.3,45.46-3.34C258.71,113.76,302.29,128.58,310.5,132.16Z"/><path class="cls-13" d="M134.06,129.62c2.16-13.82,37.56-6.82,48.69-5.05s144,22.38,151.44,25.21,11,6.36,8.13,14.14-32.88,5.3-41,5-147.09-17.33-147.09-17.33S131.23,147.65,134.06,129.62Z"/></g></svg>