<svg id="Layer_1" data-name="Layer 1" xmlns="http://www.w3.org/2000/svg" xmlns:xlink="http://www.w3.org/1999/xlink" viewBox="0 0 480 480"><defs><style>.cls-1,.cls-14{fill:none;}.cls-2{clip-path:url(#clip-path);}.cls-15,.cls-3{fill:#503629;}.cls-3{stroke:#140e0a;stroke-width:5.46px;}.cls-14,.cls-18,.cls-20,.cls-21,.cls-3,.cls-8{stroke-miterlimit:10;}.cls-4{clip-path:url(#clip-path-2);}.cls-5{fill:#36686e;}.cls-6{fill:#00030a;}.cls-7,.cls-8{fill:#559298;}.cls-14,.cls-18,.cls-20,.cls-21,.cls-8{stroke:#000;}.cls-8{stroke-width:3.14px;}.cls-9{fill:#e09d7e;}.cls-10{opacity:0.5;}.cls-11{fill:#c9815e;}.cls-12{fill:#e6b198;}.cls-13{fill:#9c6044;}.cls-14{stroke-width:0.65px;}.cls-16{fill:#214835;}.cls-17{clip-path:url(#clip-path-3);}.cls-18{fill:#101317;stroke-width:0.71px;}.cls-19{clip-path:url(#clip-path-4);}.cls-20{fill:#242a39;stroke-width:3.11px;}.cls-21{fill:#f1f3f4;stroke-width:1.82px;}.cls-22{fill:#a3a28c;}.cls-23{fill:#c7b299;}.cls-24{fill:#59a28c;}</style><clipPath id="clip-path"><rect class="cls-1" x="516.17" y="26.17" width="427.65" height="427.65" rx="150.64" transform="translate(383.52 -445.89) rotate(45)"/></clipPath><clipPath id="clip-path-2"><rect class="cls-1" x="26.17" y="26.17" width="427.65" height="427.65" rx="150.64" transform="translate(240 -99.41) rotate(45)"/></clipPath><clipPath id="clip-path-3"><rect class="cls-1" x="516.17" y="-463.83" width="427.65" height="427.65" rx="150.64" transform="translate(37.04 -589.41) rotate(45)"/></clipPath><clipPath id="clip-path-4"><rect class="cls-1" x="42.53" y="-429.39" width="394.93" height="394.93" rx="139.11" transform="translate(234.29 101.78) rotate(-45)"/></clipPath></defs><title>CIMPANZEE</title><g class="cls-2"><path class="cls-3" d="M724.84,589.08,472.78,413.3l135.76-94.68c64.23-44.79,168.37-44.79,232.6,0L976.9,413.3Z"/></g><g class="cls-4"><path class="cls-5" d="M389.66,398.4H100.33V343.59c0-18.37,289.33-18.37,289.33,0Z"/><path d="M390,398.76l-289.69.14h-.5v-.5h0l.07-50.47V343.6l.06-.49a3.44,3.44,0,0,1,1-1.53,10.56,10.56,0,0,1,2.78-1.73,27.83,27.83,0,0,1,3-1.12A91.06,91.06,0,0,1,119.05,336c8.32-1.36,16.7-2.22,25.08-3,16.77-1.45,33.59-2.26,50.4-2.81s33.64-.79,50.47-.8,33.65.23,50.47.75,33.63,1.34,50.41,2.77c8.38.74,16.76,1.61,25.08,3a92.77,92.77,0,0,1,12.37,2.77,28,28,0,0,1,3,1.14,10.6,10.6,0,0,1,2.8,1.74,3.35,3.35,0,0,1,.95,1.56l.06.49V348Zm-.71-.71-.12-50.14V343.6l0-.29a2.37,2.37,0,0,0-.68-1.08,9.78,9.78,0,0,0-2.53-1.56,26.62,26.62,0,0,0-2.9-1.1,90.19,90.19,0,0,0-12.23-2.75c-8.28-1.37-16.64-2.25-25-3-16.75-1.45-33.55-2.26-50.36-2.81s-33.62-.79-50.44-.8-33.64.23-50.44.75S161,332.3,144.2,333.74c-8.38.74-16.74,1.63-25,3a91.9,91.9,0,0,0-12.24,2.76,25.86,25.86,0,0,0-2.9,1.1,9.69,9.69,0,0,0-2.55,1.58,2.48,2.48,0,0,0-.7,1.11l0,.3v4.33l.07,50.47h0l-.5-.5Z"/><path class="cls-6" d="M176.84,393.52c-2.57,115.85,132.58,114.68,135,0l-14-45.43H187.52Z"/><path class="cls-7" d="M206.36,370.55c-32.35-31.45-87.16-35.94-106-28.75S2.83,446,2.83,446s175.67,26.51,183.76,26.51,51.47,20.66,51.47,20.66C228,451.47,237.81,399.3,206.36,370.55Z"/><path d="M205.36,371.61a103.16,103.16,0,0,0-26.07-17.83,135.07,135.07,0,0,0-30-10.38,128.67,128.67,0,0,0-31.58-3.19,61.4,61.4,0,0,0-15.53,2.25,16.47,16.47,0,0,0-1.79.65c-.55.28-1.11.5-1.66.83l-1.64,1c-.55.34-1.06.76-1.6,1.14-2.13,1.52-4.16,3.24-6.16,5-8,7-15.43,14.76-22.79,22.54S52.06,389.38,45,397.41Q23.71,421.53,3.22,446.34h0l-.31-.81q59.64,9,119.32,17.72l29.85,4.3c9.95,1.39,19.91,2.83,29.87,4,1.26.18,2.48.26,3.71.37l1.93.16c.65.1,1.28.22,1.9.37a72.49,72.49,0,0,1,7.24,2.27c4.75,1.72,9.4,3.64,14,5.6,9.25,3.94,18.41,8.11,27.51,12.4l-.7.57h0c-2.61-10.52-3.92-21.29-5-32s-1.79-21.5-3.13-32.17-3.25-21.26-6.94-31.25S213.26,378.67,205.36,371.61Zm2-2.12a61.84,61.84,0,0,1,10.46,12.73,75.64,75.64,0,0,1,7,14.83c3.63,10.33,5.4,21.12,6.59,31.86s1.78,21.52,2.66,32.26,2,21.44,4.46,31.91h0l.22,1-.92-.44c-9.09-4.28-18.24-8.45-27.48-12.38-4.62-1.95-9.26-3.87-14-5.57a70.1,70.1,0,0,0-7.13-2.25c-.6-.15-1.2-.26-1.8-.35l-1.83-.15c-1.27-.11-2.55-.2-3.79-.37-10-1.21-19.94-2.65-29.9-4l-29.85-4.3q-59.7-8.69-119.33-17.72l-.87-.13.55-.68h0q20.19-25.05,41.2-49.45c7-8.1,14.14-16.14,21.43-24s14.7-15.67,22.73-22.9c2-1.79,4.07-3.56,6.29-5.18.56-.4,1.08-.83,1.67-1.2l1.77-1.12c.59-.37,1.29-.66,1.93-1a17,17,0,0,1,2-.74,63.63,63.63,0,0,1,16.18-2.51,131.67,131.67,0,0,1,32.3,3A134.54,134.54,0,0,1,180.67,351a108.85,108.85,0,0,1,14.1,8.18A95.56,95.56,0,0,1,207.35,369.49Z"/><path class="cls-8" d="M281.64,372.35c32.35-31.45,89.15-36.84,108-29.66s95.51,105.14,95.51,105.14-175.67,26.5-183.76,26.5S249.94,495,249.94,495C260,453.27,250.19,401.1,281.64,372.35Z"/><path class="cls-6" d="M248.54,109.16c9.45.68,68.5,3.29,91.14,54,16.88,37.81,12.92,56.38,9.55,80.68-1.31,9.46-46.72,105.8-52.12,110.52s-33.72,24.17-53.3,24.17-55.2-24.16-57.22-26.86S152,264.53,148,256.43s-25.16-17.07-21.61-59.5c2.23-26.61,39.16-82.36,72.24-85.07S248.54,109.16,248.54,109.16Z"/><path class="cls-9" d="M243.91,374.83c-22.8,0-54.33-19.89-55.71-26.07-.13-.59-.57-2.34-1.25-5-28.16-111.26-28.47-144.84-23.76-153.42,3.16-5.76,10.69-10.05,22.37-12.76,11.32-2.61,24.18-3.16,33-3.16,13.45,0,23.45,1.22,25.27,1.9l.12,0,.12,0c1.82-.68,11.82-1.9,25.26-1.9,8.79,0,21.65.55,33,3.16,11.68,2.7,19.21,7,22.37,12.76,4.7,8.58,4.4,42.16-23.77,153.42-.67,2.66-1.12,4.41-1.25,5C298.24,354.94,266.71,374.83,243.91,374.83Z"/><path d="M269.3,174.75c13.95,0,47.24,1.54,55,15.75,4.68,8.53,4.35,42-23.8,153.18-.67,2.66-1.11,4.42-1.25,5-.57,2.56-8,8.87-19.57,15-12.94,6.87-26,10.81-35.8,10.81s-22.86-3.94-35.8-10.81c-11.53-6.12-19-12.43-19.58-15-.13-.59-.57-2.35-1.25-5C159.14,232.53,158.81,199,163.49,190.5c7.79-14.21,41.08-15.75,55-15.75,13.21,0,23.39,1.23,25.14,1.88l.24.09.24-.09c1.74-.65,11.92-1.88,25.15-1.88h0m0-.67c-12.85,0-23.34,1.15-25.38,1.92-2-.77-12.53-1.92-25.38-1.92-21.07,0-48.51,3.1-55.64,16.1-11.47,20.93,23.63,152.58,25,158.65s33.08,26.33,56,26.33,54.68-20.25,56-26.33,36.46-137.72,25-158.65c-7.12-13-34.56-16.1-55.63-16.1Z"/><g class="cls-10"><path d="M325.64,177.61c-6.42,3.08-13.5,4.45-20.54,5.55-33.16,5.21-66.89,5.21-100.46,5.2-13.66,0-28.57-.45-39-9.23-2-1.65-3.86-4.18-3-6.58,1-2.6,4.39-3.08,7.16-3.14l117.13-2.58c9.24,0,18.51-.41,27.75-.62l14.05-.31c1.94,0,9.89-.5,7.68,3.65C334.54,173.08,329.09,176,325.64,177.61Z"/></g><path class="cls-11" d="M301.91,186.43c6.45.41,11.56,9.57,13,19.31s.11,19.92-1.37,29.66q-3.7,24.48-8.45,48.55a19.22,19.22,0,0,1-1.62,5.41c-1.91,3.47-5.38,3.48-8.22,2.33-14.71-6-36.81-38.83-36.81-38.83s-24.26,5.86-33.24-1.39c-8,15.6-17.5,27.88-29.57,34.86-2.17,1.26-4.48,2.37-6.78,1.88-3.16-.66-5.74-4.19-7.81-7.95-8.59-15.59-11.59-36.88-12.07-57.36-.22-9.53.26-20,4.42-27,3.73-6.28,9.6-8.31,15.11-8.57,16.28-.75,31.86,11,48.14,11.73C258.47,200.1,280.11,185.06,301.91,186.43Z"/><path class="cls-11" d="M301.61,323.82c-1.55,6.65-9.44,25.31-14.37,32.51a36.85,36.85,0,0,1-20.79,14.79c-21.45,5.72-30.44,6.62-45.08.09a43.35,43.35,0,0,1-8.79-4.88c-6.32-4.82-12.81-9.81-16.85-16.66-3.15-5.32-4.61-11.43-6.43-17.34-2.09-6.77-3.1-13.24-4.51-20.19s-3.13-14.56-.39-21.1a16.07,16.07,0,0,1,6.88-8.2c3.24-1.72,7.07-1.81,10.73-1.75,16.31.29,32.46,2.87,48.61,4.89,8.13,1,16.28,1.9,24.47,2.27,4.06.18,8.13.24,12.2.12q3.06-.09,6.1-.31c1.55-.11,4-1,5.43-.38,4.58,2,5.48,8.29,5.48,8.29C305.28,295.82,303.15,317.18,301.61,323.82Z"/><path class="cls-12" d="M241,242.92h.34c5.28-.05,9.87-4.8,15.7-4.44,5.21.32,7.66,6.34,9.42,10.84,5.21-.52,8,4.6,11,7.88,3.21,3.54,6.77,6.79,8.81,11.29,3.38,7.42,3.38,10.12,3.38,10.12s12.82,3.38,11.47,14.85,0,11.48,0,11.48v8.78c0,1.35-9.45,35.1-15.52,41.85s-25,19.58-44.56,19.58-43.21-23-45.24-27.68-4.05-20.25-4.05-20.25-3.37-9.45-4-12.15-2-24.31,0-28.36,8.78-9.45,8.78-10.8,11.48-14.18,12.15-18.23,6.75-4.05,8.1-6.07,4.73-12.16,9.46-12.83C231.82,238,236,242.75,241,242.92Z"/><path d="M241,242.42c2.54.07,5-1,7.41-2.12a20,20,0,0,1,7.79-2.24,7.31,7.31,0,0,1,4,1,10.29,10.29,0,0,1,3,2.87,32,32,0,0,1,3.54,7.25h0l-.34-.21a7.42,7.42,0,0,1,4.87,1.24,17.37,17.37,0,0,1,3.63,3.42c1.05,1.27,2,2.56,3.14,3.75l3.34,3.59a28.3,28.3,0,0,1,5.51,8.19c.66,1.5,1.28,3,1.83,4.57a21,21,0,0,1,1.2,4.86l-.25-.33a20.32,20.32,0,0,1,7.17,3.84A12.75,12.75,0,0,1,301.2,289l.13.5.06.51.11,1a15.59,15.59,0,0,1,0,2.05c-.1,1.36-.28,2.66-.39,4s-.21,2.66-.22,4c0,.66,0,1.32,0,2a9.66,9.66,0,0,0,.13,1,2.7,2.7,0,0,0,.11.43.67.67,0,0,0,.08.17s.11.08-.06,0h0l.34.34c.14,1.86.2,3.72.3,5.59.05.93.07,1.86.1,2.79a5.5,5.5,0,0,1-.17,1.55l-.29,1.39c-.83,3.66-1.85,7.25-2.92,10.83s-2.25,7.12-3.48,10.65-2.55,7-4.06,10.49c-.38.86-.76,1.73-1.19,2.57s-.83,1.71-1.34,2.54l-.73,1.25-.91,1.22a8.67,8.67,0,0,1-1,1.11c-.34.34-.66.71-1,1a62.4,62.4,0,0,1-9,6.94,81.61,81.61,0,0,1-9.91,5.46,75.85,75.85,0,0,1-10.65,3.91A56.66,56.66,0,0,1,244,376.18a31.77,31.77,0,0,1-11.43-1.11c-7.4-2.06-14-5.89-20.17-10.23a98.12,98.12,0,0,1-8.79-7.07q-2.1-1.89-4.08-3.93a40.41,40.41,0,0,1-3.73-4.35,9.29,9.29,0,0,1-.82-1.32,12.5,12.5,0,0,1-.57-1.43c-.3-.93-.55-1.85-.78-2.77-.45-1.84-.8-3.68-1.15-5.52-.67-3.69-1.23-7.38-1.73-11.09l.05.2c-.83-2.36-1.65-4.72-2.44-7.1-.4-1.19-.79-2.38-1.16-3.59-.17-.62-.37-1.2-.5-1.9s-.19-1.3-.26-1.94c-.48-5-.69-10-.71-15.06a74.11,74.11,0,0,1,.3-7.58c.09-.64.13-1.27.27-1.93l.21-1c.11-.34.24-.69.37-1a16.3,16.3,0,0,1,2.21-3.27c1.63-2,3.45-3.73,5.13-5.52a15.05,15.05,0,0,0,1.15-1.35,1.72,1.72,0,0,0,.2-.3s.07-.11.07-.12,0,0,0,0a2.83,2.83,0,0,1,.51-1.22c.71-1.13,1.48-2.1,2.24-3.1,1.52-2,3.07-3.94,4.57-5.93a57.47,57.47,0,0,0,4.13-6.11,10,10,0,0,0,.72-1.58l.23-.89a4.3,4.3,0,0,1,.42-1,6.75,6.75,0,0,1,3.19-2.58c1.18-.55,2.4-.92,3.44-1.44a2.71,2.71,0,0,0,1.16-.94c.28-.46.55-1,.82-1.59a55.68,55.68,0,0,1,3.52-6.7,15.28,15.28,0,0,1,2.46-3,6.85,6.85,0,0,1,1.68-1.15,3.77,3.77,0,0,1,1-.35,4.46,4.46,0,0,1,1-.14,14.83,14.83,0,0,1,7.45,1.9C236.45,241.12,238.66,242.32,241,242.42Zm0,1c-2.7-.1-5-1.38-7.26-2.39s-4.56-1.94-6.91-1.73a3.15,3.15,0,0,0-.84.13,2.33,2.33,0,0,0-.75.27,5.62,5.62,0,0,0-1.39,1,13.94,13.94,0,0,0-2.23,2.8,54.46,54.46,0,0,0-3.38,6.59c-.27.57-.52,1.13-.88,1.74a2.86,2.86,0,0,1-.77.86,5.2,5.2,0,0,1-.9.57c-1.2.6-2.38,1-3.46,1.49a5.48,5.48,0,0,0-2.55,2,3.09,3.09,0,0,0-.28.71l-.1.39c0,.18-.08.37-.13.54a10.24,10.24,0,0,1-.81,1.84,56.4,56.4,0,0,1-4.19,6.33c-1.49,2-3,4-4.53,6-.74,1-1.51,2-2.13,3-.14.22-.29.57-.26.48a2.47,2.47,0,0,1-.11.47,2.09,2.09,0,0,1-.15.3,3.35,3.35,0,0,1-.3.48,16.29,16.29,0,0,1-1.27,1.51c-1.72,1.86-3.49,3.6-5,5.49a14.9,14.9,0,0,0-2,2.93l-.26.73-.17.86c-.12.57-.15,1.19-.24,1.78-.23,2.43-.25,4.92-.24,7.4.05,5,.3,10,.8,14.86.07.6.14,1.25.25,1.77a14.92,14.92,0,0,0,.47,1.72c.37,1.17.76,2.35,1.16,3.53l2.47,7.06,0,.1v.1c.51,3.67,1.08,7.34,1.76,11,.35,1.81.71,3.63,1.15,5.4.22.89.47,1.76.74,2.61a10.79,10.79,0,0,0,.46,1.16,8.44,8.44,0,0,0,.66,1,38.88,38.88,0,0,0,3.55,4.1c1.28,1.31,2.62,2.58,4,3.81a96.73,96.73,0,0,0,8.63,6.88c6,4.22,12.51,7.91,19.51,9.81a30.33,30.33,0,0,0,5.3,1,26.53,26.53,0,0,0,2.67.14l2.72-.11a54.87,54.87,0,0,0,10.77-1.82,73.52,73.52,0,0,0,10.31-3.76,80.57,80.57,0,0,0,9.65-5.28,61,61,0,0,0,8.69-6.66c.34-.3.63-.64,1-1a6.56,6.56,0,0,0,.86-1l.77-1,.68-1.15c.47-.76.86-1.59,1.27-2.4s.79-1.65,1.16-2.5a211.71,211.71,0,0,0,7.54-20.88q1.68-5.31,3.27-10.64l.38-1.32.09-.33.06-.26a1.72,1.72,0,0,0,.05-.26l0-.35c0-.93,0-1.86.1-2.79.09-1.87.16-3.73.3-5.59l.33.34H301c-.34-.12-.31-.23-.41-.33a1.75,1.75,0,0,1-.13-.28,4,4,0,0,1-.15-.54c-.06-.35-.1-.69-.13-1-.05-.69-.06-1.37-.05-2,0-1.36.12-2.7.23-4,.19-2.69.79-5.34.14-7.88a12,12,0,0,0-4.1-6.49,19.39,19.39,0,0,0-6.9-3.7l-.23-.07,0-.26a20.7,20.7,0,0,0-1.17-4.63c-.54-1.54-1.15-3-1.81-4.53a27.49,27.49,0,0,0-5.39-8l-3.34-3.6c-1.13-1.2-2.12-2.52-3.16-3.76a16.17,16.17,0,0,0-3.48-3.29,6.74,6.74,0,0,0-4.44-1.14l-.25,0-.09-.24h0a32.52,32.52,0,0,0-3.53-7,9.59,9.59,0,0,0-2.77-2.62,6.39,6.39,0,0,0-3.61-.87c-2.58.05-5,1.13-7.43,2.24S243.87,243.47,241,243.43Z"/><path class="cls-9" d="M324.61,163.17s19.63-28.1,46.23-30.91a13,13,0,0,1,13.78,9.53c4.29,15.53,2.27,38.14-3,56.24-6.29,9-21.11,25.12-34.69,23.21C340.24,216,317.86,172,324.61,163.17Z"/><path d="M324.19,162.87a95,95,0,0,1,11-12.49,85.62,85.62,0,0,1,13-10.37,58.55,58.55,0,0,1,15.13-7,44.67,44.67,0,0,1,8.28-1.55,13.56,13.56,0,0,1,8.3,2.35,14.07,14.07,0,0,1,5.27,6.84c.11.35.24.7.34,1l.25,1,.5,2c.24,1.37.58,2.74.74,4.12a94.71,94.71,0,0,1,.86,16.65,137.25,137.25,0,0,1-5.19,32.83l-.05.17-.1.15h0a81.59,81.59,0,0,1-7.09,8.42,71.27,71.27,0,0,1-8.17,7.36,41.33,41.33,0,0,1-9.5,5.57,20.64,20.64,0,0,1-10.86,1.56h-.09l-.08-.06a17.69,17.69,0,0,1-2.72-3c-.81-1.07-1.56-2.18-2.29-3.3-1.46-2.25-2.81-4.56-4.11-6.9-2.6-4.67-5-9.47-7.14-14.36a124.48,124.48,0,0,1-5.63-15,49.85,49.85,0,0,1-1.73-7.88,19.8,19.8,0,0,1-.17-2l0-1,.05-1A7.86,7.86,0,0,1,324.19,162.87Zm.84.61a7,7,0,0,0-1.1,3.5l-.06,1,0,1a18.28,18.28,0,0,0,.15,2,48.29,48.29,0,0,0,1.65,7.74,123.49,123.49,0,0,0,5.51,14.95c2.13,4.87,4.46,9.66,7,14.33,1.28,2.33,2.61,4.64,4,6.87.73,1.12,1.46,2.23,2.25,3.28A17,17,0,0,0,347.1,221l-.16-.07h0A19.76,19.76,0,0,0,357.3,219a40,40,0,0,0,9-5.73,69.83,69.83,0,0,0,7.73-7.46,81.59,81.59,0,0,0,6.63-8.45h0l-.16.32a135.9,135.9,0,0,0,5.4-32.28,92.74,92.74,0,0,0-.71-16.33c-.14-1.36-.46-2.68-.68-4l-.47-2-.23-1c-.09-.32-.2-.62-.29-.93a12.49,12.49,0,0,0-4.6-6.07,12,12,0,0,0-7.31-2.13,42.94,42.94,0,0,0-7.95,1.42,57.41,57.41,0,0,0-14.82,6.72A84.91,84.91,0,0,0,336,151.24,94.08,94.08,0,0,0,325,163.48Z"/><path class="cls-13" d="M365.67,143.41c3.41-.09,7.33.77,8.95,3.78,1.32,2.43.67,5.39.58,8.15-.2,6,2.34,11.7,3.21,17.62a31.86,31.86,0,0,1-31,36.51c-1.82,0-5.25-13.25-5.67-14.95a68.94,68.94,0,0,1-2-16.81c.05-9.62,1-21.55,8.89-27.91A28.35,28.35,0,0,1,365.67,143.41Z"/><path d="M365.66,143a14.62,14.62,0,0,1,5.47.76,7.09,7.09,0,0,1,4.22,3.73,12,12,0,0,1,.58,5.56,25.75,25.75,0,0,0,0,5.27,82.15,82.15,0,0,0,2.39,10.41,38.45,38.45,0,0,1,1,5.4,31.9,31.9,0,0,1,.16,5.53,32.72,32.72,0,0,1-8.37,20.13,32.61,32.61,0,0,1-19.27,10.31c-.91.16-1.84.24-2.77.32l-1.39.06h-.17c-.09,0,0,0-.29,0a1.61,1.61,0,0,1-.83-.34,3.26,3.26,0,0,1-.66-.73,13.28,13.28,0,0,1-1.31-2.61c-.35-.86-.66-1.73-.95-2.59-1.14-3.47-2.07-6.93-2.89-10.49a70.16,70.16,0,0,1-1.5-10.8,91.62,91.62,0,0,1,.12-10.87,51.15,51.15,0,0,1,1.78-10.75c.23-.88.57-1.73.86-2.6s.68-1.7,1.13-2.5a20.07,20.07,0,0,1,3.09-4.55,26.12,26.12,0,0,1,8.95-6.17,28.55,28.55,0,0,1,5.17-1.73A28.09,28.09,0,0,1,365.66,143Zm0,.79a26.36,26.36,0,0,0-18.86,8.46,19.29,19.29,0,0,0-2.85,4.4c-.41.78-.7,1.62-1,2.43s-.57,1.67-.78,2.53a50.93,50.93,0,0,0-1.5,10.52,88.43,88.43,0,0,0,.12,10.68,67.84,67.84,0,0,0,1.67,10.51c.85,3.43,1.88,6.89,3,10.24.29.83.59,1.66.92,2.47a12.43,12.43,0,0,0,1.11,2.19,1.33,1.33,0,0,0,.23.28s0,0-.22-.08h.21l1.3-.06c.86-.09,1.73-.16,2.58-.32a31.39,31.39,0,0,0,9.82-3.35,30.7,30.7,0,0,0,8.23-6.31,31.78,31.78,0,0,0,8.13-18.83,33.22,33.22,0,0,0-.93-10.44,83.32,83.32,0,0,1-2.17-10.65,27.17,27.17,0,0,1,.1-5.49,11.13,11.13,0,0,0-.38-5.07,6.14,6.14,0,0,0-3.58-3.28A13.81,13.81,0,0,0,365.68,143.8Z"/><path class="cls-6" d="M345.49,178.33l-4.12-4.55a41.64,41.64,0,0,1,3.19,16.79l-2.55-3a81.47,81.47,0,0,1,7.13,24.78l.78-.57c.77,2.86,1.55,5.86.84,8.74s-3.46,5.47-6.36,4.92a7.53,7.53,0,0,1-4.17-3c-6.18-7.72-7.08-18.29-10.91-27.4-2.53-6-6.39-11.5-7.92-17.83-1.43-5.88-.7-12,.7-17.78.47-2,1-7,2.54-8.47,2-1.93,3.7.4,5.53,2a49.88,49.88,0,0,1,13.07,18.44C343.94,173.1,344.33,177.05,345.49,178.33Z"/><path class="cls-9" d="M160,163.17s-19.63-28.1-46.23-30.91A13,13,0,0,0,100,141.79c-4.29,15.53-2.27,38.14,3,56.24,6.29,9,21.11,25.12,34.69,23.21C144.36,216,166.74,172,160,163.17Z"/><path d="M159.6,163.46a94.18,94.18,0,0,0-10.93-12.26,84.42,84.42,0,0,0-12.89-10.13A57.56,57.56,0,0,0,121,134.32a44,44,0,0,0-8-1.43A12.11,12.11,0,0,0,105.6,135a12.61,12.61,0,0,0-4.65,6.12,18.12,18.12,0,0,0-.53,1.93l-.47,2c-.22,1.35-.54,2.67-.68,4a93,93,0,0,0-.73,16.35,136.1,136.1,0,0,0,5.37,32.32l-.13-.27h0a81.86,81.86,0,0,0,6.67,8.44,70.12,70.12,0,0,0,7.78,7.44,40.33,40.33,0,0,0,9,5.7,19.82,19.82,0,0,0,10.38,1.82h0l-.16.07a16.85,16.85,0,0,0,2.58-2.92c.8-1.06,1.53-2.17,2.25-3.28,1.43-2.24,2.77-4.54,4-6.87,2.56-4.67,4.89-9.46,7-14.34a123.4,123.4,0,0,0,5.52-14.94,49.55,49.55,0,0,0,1.66-7.75c.06-.65.15-1.3.15-2l0-1-.06-1A7,7,0,0,0,159.6,163.46Zm.77-.57a7.79,7.79,0,0,1,1.28,4l.06,1,0,1c0,.69-.11,1.36-.17,2a51,51,0,0,1-1.72,7.88,124.48,124.48,0,0,1-5.63,15q-3.25,7.34-7.13,14.37c-1.3,2.33-2.65,4.64-4.1,6.89-.74,1.12-1.48,2.24-2.29,3.31a18.12,18.12,0,0,1-2.72,3l-.08.06h-.09A20.72,20.72,0,0,1,126.9,220a41.8,41.8,0,0,1-9.46-5.61,71.91,71.91,0,0,1-8.13-7.37,82.51,82.51,0,0,1-7-8.44h0l-.09-.13,0-.14a138,138,0,0,1-5.22-32.79,95.39,95.39,0,0,1,.85-16.63c.16-1.38.49-2.74.73-4.12l.5-2a20.39,20.39,0,0,1,.58-2.05,14,14,0,0,1,5.23-6.8,13.43,13.43,0,0,1,8.24-2.33,43.94,43.94,0,0,1,8.26,1.54,58.49,58.49,0,0,1,15.11,7,85.5,85.5,0,0,1,13,10.35A94.82,94.82,0,0,1,160.37,162.89Z"/><path class="cls-13" d="M120.14,143.41c-3.41-.09-7.33.77-9,3.78-1.31,2.43-.67,5.39-.58,8.15.21,6-2.34,11.7-3.21,17.62a31.86,31.86,0,0,0,31,36.51c1.82,0,5.25-13.25,5.67-14.95a68.94,68.94,0,0,0,2-16.81c0-9.62-1-21.55-8.88-27.91A28.4,28.4,0,0,0,120.14,143.41Z"/><path d="M120.13,143.78a13.62,13.62,0,0,0-5.13.84,6.06,6.06,0,0,0-3.56,3.29,11.07,11.07,0,0,0-.37,5.06,28,28,0,0,1,.12,5.5,83.41,83.41,0,0,1-2.11,10.66,33.63,33.63,0,0,0-.87,10.4,31.8,31.8,0,0,0,8.14,18.69,30.78,30.78,0,0,0,8.17,6.25,31.41,31.41,0,0,0,9.74,3.33c.85.15,1.71.23,2.56.31l1.29.07h.18a.63.63,0,0,0-.25.07.19.19,0,0,0-.09.05,1.76,1.76,0,0,0,.18-.22,12.9,12.9,0,0,0,1.08-2.14c.33-.8.63-1.63.92-2.46,1.13-3.34,2.18-6.79,3-10.21a67.4,67.4,0,0,0,1.7-10.47,88.07,88.07,0,0,0,.18-10.66,50.69,50.69,0,0,0-1.45-10.51c-.2-.87-.51-1.69-.77-2.53s-.62-1.65-1-2.43a19.55,19.55,0,0,0-2.83-4.4,26.4,26.4,0,0,0-18.84-8.5Zm0-.75a30.07,30.07,0,0,1,10.57,2.46,26.15,26.15,0,0,1,9,6.14,20.17,20.17,0,0,1,3.1,4.56c.45.8.77,1.66,1.14,2.5s.64,1.72.87,2.61a51.91,51.91,0,0,1,1.84,10.75,87.87,87.87,0,0,1,.17,10.89,69.55,69.55,0,0,1-1.46,10.84c-.82,3.57-1.72,7-2.87,10.52-.3.86-.6,1.73-1,2.6a14.11,14.11,0,0,1-1.34,2.66,3.47,3.47,0,0,1-.71.78,1.88,1.88,0,0,1-1,.39,1,1,0,0,1-.31,0H138l-1.4,0c-.93-.09-1.87-.16-2.79-.32a32.73,32.73,0,0,1-19.4-10.4,32.78,32.78,0,0,1-8.37-20.28,33.28,33.28,0,0,1,.18-5.56,39.7,39.7,0,0,1,1.08-5.4,81.35,81.35,0,0,0,2.46-10.39,25.74,25.74,0,0,0,0-5.27,12.18,12.18,0,0,1,.6-5.57,7.09,7.09,0,0,1,4.23-3.72A14.6,14.6,0,0,1,120.15,143Z"/><path class="cls-6" d="M138.37,179.23l4.12-4.56a41.89,41.89,0,0,0-3.19,16.8l2.56-3a81.35,81.35,0,0,0-7.14,24.79l-.77-.57c-.78,2.86-1.56,5.86-.85,8.74s3.46,5.47,6.37,4.92a7.51,7.51,0,0,0,4.16-3c6.18-7.72,7.08-18.29,10.92-27.4,2.52-6,6.38-11.5,7.92-17.83,1.42-5.88.69-12-.7-17.78-.48-2-1-7-2.54-8.47-2-1.93-3.7.4-5.53,2a50.26,50.26,0,0,0-13.08,18.43C139.92,174,139.53,178,138.37,179.23Z"/><path class="cls-6" d="M151.84,124.33c-6.64,4.89-12.71,10.86-20.41,13.81l5.73-.21a20.06,20.06,0,0,1-10.3,7.07A13.81,13.81,0,0,1,138,150.67l-3.94,4a16.28,16.28,0,0,1,12.7,14.78c-.11-2.51,2.93-7.06,4-9.37q2.2-5,4.64-9.82,4.86-9.7,10.55-19,2.85-4.62,5.89-9.13c2.17-3.2,3.82-5.12-1.17-5.34C163.89,116.52,157.1,120.46,151.84,124.33Z"/><path class="cls-6" d="M323.23,132.15c8,1.88,16,5,24.2,4.65l-5.35,2.07a20.05,20.05,0,0,0,12.25,2.44,13.81,13.81,0,0,0-8,9.61L351.5,153a16.3,16.3,0,0,0-5.86,18.59c-.88-2.35-5.47-5.34-7.33-7.06q-4-3.67-8.13-7.19-8.3-7-17.18-13.28-4.42-3.14-9-6.07c-3.25-2.09-5.52-3.21-1-5.37C309.08,129.71,316.88,130.66,323.23,132.15Z"/><path d="M245.39,281.24c3.42-5.62,21.25-32.52,29.53-22.39,7.88,9.64-7.69,17.49-14.18,20.24C256.07,281.08,251.05,284,245.39,281.24Z"/><path d="M240.87,281.24c-3.42-5.62-21.26-32.52-29.54-22.39-7.87,9.64,7.69,17.49,14.19,20.24C230.19,281.08,235.21,284,240.87,281.24Z"/><path d="M243.92,283.59a9.09,9.09,0,0,0,4.78,2.15,15.93,15.93,0,0,0,5.39-.3,39.91,39.91,0,0,0,10.52-4.27,63.36,63.36,0,0,0,9.53-6.5,47.63,47.63,0,0,0,4.22-3.93,14.51,14.51,0,0,0,3.16-4.67l.63.16a14,14,0,0,1-2.91,5.26,38.18,38.18,0,0,1-4.09,4.34,60.18,60.18,0,0,1-9.52,7.11,38.83,38.83,0,0,1-11.07,4.69,14.58,14.58,0,0,1-6.25.22,6.86,6.86,0,0,1-4.92-3.89Z"/><path d="M243.92,284a7.61,7.61,0,0,1-5,3.51,14.66,14.66,0,0,1-6.12-.13,38.8,38.8,0,0,1-11-4.6,57.63,57.63,0,0,1-9.55-7,37.88,37.88,0,0,1-4.12-4.28,14,14,0,0,1-3-5.22l.62-.16a14.36,14.36,0,0,0,3.11,4.71,47.84,47.84,0,0,0,4.19,4,68.33,68.33,0,0,0,9.5,6.61,40.32,40.32,0,0,0,10.58,4.35,15.62,15.62,0,0,0,5.51.39,7.5,7.5,0,0,0,4.71-2.53Z"/><path class="cls-14" d="M243.88,273.25c5-10.22,23.44-21.32,30-20.58"/><path class="cls-14" d="M215.79,252.39c6.53-.74,23.08,10.65,28.09,20.86"/><path d="M295.78,202l1.78,34.81c.13,2.64-2.37,4.81-5.57,4.81s-5.89-2.17-6-4.81l-.53-13c3.94,0,6.87-5.73,6.55-12.72a18.44,18.44,0,0,0-2.65-9.07Z"/><path d="M201.39,202l-1.49,34.88c-.12,2.64-2.83,4.82-6,4.82s-5.69-2.18-5.55-4.82l.69-13c4,0,7.42-5.73,7.75-12.74A17.29,17.29,0,0,0,195,202Z"/><rect class="cls-15" x="278.19" y="186.2" width="25.23" height="5.3" rx="2.65"/><rect class="cls-15" x="187.16" y="186.2" width="22.12" height="5.3" rx="2.65"/><path class="cls-16" d="M338.28,137.73c9.15,6.38,5.32,21.7-.73,29.74-4.68,6.22-13.16,6.71-20.3,9.28-23.84,8.59-52.67,5.39-78.1,5.39-24.25,0-63,7.26-82-11.68-10.26-10.24-15.07-25.34-9.32-38.86,9.44-22.2,34.42-30.08,56.43-34C250.05,89.31,278.24,113.56,338.28,137.73Z"/><path d="M338.49,137.33a12.66,12.66,0,0,1,4.69,6,19.1,19.1,0,0,1,1.15,7.48,33,33,0,0,1-4.1,14.47,26.92,26.92,0,0,1-2.07,3.25,16,16,0,0,1-2.8,2.83,25.06,25.06,0,0,1-6.91,3.6c-2.39.86-4.81,1.47-7.12,2.18-1.17.34-2.3.72-3.41,1.11l-3.57,1.19c-9.61,3-19.62,4.18-29.53,4.67s-19.82.2-29.67-.06c-4.92-.12-9.83-.27-14.74-.31s-9.76.16-14.68.39c-9.82.49-19.72,1.06-29.66.66a103.8,103.8,0,0,1-14.88-1.6,58.25,58.25,0,0,1-14.37-4.52,45,45,0,0,1-6.53-3.92,39.75,39.75,0,0,1-5.59-5.17,42.67,42.67,0,0,1-4.53-6.08c-.71-1.05-1.26-2.2-1.87-3.3s-1.1-2.28-1.51-3.49a35.65,35.65,0,0,1-2.41-14.92,34,34,0,0,1,1.41-7.48c.15-.62.43-1.2.63-1.8a15.75,15.75,0,0,1,.73-1.75l1.67-3.39a45.88,45.88,0,0,1,9.4-11.7,57.24,57.24,0,0,1,12.34-8.43,109.57,109.57,0,0,1,28.18-9.3,147,147,0,0,1,14.67-2.22l7.43-.39,7.43.23a112.57,112.57,0,0,1,28.93,6.25,295.34,295.34,0,0,1,27.32,11.35C302.39,121.54,320.12,130,338.49,137.33Zm-.43.8c-9.06-3.74-18.13-7.61-27.07-11.78S293.16,118,284.2,113.87a292.22,292.22,0,0,0-27.29-11.2,110.89,110.89,0,0,0-28.72-6l-7.34-.16-7.33.43A146.46,146.46,0,0,0,199,99.28a107.68,107.68,0,0,0-27.7,9.38A55.89,55.89,0,0,0,159.4,117a44.31,44.31,0,0,0-8.91,11.31l-1.57,3.26a14.7,14.7,0,0,0-.66,1.66,17.83,17.83,0,0,0-.59,1.69,32.2,32.2,0,0,0-1.24,7,33.47,33.47,0,0,0,2.4,14c.4,1.13,1,2.18,1.47,3.27s1.11,2.12,1.79,3.11a40.78,40.78,0,0,0,4.35,5.71,36.93,36.93,0,0,0,5.29,4.79,40.76,40.76,0,0,0,6.16,3.62,55.88,55.88,0,0,0,13.78,4.17,103,103,0,0,0,14.5,1.42c9.76.3,19.56-.35,29.4-.92,4.92-.28,9.88-.56,14.86-.53s9.88.11,14.81.23c9.84.24,19.66.49,29.42,0,4.88-.22,9.74-.7,14.54-1.38a101.15,101.15,0,0,0,14.17-3.15l3.45-1.1c1.21-.42,2.43-.78,3.64-1.09,2.43-.64,4.8-1.2,7.08-1.88a22.16,22.16,0,0,0,6.33-2.84,14,14,0,0,0,2.51-2.28,25,25,0,0,0,2.05-2.86A30.47,30.47,0,0,0,343,150.74a17.09,17.09,0,0,0-.83-7A11.77,11.77,0,0,0,338.06,138.13Z"/><path d="M296.19,332.15a26.18,26.18,0,0,1-5.56,4,50.51,50.51,0,0,1-6.19,2.9,69.13,69.13,0,0,1-13.14,3.6,116.55,116.55,0,0,1-27.08,1.47c-4.49-.24-9-.64-13.46-1.19-2.24-.31-4.47-.6-6.69-1l-3.34-.59-3.31-.72a109.25,109.25,0,0,1-13-3.74c-2.12-.81-4.23-1.63-6.27-2.61a38.22,38.22,0,0,1-5.94-3.34l.48-.75a50.52,50.52,0,0,0,6.13,2.45c1,.37,2.1.68,3.15,1l3.18.9c4.26,1.15,8.6,2,13,2.79s8.73,1.35,13.12,1.8c2.2.28,4.41.41,6.61.62s4.42.26,6.62.43a142.43,142.43,0,0,0,26.37-.72,79.42,79.42,0,0,0,12.87-2.64c1.07-.27,2.08-.67,3.13-1s2.05-.78,3.06-1.2l1.5-.68,1.46-.74a21.24,21.24,0,0,0,2.75-1.72Z"/><path class="cls-6" d="M322.21,211.38a13.43,13.43,0,0,1,.21,8.87c-.92,2.79-2.76,5.32-3,8.24-.18,2.34.71,4.6,1.13,6.9.87,4.77-.26,9.68-1.82,14.27s-3.57,9-4.51,13.81c-1.71,8.62.13,17.88-3,26.1,8.5-15.73,17.1-31.71,21.14-49.14A79.93,79.93,0,0,0,334,212.35a61,61,0,0,0-3.33-13.63c-.69-1.83-4.39-10.87-5.88-5.54C323.22,198.91,323.06,205.49,322.21,211.38Z"/><path class="cls-6" d="M166.42,209.59a13.34,13.34,0,0,0-.21,8.86c.91,2.79,2.76,5.32,3,8.25.18,2.33-.71,4.59-1.13,6.89-.88,4.77.26,9.68,1.82,14.27s3.57,9.06,4.51,13.81c1.7,8.63-.14,17.89,3,26.11-8.51-15.74-17.11-31.72-21.14-49.14a79.72,79.72,0,0,1-1.64-28.08,60.33,60.33,0,0,1,3.33-13.63c.69-1.84,4.38-10.88,5.88-5.55C165.4,197.11,165.57,203.69,166.42,209.59Z"/><path class="cls-15" d="M273.3,379.9q-3.81-6.37-7.54-12.79c-1.25-2.14-2.56-4.24-3.7-6.44s-2.25-4.41-3.18-6.72l.09-.05c1.47,2,2.74,4.14,4,6.25s2.36,4.35,3.51,6.54q3.5,6.56,6.89,13.15Z"/><path class="cls-15" d="M259.12,385.39q-1.86-6.45-3.64-12.94c-.6-2.15-1.26-4.3-1.73-6.49s-.92-4.38-1.17-6.63l.11,0c.84,2.1,1.46,4.25,2.1,6.4s1,4.36,1.53,6.54q1.5,6.56,2.91,13.13Z"/><path class="cls-15" d="M248,385.53q-.87-7.42-1.65-14.87c-.28-2.48-.61-5-.75-7.44s-.25-5-.16-7.49h.11c.52,2.46.81,4.93,1.12,7.41s.38,5,.54,7.46c.33,5,.63,10,.9,14.94Z"/><path class="cls-15" d="M231.91,383.57q.9-6.1,1.88-12.2c.32-2,.57-4.08,1-6.09a55.42,55.42,0,0,1,1.6-6l.1,0a57.2,57.2,0,0,1-.64,6.15c-.31,2-.8,4-1.23,6q-1.27,6-2.62,12.06Z"/><path class="cls-15" d="M217.54,382.66q2.73-6.89,5.54-13.74c.93-2.29,1.8-4.6,2.85-6.84s2.12-4.46,3.39-6.6l.1,0c-.7,2.39-1.61,4.68-2.5,7s-2,4.51-3,6.75q-3.09,6.74-6.24,13.44Z"/></g><g class="cls-17"><path class="cls-18" d="M453-112.31V245.37h566.76V-112.31c-81-28.59-144.39-73.29-156-114.43C853.3-263.53,801-218.2,731.35-218c-66.43.13-124.17-42-129.56-6.19C595.71-183.87,533.52-138.79,453-112.31ZM733.73,175.87,597.83-127.32H865Z"/></g><g class="cls-19"><path class="cls-20" d="M74.57-66.85v248H405.43V-66.85c-91.94-38.52-84.67-73.5-168.35-73.3C155.35-139.95,164-101.77,74.57-66.85ZM236.79,163,154.25-90.11H320Z"/><polygon class="cls-21" points="319.68 -90.49 238.83 173.88 154.25 -90.11 319.68 -90.49"/><path class="cls-22" d="M282.47,31.18l-4.87,15L246.18,146.85l-7.35,27-6.34-23.51-13.28-37.73L200.59,50.75l-5.83-19.38a338.86,338.86,0,0,1,12.12-61.21c.21-.6.49-1.33.85-2.17.68-1.63,1.61-3.65,2.68-5.9,2.88-6,6.8-13.65,9.84-19.46,2.65-5.11,4.64-8.82,4.64-8.82l13.2-4.43.69-.23.66.23,13.21,4.43s2,3.71,4.64,8.82C262-48.27,269-34.7,270.65-29.84,271.76-26.66,279.5.54,282.47,31.18Z"/><path class="cls-23" d="M274.74,55.34,208.4-32c-.37.88-.67,1.65-.89,2.28C206.39-26.51,198.28,1.46,195,32.2l-.24,2.46L200.9,55l1.07.28,60.9,16.52,6.19,1.69Z"/><polygon class="cls-24" points="278.93 76.95 278.46 76.85 278.34 76.28 278.93 76.95"/><polygon class="cls-23" points="273.55 46.18 246.18 146.85 232.49 150.37 221.85 110.92 260.87 62.08 271.86 48.3 273.55 46.18"/></g></svg>