<svg id="Layer_1" data-name="Layer 1" xmlns="http://www.w3.org/2000/svg" xmlns:xlink="http://www.w3.org/1999/xlink" viewBox="0 0 480 480"><defs><style>.cls-1,.cls-5{fill:none;}.cls-2{clip-path:url(#clip-path);}.cls-12,.cls-3,.cls-6{fill:#503629;}.cls-3,.cls-8{stroke:#140e0a;}.cls-15,.cls-16,.cls-17,.cls-20,.cls-3,.cls-5,.cls-8{stroke-miterlimit:10;}.cls-3{stroke-width:5.46px;}.cls-4,.cls-8{fill:#fff;}.cls-5{stroke:#8e9c9c;stroke-width:2.95px;}.cls-7{fill:#a8a39a;}.cls-9{fill:#8e9c9c;}.cls-10{fill:#d6d1c4;}.cls-11{fill:#b18978;}.cls-12{opacity:0.22;}.cls-13{clip-path:url(#clip-path-2);}.cls-14{clip-path:url(#clip-path-3);}.cls-15{fill:#101317;stroke-width:0.71px;}.cls-15,.cls-16,.cls-20{stroke:#000;}.cls-16{fill:#f1f3f4;stroke-width:2.96px;}.cls-17{fill:#ffdff8;stroke:#200b17;stroke-width:2.82px;}.cls-18{fill:#242a39;}.cls-19{clip-path:url(#clip-path-4);}.cls-20{fill:#1e1411;stroke-width:4.38px;}</style><clipPath id="clip-path"><rect class="cls-1" x="26.17" y="26.17" width="427.65" height="427.65" rx="150.64" transform="translate(240 -99.41) rotate(45)"/></clipPath><clipPath id="clip-path-2"><path class="cls-1" d="M240.11,123.63c-17.59-5.71-41.93-6.34-54.58,7.81-7,7.87-10.56,14.16-18.44,22.31-6.32,6.53-12.21,16-19.27,22.25-28.43,25.16-40.1,84-7.94,112.08,9.08,7.94,22.92,12.53,33.56,19.07S190,324.72,200.66,331c22.65,13.2,55.11,6.42,74-7.49,21.77-16,48-25.06,64-45.53s19.76-49.9,14-73.6c-5.82-24-25.69-43.6-42.42-60.87-9.2-9.5-11.47-19.07-27.12-22.89C272.84,118.07,260.94,120.68,240.11,123.63Z"/></clipPath><clipPath id="clip-path-3"><rect class="cls-1" x="26.17" y="-463.83" width="427.65" height="427.65" rx="150.64" transform="translate(-106.48 -242.93) rotate(45)"/></clipPath><clipPath id="clip-path-4"><rect class="cls-1" x="516.17" y="-463.83" width="427.65" height="427.65" rx="150.64" transform="translate(37.04 -589.41) rotate(45)"/></clipPath></defs><title>ELEPHANT</title><g class="cls-2"><path class="cls-3" d="M234.84,589.08-17.22,413.3l135.76-94.68c64.23-44.79,168.37-44.79,232.6,0L486.9,413.3Z"/><polygon class="cls-4" points="327 350.6 291.61 495.12 170.69 495.12 144.15 347.65 327 350.6"/><line class="cls-5" x1="154.46" y1="357.2" x2="189.86" y2="561.48"/><line class="cls-5" x1="166.26" y1="357.2" x2="201.66" y2="561.48"/><line class="cls-5" x1="178.06" y1="357.2" x2="213.46" y2="561.48"/><line class="cls-5" x1="189.86" y1="357.2" x2="225.25" y2="561.48"/><line class="cls-5" x1="201.65" y1="357.2" x2="237.05" y2="561.48"/><line class="cls-5" x1="213.45" y1="357.2" x2="248.85" y2="561.48"/><line class="cls-5" x1="316.28" y1="361.54" x2="263.78" y2="562.11"/><line class="cls-5" x1="304.52" y1="360.54" x2="252.03" y2="561.11"/><line class="cls-5" x1="293.09" y1="360.92" x2="240.27" y2="560.12"/><line class="cls-5" x1="278.34" y1="366.82" x2="228.52" y2="559.12"/><line class="cls-5" x1="269.26" y1="357.56" x2="216.76" y2="558.13"/><line class="cls-5" x1="257.5" y1="356.56" x2="205.01" y2="557.13"/><path class="cls-6" d="M221,451.18c2.57,1.19,4.93,2.68,7.32,4.05s4.82,2.63,7.37,3.84a21.5,21.5,0,0,1-7.93-2.87A40.44,40.44,0,0,1,221,451.18Z"/><path class="cls-6" d="M244.13,431.57a55.77,55.77,0,0,1,6.69,2.8l3.25,1.52,3.31,1.5a20.22,20.22,0,0,1-7-2A33.36,33.36,0,0,1,244.13,431.57Z"/><path class="cls-7" d="M159.08,339.23c0,13.73,150.23,13.73,150.23,0l-15.58-50.57H171Z"/><path class="cls-8" d="M164.79,318.16,135.3,350.22l100.48,27.35,99.82-27-32.19-32.42C303.41,357.11,164.79,357.11,164.79,318.16Z"/><polygon class="cls-9" points="329.13 354.21 259.17 380.09 256.22 371.25 329.95 350.6 329.13 354.21"/><polygon class="cls-9" points="139.07 354.21 209.03 380.09 211.98 368.3 138.25 350.6 139.07 354.21"/><path class="cls-10" d="M298.9,140c8.18-5.2,17.87-21.5,30.38-19.41,13.22,2.21,26.69,10.47,37,17.17,12.73,8.24,20.52,21,34.21,28.57s27.05,14.85,36.54,27c8,10.31,16.42,23.72,8.44,33.41-8.41,10.2-20.42,22.92-23.4,35.86-4.81,20.91-31.1,54.08-63.18,41.72-10.56-4.07-19.4-12.43-29.81-17.2-8.4-3.85-16-4.68-21.25-11.69-6-8.11-8-18.81-10.42-27.62-7.58-27.42-20.63-54.74-15.72-80.82C283.64,156.75,289.18,151.23,298.9,140Z"/><path d="M298.8,139.86a43.64,43.64,0,0,0,6.24-5.59c2-2,3.88-4.06,5.91-6a45.27,45.27,0,0,1,6.58-5.42,18.76,18.76,0,0,1,8.09-3.14,14.78,14.78,0,0,1,4.41.19c.7.13,1.4.24,2.1.39l2.08.49a73.85,73.85,0,0,1,8.11,2.65A110.45,110.45,0,0,1,357.54,131c2.44,1.42,4.84,2.89,7.22,4.4a79.93,79.93,0,0,1,7,4.86,162.69,162.69,0,0,1,12.51,11.45,101,101,0,0,0,12.58,10.82l1.71,1.15c.57.36,1.17.7,1.75,1.05,1.16.71,2.43,1.39,3.64,2.08q3.67,2.07,7.32,4.21a131.24,131.24,0,0,1,14.06,9.5,81.52,81.52,0,0,1,6.4,5.63,65.94,65.94,0,0,1,5.66,6.39,77.29,77.29,0,0,1,9.06,14.34A30.14,30.14,0,0,1,449,215a15.65,15.65,0,0,1-1,8.52,16.69,16.69,0,0,1-1,1.92c-.42.59-.83,1.2-1.27,1.76L443,230.42c-1.81,2.14-3.64,4.27-5.4,6.45a117,117,0,0,0-9.78,13.6,55.64,55.64,0,0,0-3.7,7.46c-1,2.58-1.49,5.28-2.32,8.05a63.23,63.23,0,0,1-7.22,15.36,70.21,70.21,0,0,1-10.76,13.2,61.9,61.9,0,0,1-6.6,5.46,55,55,0,0,1-7.42,4.35,46.78,46.78,0,0,1-8.16,2.88,38.15,38.15,0,0,1-17.27.18,42.42,42.42,0,0,1-4.18-1.18c-.69-.24-1.38-.45-2.06-.71s-1.34-.54-2-.83c-10.57-4.74-19-12.6-29.1-16.77-2.53-1.07-5.16-1.94-7.82-3a35.62,35.62,0,0,1-7.86-3.92,21.62,21.62,0,0,1-3.41-3c-.53-.55-1-1.17-1.45-1.75s-.86-1.2-1.25-1.82a45,45,0,0,1-3.92-7.78,138.08,138.08,0,0,1-4.8-16.32c-1.43-5.39-3-10.74-4.7-16.09-3.33-10.7-6.9-21.4-9.4-32.43a109.3,109.3,0,0,1-2.5-16.8,67.1,67.1,0,0,1,.86-17,31.66,31.66,0,0,1,2.44-8.21,39.67,39.67,0,0,1,4.47-7.26C291.16,148.1,295,144.07,298.8,139.86Zm.2.23c-3.52,4.32-7.29,8.54-10.52,13.08a38,38,0,0,0-4.09,7.2,31.44,31.44,0,0,0-2.12,7.95,65.25,65.25,0,0,0-.4,16.58,116.32,116.32,0,0,0,2.81,16.43c2.65,10.83,6.36,21.4,9.87,32.08q2.67,8,4.92,16.19a135.56,135.56,0,0,0,4.8,15.93,43,43,0,0,0,3.65,7.23,19.21,19.21,0,0,0,5.26,5.71,32.63,32.63,0,0,0,7.17,3.56c2.58,1,5.26,1.93,7.9,3.06,10.7,4.59,19.07,12.54,29,17.07.62.28,1.26.53,1.88.79s1.28.46,1.92.69c1.27.49,2.6.77,3.9,1.14a39,39,0,0,0,8,.93,37.78,37.78,0,0,0,8.07-.88,43.51,43.51,0,0,0,7.74-2.61c10-4.59,18.25-12.57,24.4-21.76a61.49,61.49,0,0,0,7.37-14.86c.46-1.33.74-2.64,1.15-4a41.14,41.14,0,0,1,1.36-4.06,57.26,57.26,0,0,1,3.83-7.58,116.52,116.52,0,0,1,10-13.64l5.41-6.47L445,226.6c.42-.55.79-1.11,1.19-1.67a16.09,16.09,0,0,0,.93-1.8,14.38,14.38,0,0,0,.83-8,27.64,27.64,0,0,0-2.59-7.8,75.41,75.41,0,0,0-9.25-13.84,63.73,63.73,0,0,0-5.66-6.07,79.14,79.14,0,0,0-6.36-5.34,135.83,135.83,0,0,0-14.05-9c-2.42-1.38-4.87-2.74-7.33-4.09a74.91,74.91,0,0,1-7.34-4.36,93.76,93.76,0,0,1-12.91-11.13,161.17,161.17,0,0,0-12.2-11.4,74.72,74.72,0,0,0-6.77-4.78c-2.35-1.52-4.72-3-7.11-4.43a122.85,122.85,0,0,0-14.8-7.68,70.68,70.68,0,0,0-7.83-2.77l-2-.52c-.67-.16-1.35-.29-2-.43a13.32,13.32,0,0,0-4-.27,17.9,17.9,0,0,0-7.54,2.72,43,43,0,0,0-6.59,5c-2.08,1.86-4.07,3.84-6.11,5.78A43.2,43.2,0,0,1,299,140.09Z"/><path class="cls-11" d="M311.44,146.86c2.62-6.25,13.29-5.58,19.09-4.72,13.11,1.94,25.59,10.93,36.13,18.23,13.15,9.1,25.93,17.52,36.13,30.08,8.15,10,4.58,17.35,3.11,29.35-1.52,12.49-11.06,36.42-11.06,36.42s-20.88,3.13-30.43,6.22A134.31,134.31,0,0,0,346,269.62c-3.7,1.83-7.13,4.69-11.13,5.69-4.42-10.11-2.95-23.18-4.5-34-1.9-13.3-3.41-26.94-7.89-39.64-3.64-10.3-9.1-19.82-13-30C306.67,164.16,307.94,152.77,311.44,146.86Z"/><path class="cls-10" d="M182.19,140c-8.18-5.2-17.87-21.5-30.38-19.41-13.22,2.21-26.69,10.47-37,17.17-12.73,8.24-20.52,21-34.21,28.57s-27.06,14.85-36.54,27c-8,10.31-16.42,23.72-8.44,33.41C44,237,56,249.68,59,262.62c4.81,20.91,31.1,54.08,63.18,41.72,10.56-4.07,19.4-12.43,29.81-17.2,8.4-3.85,16-4.68,21.25-11.69,6-8.11,8-18.81,10.42-27.62,7.58-27.42,20.63-54.74,15.72-80.82C197.45,156.75,191.91,151.23,182.19,140Z"/><path d="M182.09,140.09a43.2,43.2,0,0,1-6.53-5.33c-2-1.94-4-3.92-6.11-5.78a43.52,43.52,0,0,0-6.59-5,17.9,17.9,0,0,0-7.54-2.72,13.32,13.32,0,0,0-4,.27c-.67.14-1.35.27-2,.43l-2,.52a70.68,70.68,0,0,0-7.83,2.77,122.85,122.85,0,0,0-14.8,7.68c-2.39,1.42-4.76,2.91-7.11,4.43a74.72,74.72,0,0,0-6.77,4.78,161.17,161.17,0,0,0-12.2,11.4,93.76,93.76,0,0,1-12.91,11.13A74.91,74.91,0,0,1,78.37,169c-2.46,1.35-4.91,2.71-7.33,4.09a135.83,135.83,0,0,0-14.05,9,79.14,79.14,0,0,0-6.36,5.34A63.73,63.73,0,0,0,45,193.51a75.41,75.41,0,0,0-9.25,13.84,28,28,0,0,0-2.6,7.8,14.47,14.47,0,0,0,.84,8,16.09,16.09,0,0,0,.93,1.8c.4.56.77,1.12,1.19,1.67l2.68,3.23,5.41,6.47a116.52,116.52,0,0,1,10,13.64A57.26,57.26,0,0,1,58,257.52a41.14,41.14,0,0,1,1.36,4.06c.41,1.38.69,2.69,1.15,4a61.49,61.49,0,0,0,7.37,14.86c6.15,9.19,14.44,17.17,24.4,21.76a43.51,43.51,0,0,0,7.74,2.61,37.78,37.78,0,0,0,8.07.88,39,39,0,0,0,8-.93c1.3-.37,2.63-.65,3.9-1.14.64-.23,1.29-.43,1.92-.69s1.25-.51,1.87-.79c10-4.53,18.34-12.48,29-17.07,2.64-1.13,5.32-2.07,7.9-3.06a32.63,32.63,0,0,0,7.17-3.56,19.21,19.21,0,0,0,5.26-5.71,43,43,0,0,0,3.65-7.23,135.56,135.56,0,0,0,4.8-15.93q2.24-8.19,4.92-16.19c3.51-10.68,7.22-21.25,9.87-32.08a116.32,116.32,0,0,0,2.81-16.43,65.25,65.25,0,0,0-.4-16.58,31.44,31.44,0,0,0-2.12-7.95,38,38,0,0,0-4.09-7.2C189.38,148.63,185.61,144.41,182.09,140.09Zm.2-.23c3.77,4.21,7.64,8.24,11.09,12.74a39.67,39.67,0,0,1,4.47,7.26,31.66,31.66,0,0,1,2.44,8.21,67.1,67.1,0,0,1,.86,17,109.3,109.3,0,0,1-2.5,16.8c-2.5,11-6.07,21.73-9.4,32.43-1.67,5.35-3.28,10.7-4.71,16.09a136.15,136.15,0,0,1-4.79,16.32,44.36,44.36,0,0,1-3.93,7.78c-.38.62-.83,1.21-1.24,1.82s-.92,1.2-1.45,1.75a21.62,21.62,0,0,1-3.41,3,35.62,35.62,0,0,1-7.86,3.92c-2.66,1-5.29,1.89-7.82,3-10.11,4.17-18.53,12-29.1,16.77-.66.29-1.34.55-2,.83s-1.36.47-2.05.71a42.42,42.42,0,0,1-4.18,1.18,38.15,38.15,0,0,1-17.27-.18,46.78,46.78,0,0,1-8.16-2.88A55,55,0,0,1,83.85,300a61.9,61.9,0,0,1-6.6-5.46,70.21,70.21,0,0,1-10.76-13.2A63.23,63.23,0,0,1,59.27,266c-.83-2.77-1.3-5.47-2.32-8.05a54.54,54.54,0,0,0-3.71-7.46,114.63,114.63,0,0,0-9.78-13.6c-1.75-2.18-3.58-4.31-5.39-6.45l-2.72-3.23c-.43-.56-.84-1.17-1.26-1.76a16.69,16.69,0,0,1-1-1.92,15.65,15.65,0,0,1-1-8.52,30.14,30.14,0,0,1,2.55-8.16,76.77,76.77,0,0,1,9.06-14.34,65.94,65.94,0,0,1,5.66-6.39,83.23,83.23,0,0,1,6.39-5.63A132.38,132.38,0,0,1,69.8,171q3.65-2.15,7.32-4.21c1.21-.69,2.48-1.37,3.63-2.08.59-.35,1.18-.69,1.76-1.05l1.71-1.15A101,101,0,0,0,96.8,151.66a162.69,162.69,0,0,1,12.51-11.45,79.93,79.93,0,0,1,7-4.86c2.38-1.51,4.78-3,7.22-4.4a110.45,110.45,0,0,1,15.22-7.54,73.16,73.16,0,0,1,8.11-2.65l2.08-.49c.7-.15,1.4-.26,2.1-.39a14.78,14.78,0,0,1,4.41-.19,18.76,18.76,0,0,1,8.09,3.14,45.27,45.27,0,0,1,6.58,5.42c2,2,4,4,5.91,6A43.64,43.64,0,0,0,182.29,139.86Z"/><path class="cls-11" d="M175.27,150.21c-8.25-5.17-21.45-9.74-31.16-7.58-12,2.67-20.32,17.16-29.69,24.33S96,180.83,86.19,187.27C80.88,190.75,80,196.56,78,202.6c-3.83,12-.54,24.69-2.78,36.7,2.76,2.26,6.86,2.47,10.2,3.81a47.58,47.58,0,0,1,17.68,12.32c4.45,5.12,7,8.37,13.89,10.16a48.23,48.23,0,0,0,14.07,1.09c3.66-22.7,11.51-46.43,26.11-64.5,5.35-6.62,11.48-12.78,17.44-19,2.45-2.56,3.84-4.38,4.84-7.91C182,166.5,180.54,159.22,175.27,150.21Z"/><path class="cls-10" d="M355.05,231.74c-1,16.49-6.22,33.15-16.39,46.19-16,20.47-42.21,29.52-64,45.54-18.93,13.89-51.37,20.67-74,7.49-10.68-6.26-16.55-17.26-27.23-23.8S149,296,139.9,288.07s-14.66-18.34-17.34-29.78c-2.83-12-2.48-25.13.35-37.61A76.11,76.11,0,0,1,125,212.9c.94-3,2-5.9,3.21-8.73,4.75-11.09,11.47-20.94,19.61-28.17,7.08-6.25,12.95-15.72,19.29-22.24,7.91-8.17,11.39-14.45,18.44-22.32,12.65-14.13,37-13.51,54.59-7.82,20.82-3,32.74-5.55,43-3,15.66,3.84,17.93,13.39,27.13,22.89,15.4,15.9,33.42,33.71,40.76,55.12v0c.62,1.89,1.21,3.78,1.68,5.72A93.13,93.13,0,0,1,355.05,231.74Z"/><path d="M355.2,231.75a89.81,89.81,0,0,1-7.65,31.67,72.79,72.79,0,0,1-8.36,14.05,79.59,79.59,0,0,1-11.3,11.84A120.09,120.09,0,0,1,314.72,299c-4.58,3-9.27,5.78-14,8.54s-9.4,5.51-14,8.39l-3.45,2.18-3.39,2.27c-2.26,1.52-4.39,3.16-6.69,4.7a75.85,75.85,0,0,1-14.5,7.73,87.74,87.74,0,0,1-15.81,4.58,72.26,72.26,0,0,1-16.42,1.29A59.36,59.36,0,0,1,210.19,336c-.33-.1-.67-.18-1-.3l-1-.37-1.93-.76c-.64-.27-1.31-.47-1.92-.79l-1.86-.94a37.08,37.08,0,0,1-7-4.45c-4.36-3.45-8-7.59-11.8-11.45a53.61,53.61,0,0,0-12.51-10.05c-4.68-2.69-9.62-5-14.52-7.4a98,98,0,0,1-14.31-8.2,50.75,50.75,0,0,1-11.62-11.87c-6.45-9.1-9.87-20.05-10.89-31a93.06,93.06,0,0,1,3.08-32.8,91.8,91.8,0,0,1,14.23-29.77,73.58,73.58,0,0,1,5.29-6.42l1.44-1.51,1.48-1.46,3-2.78a123.81,123.81,0,0,0,10.46-12.31c1.69-2.14,3.4-4.3,5.24-6.38s3.76-4,5.5-6c3.54-4,6.69-8.45,10.09-12.78,1.72-2.16,3.42-4.29,5.38-6.32a27.92,27.92,0,0,1,3.16-2.9l1.7-1.32,1.81-1.14A41.6,41.6,0,0,1,207.61,119a67.57,67.57,0,0,1,16.69-.21,81.39,81.39,0,0,1,16.27,3.44l-.66-.06c6.13-.87,12.25-1.78,18.43-2.61s12.42-1.57,18.81-1.16c.79.08,1.59.15,2.39.25s1.59.22,2.37.4a45.28,45.28,0,0,1,4.64,1.25,30.1,30.1,0,0,1,8.58,4.41,36.4,36.4,0,0,1,6.74,6.79c1.95,2.47,3.73,5,5.65,7.39s4,4.59,6.16,6.85l6.4,6.77c4.23,4.54,8.4,9.17,12.33,14,7.83,9.63,14.84,20.17,18.9,32l0,0v.08l0-.1,1.17,4a41.23,41.23,0,0,1,1,4.08q.86,4.13,1.32,8.31A97.09,97.09,0,0,1,355.2,231.75Zm-.29,0a96.31,96.31,0,0,0-.56-16.72q-.5-4.15-1.39-8.24a40.11,40.11,0,0,0-1-4.05l-1.2-4v-.13l0,.1c-4.1-11.69-11.29-22-19.25-31.41-4-4.72-8.23-9.24-12.54-13.68L312.4,147c-2.16-2.19-4.42-4.41-6.42-6.85-4-4.81-7.37-10.08-12.24-13.54a28.72,28.72,0,0,0-8-3.94A35.74,35.74,0,0,0,277,121c-6-.33-12.15.48-18.26,1.35s-12.24,1.91-18.39,2.77l-.34,0-.33-.1A78.4,78.4,0,0,0,224,121.76a64.79,64.79,0,0,0-15.93.23,39.72,39.72,0,0,0-14.79,5.08l-1.66,1-1.53,1.19a23.64,23.64,0,0,0-2.87,2.61c-1.83,1.88-3.55,4-5.23,6.1-3.35,4.23-6.56,8.7-10.23,12.85-1.8,2.09-3.8,4.06-5.56,6s-3.47,4.1-5.17,6.23a127.79,127.79,0,0,1-10.79,12.52l-3,2.77-1.43,1.39-1.39,1.45a72.39,72.39,0,0,0-5.15,6.16,89.5,89.5,0,0,0-14,28.84,90.46,90.46,0,0,0-3.18,32c.94,10.67,4.2,21.27,10.36,30a48.87,48.87,0,0,0,11.1,11.45,96.76,96.76,0,0,0,14,8.11c4.86,2.43,9.82,4.76,14.58,7.52a45.61,45.61,0,0,1,6.84,4.74,80.78,80.78,0,0,1,6,5.67c3.81,3.94,7.39,8,11.59,11.37a34.38,34.38,0,0,0,6.73,4.31l1.79.92c.59.31,1.24.51,1.85.78l1.87.74.94.37c.31.11.64.19,1,.29a57.21,57.21,0,0,0,15.86,2.71,72,72,0,0,0,16.12-1.12,86.53,86.53,0,0,0,15.61-4.35,74.54,74.54,0,0,0,14.36-7.49c2.25-1.46,4.46-3.13,6.74-4.63l3.43-2.25,3.48-2.16c4.66-2.84,9.39-5.55,14.12-8.26s9.44-5.46,14-8.39a119.32,119.32,0,0,0,13.2-9.58,79.28,79.28,0,0,0,11.33-11.69,71.16,71.16,0,0,0,8.34-14A89.31,89.31,0,0,0,354.91,231.73Z"/><path class="cls-12" d="M355.05,231.74c-1,16.49-6.22,33.15-16.39,46.19-16,20.47-42.21,29.52-64,45.54-18.93,13.89-51.37,20.67-74,7.49-10.68-6.26-16.55-17.26-27.23-23.8S149,296,139.9,288.07s-14.66-18.34-17.34-29.78c.09-4.55.29-9.06.68-13.54,5.57-2.51,16.37.06,22,1.53,10.26,2.72,16,12.15,24.6,19,27.51,21.88,67.8,27.37,101.66,18.43,13.07-3.48,24.12-17.4,34.36-26.43,6.93-6.13,12.77-13.5,20.91-18.22C336.12,233.66,345.82,234.84,355.05,231.74Z"/><g class="cls-13"><path class="cls-6" d="M322.4,254.16l2.68,10.77,2.62,10.78c.87,3.59,1.83,7.17,2.54,10.8s1.34,7.28,1.74,11l-.14,0c-1.19-3.53-2.15-7.1-3-10.69s-1.54-7.24-2.26-10.87l-2.18-10.88-2.1-10.89Z"/><path class="cls-6" d="M328.42,245.83l2.72,10.62,2.64,10.64c.89,3.55,1.86,7.08,2.57,10.66s1.37,7.18,1.79,10.84l-.15,0c-1.2-3.47-2.16-7-3.07-10.54s-1.56-7.14-2.29-10.72l-2.21-10.74-2.15-10.76Z"/><path class="cls-6" d="M334.56,240.34l2.76,10.53L340,261.41c.9,3.52,1.89,7,2.62,10.56s1.39,7.13,1.82,10.75l-.14,0c-1.22-3.44-2.2-6.93-3.12-10.44s-1.58-7.08-2.33-10.63L336.6,251l-2.18-10.66Z"/><path class="cls-6" d="M316.14,259.77l2.64,10.87,2.57,10.88c.86,3.63,1.81,7.23,2.5,10.9s1.31,7.34,1.7,11.07l-.14,0c-1.18-3.56-2.12-7.17-3-10.79s-1.51-7.3-2.21-11l-2.14-11-2.06-11Z"/><path class="cls-6" d="M306.35,262.6l2.57,10.91,2.49,10.94c.83,3.64,1.75,7.27,2.42,10.94s1.26,7.38,1.62,11.12l-.14,0c-1.15-3.58-2.07-7.21-2.93-10.85s-1.45-7.33-2.13-11l-2.06-11-2-11Z"/><path class="cls-6" d="M296.65,268.28l2.49,11,2.42,11c.81,3.67,1.71,7.33,2.35,11s1.21,7.44,1.55,11.21l-.15,0c-1.13-3.62-2-7.28-2.85-10.95s-1.4-7.4-2.06-11.1l-2-11.12-1.92-11.14Z"/><path class="cls-6" d="M290.2,274l2.45,11.12L295,296.28c.8,3.71,1.68,7.4,2.3,11.15s1.19,7.5,1.51,11.3l-.14,0c-1.12-3.65-2-7.35-2.81-11.06s-1.37-7.46-2-11.2l-1.94-11.22-1.86-11.23Z"/><path class="cls-6" d="M283.7,279.81,286.1,291l2.33,11.24c.78,3.75,1.65,7.47,2.25,11.25s1.15,7.57,1.46,11.4l-.14,0c-1.1-3.69-2-7.42-2.77-11.16s-1.34-7.53-2-11.3l-1.89-11.32-1.83-11.33Z"/><path class="cls-6" d="M277.14,285.65,279.49,297l2.28,11.34c.77,3.78,1.62,7.54,2.21,11.35s1.12,7.64,1.41,11.5l-.14,0c-1.09-3.72-1.93-7.49-2.72-11.26s-1.31-7.6-1.92-11.41l-1.84-11.42L277,285.68Z"/><path class="cls-6" d="M163.87,259.8l-2.07,11-2.15,11c-.71,3.66-1.34,7.34-2.22,11s-1.83,7.23-3,10.79l-.15,0c.4-3.73,1-7.41,1.72-11.07s1.64-7.27,2.51-10.9l2.58-10.88,2.65-10.87Z"/><path class="cls-6" d="M157.43,257l-2.12,10.94-2.2,10.93c-.72,3.65-1.37,7.31-2.27,10.91s-1.86,7.2-3.06,10.74l-.14,0c.41-3.71,1.06-7.38,1.76-11s1.68-7.24,2.56-10.85l2.63-10.84,2.7-10.81Z"/><path class="cls-6" d="M151.22,251.4l-2.17,10.85-2.24,10.83c-.74,3.62-1.4,7.25-2.31,10.82s-1.89,7.13-3.1,10.64l-.14,0c.42-3.69,1.09-7.32,1.8-10.94s1.71-7.17,2.6-10.75l2.67-10.73,2.74-10.72Z"/><path class="cls-6" d="M144.85,248.63l-2.22,10.8-2.28,10.79c-.76,3.59-1.43,7.21-2.36,10.77s-1.92,7.1-3.15,10.58l-.14,0c.44-3.67,1.12-7.29,1.85-10.89s1.74-7.14,2.65-10.7l2.72-10.69,2.79-10.67Z"/><path class="cls-6" d="M170.18,265.46l-2,11.09-2.1,11.07c-.7,3.7-1.31,7.41-2.18,11.06s-1.8,7.3-3,10.89l-.14,0c.38-3.76,1-7.47,1.67-11.16s1.61-7.34,2.46-11l2.54-11,2.61-11Z"/><path class="cls-6" d="M180,268.31l-2,11.14-2,11.12c-.67,3.71-1.26,7.43-2.1,11.1s-1.75,7.34-2.89,10.95l-.15,0c.36-3.77,1-7.5,1.59-11.21s1.57-7.37,2.39-11.05l2.46-11,2.53-11Z"/><path class="cls-6" d="M189.8,274.05l-1.88,11.23L186,296.5c-.65,3.74-1.21,7.5-2,11.21s-1.7,7.4-2.81,11.05l-.15,0c.33-3.8.89-7.56,1.52-11.31s1.51-7.43,2.31-11.14l2.38-11.14L189.65,274Z"/><path class="cls-6" d="M196.29,279.84l-1.83,11.33-1.9,11.32c-.63,3.77-1.18,7.56-2,11.3s-1.67,7.47-2.77,11.16l-.15,0c.31-3.83.86-7.62,1.47-11.4s1.48-7.5,2.27-11.25L193.74,291l2.41-11.22Z"/><path class="cls-6" d="M202.85,285.68l-1.79,11.43-1.85,11.42c-.62,3.81-1.15,7.63-1.93,11.41s-1.64,7.54-2.73,11.26l-.14,0c.29-3.86.83-7.68,1.42-11.5s1.45-7.57,2.22-11.35L200.34,297l2.36-11.33Z"/><path class="cls-6" d="M209.46,291.57l-1.73,11.54-1.81,11.52c-.6,3.84-1.11,7.7-1.88,11.51s-1.61,7.61-2.68,11.37l-.15,0c.28-3.89.8-7.75,1.37-11.6s1.42-7.64,2.18-11.46L207,303l2.32-11.44Z"/></g><path class="cls-10" d="M280,205.24c1.17,10.43-2.75,21.14-1.63,32.21,1,10,1.81,20,.28,30.23-4.17,27.86-9.47,48.18-13.33,76.42-1.06,7.73-.64,24.56-5.43,30.87,6.51,12.5,3.21,32.27,1.52,46.21-1.62,13.44-5.45,23.81-17.61,32.95-9,6.78-21.72,16.52-31.64,4.69-7.12-8.49-5.52-26.54-5.31-36.63.31-14.76-3.74-113.89-4.43-136.4-.48-15.62-.92-29.64-3.69-44.21-2.37-12.47-4.22-25.85-3.88-38"/><path d="M280.1,205.22c.79,7.2-.69,14.33-1.37,21.42a54.39,54.39,0,0,0-.14,10.67c.37,3.57.73,7.14,1,10.72a92.67,92.67,0,0,1-.8,21.5c-1.05,7.09-2.25,14.15-3.53,21.2-2.57,14.1-5.4,28.14-7.59,42.28-.55,3.53-1.05,7.07-1.54,10.61s-.6,7.08-.86,10.66-.52,7.17-1.11,10.75-1.36,7.23-3.59,10.45l.08-.9A36.16,36.16,0,0,1,264,386.15a72.42,72.42,0,0,1,.54,12c-.23,8-1.34,15.81-2.28,23.63a68.11,68.11,0,0,1-2.38,11.76,40.86,40.86,0,0,1-5.19,10.92,44.15,44.15,0,0,1-8.17,8.92l-2.36,1.87L241.83,457c-1.6,1.18-3.22,2.34-4.91,3.43a31.43,31.43,0,0,1-11.2,4.89,14.64,14.64,0,0,1-6.38-.19,14.42,14.42,0,0,1-5.66-3,19.5,19.5,0,0,1-2.25-2.2,14.88,14.88,0,0,1-1-1.25,10.18,10.18,0,0,1-.89-1.32L208.8,456c-.25-.46-.42-.95-.63-1.43a26.68,26.68,0,0,1-1-2.91,53.56,53.56,0,0,1-1.83-12c-.21-4-.16-8,0-11.94.06-2,.13-3.94.15-5.9s0-3.89,0-5.87q-.26-11.79-.67-23.62l-1.62-47.29-1.49-47.3c-.6-15.77-.35-31.56-2.25-47.16-.46-3.91-1.12-7.75-1.82-11.65s-1.22-7.81-1.69-11.74a148.51,148.51,0,0,1-1.14-23.66H195a148.2,148.2,0,0,0,1.86,23.52c.59,3.89,1.28,7.76,2,11.62s1.52,7.77,2.06,11.69c2.23,15.71,2.36,31.56,3.09,47.29L206,345c.59,15.76,1.23,31.52,1.66,47.3.22,7.88.45,15.77.54,23.68,0,2,0,4,0,6s-.13,4-.2,5.93c-.14,3.93-.22,7.83,0,11.71a50,50,0,0,0,1.63,11.38,23.16,23.16,0,0,0,.92,2.66c.19.42.34.87.56,1.28l.66,1.21a9.75,9.75,0,0,0,.75,1.14,10.69,10.69,0,0,0,.83,1.08,17.1,17.1,0,0,0,2,1.95,12.16,12.16,0,0,0,4.7,2.53,12.35,12.35,0,0,0,5.35.19,29.11,29.11,0,0,0,10.36-4.48c1.63-1,3.22-2.16,4.8-3.32l2.37-1.75,2.28-1.79A41.62,41.62,0,0,0,253,443.2a38.54,38.54,0,0,0,5-10.33,67,67,0,0,0,2.38-11.39c1-7.83,2.14-15.62,2.41-23.44a69.63,69.63,0,0,0-.45-11.65,34.2,34.2,0,0,0-3.19-11l-.23-.46.31-.44c1.91-2.7,2.72-6.26,3.33-9.7s.9-7,1.17-10.6.43-7.14.94-10.74,1.05-7.1,1.63-10.64c2.31-14.15,5.27-28.18,8-42.24,1.34-7,2.6-14.07,3.71-21.14a92.28,92.28,0,0,0,1-21.33c-.19-3.57-.52-7.13-.86-10.7a54.56,54.56,0,0,1,.24-10.77c.74-7.12,2.27-14.21,1.54-21.35Z"/><path class="cls-6" d="M234.09,377.73a34,34,0,0,0-6.07.19,28.27,28.27,0,0,0-5.82,1.42,70.9,70.9,0,0,0-10.86,5.41,32.55,32.55,0,0,1,10.49-6.46,21.28,21.28,0,0,1,6.11-1.23A19.25,19.25,0,0,1,234.09,377.73Z"/><path class="cls-6" d="M258.29,357a34.39,34.39,0,0,0-3.41-6.57,44.16,44.16,0,0,0-4.49-5.86,50,50,0,0,0-5.34-5.06,30.44,30.44,0,0,0-6.2-3.86,22,22,0,0,0-14.21-1.39c-4.78,1.08-9.14,3.61-13.3,6.28a55.84,55.84,0,0,1,6.16-4.22,30.65,30.65,0,0,1,6.94-2.89,23,23,0,0,1,7.53-.67,20.41,20.41,0,0,1,7.35,1.88A35.82,35.82,0,0,1,251,344,36.4,36.4,0,0,1,258.29,357Z"/><path class="cls-10" d="M207.67,419.71c7.44-3.12,13.24-5.91,16.83-13.44,9.91-20.77,1.2-97.82,49.74-75.76,4.48,7.9,8.06,21.76,4,30.47-1.83,3.93-6.69,8.75-12.68,7.18-5.76-1.51-7.62-9.92-8.46-14.14"/><path d="M207.61,419.58A67.57,67.57,0,0,0,215,416a28.35,28.35,0,0,0,3.34-2.31,21.05,21.05,0,0,0,6.74-9.88,58.31,58.31,0,0,0,2-7.89c1-5.36,1.61-10.79,2.29-16.22s1.38-10.87,2.3-16.29a116,116,0,0,1,3.75-16.11,55.47,55.47,0,0,1,3.11-7.75,33.16,33.16,0,0,1,4.65-7.08,21.1,21.1,0,0,1,6.85-5.26,20.85,20.85,0,0,1,8.45-1.95c5.82-.11,11.34,1.67,16.44,3.92l.42.18.24.43a42.27,42.27,0,0,1,3.37,7.65,50.62,50.62,0,0,1,2,8.09,36.62,36.62,0,0,1,.36,8.38,21,21,0,0,1-2.29,8.25,14.89,14.89,0,0,1-6.16,6,10,10,0,0,1-8.59.31,9,9,0,0,1-3.31-2.82,16.3,16.3,0,0,1-2-3.69,35.07,35.07,0,0,1-1.94-7.93l.28-.06a39.27,39.27,0,0,0,2.56,7.6c1.15,2.34,2.76,4.57,5,5.5a7.81,7.81,0,0,0,3.59.47,8.59,8.59,0,0,0,3.46-1.12,13.32,13.32,0,0,0,5-5.38,19.29,19.29,0,0,0,1.75-7.33,33.73,33.73,0,0,0-.55-7.75A48.15,48.15,0,0,0,273,331.23l.66.61c-4.84-2.2-10-3.91-15.18-3.93a18.13,18.13,0,0,0-7.46,1.54,18.78,18.78,0,0,0-6.18,4.54,30.44,30.44,0,0,0-4.44,6.53,52.15,52.15,0,0,0-3.12,7.42,113.71,113.71,0,0,0-4,15.77c-2,10.72-3.07,21.63-5.25,32.41a57.11,57.11,0,0,1-2.18,8,21.77,21.77,0,0,1-7.18,10,29.13,29.13,0,0,1-3.47,2.27,67.25,67.25,0,0,1-7.48,3.43Z"/><path d="M296.45,185.43l2,38.73c.15,2.94-2.63,5.35-6.19,5.35s-6.56-2.41-6.68-5.35L285,209.67c4.39,0,7.65-6.37,7.28-14.15a20.42,20.42,0,0,0-2.94-10.09Z"/><path d="M191.4,185.44l-1.66,38.81c-.13,2.94-3.14,5.36-6.7,5.36s-6.35-2.42-6.19-5.36l.77-14.52c4.4,0,8.26-6.38,8.63-14.18a19.15,19.15,0,0,0-2-10.11Z"/><path class="cls-6" d="M353.46,224.08c-1.92,1.57-5.38-.11-6.24-1.52-1.82-2.89-1.89-7.84-2.18-11A59.7,59.7,0,0,0,343.11,200c-1.34-4.39-3.8-8.35-6.32-12.38-6.1-9.76-16.56-17.81-23.84-26.72-6.2-7.56-10.88-14.54-18-21.29-6.55-6.2-11.14-10.74-21.73-12.88-9.05-1.79-20.55,1-28.41,4.18-6.65,3.74-13.25-.82-19-1.86-12.64-2.25-27.23-.94-35.41,7.53-9.64,10-16,21.71-24.53,32.74a103,103,0,0,1-14.34,15.07c-5.75,5-8.77,10.69-12.08,16.92-4.33,8.14-10.37,16.63-12.77,25.48-3.05-.86-3.93-3.2-3.72-6.07a26.72,26.72,0,0,1,2.08-7.8c1-2.61,2.17-4.95,2.62-6.4a15.25,15.25,0,0,0,.59-2.3c4.75-11.1,11.47-21,19.63-28.19,7.07-6.25,12.94-15.7,19.27-22.24,7.9-8.15,11.4-14.44,18.43-22.3,12.65-14.15,37-13.53,54.6-7.83,20.81-3,32.72-5.54,43-3,15.66,3.83,17.93,13.38,27.13,22.89,15.38,15.88,33.42,33.71,40.74,55.14v0a43.66,43.66,0,0,1,1.49,7.69l1.09,12C353.69,219.59,354.57,223.17,353.46,224.08Z"/><path class="cls-10" d="M186.72,140.55c1.85-8,8.55-13.65,19.16-15.55,3.34-.6,8.28-1.4,11.54-.55,3,.79,5.13,3,8,4.12a6.52,6.52,0,0,0-.64-4.72c3.63,1.93,7.17,6.51,11.82,7,4.84.49,10.62-3.93,14.48-5.56,6.6-2.78,14.87-3.2,22.52-2.56,5.4.45,11,1.72,15.12,4.67,2.55,1.81,3.16,3.69,5.44,5.61-2.45-.1-4.54-2.18-7-3-2.95-.93-5.89-.85-9-1-10.37-.69-18.57-.2-27.81,3.39-11.82,4.58-23.15,4.41-36.23,4.41C204.29,136.79,195.85,136.1,186.72,140.55Z"/><path d="M266.41,358.49h0a3.13,3.13,0,0,1-3.65-2l-4.86-17.27a2.48,2.48,0,0,1,2.2-3h0a3.09,3.09,0,0,1,3.59,1.91l4.94,17.23A2.55,2.55,0,0,1,266.41,358.49Z"/><path d="M273.36,354.91h0a3.14,3.14,0,0,1-3.65-2l-4.8-16.69a2.46,2.46,0,0,1,2.18-3h0a3.1,3.1,0,0,1,3.59,1.9l4.87,16.66A2.51,2.51,0,0,1,273.36,354.91Z"/><path class="cls-6" d="M268.77,266.41a44.69,44.69,0,0,0-4.51-8.68,58.7,58.7,0,0,0-5.92-7.74c-4.38-4.77-9.4-9.07-15.24-11.77a25.76,25.76,0,0,0-9.2-2.46,31.73,31.73,0,0,0-9.57.62c-6.32,1.42-12.07,4.76-17.58,8.29a75,75,0,0,1,8.14-5.57,40.12,40.12,0,0,1,9.17-3.82,30.56,30.56,0,0,1,9.95-.91,26.72,26.72,0,0,1,9.71,2.51,41.74,41.74,0,0,1,8.42,5.36,56.94,56.94,0,0,1,7.05,7A48.17,48.17,0,0,1,268.77,266.41Z"/><path class="cls-6" d="M261.27,314.24a38.55,38.55,0,0,0-3.84-7.41,49.13,49.13,0,0,0-5.06-6.6,55.85,55.85,0,0,0-6-5.7,34.65,34.65,0,0,0-7-4.35,24.7,24.7,0,0,0-16-1.56c-5.4,1.21-10.3,4.06-15,7.07a62.65,62.65,0,0,1,7-4.75,34,34,0,0,1,7.82-3.26,25.8,25.8,0,0,1,8.49-.76A23.23,23.23,0,0,1,239.9,289a43.77,43.77,0,0,1,21.37,25.2Z"/><rect class="cls-6" x="276.87" y="161.84" width="28.08" height="5.9" rx="2.95"/><rect class="cls-6" x="175.56" y="161.84" width="24.62" height="5.9" rx="2.95"/><path class="cls-6" d="M249.46,402.44a48.66,48.66,0,0,1,7,.53c2.29.3,4.56.55,6.9.87a19.61,19.61,0,0,1-7,.23A31.61,31.61,0,0,1,249.46,402.44Z"/></g><g class="cls-14"><path class="cls-15" d="M-37-112.31V245.37H529.73V-112.31c-81-28.59-144.39-73.29-156-114.43C363.3-263.53,311-218.2,241.35-218c-66.43.13-124.17-42-129.56-6.19C105.71-183.87,43.52-138.79-37-112.31ZM243.73,175.87,107.83-127.32H375Z"/><polygon class="cls-16" points="385.42 -140.45 315.5 32.71 307.7 51.99 305.99 56.21 298.19 75.54 246.26 185.75 208.02 136.01 174.16 51.42 166.01 31.11 97.28 -140.45 385.42 -140.45"/><path class="cls-17" d="M259.88-68.46c5.77,19.24,26.23,146.28,26.23,146.28L245,197S198.18,87.46,199.9,80.83c5.69-22,11.48-106.54,18.3-128.27,2.48-7.92,4.38-15.58,8.88-22.38C238.24-69.82,248.72-68.46,259.88-68.46Z"/><path class="cls-18" d="M112.39-226.73C97.67-221.9,40.89-154.82,43-140.59s47.62,29.35,47.62,29.35L74.62-65S203,181.6,241.35,197,99.55-159,99.55-159Z"/><path d="M112.16-226.47c-.15.15-.19.27-.3.31l-.54.25c-.4.18-.78.4-1.16.6-.75.44-1.49.91-2.21,1.41-1.44,1-2.83,2.09-4.19,3.21-2.72,2.25-5.31,4.66-7.85,7.11-5.08,4.93-9.92,10.09-14.62,15.38A348.23,348.23,0,0,0,55-164.93C53-162,51.06-159,49.26-156a67,67,0,0,0-4.73,9.43,16,16,0,0,0-1.19,5A8.7,8.7,0,0,0,45-136.8a30.48,30.48,0,0,0,7.55,7.21,114.2,114.2,0,0,0,18.52,10.21c6.44,2.9,13,5.51,19.71,7.81l.34.11-.12.34L75-64.87h0l0-.28q20.48,38.87,41.93,77.2c14.29,25.56,28.87,51,44,76Q172.16,106.91,184,125.4c7.92,12.31,16,24.49,24.67,36.29,4.33,5.89,8.78,11.69,13.5,17.25,2.37,2.77,4.8,5.49,7.37,8.06a58.92,58.92,0,0,0,8.19,7.07,18.6,18.6,0,0,0,4.62,2.42,2.68,2.68,0,0,0,2.06-.06,2.78,2.78,0,0,0,1.14-1.74,16,16,0,0,0,.31-5.17c-.13-1.78-.39-3.57-.7-5.36A182.52,182.52,0,0,0,239.59,163c-4.42-13.92-9.55-27.64-14.85-41.28S213.87,94.58,208.2,81.08C196.85,54.09,185,27.3,173,.6s-24.29-53.29-36.7-79.82l-18.74-39.73-9.45-19.82-4.76-9.9c-1.58-3.3-3.28-6.54-4.14-10.19h0l0,0v-.17a48.51,48.51,0,0,1,1-8.47l1.64-8.35,3.32-16.69Zm.47-.53-5.84,33.84L103.69-176l-1.58,8.59a50.62,50.62,0,0,1-2.21,8.46l0-.22h0c2.33,2.94,3.8,6.29,5.4,9.59l4.74,9.91,9.43,19.84,18.69,39.77Q156.7-40.25,174.73-.17c12,26.72,23.78,53.55,35.1,80.57,5.65,13.51,11.19,27.08,16.49,40.74s10.41,27.4,14.83,41.4a180.77,180.77,0,0,1,5.57,21.34,53.59,53.59,0,0,1,.72,5.53,17.57,17.57,0,0,1-.38,5.74,4.34,4.34,0,0,1-1.89,2.67,4.2,4.2,0,0,1-3.28.2,20.05,20.05,0,0,1-5.08-2.64,61.66,61.66,0,0,1-8.41-7.27c-2.6-2.62-5.05-5.37-7.43-8.17-4.75-5.6-9.22-11.43-13.55-17.35-8.64-11.85-16.76-24.06-24.67-36.4s-15.58-24.82-23.1-37.39c-15-25.15-29.51-50.62-43.7-76.24S87.86-38.85,74.31-64.82L74.24-65l.05-.14h0l16-46.24.23.45q-10.08-3.45-19.78-7.83A114.67,114.67,0,0,1,52.12-129a31.05,31.05,0,0,1-7.73-7.4,9.33,9.33,0,0,1-1.76-5.15,16.44,16.44,0,0,1,1.24-5.26,65.89,65.89,0,0,1,4.78-9.54c1.81-3.06,3.73-6,5.74-9a348.62,348.62,0,0,1,26.36-33.34c4.72-5.3,9.57-10.48,14.66-15.42,2.55-2.46,5.16-4.88,7.89-7.14,1.37-1.14,2.78-2.23,4.24-3.25.73-.52,1.49-1,2.27-1.44.4-.22.79-.44,1.2-.63.23-.1.37-.18.67-.29A3.05,3.05,0,0,1,112.63-227Z"/><path class="cls-18" d="M370.53-221.14c17.44,2.67,78.5,71.36,76.35,85.32s-47.8,28.8-47.8,28.8l16.09,45.38C414.61-61.29,268.9,191,245,197,204.9,207.05,388.47-145.6,389.35-150.47,386.31-205,370.53-221.14,370.53-221.14Z"/><path d="M370.22-221.3a1.32,1.32,0,0,1,.64-.13,1.6,1.6,0,0,1,.25,0l.17,0c.23,0,.45.12.68.18.44.13.88.29,1.31.46a24.75,24.75,0,0,1,2.5,1.17,49.67,49.67,0,0,1,4.68,2.87c3,2.06,5.86,4.33,8.64,6.68,5.55,4.71,10.8,9.75,15.9,14.93a336,336,0,0,1,28.48,33q3.27,4.38,6.28,8.93a82.27,82.27,0,0,1,5.45,9.48,25.29,25.29,0,0,1,1.87,5.19,7.5,7.5,0,0,1,.14,2.84,9.47,9.47,0,0,1-.94,2.66,17.94,17.94,0,0,1-3.41,4.36,37.31,37.31,0,0,1-4.22,3.52,109.76,109.76,0,0,1-19.12,10.51q-10,4.42-20.34,7.9l.23-.46L415.5-61.76h0l0,.1-.19.31L393.54-24q-11,18.72-22.09,37.36c-14.83,24.86-29.79,49.64-45.1,74.2s-30.93,49-47.57,72.69c-4.17,5.93-8.42,11.8-12.86,17.55-2.22,2.87-4.49,5.71-6.85,8.49a89.11,89.11,0,0,1-7.57,8,22.32,22.32,0,0,1-4.66,3.41l-.73.32a7.44,7.44,0,0,1-2.41.5,4.88,4.88,0,0,1-3.45-1.12,6.14,6.14,0,0,1-1.77-2.94,13.21,13.21,0,0,1-.51-3,33.09,33.09,0,0,1,.23-5.66A88,88,0,0,1,240.3,175c.88-3.55,1.89-7.05,3-10.52,4.33-13.89,9.52-27.43,14.94-40.87s11.12-26.75,17-40c11.68-26.5,23.88-52.76,36.3-78.91s25.1-52.16,37.91-78.12l38.46-77.35,0,.36-.61-9.19-.86-9.17c-.4-3-.78-6.09-1.24-9.12s-1-6.06-1.68-9a135.69,135.69,0,0,0-4.87-17.71,82.78,82.78,0,0,0-3.53-8.48c-.69-1.36-1.39-2.72-2.17-4-.37-.66-.81-1.29-1.21-1.94L371-220c-.11-.16-.24-.3-.35-.45l-.18-.22A1,1,0,0,1,370.22-221.3Zm.62.32c.16,0,.14-.24.16-.18l.19.22c.13.15.27.29.39.45l.74.91c.45.64.93,1.26,1.35,1.91s.87,1.3,1.26,2l1.17,2a85.5,85.5,0,0,1,3.95,8.46,114.73,114.73,0,0,1,5.57,17.8c.8,3,1.31,6.07,1.94,9.12s1,6.13,1.5,9.2.78,6.16,1.1,9.25l.74,9.28v.18l0,.18a1.92,1.92,0,0,1-.11.41l-.08.21-.14.35-.29.65-.57,1.26-1.17,2.47L386.14-140l-4.8,9.74-9.67,19.43L352.32-71.94q-19.26,38.89-38,78c-12.45,26.11-24.68,52.32-36.38,78.77-5.84,13.22-11.55,26.51-17,39.89s-10.63,26.88-15,40.6c-1.07,3.44-2.08,6.89-3,10.36a85.23,85.23,0,0,0-2.08,10.46,30.13,30.13,0,0,0-.24,5.17c.09,1.63.49,3.33,1.33,4a2.11,2.11,0,0,0,1.59.48,6,6,0,0,0,1.07-.15l.48-.16.51-.22a20.22,20.22,0,0,0,4.07-3,88.44,88.44,0,0,0,7.37-7.72c2.33-2.73,4.59-5.53,6.81-8.37,4.43-5.68,8.69-11.52,12.87-17.4,16.69-23.59,32.35-47.93,47.82-72.37s30.64-49.09,45.65-73.82q11.26-18.55,22.39-37.19l11.11-18.64,5.54-9.33,2.77-4.67,1.39-2.33.7-1.16.35-.58.18-.3.09-.14a.83.83,0,0,1,.21-.25l-.15.41h0L398.74-106.9l-.12-.34.35-.11c6.86-2.31,13.64-4.94,20.26-7.88a109.15,109.15,0,0,0,19-10.43c2.87-2.14,5.71-4.53,7.42-7.64a8.72,8.72,0,0,0,.86-2.45,6.79,6.79,0,0,0-.13-2.57,25.13,25.13,0,0,0-1.82-5,80.33,80.33,0,0,0-5.4-9.39c-2-3-4.09-6-6.25-8.9a335.87,335.87,0,0,0-28.43-32.92c-5.08-5.17-10.32-10.19-15.85-14.88-2.77-2.34-5.61-4.59-8.58-6.64a47.45,47.45,0,0,0-4.61-2.83,24.41,24.41,0,0,0-2.43-1.14c-.41-.16-.83-.31-1.25-.43-.22-.06-.43-.13-.64-.17l-.16,0-.09,0A.25.25,0,0,0,370.84-221Z"/></g><g class="cls-19"><path class="cls-20" d="M734.44,178.8,463.32-23.86,600.36-133c74-51.65,194.11-51.65,268.16,0l137,109.15Z"/></g></svg>