<svg id="Layer_1" data-name="Layer 1" xmlns="http://www.w3.org/2000/svg" xmlns:xlink="http://www.w3.org/1999/xlink" viewBox="0 0 480 480"><defs><style>.cls-1,.cls-11{fill:none;}.cls-2{clip-path:url(#clip-path);}.cls-3{fill:#200b17;stroke-width:3.05px;}.cls-11,.cls-14,.cls-16,.cls-3,.cls-4,.cls-5,.cls-6,.cls-7{stroke:#000;stroke-miterlimit:10;}.cls-4,.cls-6{fill:#f1f3f4;}.cls-4{stroke-width:2.22px;}.cls-10,.cls-5{fill:#fff;}.cls-5{stroke-width:0.94px;}.cls-6{stroke-width:2.08px;}.cls-7{fill:#540b17;stroke-width:1.98px;}.cls-8{fill:#ae7f85;}.cls-9{fill:#c49ba1;}.cls-11{stroke-width:0.59px;}.cls-12{fill:#44323f;}.cls-13{clip-path:url(#clip-path-2);}.cls-14{fill:#1e1411;stroke-width:4.38px;}.cls-15{clip-path:url(#clip-path-3);}.cls-16{fill:#eaa5a2;}</style><clipPath id="clip-path"><rect class="cls-1" x="26.17" y="26.17" width="427.65" height="427.65" rx="150.64" transform="translate(240 -99.41) rotate(45)"/></clipPath><clipPath id="clip-path-2"><rect class="cls-1" x="-463.83" y="-463.83" width="427.65" height="427.65" rx="150.64" transform="translate(-250 103.55) rotate(45)"/></clipPath><clipPath id="clip-path-3"><rect class="cls-1" x="26.17" y="-463.83" width="427.65" height="427.65" rx="150.64" transform="translate(-106.48 -242.93) rotate(45)"/></clipPath></defs><title>HIPPO</title><g class="cls-2"><path class="cls-3" d="M30.25,389.29V699.85h419.5V389.29C333.18,341,342.39,297.22,236.3,297.48,132.67,297.72,143.7,345.54,30.25,389.29ZM235.93,677.12,137.47,376.25H335.2Z"/><polygon class="cls-4" points="335.16 380.98 287.18 523.09 281.83 538.91 280.66 542.38 275.31 558.24 245.61 646.13 235.89 674.92 227.5 649.88 213.43 607.87 190.19 538.45 184.6 521.78 137.44 380.98 335.16 380.98"/><rect class="cls-5" x="227.92" y="363.7" width="18.33" height="140.13"/><path class="cls-6" d="M335.2,376c2.29,14.64-23.21,21.22-51.85,26.9l-10.72,3.86-35.91-30.16s64.5-74.46,83.36-62.84c7.39,1.52,11.16,18.48,13.1,35.37C335.17,366.75,335.2,376,335.2,376Z"/><path class="cls-6" d="M235.9,376.64,200,406.8l-12.47-4.5c-29.49-6.76-52.05-14.78-50.08-27.25,0,0,1-6.77,3.16-23.39,2.31-17.48,6-35.68,11.27-36.67C170.52,295.4,235.9,376.64,235.9,376.64Z"/><path class="cls-7" d="M221.24,384.21c-5.74,13.6-10.3,28.55-20,28.55s-9.51-6.09-9.69-12.73c-.35-13.5,3.43-15.31,3.43-24.73,0-8.57-3.78-10.67-2.95-22.89.52-7.6,3-14.57,11.3-14.57s14.45,17,17.92,30.73Z"/><path class="cls-7" d="M250.65,386.12c5.75,13.6,10.3,28.55,20,28.55s9.52-6.09,9.69-12.73c.36-13.5-3.42-15.31-3.42-24.73,0-8.57,3.78-10.67,2.94-22.88-.51-7.61-3-14.58-11.29-14.58s-14.46,17-17.93,30.73Z"/><rect class="cls-7" x="213.77" y="360.12" width="42.28" height="34.18" rx="9.72"/><path class="cls-8" d="M350.21,268.37a11,11,0,0,1-1.64,3.74c-2.74,18.07-11,30.57-28,40.89,0,17.08-13,27.25-29,27.25-36.12,8.7-72.08,7.29-108,0-15.94,0-28.74-10.17-28.74-27.25-14.54-12.3-25-23.76-28-40.89a8.17,8.17,0,0,1-1-1.72c-3.2-6.84-3.08-23.85,1-29.38a536.86,536.86,0,0,1,28-91.64c-8.31-92.6,176.26-100.81,165.74,0,14,26,22.5,57.41,28,91.64C352.4,247,352.25,261.06,350.21,268.37Z"/><path d="M350.61,268.49a15.88,15.88,0,0,1-.69,2,8.33,8.33,0,0,1-1.05,1.88h0l.08-.19a65.29,65.29,0,0,1-3.13,12.53,49.29,49.29,0,0,1-5.94,11.46,53.28,53.28,0,0,1-8.65,9.59,76.72,76.72,0,0,1-10.43,7.59L321,313a29.43,29.43,0,0,1-2.1,11,25.19,25.19,0,0,1-6.45,9.19,27.61,27.61,0,0,1-9.72,5.61,34.53,34.53,0,0,1-11.09,1.79h.09a221.23,221.23,0,0,1-54.08,6,286.93,286.93,0,0,1-54.11-6h.08a34.6,34.6,0,0,1-11-1.78,27.43,27.43,0,0,1-9.66-5.64,25.12,25.12,0,0,1-6.36-9.21,29.78,29.78,0,0,1-2.05-11l.13.3c-6.43-5.47-12.72-11.23-17.86-18a56.87,56.87,0,0,1-6.53-10.92,50.42,50.42,0,0,1-3.7-12.18h0l.08.18a10.87,10.87,0,0,1-2-3.67,19.5,19.5,0,0,1-.58-2c-.18-.66-.33-1.33-.45-2a48.25,48.25,0,0,1-.7-8.13,47.14,47.14,0,0,1,.72-8.12,18.32,18.32,0,0,1,3-7.66h0l-.07.15q2.17-11.81,5-23.48c.95-3.89,1.93-7.77,3-11.64s2.17-7.7,3.32-11.54c2.3-7.67,4.74-15.3,7.5-22.82l2.12-5.62,2.23-5.58c1.5-3.71,3.12-7.37,4.81-11h0l0,.18a57.92,57.92,0,0,1,4.89-30.86,63.16,63.16,0,0,1,20.29-23.87A92.78,92.78,0,0,1,207.94,81a117.85,117.85,0,0,1,31-4.76A111.24,111.24,0,0,1,270.16,80a81.36,81.36,0,0,1,28.28,13.54,57.77,57.77,0,0,1,18.89,24.84c3.86,9.84,4.73,20.62,3.65,31v0l-.05-.22a190.23,190.23,0,0,1,10.43,21.74c3,7.47,5.63,15.09,7.94,22.79s4.22,15.53,5.94,23.38c.86,3.93,1.65,7.87,2.4,11.82l1.08,5.93a18.66,18.66,0,0,1,.23,6.07v0l-.06-.15a5.85,5.85,0,0,1,2.14,3,16,16,0,0,1,.51,1.76c.15.58.28,1.17.38,1.76a40.7,40.7,0,0,1,.57,7.12,53.82,53.82,0,0,1-.47,7.07A42.28,42.28,0,0,1,350.61,268.49Zm-.81-.23a47.88,47.88,0,0,0,.9-13.72,52.34,52.34,0,0,0-.86-6.78c-.1-.56-.23-1.1-.37-1.64s-.3-1.08-.47-1.6-.34-1-.45-1.59a9.45,9.45,0,0,1-.3-1.72v0l-.06-.1v0a19,19,0,0,1-1.74-5.8l-1-5.91c-.72-3.94-1.48-7.86-2.31-11.77q-2.47-11.74-5.72-23.29c-2.15-7.7-4.61-15.31-7.46-22.78a215,215,0,0,0-9.65-21.94l-.05-.11v-.14c1-10.32.1-20.95-3.74-30.61a54.51,54.51,0,0,0-7.67-13.45,60.38,60.38,0,0,0-11-10.89A80.4,80.4,0,0,0,269.87,81,110,110,0,0,0,239,77.41a116.66,116.66,0,0,0-30.72,4.76A91.59,91.59,0,0,0,180.4,95.69a62.27,62.27,0,0,0-19.86,23.4,56.55,56.55,0,0,0-4.6,14.75,65.88,65.88,0,0,0-.7,15.5v.09l0,.09h0c-.63,1.9-1.32,3.78-2,5.66s-1.33,3.77-2,5.65l-3.92,11.31c-2.58,7.54-5.14,15.1-7.49,22.72q-1.75,5.73-3.4,11.48t-3.25,11.52q-3.09,11.56-5.9,23.22v0l-.06.1h0a13.88,13.88,0,0,0-1.51,3.56,29.27,29.27,0,0,0-.82,3.85,58.28,58.28,0,0,0,0,15.83c.08.65.19,1.3.33,1.94s.29,1.28.46,1.91a10.91,10.91,0,0,0,1.53,3.52l.06.09,0,.09h0a50.29,50.29,0,0,0,3.65,12,55.77,55.77,0,0,0,6.45,10.77c5.07,6.71,11.32,12.44,17.74,17.89l.13.12V313a29.25,29.25,0,0,0,2,10.72,24.52,24.52,0,0,0,6.16,8.92,26.64,26.64,0,0,0,9.4,5.48,33.52,33.52,0,0,0,10.8,1.75h.07a284.82,284.82,0,0,0,54,6,220.6,220.6,0,0,0,53.89-6h.09a34,34,0,0,0,10.84-1.75,27.15,27.15,0,0,0,9.46-5.46,24.6,24.6,0,0,0,6.25-8.91,28.77,28.77,0,0,0,2-10.75v-.21l.19-.11a75.42,75.42,0,0,0,10.32-7.52,53.07,53.07,0,0,0,8.53-9.44,49.2,49.2,0,0,0,5.85-11.29,64.27,64.27,0,0,0,3.09-12.38l0-.1.06-.08h0A10.24,10.24,0,0,0,349.8,268.26Z"/><path class="cls-9" d="M350.21,268.37a11,11,0,0,1-1.64,3.74c-2.74,18.07-11,30.57-28,40.89,0,17.08-13,27.25-29,27.25-36.12,8.7-72.08,7.29-108,0-15.94,0-28.74-10.17-28.74-27.25-14.54-12.3-25-23.76-28-40.89a8.17,8.17,0,0,1-1-1.72c3.53-1.19,7.08-2.22,10.58-1.51,5.27,1.06,8.91,5.67,12.71,9.47A54.92,54.92,0,0,0,202.4,291.9c8.68-2.55,16.92-7.35,26-7.42,8-.05,15.43,3.57,22.91,6.32,10.46,3.86,21.71,6.12,32.78,4.84s22-6.42,28.77-15.26c3.29-4.3,6-9.67,11.05-11.52,7.09-2.58,15.43,1.55,23,0A23.72,23.72,0,0,1,350.21,268.37Z"/><path d="M350.51,268.13a1.38,1.38,0,0,1,0,.54,1.18,1.18,0,0,1,0,.18l0,.13-.16.5a8.87,8.87,0,0,1-.36,1,7.58,7.58,0,0,1-1,1.88h0l.08-.19a65.3,65.3,0,0,1-2.9,12.61,49.87,49.87,0,0,1-5.77,11.66,54.37,54.37,0,0,1-8.57,9.85,76.42,76.42,0,0,1-10.4,7.88h0L322,313a30.29,30.29,0,0,1-2.13,11.42,26.19,26.19,0,0,1-6.67,9.6,28.87,28.87,0,0,1-10.08,5.88,35.24,35.24,0,0,1-11.45,1.88l.36,0a216.24,216.24,0,0,1-27,4.71,223.2,223.2,0,0,1-27.36,1.32,286.93,286.93,0,0,1-54.29-6.19l.27,0a35.12,35.12,0,0,1-11.35-1.87,27.58,27.58,0,0,1-9.9-5.93,25.58,25.58,0,0,1-7.64-15.15c-.09-.94-.23-1.88-.26-2.82l0-2.82h0l.13.3a53,53,0,0,1-9.78-8.14,86.74,86.74,0,0,1-8.45-9.6,56.19,56.19,0,0,1-6.44-11.08,48.09,48.09,0,0,1-3.42-12.3h0l.08.18a8,8,0,0,1-1.1-1.8h0l-.18-.39.41-.14a29.12,29.12,0,0,1,7.55-1.74,12.65,12.65,0,0,1,7.52,2c4.48,2.78,7.44,7.14,11.34,10.34a54.82,54.82,0,0,0,27.36,12.35,54.15,54.15,0,0,0,15.15.15c1.26-.13,2.49-.43,3.74-.63s2.45-.62,3.68-.92c2.44-.69,4.82-1.59,7.2-2.5,4.76-1.81,9.55-3.79,14.69-4.62a28,28,0,0,1,7.76-.21,40.3,40.3,0,0,1,7.56,1.66c4.93,1.52,9.59,3.65,14.4,5.27a82.83,82.83,0,0,0,14.77,3.66,59.5,59.5,0,0,0,15.14.38,47.47,47.47,0,0,0,14.55-4,38.71,38.71,0,0,0,12.21-8.74,50.1,50.1,0,0,0,4.62-6,29.75,29.75,0,0,1,5-5.93,12,12,0,0,1,3.42-2.06,14.82,14.82,0,0,1,3.87-.9,33.53,33.53,0,0,1,7.77.34,69.91,69.91,0,0,0,7.55.75,20.84,20.84,0,0,0,3.71-.23c.61-.07,1.27-.21,1.91-.28l1-.09.49,0h.25a1,1,0,0,1,.26,0A.87.87,0,0,1,350.51,268.13Zm-.6.48a.16.16,0,0,0,.06.15s.09,0,0,0l-.24,0-.46.07c-.31.05-.61.1-.92.17-.63.11-1.21.27-1.87.38a18.41,18.41,0,0,1-3.91.35,66.75,66.75,0,0,1-7.69-.77,32.7,32.7,0,0,0-7.5-.35,11.73,11.73,0,0,0-6.69,2.69c-3.79,3.2-5.94,8.08-9.57,11.83a39.65,39.65,0,0,1-12.57,9,48.44,48.44,0,0,1-14.89,4.06,60.59,60.59,0,0,1-15.4-.41,83.31,83.31,0,0,1-14.94-3.73c-4.87-1.65-9.53-3.78-14.37-5.29a39.89,39.89,0,0,0-7.38-1.63,27.31,27.31,0,0,0-7.5.19c-5,.79-9.73,2.74-14.51,4.54-2.39.91-4.79,1.81-7.27,2.52-1.25.3-2.49.67-3.75.92s-2.53.51-3.81.64A56,56,0,0,1,151.6,281.2c-4-3.3-6.95-7.65-11.23-10.3a11.9,11.9,0,0,0-7.06-1.84,27.73,27.73,0,0,0-7.34,1.69l.22-.52h0a7.66,7.66,0,0,0,1,1.63l.06.07,0,.11h0a52.65,52.65,0,0,0,3.92,11.87,56.84,56.84,0,0,0,6.55,10.62,86.77,86.77,0,0,0,8.37,9.32c3,2.94,6.25,5.58,9,8.85l.12.14,0,.15h0l.28,2.73c.11.9.33,1.79.49,2.68a30.91,30.91,0,0,0,1.69,5.11,24.44,24.44,0,0,0,6.23,8.52,26.53,26.53,0,0,0,9.16,5.19,32.71,32.71,0,0,0,10.5,1.65h.13l.14,0a283.79,283.79,0,0,0,53.78,5.8,236.31,236.31,0,0,0,27-1.34,213.93,213.93,0,0,0,26.61-4.62l.18,0h.18a33.11,33.11,0,0,0,10.48-1.65,25.83,25.83,0,0,0,9.11-5.2,23.44,23.44,0,0,0,6-8.5,27.81,27.81,0,0,0,2-10.36v-.76l.64-.39h0a73.82,73.82,0,0,0,10.35-7.24,51.94,51.94,0,0,0,8.61-9.17,48.5,48.5,0,0,0,6-11.1,64.64,64.64,0,0,0,3.31-12.29l0-.1.06-.08h0a7,7,0,0,0,.93-1.7c.13-.31.24-.62.35-.94l.15-.47,0-.12c0-.05,0-.09,0-.06A.16.16,0,0,0,349.91,268.61Z"/><path d="M278.05,321.73a2.36,2.36,0,0,1-.86,1.15,9.35,9.35,0,0,1-1.11.79,25.51,25.51,0,0,1-2.39,1.21c-1.62.72-3.29,1.3-5,1.86a97.57,97.57,0,0,1-10.22,2.63c-3.44.74-6.93,1.23-10.43,1.66a95.86,95.86,0,0,1-10.6.55,128,128,0,0,1-21-2.16A96.19,96.19,0,0,1,206.23,327a44.42,44.42,0,0,1-5-1.82,20.14,20.14,0,0,1-2.38-1.27,7.35,7.35,0,0,1-1.07-.88,2,2,0,0,1-.61-1.32h.35c.17.72,1,1.14,1.73,1.48a19.41,19.41,0,0,0,2.4.83c1.65.46,3.33.83,5,1.13,3.38.64,6.81,1.07,10.24,1.49,6.85.75,13.75,1.34,20.59,1.4,3.41,0,6.82-.12,10.25-.41s6.84-.66,10.26-1.09,6.83-1,10.21-1.67c1.7-.32,3.38-.71,5-1.15a21.72,21.72,0,0,0,2.44-.79,3.89,3.89,0,0,0,2-1.26Z"/><rect class="cls-10" x="175.66" y="307.71" width="22.11" height="10.58"/><path d="M197.17,308.31v9.38H176.26v-9.38h20.91m1.2-1.2H175.06v11.78h23.31V307.11Z"/><rect class="cls-10" x="277.45" y="307.71" width="22.11" height="10.58"/><path d="M299,308.31v9.38H278.05v-9.38H299m1.2-1.2H276.85v11.78h23.31V307.11Z"/><path class="cls-8" d="M336.4,267.15h0a42.5,42.5,0,0,1-42.5,42.5H273.71c-6.76-.8-9-3.58-16.53-12-2.89-3.24-12.19-5.52-17.06-5.52h-5c-4.87,0-13.94,3.36-16.83,6.59-7.53,8.43-13,10.94-16.76,10.94h-20.2a42.5,42.5,0,0,1-42.5-42.5h0a42.5,42.5,0,0,1,42.5-42.5H187a11.47,11.47,0,0,0,9.54-5.1,31.65,31.65,0,0,1,26.37-14.11h32.41a31.65,31.65,0,0,1,26.37,14.12,11.48,11.48,0,0,0,9.54,5.09h2.7A42.5,42.5,0,0,1,336.4,267.15Z"/><path d="M337.1,267.15a44.2,44.2,0,0,1-5.52,21.15A43.28,43.28,0,0,1,316.41,304a44,44,0,0,1-10.05,4.56,45.24,45.24,0,0,1-5.39,1.24l-2.73.42-2.77.15c-1.86.14-3.64.07-5.46.1l-5.43,0-10.87,0h-.11a21,21,0,0,1-3.45-.67,15.35,15.35,0,0,1-3.27-1.44,27.16,27.16,0,0,1-5.28-4.5c-1.57-1.64-3.06-3.31-4.55-5l-.57-.62-.51-.5a9.33,9.33,0,0,0-1.23-.87,16.79,16.79,0,0,0-2.86-1.38,37,37,0,0,0-6.25-1.8,29.3,29.3,0,0,0-6.46-.62h-3.35c-.58,0-1.09,0-1.59,0s-1,.11-1.57.21a33.12,33.12,0,0,0-6.23,1.77,27.15,27.15,0,0,0-5.71,2.91,10.2,10.2,0,0,0-1.18.95c-.32.3-.71.73-1.09,1.15-.76.85-1.56,1.66-2.36,2.47a42.34,42.34,0,0,1-5.22,4.48,20.38,20.38,0,0,1-6.32,3.21,11.06,11.06,0,0,1-1.82.36,12.67,12.67,0,0,1-1.81.08H184.15c-1.12,0-2.22,0-3.36,0l-3.44-.18a45.21,45.21,0,0,1-13.3-3.39,44.55,44.55,0,0,1-11.52-7.43l-1.27-1.16a12.66,12.66,0,0,1-1.22-1.21l-2.3-2.55-2-2.77-.5-.69-.44-.74-.87-1.48A43,43,0,0,1,139,276.48a43,43,0,0,1,2.9-26.67,43.2,43.2,0,0,1,7.43-11.3,41.08,41.08,0,0,1,10.5-8.47,45.36,45.36,0,0,1,12.58-4.84,63.18,63.18,0,0,1,13.43-.94,16.06,16.06,0,0,0,3.27-.21,11.37,11.37,0,0,0,3-1.08,11.07,11.07,0,0,0,2.6-1.9,16.44,16.44,0,0,0,2-2.58,32,32,0,0,1,10-9.08,31.64,31.64,0,0,1,12.81-4.18,63.56,63.56,0,0,1,6.74-.18H233l13.42,0h6.7a43.91,43.91,0,0,1,6.76.32A32.09,32.09,0,0,1,272.56,210a33.08,33.08,0,0,1,9.66,9.45,10.91,10.91,0,0,0,4.95,3.9,10.68,10.68,0,0,0,3.1.72c1,.08,2.2,0,3.31,0a46.8,46.8,0,0,1,13.39,2,44,44,0,0,1,12.09,6.09c.89.7,1.85,1.31,2.69,2.08l2.53,2.28a48.33,48.33,0,0,1,4.41,5.17,42.41,42.41,0,0,1,6.23,12A46.5,46.5,0,0,1,337.1,267.15Zm-1.39,0a45.31,45.31,0,0,0-2.06-13,41,41,0,0,0-6-11.7,45.42,45.42,0,0,0-4.26-5L321,235.21c-.81-.75-1.74-1.35-2.61-2a42.73,42.73,0,0,0-11.73-6,46.37,46.37,0,0,0-13-2c-1.13,0-2.21,0-3.4,0a12.12,12.12,0,0,1-3.41-.81,11.93,11.93,0,0,1-5.41-4.31,32.14,32.14,0,0,0-9.33-9.22,31.17,31.17,0,0,0-12.28-4.58,42.94,42.94,0,0,0-6.63-.34l-6.7,0-13.42,0h-6.71a61.37,61.37,0,0,0-6.66.18,30.41,30.41,0,0,0-12.49,4.07,31.09,31.09,0,0,0-9.72,8.86,18.12,18.12,0,0,1-2.12,2.67,11.91,11.91,0,0,1-2.79,2,12.11,12.11,0,0,1-3.25,1.15,15.9,15.9,0,0,1-3.42.22,63.14,63.14,0,0,0-13.27.92,42.33,42.33,0,0,0-12.33,4.8,40.42,40.42,0,0,0-10.19,8.41l-1.11,1.23-1,1.33-1,1.33-.49.67-.42.71c-.57.95-1.15,1.89-1.7,2.85l-1.4,3A44.73,44.73,0,0,0,139.74,263a45.21,45.21,0,0,0,.93,13.08,41.2,41.2,0,0,0,4.92,12.1l.87,1.39.43.69c.15.22.33.44.49.65l2,2.61,2.22,2.41a11.37,11.37,0,0,0,1.17,1.13l1.21,1.1a42.5,42.5,0,0,0,11,6.94,45.69,45.69,0,0,0,12.6,3.15l3.26.16c1.08.06,2.22,0,3.33,0h16.77a10.71,10.71,0,0,0,1.54-.06,8.2,8.2,0,0,0,1.46-.29,18.44,18.44,0,0,0,5.58-2.85,42.09,42.09,0,0,0,5-4.22c.78-.77,1.55-1.55,2.29-2.37.37-.4.73-.8,1.22-1.27a13.56,13.56,0,0,1,1.44-1.14,30,30,0,0,1,6.22-3.14,36,36,0,0,1,6.67-1.84c.58-.1,1.17-.16,1.76-.22s1.22-.05,1.76,0l3.35,0a27,27,0,0,1,3.46.16c1.16.12,2.29.32,3.41.55a38.67,38.67,0,0,1,6.6,1.95,19.31,19.31,0,0,1,3.16,1.56,10.83,10.83,0,0,1,1.49,1.08l.69.67.55.63c1.49,1.67,3,3.36,4.47,5a25.3,25.3,0,0,0,4.86,4.22,13.13,13.13,0,0,0,2.83,1.28,21.15,21.15,0,0,0,3.13.63h-.11l10.87,0,5.43,0c1.8,0,3.64.07,5.4-.06l2.66-.12,2.64-.38a42.35,42.35,0,0,0,5.2-1.15,41.25,41.25,0,0,0,9.71-4.34,41.78,41.78,0,0,0,14.69-15.16A42.73,42.73,0,0,0,335.71,267.15Z"/><path d="M221.71,236.2s-16-15.64-19.58-13.78c-5.43,2.83,8.51,14.9,15.22,12.7"/><path class="cls-11" d="M225.23,234.63A3.43,3.43,0,0,1,225,238a6.48,6.48,0,0,1-2.67,2.24,12.77,12.77,0,0,1-12.6-.72"/><path d="M253.51,236.2s16-15.64,19.58-13.78c5.43,2.83-8.51,14.9-15.22,12.7"/><path class="cls-11" d="M250,234.63a3.43,3.43,0,0,0,.28,3.36,6.54,6.54,0,0,0,2.67,2.24,12.79,12.79,0,0,0,12.61-.72"/><path class="cls-8" d="M304.81,116.9c-.89-3.94,1.41-7.92,4.21-10.82s6.22-5.26,8.49-8.6c2-3,3-6.53,3.76-10,1-4.67,1.76-9.66.1-14.15-2.17-5.88-8.42-9.79-14.69-9.86s-12.31,3.35-16.1,8.35a42.37,42.37,0,0,0-4.74,8.7C283.68,85.41,281.68,90.63,282,96a3.36,3.36,0,0,1-.14,1.67c-.68,1.46-2.95,1.06-4.22,2"/><path d="M304.44,117a9.23,9.23,0,0,1,0-3.88,13.4,13.4,0,0,1,1.4-3.59,24,24,0,0,1,4.89-5.81A53.54,53.54,0,0,0,316,98.52a18.73,18.73,0,0,0,3.34-6.36A55.17,55.17,0,0,0,321,85a28.6,28.6,0,0,0,.51-7.24,13.72,13.72,0,0,0-2.16-6.65,14.58,14.58,0,0,0-5.13-4.74,16.13,16.13,0,0,0-6.72-2,16.88,16.88,0,0,0-6.95,1.06,20.91,20.91,0,0,0-10.69,9.09,55,55,0,0,0-3.26,6.57A57.65,57.65,0,0,0,284,88,23.86,23.86,0,0,0,283,95c0,.61.08,1.11.07,1.94a2.81,2.81,0,0,1-.38,1.33,2.67,2.67,0,0,1-1,1,5.62,5.62,0,0,1-2.07.51,8.52,8.52,0,0,0-1.66.23l-.48-.6c1-1.2,2.62-1.32,3.24-1.81a.83.83,0,0,0,.29-.31.78.78,0,0,0,.11-.44c0-.42-.05-1.16-.06-1.8a26.09,26.09,0,0,1,1.16-7.64,61.35,61.35,0,0,1,2.69-7.09,56.62,56.62,0,0,1,3.4-6.79,22.86,22.86,0,0,1,11.67-9.83,18.65,18.65,0,0,1,7.7-1.13,17.31,17.31,0,0,1,7.45,2.3,16.41,16.41,0,0,1,5.66,5.36,15.31,15.31,0,0,1,2.33,7.42,30.59,30.59,0,0,1-.61,7.61,58.73,58.73,0,0,1-1.86,7.33,19.93,19.93,0,0,1-3.71,6.71,55.57,55.57,0,0,1-5.46,5.2,22.94,22.94,0,0,0-4.81,5.47,12.26,12.26,0,0,0-1.37,3.31,8.24,8.24,0,0,0-.06,3.53Z"/><path class="cls-8" d="M170.41,116.9c.89-3.94-1.41-7.92-4.21-10.82s-6.22-5.26-8.49-8.6c-2-3-3-6.53-3.76-10-1-4.67-1.76-9.66-.1-14.15,2.17-5.88,8.42-9.79,14.69-9.86s12.31,3.35,16.1,8.35a41.9,41.9,0,0,1,4.74,8.7c2.16,4.93,4.16,10.15,3.81,15.52a3.36,3.36,0,0,0,.14,1.67c.69,1.46,2.95,1.06,4.22,2"/><path d="M170,116.82a8.33,8.33,0,0,0,0-3.55,12.43,12.43,0,0,0-1.32-3.37,23.26,23.26,0,0,0-4.73-5.62A54,54,0,0,1,158.65,99a19.45,19.45,0,0,1-3.54-6.6,62.65,62.65,0,0,1-1.78-7.27,30.16,30.16,0,0,1-.57-7.47A14.76,14.76,0,0,1,155,70.59a16,16,0,0,1,5.45-5.13,17,17,0,0,1,7.16-2.23,18.15,18.15,0,0,1,7.45,1.05,22.31,22.31,0,0,1,11.53,9.48,55.79,55.79,0,0,1,3.45,6.7,54.71,54.71,0,0,1,2.73,7,26,26,0,0,1,1.2,7.57c0,.63-.07,1.35-.06,1.81a1.12,1.12,0,0,0,.15.54.93.93,0,0,0,.37.37c.73.51,2.27.55,3.34,1.64l-.48.6a7.09,7.09,0,0,0-1.63-.37,5.87,5.87,0,0,1-2-.55,2.41,2.41,0,0,1-.94-.91,2.46,2.46,0,0,1-.35-1.24c0-.78.07-1.31.08-1.92a24.24,24.24,0,0,0-1-7.14A62,62,0,0,0,188.91,81a55.15,55.15,0,0,0-3.2-6.66,21.56,21.56,0,0,0-10.84-9.44,17.35,17.35,0,0,0-7.2-1.14,16.51,16.51,0,0,0-7,2.07,15.12,15.12,0,0,0-5.35,5,14.41,14.41,0,0,0-2.22,7,29.57,29.57,0,0,0,.55,7.38,55.18,55.18,0,0,0,1.79,7.22A19.13,19.13,0,0,0,159,98.78a53.39,53.39,0,0,0,5.36,5.16,24.16,24.16,0,0,1,5,5.65,13.14,13.14,0,0,1,1.45,3.53,9,9,0,0,1,.06,3.87Z"/><path d="M275.19,154.68l1.27,24.93c.1,1.89-1.69,3.44-4,3.44s-4.23-1.55-4.3-3.44l-.38-9.33c2.82,0,4.92-4.1,4.69-9.11a13.23,13.23,0,0,0-1.9-6.49Z"/><path d="M207.58,154.68l-1.07,25c-.08,1.89-2,3.45-4.31,3.45s-4.09-1.56-4-3.45l.5-9.35c2.83,0,5.32-4.11,5.55-9.13a12.41,12.41,0,0,0-1.28-6.51Z"/><path d="M191.22,185.94a22.31,22.31,0,0,0,4.62,1.67,19.59,19.59,0,0,0,4.76.54,18.32,18.32,0,0,0,4.76-.69,18.1,18.1,0,0,0,4.51-2l.5.59a12.1,12.1,0,0,1-4.39,3.1,14.57,14.57,0,0,1-5.32,1.16,14.17,14.17,0,0,1-5.4-.83,11.29,11.29,0,0,1-4.51-3Z"/><path d="M284.47,186.55a12.69,12.69,0,0,1-4.56,2.81,14.9,14.9,0,0,1-5.34.88,14.34,14.34,0,0,1-5.33-1.05,11.49,11.49,0,0,1-4.39-3.1l.5-.59a20.59,20.59,0,0,0,4.51,2,19.19,19.19,0,0,0,4.75.79,17.79,17.79,0,0,0,4.82-.49,17.56,17.56,0,0,0,4.57-1.83Z"/><rect x="271.66" y="137.61" width="24.11" height="4.53" rx="2.26"/><rect x="184.61" y="137.61" width="24.11" height="4.53" rx="2.26"/><path class="cls-12" d="M147,318.89c-10.94,4.32-53.13,64.3-51.54,77s35.38,26.24,35.38,26.24l-11.91,41.36s88.51,198.29,117,212.06-98.48-296.14-98.48-296.14Z"/><path class="cls-12" d="M321.23,314.18c12.91,2.44,58.11,65,56.52,77.74s-35.39,26.24-35.39,26.24l11.91,41.35s-88.51,198.3-117,212.07,97.24-288.57,97.89-293C332.91,328.87,321.23,314.18,321.23,314.18Z"/></g><g class="cls-13"><path class="cls-14" d="M-245.56,178.8-516.68-23.86l137-109.15c74.05-51.65,194.11-51.65,268.16,0l137,109.15Z"/></g><g class="cls-15"><path class="cls-16" d="M462.65-4.11c-2.86,2.18-7.24,2.4-10.67,2.94-21.11,3.29-42.77,2.93-64.06,3.8-34.86,1.42-69.75,1.05-104.61.87-10.5-.06-20.91.1-31.35-.78-3.86-.32-8.76-.27-12.84-1.05-4.06.78-8.91.73-12.73,1.05-10.37.88-20.7.72-31.1.78-34.59.18-69.21.55-103.79-.87C70.37,1.76,48.9,2.12,28-1.17c-3.41-.54-7.76-.76-10.6-2.94A159.11,159.11,0,0,0,25.49-39C27.79-57,31.6-74.85,34-92.75c19.33-1.45,37.34-5.54,55.71-11.53,25-8.14,50.67-15,74.79-25.35,6.06,3.69,14,2.78,21,2.78,13.52,0,27.6-.64,41,1.24,5.73.8,10.1,1.94,12.64,6,2.55-4,7-5.18,12.73-6,13.46-1.88,27.67-1.24,41.3-1.24,7,0,15,.91,21.12-2.78,24.33,10.32,50.25,17.21,75.4,25.35,18.53,6,36.68,10.08,56.16,11.53,2.46,17.9,6.29,35.75,8.63,53.72A157.52,157.52,0,0,0,462.65-4.11Z"/></g></svg>