<svg id="Layer_1" data-name="Layer 1" xmlns="http://www.w3.org/2000/svg" xmlns:xlink="http://www.w3.org/1999/xlink" viewBox="0 0 480 480"><defs><style>.cls-1,.cls-17,.cls-22,.cls-29,.cls-8{fill:none;}.cls-2{clip-path:url(#clip-path);}.cls-3{fill:#333;stroke-width:0.76px;}.cls-22,.cls-27,.cls-29,.cls-3,.cls-4,.cls-6{stroke:#000;}.cls-15,.cls-17,.cls-21,.cls-22,.cls-26,.cls-27,.cls-29,.cls-3,.cls-4,.cls-6,.cls-8,.cls-9{stroke-miterlimit:10;}.cls-4{fill:#101317;stroke-width:0.71px;}.cls-5{clip-path:url(#clip-path-2);}.cls-6{fill:#1e1411;stroke-width:4.38px;}.cls-27,.cls-7,.cls-9{fill:#fff;}.cls-8{stroke:#8e9c9c;stroke-width:3.82px;}.cls-9{stroke:#140e0a;stroke-width:1.3px;}.cls-10{fill:#8e9c9c;}.cls-11{fill:#c84208;}.cls-12{fill:#8f2f06;}.cls-13,.cls-26{fill:#ce6c08;}.cls-14{fill:#663504;}.cls-15,.cls-16{fill:#e3d5c1;}.cls-15,.cls-17{stroke:#94661d;stroke-width:1.7px;}.cls-18{fill:#e6a845;}.cls-19{fill:#94661d;}.cls-20{fill:#dfe6e1;}.cls-21{fill:#792e22;stroke-width:1px;}.cls-21,.cls-26{stroke:#663504;}.cls-22{stroke-width:0.73px;}.cls-23{fill:#030805;}.cls-24{fill:#503629;}.cls-25{fill:#b08470;}.cls-26{stroke-width:1.94px;}.cls-27{stroke-width:1.81px;}.cls-28{opacity:0.2;}.cls-29{stroke-width:0.3px;}</style><clipPath id="clip-path"><rect class="cls-1" x="-463.83" y="26.17" width="427.65" height="427.65" rx="150.64" transform="translate(96.48 247.07) rotate(45)"/></clipPath><clipPath id="clip-path-2"><rect class="cls-1" x="26.17" y="26.17" width="427.65" height="427.65" rx="150.64" transform="translate(240 -99.41) rotate(45)"/></clipPath></defs><title>LION</title><g class="cls-2"><path class="cls-3" d="M-247.07,477.94c-168.7,0-286.15-63.38-281.86-81.49s95.83-56.58,104.42-58.85,20.74-10.56,35-33.2,17.16-95.06,14.22-106.58l128.18,13.78,128.19-13.78c-3,11.52-.08,83.95,14.22,106.58s26.46,30.94,35,33.2S30.51,378.34,34.8,396.45-78.36,477.94-247.07,477.94Z"/><path class="cls-4" d="M-527,377.69V735.37H39.73V377.69c-81-28.59-144.39-73.29-156-114.43C-126.7,226.47-179,271.8-248.65,272c-66.43.13-124.17-42-129.56-6.19C-384.29,306.13-446.48,351.21-527,377.69Zm280.76,288.18-135.9-303.19H-115Z"/></g><g class="cls-5"><path class="cls-6" d="M244.44,668.8-26.68,466.14,110.36,357c74.05-51.65,194.11-51.65,268.16,0l137,109.15Z"/><polygon class="cls-7" points="363.92 384.86 318.04 572.2 161.28 572.2 126.88 381.04 363.92 384.86"/><line class="cls-8" x1="140.25" y1="393.41" x2="186.14" y2="658.22"/><line class="cls-8" x1="155.54" y1="393.41" x2="201.43" y2="658.22"/><line class="cls-8" x1="170.84" y1="393.41" x2="216.72" y2="658.22"/><line class="cls-8" x1="186.13" y1="393.41" x2="232.01" y2="658.22"/><line class="cls-8" x1="201.42" y1="393.41" x2="247.31" y2="658.22"/><line class="cls-8" x1="216.71" y1="393.41" x2="262.6" y2="658.22"/><line class="cls-8" x1="350.01" y1="399.04" x2="281.96" y2="659.04"/><line class="cls-8" x1="334.77" y1="397.75" x2="266.72" y2="657.75"/><line class="cls-8" x1="319.95" y1="398.24" x2="251.49" y2="656.46"/><line class="cls-8" x1="300.83" y1="405.89" x2="236.25" y2="655.17"/><line class="cls-8" x1="289.05" y1="393.88" x2="221.01" y2="653.88"/><line class="cls-8" x1="273.82" y1="392.59" x2="205.77" y2="652.59"/><path class="cls-9" d="M153.64,342.81l-38.23,41.57,129,35,131-35.13-42.05-41.43C333.33,393.3,153.64,393.3,153.64,342.81Z"/><polygon class="cls-10" points="366.67 389.54 275.98 423.09 272.14 408.43 367.74 384.86 366.67 389.54"/><polygon class="cls-10" points="120.3 389.54 210.99 423.09 214.81 407.8 119.23 384.86 120.3 389.54"/><path class="cls-11" d="M104.72,155.07c-1.1,2.22-2.16,4.48-3.21,6.76A112.27,112.27,0,0,0,95,179c-1.17,4.24-3.23,9.12-3,13.59,2.15-1.31,4.62-2.47,6.88-3.74-1.22,10.08-4.42,19.87-4.8,30.11a275.61,275.61,0,0,0,.66,32.66,16.93,16.93,0,0,1,1.77-1.32c-1.15,5-.78,11-1,16.13-.16,3.24-.07,6.52,0,9.77a101.92,101.92,0,0,0,1.25,16.69c.64,3.53-.11,7.38.49,11A66,66,0,0,0,103.25,323a55.38,55.38,0,0,0,6.39,9.85c24.62,30.31,40.63,37.36,75.62,54.5,15.71,7.7,34.5,19.62,32.81,48.5,11.85-16.49,41.46-18,48.19,3.35,3.78-6.48,16-42.12,31.61-49.9,17.19-8.54,34.75-16.93,49.79-29,7.75-6.24,13.8-13.81,20.94-20.6,3.61-3.44,6.52-4.07,8.57-9.15A81.19,81.19,0,0,0,380.63,319c2.49-10.41,2.26-20.59,1.65-31.17-.78-13.5-.72-27-1.43-40.52-.33-6.3-.46-12.54-1.49-18.79-.8-4.82-3.53-11.82-2.5-16.55,2.78,1.84,4.42,5,6.95,6.9.35-6.58-13.58-54.05-17-59.73-2.76-4.61-3.1-9-4.4-14.14-1.52-5.92-3.38-8.46-8.26-11.9-10.67-7.54-16.43-18.82-25-28.44-7.87-8.79-16.39-18.4-26.44-24.71-12.77-8-28.09-9.12-42.65-10a241.9,241.9,0,0,0-38.54.25c-6.05.58-13.87.17-19.52,2.38,4.15-.57,10.42,3.21,13.05,5.92-6,.64-11.51-.53-17.61.64-9.12,1.74-17.58,3.59-26.24,7-10.41,4.11-25.87,10.27-32.26,20,4.75,1.32,9.82,1.42,14.41,3.39-.35-.15-6.08,5.17-6.8,5.71-2.47,1.84-5,3.55-7.6,5.22-5.26,3.4-10.65,6.62-15.67,10.37C114.74,137.1,109.34,145.78,104.72,155.07Z"/><path class="cls-12" d="M105.61,155.51c-1.4,3-2.88,6-4.21,9s-2.57,6.07-3.64,9.18c-.54,1.55-1,3.12-1.49,4.69s-.94,3.24-1.44,4.8c-1,3.14-1.91,6.3-1.78,9.38l-1.59-.84c2.3-1.4,4.68-2.52,6.91-3.77l1.82-1L99.94,189c-.64,5.3-1.8,10.47-2.82,15.62a89.46,89.46,0,0,0-2,15.48,274.76,274.76,0,0,0,.74,31.44L94,250.75a17.52,17.52,0,0,1,1.89-1.41l2.33-1.49-.6,2.72c-1,4.73-.77,9.79-.94,14.9-.13,2.54-.15,5-.11,7.53s0,5.06.13,7.56.24,5,.5,7.48c.13,1.24.29,2.47.49,3.69l.16.92c0,.33.12.67.15,1a19.39,19.39,0,0,1,.14,2c.08,2.63-.15,5.13.15,7.46a69.57,69.57,0,0,0,1.51,7.27,59.35,59.35,0,0,0,5.46,13.79,54.94,54.94,0,0,0,4,6.21c1.48,2,3.18,3.87,4.77,5.81a158,158,0,0,0,21.31,21.19,153.34,153.34,0,0,0,25.32,16.19c8.91,4.72,18,9,27.14,13.52a87.91,87.91,0,0,1,13.18,8,49.38,49.38,0,0,1,10.91,11.11,41.4,41.4,0,0,1,6.36,14.27,50.57,50.57,0,0,1,1.2,7.72,67.31,67.31,0,0,1,.05,7.78l-2.69-1a31.16,31.16,0,0,1,11.88-9.79,34,34,0,0,1,15-3.37,26.84,26.84,0,0,1,14.84,4.38,22.42,22.42,0,0,1,5.66,5.5,24.79,24.79,0,0,1,3.5,7l-2.8-.32c.64-1.13,1.24-2.48,1.83-3.78l1.75-4c1.16-2.67,2.33-5.34,3.54-8,2.44-5.32,5-10.6,8-15.7a68,68,0,0,1,10.63-14.35,29.78,29.78,0,0,1,3.52-3,22.26,22.26,0,0,1,2-1.27c.33-.2.7-.39,1-.56l1-.49,7.81-3.9c10.38-5.21,20.68-10.56,30.27-17A120.78,120.78,0,0,0,350,356c4.25-3.82,8.16-8.1,12.22-12.31,1-1.05,2-2.11,3.08-3.14s2.06-2.06,3.26-3.1,2.42-1.86,3.48-2.71a11.17,11.17,0,0,0,2.59-2.79,18.86,18.86,0,0,0,1.66-3.64c.49-1.32.93-2.67,1.33-4,.79-2.73,1.51-5.57,2.08-8.34a84.34,84.34,0,0,0,1.51-17.06c0-5.75-.43-11.54-.63-17.4-.43-11.68-.42-23.31-1-34.91a163.93,163.93,0,0,0-1.27-17.28c-.4-2.77-1.24-5.55-1.88-8.44a39.94,39.94,0,0,1-.77-4.44,15.62,15.62,0,0,1,.14-4.71l.34-1.63,1.39.93a19,19,0,0,1,3.76,3.6,22.74,22.74,0,0,0,3.23,3.38l-1.74.81a23.93,23.93,0,0,0-.45-3.93c-.25-1.35-.52-2.71-.82-4.07-.59-2.72-1.25-5.44-1.94-8.15-1.37-5.42-2.86-10.81-4.41-16.19s-3.18-10.73-4.92-16c-.87-2.65-1.77-5.3-2.77-7.88-.25-.65-.51-1.29-.79-1.9a9,9,0,0,0-.43-.88c-.13-.27-.34-.62-.51-.93a22.66,22.66,0,0,1-1.72-4c-.91-2.75-1.37-5.54-2-8.24a23.88,23.88,0,0,0-2.77-7.61,21.11,21.11,0,0,0-5.83-5.57,48.25,48.25,0,0,1-6.42-5.6,124,124,0,0,1-10.65-13.11c-1.67-2.25-3.35-4.48-5.11-6.64s-3.63-4.23-5.49-6.33c-3.73-4.17-7.52-8.28-11.59-12.11a73.59,73.59,0,0,0-13.19-10.16,56.7,56.7,0,0,0-15.48-6A109.62,109.62,0,0,0,268.9,71a318.32,318.32,0,0,0-33.54-1.2q-4.2.12-8.38.41c-2.79.17-5.56.52-8.38.68s-5.61.25-8.37.51A30.67,30.67,0,0,0,202.17,73l-.27-1a10,10,0,0,1,3.86.37,20.06,20.06,0,0,1,3.52,1.37,27.72,27.72,0,0,1,3.24,1.9,20.76,20.76,0,0,1,2.93,2.4l.87.88-1.24.13a91.74,91.74,0,0,1-10.47.15,39.55,39.55,0,0,0-5.12.25c-1.67.21-3.37.6-5.07.93a140.75,140.75,0,0,0-20,5.34,176.78,176.78,0,0,0-19,8.25,63.82,63.82,0,0,0-8.71,5.43,30.16,30.16,0,0,0-7,7.18l-.52-1.38c2.31.64,4.74,1,7.19,1.43a33.14,33.14,0,0,1,7.35,2l-.73,1.7a.71.71,0,0,0,.38.08.74.74,0,0,0,.18,0h0l.07,0,0,0-.17.12-.38.29-.8.65-1.58,1.38-3.18,2.82c-.13.1-.31.26-.46.37l-.43.32-.87.63L144,118.16c-1.17.81-2.35,1.6-3.54,2.38-4.74,3.11-9.58,6-14.17,9.23a54.75,54.75,0,0,0-6.49,5.2,49.46,49.46,0,0,0-5.54,6.2A88.61,88.61,0,0,0,105.61,155.51Zm-1.77-.88A90.11,90.11,0,0,1,112.68,140a51.32,51.32,0,0,1,5.75-6.41,56.28,56.28,0,0,1,6.72-5.37c4.67-3.26,9.53-6.17,14.24-9.24,1.18-.77,2.35-1.55,3.5-2.34l1.72-1.21.85-.62.42-.31.36-.29,3.17-2.8L151,110l.84-.69.46-.35.26-.18.19-.11.2-.08.05,0a1.05,1.05,0,0,1,.21,0,1.12,1.12,0,0,1,.45.07l-.73,1.7a31.7,31.7,0,0,0-6.94-1.88c-2.41-.44-4.9-.8-7.36-1.48l-1.21-.34.7-1A31.67,31.67,0,0,1,145.63,98a64.52,64.52,0,0,1,9-5.52,179,179,0,0,1,19.27-8.18A142.82,142.82,0,0,1,194.15,79c1.71-.31,3.4-.69,5.18-.9a42.71,42.71,0,0,1,5.29-.22A89.06,89.06,0,0,0,215,77.85l-.37,1a22.89,22.89,0,0,0-5.82-4.12,18.72,18.72,0,0,0-3.31-1.32,8.72,8.72,0,0,0-3.41-.37l-4.54.57,4.26-1.6a31.14,31.14,0,0,1,8.36-1.69c2.82-.25,5.63-.31,8.41-.46s5.58-.46,8.38-.61,5.61-.29,8.42-.35A317.16,317.16,0,0,1,269,70.13a119.19,119.19,0,0,1,16.68,2.47,57.53,57.53,0,0,1,15.77,6,74,74,0,0,1,13.45,10.22c4.13,3.83,8,7.94,11.74,12.09,1.87,2.08,3.78,4.15,5.57,6.33s3.5,4.42,5.19,6.65A123.74,123.74,0,0,0,348,126.82a47.28,47.28,0,0,0,6.27,5.4,22.49,22.49,0,0,1,6.26,5.94,25.37,25.37,0,0,1,3,8.08c.65,2.76,1.13,5.51,2,8.08a22.33,22.33,0,0,0,1.63,3.71c.17.3.32.55.51.91a8.47,8.47,0,0,1,.5,1c.31.66.58,1.31.84,2,1.05,2.64,2,5.3,2.86,8,1.79,5.33,3.44,10.69,5,16.07s3.13,10.78,4.56,16.22c.71,2.71,1.4,5.44,2,8.19.32,1.37.6,2.76.87,4.15a25,25,0,0,1,.52,4.42v2.13l-1.74-1.32a24.71,24.71,0,0,1-3.59-3.66,16.77,16.77,0,0,0-3.33-3.17l1.73-.7c-.48,2.52.07,5.38.7,8.15s1.51,5.59,2,8.58a165.9,165.9,0,0,1,1.45,17.53c.68,11.66.78,23.33,1.31,34.92.25,5.78.75,11.61.79,17.51a88.61,88.61,0,0,1-1.42,17.69c-.58,2.94-1.27,5.75-2.07,8.62-.41,1.43-.85,2.85-1.36,4.27a22.18,22.18,0,0,1-1.94,4.29,14.49,14.49,0,0,1-3.29,3.62c-1.21,1-2.36,1.79-3.39,2.69s-2.05,1.92-3.06,2.92-2,2.06-3,3.1c-4,4.18-7.94,8.53-12.35,12.52-1.09,1-2.23,2-3.38,2.91s-2.32,1.83-3.5,2.71c-2.36,1.76-4.76,3.48-7.22,5.08-9.82,6.52-20.25,11.89-30.68,17.1l-7.83,3.88-1,.48c-.31.16-.59.3-.89.47-.57.33-1.14.69-1.69,1.08A27.12,27.12,0,0,0,293,395a65.24,65.24,0,0,0-10.14,13.62c-2.9,5-5.47,10.13-7.9,15.39-1.21,2.63-2.39,5.28-3.56,7.94l-1.77,4c-.62,1.35-1.2,2.66-2,4.07l-1.75,3.08-1-3.4a20.38,20.38,0,0,0-7.94-10.94,23.85,23.85,0,0,0-13.16-3.88A31.25,31.25,0,0,0,230,427.91a28.22,28.22,0,0,0-10.76,8.83l-2.94,4.08.25-5a60.74,60.74,0,0,0,0-7.39,47.83,47.83,0,0,0-1.1-7.26,38.68,38.68,0,0,0-5.89-13.3,46.52,46.52,0,0,0-10.25-10.48,85.1,85.1,0,0,0-12.73-7.75c-9-4.49-18.19-8.84-27.16-13.62a156.75,156.75,0,0,1-25.69-16.54,160.32,160.32,0,0,1-21.6-21.6c-1.62-2-3.28-3.85-4.85-5.93a56.53,56.53,0,0,1-4.2-6.52A61.45,61.45,0,0,1,97.44,311a72.16,72.16,0,0,1-1.56-7.58c-.32-2.7-.06-5.28-.14-7.7a17.34,17.34,0,0,0-.12-1.78c0-.3-.08-.57-.13-.87l-.16-1c-.2-1.27-.37-2.55-.5-3.83-.26-2.55-.41-5.11-.49-7.65s-.08-5.09-.11-7.62,0-5.13.13-7.64c.2-5-.11-10.14,1-15.33l1.73,1.23a16.4,16.4,0,0,0-1.65,1.23l-1.7,1.39-.17-2.18A277.19,277.19,0,0,1,93,220,91.94,91.94,0,0,1,95,204.19c1-5.18,2.2-10.3,2.83-15.46l1.57,1.05c-2.33,1.3-4.7,2.4-6.86,3.72l-1.52.92L91,192.65c-.13-3.6.93-6.92,1.9-10.1.52-1.6,1-3.12,1.44-4.74s1-3.22,1.53-4.8c1.11-3.17,2.38-6.28,3.74-9.33S102.42,157.65,103.84,154.63Z"/><path class="cls-13" d="M301.38,147.58c5.94,5.95,26.22,33.63,31.05,43.33a127.31,127.31,0,0,1,8.67,21.9c7.57,26-13.11,102.08-13.11,102.08s-35.88,18.69-54.33,49c-8.49,13.95-9.34,40-3.4,47.42-10.19,3.72-23.9-2.84-29.69-13.51-1.93,5-4.55,9.87-8.42,13.31s-9.14,5.27-14,3.84c4.86-5.28,4.54-12.56,4.91-19.46.44-8.33.47-16.83-2.74-24.59C209,343.42,174.44,332.19,173.45,336c0,0-36-68.55-34.11-106.07.71-13.7,2.3-27.48,7.93-39.75,3.58-7.81,18.18-31.2,24.13-36.29,11.25-2.85,9.61,11.23,21,11.24l55.61,0c17.74,0,27.79-3.47,45.56-3.45C299.51,161.68,293.53,144.65,301.38,147.58Z"/><path class="cls-14" d="M302.1,146.46c.79.77,1.62,1.65,2.19,2.33s1.25,1.44,1.85,2.18c1.22,1.45,2.39,2.94,3.56,4.42,2.34,3,4.6,6,6.85,9,4.47,6.08,8.83,12.24,12.94,18.61,1,1.61,2,3.22,3,4.88.47.84.93,1.71,1.38,2.56l1.26,2.55c1.65,3.42,3.17,6.92,4.52,10.48q1,2.67,1.91,5.39c.58,1.81,1.18,3.6,1.62,5.56A61.26,61.26,0,0,1,344.41,226a170.83,170.83,0,0,1-1.29,22.76c-.87,7.53-2,15-3.35,22.44q-4,22.32-9.71,44.27l-.23.88-.85.46h0a8.92,8.92,0,0,0-3.52,1.4c-1.09.65-2.18,1.31-3.25,2q-3.24,2-6.39,4.18c-4.19,2.88-8.27,5.92-12.2,9.14s-7.72,6.61-11.31,10.19A117.46,117.46,0,0,0,282.24,355c-.77,1-1.55,2-2.27,3s-1.46,2-2.16,3.1-1.36,2.11-2,3.17-1.21,2.1-1.77,3.2a54.32,54.32,0,0,0-4.29,14.13,69.82,69.82,0,0,0-.91,14.85,44.94,44.94,0,0,0,.92,7.23,23.93,23.93,0,0,0,1,3.33,10.1,10.1,0,0,0,1.47,2.7l2.25,2.73-3.34,1.15h0a21.25,21.25,0,0,1-9.81.95,28.46,28.46,0,0,1-9.13-2.82,31.2,31.2,0,0,1-13.51-12.94l3.94-.26a49.06,49.06,0,0,1-3.54,7.3,29,29,0,0,1-5.22,6.48,19.8,19.8,0,0,1-7.4,4.31,15,15,0,0,1-8.79.17l-3-.91,2.08-2.29a13.88,13.88,0,0,0,2.94-5.05,26.83,26.83,0,0,0,1.17-6.14c.2-2.15.27-4.37.39-6.63s.24-4.43.27-6.63a52.61,52.61,0,0,0-1.19-12.89,41.11,41.11,0,0,0-5.07-11.8,62.16,62.16,0,0,0-18.19-18.57,71.19,71.19,0,0,0-11.48-6.39,46.43,46.43,0,0,0-6.13-2.23,21.93,21.93,0,0,0-3.09-.67,8,8,0,0,0-1.43-.08,1.85,1.85,0,0,0-.47.08s0,0,0,0a.63.63,0,0,0,.19-.32l-2.36.26a465.86,465.86,0,0,1-19.94-45.12c-2.9-7.69-5.58-15.48-7.89-23.38a163.83,163.83,0,0,1-5.33-24.15,81.46,81.46,0,0,1-.76-12.4c.16-4.15.45-8.23.86-12.34a110.54,110.54,0,0,1,5-24.26c.32-1,.69-2,1.05-2.94s.76-1.93,1.21-2.89c.89-1.9,1.85-3.73,2.84-5.55,2-3.62,4.12-7.14,6.29-10.64s4.46-6.93,6.84-10.31c1.2-1.69,2.42-3.36,3.71-5a36.39,36.39,0,0,1,4.29-4.75l.23-.21.32-.07a11,11,0,0,1,5.13-.21,9.27,9.27,0,0,1,4.53,2.64c2.32,2.39,3.75,5.06,5.88,6.75a8.37,8.37,0,0,0,3.49,1.73,9.34,9.34,0,0,0,2,.24c.67,0,1.49,0,2.23,0H249c3,0,6-.16,9-.37,6-.42,12-1.32,18.05-2,3-.34,6.08-.62,9.15-.8,1.53-.1,3.06-.15,4.59-.2.77,0,1.54,0,2.3,0h1.15a3,3,0,0,0,.75,0c.23-.07.45-.26.68-.78a7.5,7.5,0,0,0,.46-1.84c.2-1.39.24-2.9.34-4.44a15.11,15.11,0,0,1,.89-4.93,4.39,4.39,0,0,1,.9-1.34,3.41,3.41,0,0,1,1.61-.91,4,4,0,0,1,1.65-.05A5.74,5.74,0,0,1,302.1,146.46Zm-1.44,2.24c.07.1-.35-.08-.58-.09a1.51,1.51,0,0,0-.61,0c-.25.06-.45.23-.69.75a13.17,13.17,0,0,0-.65,4c-.09,1.48-.11,3-.33,4.64a10,10,0,0,1-.65,2.56,4.54,4.54,0,0,1-.86,1.36,3.45,3.45,0,0,1-1.57,1,3.38,3.38,0,0,1-.87.15h-.64l-1.13,0c-.75,0-1.5,0-2.25,0-1.5,0-3,.12-4.5.22-3,.19-6,.48-9,.83-6,.72-12,1.58-18.16,2-3.06.21-6.12.36-9.19.36h-9.12l-36.43-.06-9.11,0c-.78,0-1.48,0-2.32,0a11.37,11.37,0,0,1-2.52-.32,11.15,11.15,0,0,1-4.59-2.28c-2.64-2.16-4.14-5-6.07-7a6.62,6.62,0,0,0-3.21-1.92,8.58,8.58,0,0,0-3.88.18l.54-.28a35.64,35.64,0,0,0-3.94,4.37c-1.25,1.58-2.45,3.22-3.63,4.88-2.36,3.31-4.59,6.73-6.81,10.16s-4.33,6.92-6.4,10.43a70.64,70.64,0,0,0-5.38,10.85,58.22,58.22,0,0,0-1.92,5.77c-.57,1.94-1,3.92-1.44,5.91-.79,4-1.35,8-1.76,12.09s-.67,8.16-.81,12.21a79.42,79.42,0,0,0,.78,12.12,163,163,0,0,0,5.35,23.85c2.31,7.84,5,15.56,8,23.18a466.15,466.15,0,0,0,20.26,44.68l-2.37.26a2,2,0,0,1,.66-1,2.72,2.72,0,0,1,.74-.42,4.74,4.74,0,0,1,1.17-.22,10,10,0,0,1,1.92.07,25.37,25.37,0,0,1,3.47.71,53,53,0,0,1,6.49,2.28,73.69,73.69,0,0,1,12,6.49A65.29,65.29,0,0,1,218,362.78a52.52,52.52,0,0,1,3.3,6.09,37.44,37.44,0,0,1,2.33,6.6,55.69,55.69,0,0,1,1.47,13.73c0,2.27-.09,4.55-.19,6.78s-.13,4.46-.31,6.77a30.29,30.29,0,0,1-1.27,7,17.81,17.81,0,0,1-3.69,6.5l-.88-3.2a11.1,11.1,0,0,0,6.47-.24,15.75,15.75,0,0,0,5.82-3.52c3.43-3.21,5.76-7.65,7.49-12.3l1.63-4.39,2.31,4.13a26.73,26.73,0,0,0,11.74,10.82,23.83,23.83,0,0,0,7.64,2.23,16.47,16.47,0,0,0,7.55-.84h0l-1.09,3.89a14.7,14.7,0,0,1-2.16-4.06,27.08,27.08,0,0,1-1.13-4.06,48.21,48.21,0,0,1-.87-8.05,74.64,74.64,0,0,1,1.29-15.81,59.25,59.25,0,0,1,4.88-15.18,40,40,0,0,1,2-3.51c.72-1.1,1.41-2.22,2.17-3.28s1.5-2.15,2.29-3.19,1.59-2.08,2.4-3.1a145.2,145.2,0,0,1,22.19-21.87q6.06-4.87,12.52-9.21,3.22-2.16,6.55-4.19c1.1-.68,2.22-1.34,3.34-2A12,12,0,0,0,327,313h0l-1.08,1.33c3.9-14.44,7.3-29.11,10.11-43.82,1.39-7.37,2.62-14.76,3.55-22.18a167,167,0,0,0,1.5-22.28,57,57,0,0,0-1.05-10.9c-.36-1.72-.93-3.51-1.48-5.29s-1.16-3.52-1.8-5.27c-1.29-3.48-2.74-6.91-4.32-10.29l-1.21-2.52c-.42-.82-.84-1.61-1.29-2.42-.91-1.6-1.89-3.19-2.88-4.77-4-6.3-8.33-12.45-12.74-18.52-2.22-3-4.46-6-6.76-9-1.15-1.48-2.3-3-3.49-4.39S301.56,149.76,300.66,148.7Z"/><path class="cls-15" d="M278.75,335.34a12.09,12.09,0,0,1-.1,3.66,14.33,14.33,0,0,1-2,2.86c-1,1.37-2.5,2.21-3.7,3.42a35.1,35.1,0,0,1-5.46,4.05c-2.11,1.46-3.94,3.32-6,4.84-2.83,2.09-5.72,4.06-8.56,6.1A11.37,11.37,0,0,1,249.8,362a8.68,8.68,0,0,1-1.49.18c-.48.08-.74.35-1.22.45a6.79,6.79,0,0,1-1.91,0c-.59-.07-.71-.33-1.22-.45a16,16,0,0,0-3.39,0,8.71,8.71,0,0,1-3.45-.32c-1-.41-1.87-1-2.83-1.46A126.38,126.38,0,0,1,221.71,353c-.73-.48-1.59-.66-2.29-1.17-.49-.35-.81-.83-1.3-1.18s-1.23-.56-1.83-.92-1-.8-1.56-1.17c-2.2-1.54-4.72-2.53-7-4a36.67,36.67,0,0,1-4.26-3.37A4.57,4.57,0,0,1,202,338.9a8.93,8.93,0,0,1,.46-3.57c.11-.57-.11-1.21-.05-1.78.09-.73.39-1.46.55-2.18l.3-1.4c0-.5.11-1,.19-1.5a56.66,56.66,0,0,1,1.34-6.11s-3.19-14.05-.36-15.92c4.33-2.84,27.31,1,34.1,1.33l.91,0c.49,0,1,0,1.57-.05,9.12-.38,26.8-3.58,37.36-.66,3.21,4.54-3.31,9.5-2.76,14.85,1.2.83,1.3.85,1.4.87.14.61.38,1,.51,1.59s-.11,1.42.07,2.12a15.88,15.88,0,0,1,.74,4.19c0,.69-.05,1.41,0,2.1C278.37,333.69,278.72,334.44,278.75,335.34Z"/><path class="cls-1" d="M278.71,335.34a11.78,11.78,0,0,1-.09,3.66,14.75,14.75,0,0,1-2,2.86c-1,1.37-2.5,2.21-3.7,3.42a35.58,35.58,0,0,1-5.46,4.05c-2.12,1.46-3.94,3.32-6,4.84-2.83,2.09-5.71,4.06-8.55,6.1a11.37,11.37,0,0,1-3.14,1.69,8.68,8.68,0,0,1-1.49.18c-.49.08-.74.35-1.22.45a6.86,6.86,0,0,1-1.92,0c-.58-.07-.7-.33-1.22-.45a15.92,15.92,0,0,0-3.38,0,8.76,8.76,0,0,1-3.46-.32c-1-.41-1.86-1-2.83-1.46A128.69,128.69,0,0,1,221.67,353c-.73-.48-1.58-.66-2.28-1.17-.49-.35-.82-.83-1.31-1.18s-1.22-.56-1.82-.92-1-.8-1.56-1.17c-2.21-1.54-4.72-2.53-7-4a36.78,36.78,0,0,1-4.27-3.37,4.71,4.71,0,0,1-1.52-2.28,8.93,8.93,0,0,1,.46-3.57,17.63,17.63,0,0,0,0-1.78c.08-.73.39-1.46.54-2.18.1-.46.21-.93.31-1.39s.21-1,.33-1.46l0,0a.14.14,0,0,1-.09,0,54,54,0,0,1,1.34-6.11s-3.2-14.05-.36-15.92c1.78-1.16,6.69-1.21,12.34-.84.48,0,1,.06,1.45.11l.62,0,1.24.11c1.09.09,2.21.2,3.31.31l1.89.2,2,.21,1.78.2,2,.23,3.83.43h.11c1.17.12,2.21.23,3,.28l.49,0h.07l.91,0c.49,0,1,0,1.57-.05,6.24-.26,16.5-1.84,25.74-1.87a53.33,53.33,0,0,1,9.43.72l.77.14.34.08c.37.08.73.18,1.07.27,3.22,4.54-3.31,9.5-2.76,14.85,1.2.83,1.3.85,1.41.87.13.61.38,1,.51,1.59s-.11,1.42.06,2.12a15.49,15.49,0,0,1,.75,4.19c0,.69-.06,1.41,0,2.1C278.33,333.69,278.69,334.44,278.71,335.34Z"/><path class="cls-16" d="M234.87,307.45c1.17.12,2.21.22,3,.28C237.08,307.68,236,307.57,234.87,307.45Z"/><path class="cls-16" d="M238.41,307.75c6.37-.26,18.17-1.91,28.29-1.87-9.24,0-19.5,1.61-25.74,1.87-.56,0-1.08.05-1.57.05l-.91,0h-.07Z"/><path class="cls-17" d="M203.49,328.5l0,0c-.12.49-.23,1-.33,1.46,0-.49.11-1,.19-1.51A.14.14,0,0,0,203.49,328.5Z"/><path class="cls-17" d="M276.13,306.6a53.33,53.33,0,0,0-9.43-.72A49.09,49.09,0,0,1,276.13,306.6Z"/><path class="cls-18" d="M258.91,307.77c-3.29,0-6.55-.26-10-.53-2.56-.21-5.21-.42-7.9-.51-.83,0-1.67-.06-2.51-.06h-4.25l-4.07,0c-16.28,0-31.57-1.15-39.71-14.93a66.32,66.32,0,0,1-7.59-22.59c-.64-5.48-3.29-9.45-6.1-13.64-1.21-1.81-2.45-3.67-3.61-5.74-3.68-6.63-5.33-14.78-6.93-22.67-.85-4.21-1.73-8.55-2.91-12.63a49.68,49.68,0,0,0-3.24-8.6c-.58-1.18-1.21-2.36-1.83-3.52-2.91-5.46-5.65-10.61-4.19-16.4,1.22-4.78,5.08-10.81,8.49-16.13,1.73-2.71,3.37-5.28,4.6-7.56a72.37,72.37,0,0,0,4.31-11.12c2-6.14,4.13-12.49,7.23-15.83,15.17-16.33,40.82-16.7,63.46-17,4-.06,7.78-.12,11.52-.25,1.07,0,2.15-.06,3.25-.06,6.55,0,16.07.71,24.19,4.07,5.86,2.43,9,8.11,12.1,13.61.9,1.61,1.83,3.27,2.81,4.81,1.35,2.13,2.7,4.37,4,6.54,4,6.71,8.23,13.65,13.79,19.73,3.46,3.78,7.05,7.89,9.53,13,1.53,3.18,4,9.25,3.33,14.18a9.92,9.92,0,0,1-.66,2.5,29.53,29.53,0,0,1-4,6.21c-2.08,2.71-4.24,5.51-5.13,9.19a24.06,24.06,0,0,0-.47,2.49,57.87,57.87,0,0,0-.33,8.91c.06,4.06.13,8.25-1.08,12.37a213.67,213.67,0,0,1-9.43,26.48A139.55,139.55,0,0,1,298,276.17c-2.39,4.05-4.86,8.24-6.94,12.61-5.1,10.73-9,14.83-22.29,18A42.24,42.24,0,0,1,258.91,307.77Z"/><path class="cls-19" d="M256.94,118.85h0c6.48,0,15.88.69,23.87,4,5.58,2.33,8.69,7.88,11.68,13.24.91,1.62,1.84,3.3,2.83,4.85,1.35,2.13,2.7,4.36,4,6.52,4.07,6.75,8.27,13.73,13.89,19.87,3.57,3.89,7,7.79,9.39,12.82,1.49,3.09,3.9,9,3.26,13.7a9.18,9.18,0,0,1-.6,2.27,28.79,28.79,0,0,1-3.9,6c-2.13,2.78-4.34,5.66-5.27,9.5a22.06,22.06,0,0,0-.48,2.57,57.46,57.46,0,0,0-.35,9.05c.07,4.18.13,8.13-1.05,12.11a214,214,0,0,1-9.38,26.39,141.13,141.13,0,0,1-7.55,14c-2.4,4.07-4.88,8.27-7,12.67-5.05,10.63-8.7,14.43-21.72,17.49a41,41,0,0,1-9.67,1c-3.26,0-6.5-.26-9.92-.53-2.57-.2-5.23-.42-7.93-.51-.83,0-1.68-.05-2.51-.06h-4.3l-4.07,0c-16,0-31.05-1.11-39-14.52a65.93,65.93,0,0,1-7.48-22.25c-.67-5.68-3.38-9.73-6.24-14-1.2-1.78-2.44-3.63-3.57-5.67-3.63-6.51-5.26-14.61-6.84-22.43-.86-4.22-1.74-8.59-2.93-12.69a51.52,51.52,0,0,0-3.29-8.74c-.6-1.2-1.24-2.4-1.85-3.55-2.83-5.31-5.5-10.32-4.11-15.79,1.18-4.65,5-10.62,8.37-15.88,1.75-2.73,3.4-5.31,4.64-7.61a74.52,74.52,0,0,0,4.37-11.27c2-6.05,4.07-12.31,7.05-15.51,14.91-16.07,40.37-16.44,62.84-16.77,4-.05,7.79-.11,11.54-.24,1.07,0,2.15-.06,3.22-.06m0-1.7c-1.11,0-2.2,0-3.28.06-25.67.92-57.54-1.86-75.57,17.56-5.37,5.77-7.74,19.87-11.66,27.12-3.7,6.84-11.3,16.55-13.17,23.88s2.74,13.75,6.08,20.51a49.72,49.72,0,0,1,3.19,8.46c3.38,11.68,4.18,25.17,9.91,35.47,3.87,7,8.73,11.5,9.61,19.06a67.3,67.3,0,0,0,7.7,22.93c8.45,14.31,24.47,15.34,40.43,15.34,2.6,0,5.19,0,7.75,0h.58c.83,0,1.66,0,2.48.05,6.18.23,12.06,1.05,17.92,1.05A43.79,43.79,0,0,0,269,307.56c13.52-3.19,17.62-7.38,22.87-18.42,4.39-9.21,10.42-17.44,14.54-26.68a213.42,213.42,0,0,0,9.46-26.59c2.13-7.23.44-14.39,1.45-21.41a19.51,19.51,0,0,1,.45-2.4c1.49-6.15,6.75-9.82,9.08-15.27a10.69,10.69,0,0,0,.72-2.72c.64-4.74-1.39-10.46-3.41-14.66-2.44-5.06-5.82-9-9.66-13.22-7.33-8-12.24-17.54-17.71-26.16-4.28-6.72-7.39-15.46-15.3-18.74-7.19-3-16.13-4.14-24.52-4.14Z"/><path class="cls-16" d="M239.75,287.09c-.17.73-.32,1.46-.51,2.2-1.05,4.19-.73,8.64-.73,13v5.24h-.58c-18.3,0-38.36,1.32-48.18-15.31a67.3,67.3,0,0,1-7.7-22.93c-.88-7.56-5.74-12.11-9.61-19.06-5.73-10.3-6.53-23.79-9.91-35.47,2.33,2.06,4.79,4,7.22,5.91,1.38,1.1,2.84,1.71,3.64,3.22a67.8,67.8,0,0,1,3.28,6.95c1.48,3.71,2.78,7.47,4.32,11.14.66,1.61.87,3.38,1.51,5s1.26,2.89,1.8,4.41A40.45,40.45,0,0,0,186,255.5a20.69,20.69,0,0,1,1.35,2.45,16.71,16.71,0,0,0,1.37,2.4,20.76,20.76,0,0,0,1.78,2.68c1.3,1.7,3,3.15,4.4,4.76a23.16,23.16,0,0,0,4.81,3.79,15.26,15.26,0,0,0,5.17,2c1.67.33,2.57,0,3.77,1.47a26.49,26.49,0,0,0,5.55,4.59,50.6,50.6,0,0,0,5.36,2.83,23.21,23.21,0,0,0,6,2.13c1.6.31,3.77,0,5.4,0,2,0,3.91,0,5.87,0,1.13,0,3-1.17,3.36.3C240.42,285.73,239.94,286.34,239.75,287.09Z"/><path class="cls-16" d="M315.84,235.87a213.42,213.42,0,0,1-9.46,26.59c-4.12,9.24-10.15,17.47-14.54,26.68-5.25,11-9.35,15.23-22.87,18.42-9.33,2.19-18.28.36-28,0v-5.29c0-4.35.32-8.8-.73-13-.19-.74-.34-1.47-.51-2.2s-.67-1.36-.46-2.21c.35-1.47,2.24-.32,3.36-.3,2,0,3.91,0,5.87,0,1.64,0,3.8.34,5.4,0a23.21,23.21,0,0,0,6-2.13,50.6,50.6,0,0,0,5.36-2.83,26.24,26.24,0,0,0,5.55-4.59c1.2-1.44,2.1-1.14,3.77-1.47a15.26,15.26,0,0,0,5.17-2,23.16,23.16,0,0,0,4.81-3.79c1.44-1.61,3.1-3.06,4.41-4.76a21.78,21.78,0,0,0,1.77-2.68,16.71,16.71,0,0,0,1.37-2.4,20.69,20.69,0,0,1,1.35-2.45,38.31,38.31,0,0,0,1.68-4.15c.55-1.52,1.21-2.92,1.8-4.41s.85-3.37,1.51-5c1.54-3.67,2.84-7.43,4.32-11.14a67.8,67.8,0,0,1,3.28-6.95c.81-1.51,2.26-2.12,3.64-3.22,2.54-2,5.11-4,7.54-6.19C316.28,221.48,318,228.64,315.84,235.87Z"/><path class="cls-19" d="M256.94,118.85h0c6.48,0,15.88.69,23.87,4,5.58,2.33,8.69,7.88,11.68,13.24.91,1.62,1.84,3.3,2.83,4.85,1.35,2.13,2.7,4.36,4,6.52,4.07,6.75,8.27,13.73,13.89,19.87,3.57,3.89,7,7.79,9.39,12.82,1.49,3.09,3.9,9,3.26,13.7a9.18,9.18,0,0,1-.6,2.27,28.79,28.79,0,0,1-3.9,6c-2.13,2.78-4.34,5.66-5.27,9.5a22.06,22.06,0,0,0-.48,2.57,57.46,57.46,0,0,0-.35,9.05c.07,4.18.13,8.13-1.05,12.11a214,214,0,0,1-9.38,26.39,141.13,141.13,0,0,1-7.55,14c-2.4,4.07-4.88,8.27-7,12.67-5.05,10.63-8.7,14.43-21.72,17.49a41,41,0,0,1-9.67,1c-3.26,0-6.5-.26-9.92-.53-2.57-.2-5.23-.42-7.93-.51-.83,0-1.68-.05-2.51-.06h-4.3l-4.07,0c-16,0-31.05-1.11-39-14.52a65.93,65.93,0,0,1-7.48-22.25c-.67-5.68-3.38-9.73-6.24-14-1.2-1.78-2.44-3.63-3.57-5.67-3.63-6.51-5.26-14.61-6.84-22.43-.86-4.22-1.74-8.59-2.93-12.69a51.52,51.52,0,0,0-3.29-8.74c-.6-1.2-1.24-2.4-1.85-3.55-2.83-5.31-5.5-10.32-4.11-15.79,1.18-4.65,5-10.62,8.37-15.88,1.75-2.73,3.4-5.31,4.64-7.61a74.52,74.52,0,0,0,4.37-11.27c2-6.05,4.07-12.31,7.05-15.51,14.91-16.07,40.37-16.44,62.84-16.77,4-.05,7.79-.11,11.54-.24,1.07,0,2.15-.06,3.22-.06m0-1.7c-1.11,0-2.2,0-3.28.06-25.67.92-57.54-1.86-75.57,17.56-5.37,5.77-7.74,19.87-11.66,27.12-3.7,6.84-11.3,16.55-13.17,23.88s2.74,13.75,6.08,20.51a49.72,49.72,0,0,1,3.19,8.46c3.38,11.68,4.18,25.17,9.91,35.47,3.87,7,8.73,11.5,9.61,19.06a67.3,67.3,0,0,0,7.7,22.93c8.45,14.31,24.47,15.34,40.43,15.34,2.6,0,5.19,0,7.75,0h.58c.83,0,1.66,0,2.48.05,6.18.23,12.06,1.05,17.92,1.05A43.79,43.79,0,0,0,269,307.56c13.52-3.19,17.62-7.38,22.87-18.42,4.39-9.21,10.42-17.44,14.54-26.68a213.42,213.42,0,0,0,9.46-26.59c2.13-7.23.44-14.39,1.45-21.41a19.51,19.51,0,0,1,.45-2.4c1.49-6.15,6.75-9.82,9.08-15.27a10.69,10.69,0,0,0,.72-2.72c.64-4.74-1.39-10.46-3.41-14.66-2.44-5.06-5.82-9-9.66-13.22-7.33-8-12.24-17.54-17.71-26.16-4.28-6.72-7.39-15.46-15.3-18.74-7.19-3-16.13-4.14-24.52-4.14Z"/><path class="cls-18" d="M292.68,293.45c-3.19,13.05-21.92,22.24-34.85,21.54-6.25-.34-11.29-4.86-16.84-6.63a16,16,0,0,0-1.9-.48l-.58-.08c-5.37-.57-10.88,4.71-16.43,5.29-11.69,1.2-23.41-.67-29.4-10.45C187.94,294.88,181.5,285,181.33,276c-.1-5.37,3-11.16,6.78-16.61,3.22-4.67,6.94-9.08,9.58-12.79,5.58-7.85,16.58-17,16.14-25.83-.55-10.85-7-36.92-9.8-46.8l72.79.08c-4.6,11.63-10.69,39.33-5.8,52.13,3.61,9.46,6.58,16.21,15,23.09a20.45,20.45,0,0,1,5.91,9.27C295.65,269.21,294.89,284.41,292.68,293.45Z"/><path class="cls-16" d="M292.68,293.45c-3.19,13.05-21.92,22.24-34.85,21.54-6.25-.34-14.69-4.86-20.24-6.63v-.11c-5.08,1.22-11.27,4.4-15.51,4.84-11.69,1.2-23.41-.67-29.4-10.45C187.94,294.88,181.5,285,181.33,276c-.1-5.37,3-11.16,6.78-16.61.19.32.4.64.59,1a20.76,20.76,0,0,0,1.78,2.68c1.3,1.7,3,3.15,4.4,4.76a23.16,23.16,0,0,0,4.81,3.79,15.26,15.26,0,0,0,5.17,2c1.67.33,2.57,0,3.77,1.47a26.49,26.49,0,0,0,5.55,4.59,50.6,50.6,0,0,0,5.36,2.83,23.21,23.21,0,0,0,6,2.13c1.6.31,3.77,0,5.4,0l5.72,0h6.1l5.72,0c1.64,0,3.8.34,5.4,0a23.21,23.21,0,0,0,6-2.13,50.6,50.6,0,0,0,5.36-2.83,26.24,26.24,0,0,0,5.55-4.59c1.2-1.44,2.1-1.14,3.77-1.47a15.26,15.26,0,0,0,5.17-2,23.16,23.16,0,0,0,4.81-3.79c1.44-1.61,3.1-3.06,4.41-4.76a21.78,21.78,0,0,0,1.77-2.68c.35-.6.78-1.18,1.11-1.81C295.65,269.21,294.89,284.41,292.68,293.45Z"/><path class="cls-19" d="M292.68,293.45a21.75,21.75,0,0,1-3.56,7.26,31.45,31.45,0,0,1-5.74,5.73,44.32,44.32,0,0,1-6.91,4.3,47.77,47.77,0,0,1-7.59,2.92,37.57,37.57,0,0,1-8,1.41,19.84,19.84,0,0,1-2,0h-1l-1-.09a27,27,0,0,1-4-.82c-5.25-1.48-10.13-3.95-15.25-5.66l-.12,0v-.24l.21.16c-3.89,1-7.57,2.68-11.42,3.92a26.68,26.68,0,0,1-3,.79c-1,.2-2,.25-3,.35a53.25,53.25,0,0,1-6.06.13,36.14,36.14,0,0,1-6-.67c-1-.16-2-.45-3-.7a28.94,28.94,0,0,1-2.87-1.05,21.1,21.1,0,0,1-5.24-3.13,19.64,19.64,0,0,1-4.12-4.51c-2.19-3.41-4.29-6.84-6.26-10.38A52.89,52.89,0,0,1,181.89,282a25.11,25.11,0,0,1-.94-6.05,18,18,0,0,1,1.05-6.06,44.49,44.49,0,0,1,5.76-10.72l.36-.53.35.55c.69,1.1,1.25,2.19,2,3.2A26.24,26.24,0,0,0,193,265.2c.89.9,1.8,1.85,2.64,2.77a18.92,18.92,0,0,0,2.9,2.36,19.24,19.24,0,0,0,3.23,1.9,16.41,16.41,0,0,0,3.56,1.07,14.73,14.73,0,0,1,1.93.33,3.55,3.55,0,0,1,1.69,1.21,18.42,18.42,0,0,0,2.72,2.57c1,.77,2,1.5,3.09,2.2a29.49,29.49,0,0,0,3.34,1.77c1.16.55,2.26,1.2,3.42,1.66a24.61,24.61,0,0,0,3.59,1.15,11.77,11.77,0,0,0,3.71.21,37.8,37.8,0,0,1,3.84-.09l7.64,0,7.64,0c2.58-.05,5.11.56,7.53-.32a23.64,23.64,0,0,0,3.56-1.29c1.12-.55,2.28-1.15,3.43-1.68a21,21,0,0,0,3.28-1.89,37.6,37.6,0,0,0,3.06-2.25,18.78,18.78,0,0,0,1.38-1.29,13.52,13.52,0,0,1,1.35-1.39,3.59,3.59,0,0,1,1.87-.62,14.16,14.16,0,0,0,1.86-.32,15.23,15.23,0,0,0,3.55-1.29A32.73,32.73,0,0,0,282,270a17,17,0,0,0,2.82-2.53c.87-.94,1.79-1.82,2.66-2.74a21.71,21.71,0,0,0,2.39-2.95c.36-.53.68-1.07,1-1.62l1-1.63.11-.17.06.19a55.29,55.29,0,0,1,2.56,17.42A74.82,74.82,0,0,1,292.68,293.45Zm0,0a75.33,75.33,0,0,0,1.79-17.52,55.73,55.73,0,0,0-2.64-17.36H292l-1,1.64c-.32.55-.64,1.1-1,1.63a21.55,21.55,0,0,1-2.39,3c-.88.93-1.79,1.81-2.65,2.75a17.38,17.38,0,0,1-2.84,2.58,32.85,32.85,0,0,1-3.22,2.09,15.67,15.67,0,0,1-3.61,1.33,13.73,13.73,0,0,1-1.9.33,3.43,3.43,0,0,0-1.71.58,12.92,12.92,0,0,0-1.3,1.35,16,16,0,0,1-1.41,1.32,34.09,34.09,0,0,1-3.07,2.3,21.59,21.59,0,0,1-3.32,1.93c-1.17.55-2.27,1.13-3.43,1.7a23.44,23.44,0,0,1-3.62,1.33,19.05,19.05,0,0,1-1.88.44,12.83,12.83,0,0,1-2,.08c-1.29,0-2.54-.18-3.81-.14l-7.64,0h-7.64c-1.29,0-2.53,0-3.81.11a12.09,12.09,0,0,1-3.88-.2,25.07,25.07,0,0,1-3.69-1.16c-1.21-.48-2.32-1.13-3.46-1.65a31.94,31.94,0,0,1-3.42-1.8c-1.07-.72-2.12-1.43-3.14-2.22a17.78,17.78,0,0,1-2.84-2.65,2.94,2.94,0,0,0-1.37-1,17.17,17.17,0,0,0-1.83-.29,17.37,17.37,0,0,1-3.75-1.1,20.61,20.61,0,0,1-3.36-2,19,19,0,0,1-3-2.45c-.89-.95-1.75-1.83-2.66-2.75a26.29,26.29,0,0,1-2.55-2.91,37,37,0,0,1-2.08-3.25l.7,0a45.46,45.46,0,0,0-5.7,10.49,17.82,17.82,0,0,0-1,5.8,23.9,23.9,0,0,0,.89,5.87,51.44,51.44,0,0,0,4.66,11c1.93,3.51,4,7,6.17,10.36a19,19,0,0,0,4,4.41,20.31,20.31,0,0,0,5.09,3.07,28.81,28.81,0,0,0,2.81,1.05c1,.25,1.92.54,2.91.71a38.45,38.45,0,0,0,6,.69,54.93,54.93,0,0,0,6-.1,29.2,29.2,0,0,0,3-.33,22.49,22.49,0,0,0,2.9-.76c3.83-1.21,7.53-2.89,11.47-3.86l.22-.05v.33l-.12-.16c5.15,1.75,10,4.24,15.21,5.74a28.34,28.34,0,0,0,3.95.84l1,.09h1a19.45,19.45,0,0,0,2,0,37.85,37.85,0,0,0,8-1.36,48,48,0,0,0,7.59-2.88,43.66,43.66,0,0,0,6.9-4.25,31.09,31.09,0,0,0,5.77-5.69A21.49,21.49,0,0,0,292.68,293.45Z"/><polyline class="cls-16" points="193.26 266.08 193.26 266.09 187.59 294.11"/><path class="cls-19" d="M193.26,266.08h0c-.3,2.37-.69,4.72-1.1,7.07s-.88,4.68-1.32,7-1,4.67-1.51,7-1.1,4.64-1.74,6.94c.3-2.37.69-4.72,1.1-7.07s.88-4.68,1.32-7,1-4.67,1.51-7,1.1-4.64,1.74-6.94h0Z"/><polyline class="cls-16" points="198.6 270.85 198.6 270.86 192.29 301.99"/><path class="cls-19" d="M198.6,270.85h0c-.36,2.63-.8,5.24-1.26,7.85s-1,5.2-1.48,7.8-1.08,5.18-1.67,7.77-1.2,5.15-1.9,7.71c.36-2.63.8-5.24,1.26-7.84s1-5.21,1.48-7.81,1.08-5.18,1.67-7.76,1.2-5.16,1.9-7.72h0Z"/><line class="cls-16" x1="204.37" y1="273.48" x2="197.38" y2="307.97"/><path class="cls-19" d="M204.37,273.48c-.41,2.91-.91,5.8-1.43,8.69s-1.1,5.76-1.65,8.64-1.19,5.74-1.84,8.6-1.31,5.72-2.07,8.56c.41-2.91.91-5.8,1.43-8.69s1.1-5.76,1.65-8.64,1.19-5.74,1.85-8.6S203.62,276.32,204.37,273.48Z"/><line class="cls-16" x1="210.05" y1="276.53" x2="203.03" y2="311.21"/><path class="cls-19" d="M210.05,276.53c-.41,2.92-.91,5.83-1.43,8.73s-1.11,5.8-1.66,8.69-1.2,5.78-1.85,8.65-1.32,5.75-2.08,8.61c.41-2.93.92-5.83,1.44-8.74s1.1-5.79,1.66-8.69,1.2-5.77,1.85-8.65S209.3,279.38,210.05,276.53Z"/><line class="cls-16" x1="215.55" y1="280.49" x2="208.99" y2="312.85"/><path class="cls-19" d="M215.55,280.49c-.37,2.74-.84,5.45-1.32,8.16s-1,5.4-1.54,8.11-1.12,5.38-1.74,8.07-1.24,5.36-2,8c.38-2.73.84-5.44,1.32-8.15s1-5.41,1.55-8.11,1.12-5.39,1.73-8.07S214.83,283.16,215.55,280.49Z"/><polyline class="cls-16" points="215.19 313.4 221.28 283.29 221.45 282.5"/><path class="cls-19" d="M215.19,313.4c.35-2.61.79-5.2,1.24-7.79s1-5.16,1.47-7.74,1.07-5.15,1.66-7.71,1.19-5.12,1.89-7.66c-.36,2.61-.8,5.2-1.25,7.79s-1,5.16-1.47,7.74-1.07,5.15-1.66,7.71S215.88,310.86,215.19,313.4Z"/><line class="cls-16" x1="226.54" y1="288.45" x2="221.54" y2="313.14"/><path class="cls-19" d="M226.54,288.45c-.24,2.09-.58,4.16-.93,6.23s-.77,4.13-1.15,6.2-.87,4.11-1.35,6.15-1,4.09-1.57,6.11c.24-2.09.58-4.17.93-6.24s.77-4.13,1.15-6.19.87-4.11,1.35-6.16S226,290.47,226.54,288.45Z"/><line class="cls-16" x1="231.64" y1="294.39" x2="228.18" y2="311.44"/><path class="cls-19" d="M231.64,294.39c-.12,1.46-.33,2.89-.55,4.33s-.49,2.86-.76,4.28a77.88,77.88,0,0,1-2.15,8.44,79.81,79.81,0,0,1,1.31-8.61c.3-1.42.6-2.84,1-4.24S231.18,295.78,231.64,294.39Z"/><polyline class="cls-16" points="286.83 265.49 292.58 293.84 292.58 293.85"/><path class="cls-19" d="M286.83,265.49c.65,2.33,1.21,4.68,1.75,7s1,4.71,1.54,7.06.93,4.73,1.34,7.11.81,4.75,1.12,7.15h0c-.66-2.33-1.21-4.67-1.76-7s-1-4.71-1.53-7.07-.93-4.73-1.34-7.11S287.13,267.89,286.83,265.49Z"/><polyline class="cls-16" points="281.53 270.43 281.53 270.44 287.96 302.14"/><path class="cls-19" d="M281.53,270.43h0c.71,2.6,1.33,5.23,1.93,7.86s1.13,5.27,1.7,7.9,1,5.29,1.51,7.95.92,5.31,1.29,8c-.71-2.61-1.33-5.23-1.93-7.86s-1.13-5.27-1.7-7.91-1-5.29-1.51-7.94-.92-5.32-1.29-8h0Z"/><line class="cls-16" x1="282.63" y1="306.96" x2="275.81" y2="273.31"/><path class="cls-19" d="M282.63,307c-.74-2.77-1.39-5.56-2-8.35s-1.2-5.59-1.81-8.39-1.1-5.62-1.61-8.43-1-5.64-1.38-8.48c.74,2.77,1.39,5.56,2,8.35s1.2,5.59,1.81,8.39,1.1,5.62,1.6,8.43S282.23,304.12,282.63,307Z"/><polyline class="cls-16" points="270.04 275.95 270.04 275.96 277.02 310.39"/><path class="cls-19" d="M270,276h0c.76,2.83,1.42,5.69,2.07,8.54s1.22,5.73,1.84,8.59,1.13,5.74,1.65,8.62,1,5.77,1.42,8.68c-.75-2.84-1.41-5.69-2.06-8.55s-1.23-5.72-1.84-8.58-1.14-5.75-1.65-8.63-1-5.77-1.43-8.67h0Z"/><line class="cls-16" x1="271.22" y1="312.85" x2="264.59" y2="280.12"/><path class="cls-19" d="M271.22,312.85c-.72-2.69-1.36-5.4-2-8.12s-1.16-5.44-1.75-8.16-1.08-5.46-1.56-8.2-1-5.49-1.34-8.25c.72,2.69,1.36,5.4,2,8.12s1.17,5.44,1.75,8.16,1.08,5.46,1.56,8.2S270.84,310.09,271.22,312.85Z"/><polyline class="cls-16" points="265.24 314.44 258.87 283.01 258.77 282.5"/><path class="cls-19" d="M265.24,314.44c-.71-2.63-1.33-5.27-1.94-7.92s-1.14-5.31-1.71-8-1-5.33-1.52-8-.94-5.35-1.3-8.05c.71,2.63,1.33,5.27,1.94,7.92s1.14,5.31,1.71,8,1.05,5.33,1.52,8S264.87,311.74,265.24,314.44Z"/><line class="cls-16" x1="259.06" y1="315.02" x2="253.67" y2="288.45"/><path class="cls-19" d="M259.06,315c-.62-2.18-1.15-4.37-1.67-6.58s-1-4.41-1.44-6.62-.87-4.44-1.25-6.67-.75-4.45-1-6.7c.62,2.18,1.15,4.37,1.67,6.58s1,4.41,1.44,6.62.87,4.44,1.25,6.66S258.78,312.77,259.06,315Z"/><line class="cls-16" x1="252.54" y1="313.99" x2="248.58" y2="294.39"/><path class="cls-19" d="M252.54,314c-.5-1.6-.91-3.22-1.31-4.84s-.75-3.25-1.09-4.88c-.65-3.26-1.23-6.55-1.56-9.88,1,3.2,1.72,6.45,2.4,9.72.32,1.63.64,3.27.89,4.91S252.38,312.32,252.54,314Z"/><path class="cls-17" d="M276.82,174.05c-4.6,11.63-10.69,39.33-5.8,52.13,3.61,9.46,6.58,16.21,15,23.09a20.45,20.45,0,0,1,5.91,9.27c3.74,10.67,3,25.87.77,34.91-3.19,13.05-21.92,22.24-34.85,21.54-6.25-.34-11.29-4.86-16.84-6.63a16,16,0,0,0-1.9-.48l-.58-.08c-5.37-.57-10.88,4.71-16.43,5.29-11.69,1.2-23.41-.67-29.4-10.45C187.94,294.88,181.5,285,181.33,276c-.1-5.37,3-11.16,6.78-16.61,3.22-4.67,6.94-9.08,9.58-12.79,5.58-7.85,16.58-17,16.14-25.83-.55-10.85-7-36.92-9.8-46.8"/><path class="cls-20" d="M239.94,284.59H236.7a.74.74,0,0,0-.35-.37c.72-.35,2,.33,2.9.35Z"/><path class="cls-20" d="M243.15,284.23a.79.79,0,0,0-.35.37h-2.55C241.12,284.56,242.44,283.88,243.15,284.23Z"/><path class="cls-20" d="M239.75,287.09c-.19-.75-.67-1.36-.46-2.21a.49.49,0,1,1,.92,0C240.42,285.73,239.94,286.34,239.75,287.09Z"/><path class="cls-20" d="M239.75,287.09c-.19-.75-.67-1.36-.46-2.21a.49.49,0,1,1,.92,0C240.42,285.73,239.94,286.34,239.75,287.09Z"/><path class="cls-21" d="M211.36,269c2.08-1.82,58-2.14,60.75-.73S251.39,292.2,244.39,296C231.35,303,209.28,270.81,211.36,269Z"/><path class="cls-22" d="M233,291.79c.15,5.86,1.5,16.83,1.5,16.83"/><line class="cls-22" x1="245.94" y1="291.05" x2="242.94" y2="309.35"/><path d="M285.27,174.23l2.36,31.94a4.23,4.23,0,0,1-4.37,4.5,5,5,0,0,1-5-4.51l-.72-12.09c3.16,0,5.37-5.25,4.93-11.64a18.66,18.66,0,0,0-2.32-8.2Z"/><path d="M201.79,174.14l-1.89,32.05a5,5,0,0,1-5,4.52,4.25,4.25,0,0,1-4.39-4.53l.89-12.13c3.17,0,6.09-5.27,6.51-11.68a17.31,17.31,0,0,0-1.24-8.23Z"/><path class="cls-18" d="M336.52,157.6a69.44,69.44,0,0,1-15.3-9.79A60.08,60.08,0,0,1,308.48,133a49.82,49.82,0,0,1-5.84-14.38c6.76-2.56,10.93-8.1,18.94-8.55,7.34-.41,15.51,2.33,19.41,8C347.48,127.57,347.26,150.38,336.52,157.6Z"/><path class="cls-18" d="M174.84,118.3A48.72,48.72,0,0,1,170,130.9a56,56,0,0,1-6.73,9.67,64.62,64.62,0,0,1-11.86,10.65,70.19,70.19,0,0,1-10.59,6.1c-10.84-7.27-11.11-30.17-4.59-39.68,3.92-5.72,12.14-8.44,19.52-8C163.83,110.14,168.05,115.71,174.84,118.3Z"/><path class="cls-23" d="M236.35,293.45a3.67,3.67,0,0,0,.31-.69c1-3.05-2.55-13.15-5.32-14.83s-13.46-4.1-15.68-1.13c-2.7,3.61,8.51,12.8,11,14.53C228.72,292.79,234.53,296.4,236.35,293.45Z"/><path class="cls-23" d="M243.1,293.45a3.12,3.12,0,0,1-.3-.69c-1-3.05,2.54-13.15,5.31-14.83s13.46-4.1,15.68-1.13c2.7,3.61-8.51,12.8-11,14.53C250.73,292.79,244.92,296.4,243.1,293.45Z"/><rect class="cls-24" x="266.44" y="163.24" width="27.2" height="5.01" rx="2.49"/><rect class="cls-24" x="181.84" y="163.24" width="27.2" height="5.01" rx="2.49"/><polyline class="cls-16" points="311.33 219.4 316.15 234.74 316.15 234.74"/><path class="cls-19" d="M311.33,219.4c.57,1.23,1.05,2.48,1.52,3.74s.88,2.53,1.3,3.8a66.54,66.54,0,0,1,2,7.8h0a65.21,65.21,0,0,1-2.81-7.54c-.4-1.28-.79-2.56-1.11-3.87S311.57,220.73,311.33,219.4Z"/><line class="cls-16" x1="313.57" y1="243.3" x2="307.09" y2="222.63"/><path class="cls-19" d="M313.57,243.3c-.71-1.67-1.33-3.37-1.93-5.07s-1.17-3.42-1.72-5.14c-1.07-3.45-2.08-6.91-2.83-10.46,1.4,3.35,2.55,6.77,3.64,10.21.53,1.72,1.06,3.45,1.53,5.19S313.19,241.52,313.57,243.3Z"/><polyline class="cls-16" points="303.72 228.71 303.72 228.71 310.83 251.36"/><path class="cls-19" d="M303.72,228.7h0c.76,1.84,1.43,3.7,2.09,5.57s1.27,3.75,1.87,5.63c1.17,3.78,2.29,7.57,3.15,11.45-1.5-3.67-2.76-7.43-4-11.2-.58-1.89-1.16-3.78-1.68-5.69s-1-3.82-1.47-5.76h0Z"/><line class="cls-16" x1="307.93" y1="258.87" x2="300.8" y2="236.15"/><path class="cls-19" d="M307.93,258.87c-.76-1.84-1.44-3.71-2.1-5.59s-1.27-3.76-1.87-5.65c-1.18-3.79-2.29-7.6-3.16-11.48,1.51,3.68,2.77,7.45,4,11.23.58,1.9,1.16,3.79,1.68,5.71S307.5,256.92,307.93,258.87Z"/><polyline class="cls-16" points="297.93 243.77 304.83 265.75 304.83 265.76"/><path class="cls-19" d="M297.93,243.77c.74,1.78,1.39,3.59,2,5.4s1.24,3.64,1.82,5.46c1.14,3.67,2.22,7.36,3.05,11.12h0c-1.46-3.56-2.69-7.2-3.85-10.86-.56-1.84-1.13-3.67-1.63-5.53S298.34,245.66,297.93,243.77Z"/><line class="cls-16" x1="301.49" y1="271.91" x2="295.12" y2="251.59"/><path class="cls-19" d="M301.49,271.91c-.7-1.64-1.31-3.31-1.91-5s-1.14-3.36-1.68-5.05c-1-3.39-2-6.79-2.78-10.28,1.38,3.28,2.51,6.65,3.59,10,.52,1.7,1,3.39,1.5,5.11S301.12,270.16,301.49,271.91Z"/><polyline class="cls-16" points="291.98 258.39 298.06 277.75 298.06 277.76"/><path class="cls-19" d="M292,258.39c.68,1.56,1.26,3.15,1.83,4.74s1.1,3.2,1.62,4.81c1,3.23,1.94,6.48,2.64,9.81h0c-1.33-3.12-2.42-6.33-3.44-9.55-.5-1.62-1-3.23-1.43-4.87S292.32,260.06,292,258.39Z"/><polyline class="cls-16" points="170.02 220.86 166.44 232.25 166.44 232.25"/><path class="cls-19" d="M170,220.86a42.23,42.23,0,0,1-3.57,11.39h0a37.2,37.2,0,0,1,1.39-5.83A37.75,37.75,0,0,1,170,220.86Z"/><line class="cls-16" x1="173.99" y1="225" x2="168.81" y2="241.51"/><path class="cls-19" d="M174,225c-.27,1.43-.62,2.83-1,4.23s-.78,2.78-1.2,4.15a76.91,76.91,0,0,1-3,8.13,77.51,77.51,0,0,1,2.18-8.38c.44-1.37.89-2.74,1.39-4.1S173.39,226.32,174,225Z"/><line class="cls-16" x1="177.09" y1="231.89" x2="171.75" y2="248.9"/><path class="cls-19" d="M177.09,231.89c-.28,1.47-.65,2.91-1,4.35s-.81,2.86-1.24,4.28a80.84,80.84,0,0,1-3.08,8.38,82.32,82.32,0,0,1,2.27-8.63c.45-1.41.91-2.83,1.42-4.22S176.48,233.26,177.09,231.89Z"/><line class="cls-16" x1="179.98" y1="239.46" x2="175.2" y2="254.68"/><path class="cls-19" d="M180,239.46c-.23,1.32-.55,2.61-.89,3.9s-.71,2.56-1.1,3.84a64.19,64.19,0,0,1-2.79,7.48,67.51,67.51,0,0,1,2-7.74c.41-1.26.82-2.53,1.29-3.77S179.41,240.67,180,239.46Z"/><polyline class="cls-16" points="182.73 247.49 182.73 247.49 178.75 260.15 178.75 260.16"/><path class="cls-19" d="M182.73,247.49h0a46.86,46.86,0,0,1-1.59,6.46,45.31,45.31,0,0,1-2.39,6.2h0a46.73,46.73,0,0,1,1.59-6.45,45.49,45.49,0,0,1,2.4-6.21Z"/><polyline class="cls-16" points="185.68 254.84 181.74 267.4 181.74 267.4"/><path class="cls-19" d="M185.68,254.84a51.71,51.71,0,0,1-3.94,12.56h0A46.12,46.12,0,0,1,183.3,261,44.64,44.64,0,0,1,185.68,254.84Z"/><polyline class="cls-16" points="189.04 260.92 183.8 277.62 183.8 277.62"/><path class="cls-19" d="M189,260.92c-.27,1.45-.63,2.86-1,4.27s-.79,2.81-1.22,4.21a80.3,80.3,0,0,1-3,8.22h0a79.22,79.22,0,0,1,2.21-8.47c.45-1.39.9-2.77,1.41-4.14S188.44,262.26,189,260.92Z"/><path class="cls-19" d="M209.23,345.44c-.23-2.72-.36-5.44-.48-8.16s-.17-5.44-.26-8.16-.07-5.44-.06-8.17,0-5.44.17-8.17c.23,2.72.37,5.44.49,8.16s.16,5.44.25,8.16.08,5.45.06,8.17S209.35,342.72,209.23,345.44Z"/><path class="cls-19" d="M217,350.08c-.23-3.05-.37-6.11-.5-9.16s-.18-6.11-.27-9.17-.09-6.11-.08-9.17,0-6.11.15-9.17c.24,3,.38,6.11.5,9.16s.19,6.11.28,9.17.08,6.11.07,9.17S217.08,347,217,350.08Z"/><path class="cls-19" d="M224.71,354.94c-.25-3.51-.39-7-.53-10.54s-.2-7-.3-10.55-.1-7-.1-10.55,0-7,.12-10.56c.24,3.51.39,7,.53,10.54s.2,7,.3,10.55.1,7,.1,10.55S224.82,351.42,224.71,354.94Z"/><path class="cls-19" d="M232.45,359.43c-.26-4.16-.42-8.32-.57-12.48s-.22-8.32-.34-12.48-.13-8.33-.14-12.49,0-8.33.09-12.49c.25,4.15.41,8.32.56,12.48s.23,8.32.34,12.48.13,8.33.14,12.49S232.54,355.27,232.45,359.43Z"/><path class="cls-19" d="M240.14,362.17c-.26-4.53-.43-9.06-.58-13.59s-.24-9.06-.36-13.59-.14-9.07-.16-13.6,0-9.07.07-13.6c.26,4.53.43,9.06.58,13.59s.24,9.06.36,13.59.14,9.06.16,13.6S240.23,357.63,240.14,362.17Z"/><path class="cls-19" d="M247.79,362.31c-.25-4.27-.42-8.55-.57-12.82s-.22-8.55-.34-12.83-.14-8.55-.15-12.83,0-8.55.08-12.83c.26,4.27.42,8.55.57,12.82s.23,8.55.35,12.83.13,8.55.14,12.83S247.89,358,247.79,362.31Z"/><path class="cls-19" d="M255.37,358.54c-.24-3.67-.4-7.35-.53-11s-.21-7.35-.31-11-.11-7.35-.12-11,0-7.35.12-11c.25,3.67.4,7.35.54,11s.2,7.35.31,11,.11,7.35.11,11S255.48,354.86,255.37,358.54Z"/><path class="cls-19" d="M262.91,353.05c-.23-3.18-.37-6.36-.5-9.54s-.18-6.36-.28-9.54-.09-6.36-.08-9.55,0-6.36.14-9.55c.24,3.18.38,6.36.51,9.54s.18,6.36.28,9.54.09,6.37.08,9.55S263,349.87,262.91,353.05Z"/><path class="cls-19" d="M270.46,347.34c-.23-2.84-.37-5.67-.49-8.5s-.17-5.67-.26-8.51-.08-5.67-.06-8.51,0-5.67.16-8.51c.23,2.83.37,5.66.49,8.5s.17,5.67.26,8.5.08,5.68.06,8.51S270.58,344.5,270.46,347.34Z"/><path class="cls-16" d="M212.88,319.51a4.06,4.06,0,0,0,1.75-.48c.71-.3,1.31-.79,2-1.06,1.36-.51,2.51-1.53,3.9-1.93a33.25,33.25,0,0,1,9.24-.92h5c.9,0,1.82,0,2.72,0,1.61,0,3.21.47,4.81.45a33.59,33.59,0,0,1,6,.39,15.55,15.55,0,0,0,2.46.05c.65,0,1.31-.05,1.95,0s1.12.22,1.69.24a28.34,28.34,0,0,1,4,.17c.71.12,1.49.19,2.2.26a12,12,0,0,1,2,.62,10.45,10.45,0,0,1,2.84,1.36c.67.46,1.47.74,1.81,1.52a17.49,17.49,0,0,1,.77,4.32c.06.42.25,1.26-.13,1.59a5,5,0,0,1-1.36.21,20.39,20.39,0,0,1-4.75,0c-1-.08-1.94-.33-2.93-.39-.81-.05-1.62,0-2.44,0-2.17,0-4.32-.24-6.48-.22s-4.12-.09-6.17,0c-1.47.05-2.88.38-4.33.53s-2.74.28-4.11.46c-1.22.16-2.46.2-3.69.29-1.59.11-3.08.47-4.65.68-1.73.22-3.49.48-5.22.65a30.87,30.87,0,0,1-3.19.05,7.73,7.73,0,0,1-1.8,0A4,4,0,0,1,215,327a4.47,4.47,0,0,1-.87-1.54c-.23-.61-.59-1.15-.78-1.77s-.41-.83-.55-1.31-.48-.79-.38-1.25C212.44,321.17,212.44,321.22,212.88,319.51Z"/><path class="cls-22" d="M264.4,321.38c-10.95-1.19-26.94-4.24-41.63-2.94l-6,3.21"/><path class="cls-25" d="M170,130.9a60.65,60.65,0,0,1-18.59,20.32,2.24,2.24,0,0,1-1.17.06,4.24,4.24,0,0,1-1.74-1.28c-.19-.27-.25-.54-.47-.81a4.48,4.48,0,0,0-.79-.65c-1.9-1.58-2.53-4.33-3-6.65a64.1,64.1,0,0,1-1-10.62c0-2.5,1.66-3.53,3-5.31.55-.74.42-.65,1.37-.78a7.58,7.58,0,0,1,2.43-.31c.79.12,1.54.48,2.33.6a23.59,23.59,0,0,0,2.66,0,32.88,32.88,0,0,1,4.76,0,7.05,7.05,0,0,1,2.21.88c1.63.86,3.3,1.76,4.87,2.72a35.33,35.33,0,0,1,3.1,1.81A0,0,0,0,0,170,130.9Z"/><path class="cls-17" d="M174.84,118.3A48.72,48.72,0,0,1,170,130.9a56,56,0,0,1-6.73,9.67,64.62,64.62,0,0,1-11.86,10.65,70.19,70.19,0,0,1-10.59,6.1c-10.84-7.27-11.11-30.17-4.59-39.68,3.92-5.72,12.14-8.44,19.52-8C163.83,110.14,168.05,115.71,174.84,118.3Z"/><path class="cls-25" d="M336.44,131.27a65.19,65.19,0,0,1-1,10.62c-.42,2.32-1.06,5.07-3,6.65a4.88,4.88,0,0,0-.79.65c-.21.27-.26.54-.46.81a4.24,4.24,0,0,1-1.74,1.28,3.37,3.37,0,0,1-2.32-.56,22,22,0,0,0-3-1.58c-1-.41-1.92-.94-2.92-1.33A60.08,60.08,0,0,1,308.48,133a13.32,13.32,0,0,1,1.23-2.06,35.16,35.16,0,0,1,3.09-1.81c1.58-1,3.24-1.86,4.87-2.72a7.15,7.15,0,0,1,2.21-.88,32.88,32.88,0,0,1,4.76,0,23.57,23.57,0,0,0,2.66,0c.8-.12,1.54-.48,2.34-.6a7.62,7.62,0,0,1,2.43.31c.94.13.82,0,1.37.78C334.78,127.74,336.47,128.77,336.44,131.27Z"/><path class="cls-19" d="M323,111.68c7,0,13.5,2.89,16.55,7.35,3.6,5.26,5,15.29,3.36,23.86-1.1,5.72-3.43,10.2-6.62,12.74a67.47,67.47,0,0,1-14-9.12,57.91,57.91,0,0,1-12.38-14.43,48.6,48.6,0,0,1-5.3-12.5,46.42,46.42,0,0,0,5.86-3.35c3.43-2.19,6.66-4.26,11.17-4.51.45,0,.91,0,1.37,0m0-1.7c-.49,0-1,0-1.46,0-8,.45-12.18,6-18.94,8.55A49.82,49.82,0,0,0,308.48,133a60.08,60.08,0,0,0,12.74,14.86,69.44,69.44,0,0,0,15.3,9.79c10.74-7.22,11-30,4.47-39.53C337.34,112.73,330,110,323,110Z"/><path class="cls-26" d="M227.32,110.8s29.37-1.34,30,2.34-2,26.85,2.46,29.92c0,0-7.21,4.61-7.64-1.32S242.5,156.9,246.89,160s-13.73,3.22-14.22-1.58-1.16-12.7-1-14.68-11.65-1-14.29.56,3-3.72,4.11-7.92S219.89,111.77,227.32,110.8Z"/><polygon points="154.53 188.9 170.41 202.98 170.41 210.92 154.53 192.42 154.53 188.9"/><polygon points="326.01 189.65 307.8 202.98 307.8 210.92 326.01 193.17 326.01 189.65"/><rect class="cls-27" x="228.27" y="208.27" width="10.83" height="2.65"/><g class="cls-28"><path class="cls-7" d="M276.71,222.53c-15.15,0-25.87-1.06-25.87-14.78v-4a132.4,132.4,0,0,1,56,0v4c0,13.72-10.71,14.78-25.85,14.78Z"/><path d="M278.87,201.63A133.48,133.48,0,0,1,306,204.45v3.3c0,12.91-9.87,13.88-24.94,13.88h-4.33c-15.08,0-25-1-25-13.88v-3.3a133.73,133.73,0,0,1,27.12-2.82m0-1.81A135,135,0,0,0,249.94,203v4.77c0,14.79,12,15.69,26.77,15.69H281c14.78,0,26.76-.9,26.76-15.69V203a134.91,134.91,0,0,0-28.93-3.16Z"/></g><path d="M278.87,201.63A133.48,133.48,0,0,1,306,204.45v3.3c0,12.91-9.87,13.88-24.94,13.88h-4.33c-15.08,0-25-1-25-13.88v-3.3a133.73,133.73,0,0,1,27.12-2.82m0-1.81A135,135,0,0,0,249.94,203v4.77c0,14.79,12,15.69,26.77,15.69H281c14.78,0,26.76-.9,26.76-15.69V203a134.91,134.91,0,0,0-28.93-3.16Z"/><g class="cls-28"><path class="cls-7" d="M196.94,222.53c-15.13,0-25.85-1.06-25.85-14.78v-4a132.4,132.4,0,0,1,56,0v4c0,13.72-10.72,14.78-25.87,14.78Z"/><path d="M199.11,201.63a133.73,133.73,0,0,1,27.12,2.82v3.3c0,12.91-9.88,13.88-25,13.88h-4.33c-15.07,0-24.94-1-24.94-13.88v-3.3a133.48,133.48,0,0,1,27.11-2.82m0-1.81A134.82,134.82,0,0,0,170.19,203v4.77c0,14.79,12,15.69,26.75,15.69h4.33c14.8,0,26.77-.9,26.77-15.69V203a135,135,0,0,0-28.93-3.16Z"/></g><path d="M199.11,201.63a133.73,133.73,0,0,1,27.12,2.82v3.3c0,12.91-9.88,13.88-25,13.88h-4.33c-15.07,0-24.94-1-24.94-13.88v-3.3a133.48,133.48,0,0,1,27.11-2.82m0-1.81A134.82,134.82,0,0,0,170.19,203v4.77c0,14.79,12,15.69,26.75,15.69h4.33c14.8,0,26.77-.9,26.77-15.69V203a135,135,0,0,0-28.93-3.16Z"/><rect class="cls-27" x="239.11" y="208.27" width="10.83" height="2.65"/><ellipse cx="227.41" cy="217.27" rx="2.73" ry="1.13" transform="translate(-70.18 319.04) rotate(-62.57)"/><line class="cls-29" x1="227.27" y1="212.62" x2="227.63" y2="216.4"/><line class="cls-29" x1="223.21" y1="219.31" x2="226.86" y2="218.24"/><ellipse cx="250.44" cy="217.27" rx="1.13" ry="2.73" transform="translate(-71.92 139.77) rotate(-27.43)"/><line class="cls-29" x1="250.58" y1="212.62" x2="250.22" y2="216.4"/><line class="cls-29" x1="254.63" y1="219.31" x2="250.99" y2="218.24"/></g></svg>