<svg id="Layer_1" data-name="Layer 1" xmlns="http://www.w3.org/2000/svg" xmlns:xlink="http://www.w3.org/1999/xlink" viewBox="0 0 480 480"><defs><style>.cls-1,.cls-19,.cls-20,.cls-9{fill:none;}.cls-2{clip-path:url(#clip-path);}.cls-10,.cls-3{fill:#503629;}.cls-3{stroke:#140e0a;stroke-width:5.46px;}.cls-12,.cls-13,.cls-14,.cls-17,.cls-19,.cls-20,.cls-22,.cls-3,.cls-5,.cls-7,.cls-9{stroke-miterlimit:10;}.cls-4{clip-path:url(#clip-path-2);}.cls-5{fill:#101317;stroke-width:0.71px;}.cls-12,.cls-13,.cls-14,.cls-17,.cls-19,.cls-20,.cls-5,.cls-7{stroke:#000;}.cls-6{clip-path:url(#clip-path-3);}.cls-12,.cls-7{fill:#1e1411;}.cls-7{stroke-width:4.38px;}.cls-8{fill:#fff;}.cls-9{stroke:#8e9c9c;stroke-width:3.82px;}.cls-11{clip-path:url(#clip-path-4);}.cls-12,.cls-13{stroke-width:4px;}.cls-13{fill:#63362f;}.cls-14{fill:#f1f3f4;stroke-width:2.06px;}.cls-15{fill:#c22e17;}.cls-16,.cls-17{fill:#f4f1e5;}.cls-17{stroke-width:0.93px;}.cls-18{opacity:0.4;}.cls-19{stroke-width:1.34px;}.cls-20{stroke-width:1.78px;}.cls-21,.cls-22{fill:#13161a;}.cls-22{stroke:#13161a;stroke-width:3.3px;}.cls-23{fill:#e6e6e6;}</style><clipPath id="clip-path"><rect class="cls-1" x="-463.83" y="26.17" width="427.65" height="427.65" rx="150.64" transform="translate(96.48 247.07) rotate(45)"/></clipPath><clipPath id="clip-path-2"><rect class="cls-1" x="-463.83" y="-463.83" width="427.65" height="427.65" rx="150.64" transform="translate(-250 103.55) rotate(45)"/></clipPath><clipPath id="clip-path-3"><rect class="cls-1" x="26.17" y="-463.83" width="427.65" height="427.65" rx="150.64" transform="translate(-106.48 -242.93) rotate(45)"/></clipPath><clipPath id="clip-path-4"><rect class="cls-1" x="41.86" y="59.46" width="396.28" height="396.28" rx="139.59" transform="translate(252.45 -94.26) rotate(45)"/></clipPath></defs><title>OCTOPUS</title><g class="cls-2"><path class="cls-3" d="M-255.16,589.08-507.22,413.3l135.76-94.68c64.23-44.79,168.37-44.79,232.6,0L-3.1,413.3Z"/></g><g class="cls-4"><path class="cls-5" d="M-527-112.31V245.37H39.73V-112.31c-81-28.59-144.39-73.29-156-114.43C-126.7-263.53-179-218.2-248.65-218c-66.43.13-124.17-42-129.56-6.19C-384.29-183.87-446.48-138.79-527-112.31Zm280.76,288.18-135.9-303.19H-115Z"/></g><g class="cls-6"><path class="cls-7" d="M244.44,178.8-26.68-23.86,110.36-133c74.05-51.65,194.11-51.65,268.16,0l137,109.15Z"/><polygon class="cls-8" points="363.92 -105.14 318.04 82.2 161.28 82.2 126.88 -108.96 363.92 -105.14"/><line class="cls-9" x1="140.25" y1="-96.59" x2="186.14" y2="168.22"/><line class="cls-9" x1="155.54" y1="-96.59" x2="201.43" y2="168.22"/><line class="cls-9" x1="170.84" y1="-96.59" x2="216.72" y2="168.22"/><line class="cls-9" x1="186.13" y1="-96.59" x2="232.01" y2="168.22"/><line class="cls-9" x1="201.42" y1="-96.59" x2="247.31" y2="168.22"/><line class="cls-9" x1="216.71" y1="-96.59" x2="262.6" y2="168.22"/><line class="cls-9" x1="350.01" y1="-90.96" x2="281.96" y2="169.04"/><line class="cls-9" x1="334.77" y1="-92.25" x2="266.72" y2="167.75"/><line class="cls-9" x1="319.95" y1="-91.76" x2="251.49" y2="166.46"/><line class="cls-9" x1="300.83" y1="-84.11" x2="236.25" y2="165.17"/><line class="cls-9" x1="289.05" y1="-96.12" x2="221.01" y2="163.88"/><line class="cls-9" x1="273.82" y1="-97.41" x2="205.77" y2="162.59"/><path class="cls-10" d="M226.44,25.24c3.33,1.54,6.38,3.48,9.48,5.26,1.55.91,3.11,1.76,4.69,2.59s3.22,1.58,4.87,2.38a22.83,22.83,0,0,1-5.32-1.35,34.21,34.21,0,0,1-5-2.37,48.57,48.57,0,0,1-4.55-3A46.25,46.25,0,0,1,226.44,25.24Z"/><path class="cls-10" d="M256.48-.17a72.39,72.39,0,0,1,8.68,3.62c1.4.67,2.81,1.32,4.21,2l4.29,2a26,26,0,0,1-9.11-2.61,45,45,0,0,1-4.16-2.25A38.1,38.1,0,0,1,256.48-.17Z"/></g><g class="cls-11"><path class="cls-12" d="M40,339,79.73,556.31H400.27L435,340c-89.08-36.87-116.76-91.33-197.83-91.14C158,249.05,126.69,305.57,40,339Z"/><path class="cls-13" d="M162.11,263.59c-9.38,3.71-45.55,55.13-44.19,66s30.34,22.5,30.34,22.5l-10.21,35.45s75.87,170,100.3,181.8S153.93,315.5,153.93,315.5Z"/><polygon class="cls-14" points="330.54 292.5 286.07 424.18 281.12 438.84 280.03 442.05 275.07 456.76 247.55 538.2 238.55 564.87 230.77 541.67 217.73 502.74 196.2 438.41 191.02 422.97 147.32 292.5 330.54 292.5"/><path class="cls-13" d="M311.48,259.56c11.07,2.08,49.82,55.73,48.45,66.64s-30.33,22.5-30.33,22.5l10.21,35.45S263.93,554.14,239.5,566s83.37-247.39,83.93-251.2C321.5,272.15,311.48,259.56,311.48,259.56Z"/><ellipse class="cls-15" cx="223.57" cy="336.14" rx="5.44" ry="4.8" transform="translate(-179.79 319.59) rotate(-54.02)"/><path d="M219.72,333.35a5.28,5.28,0,0,0-.92,3.73,4.48,4.48,0,0,0,1.84,3.09,4.27,4.27,0,0,0,3.45.59,5.45,5.45,0,0,0,3.06-2,5.51,5.51,0,0,0,1.13-3.54,4.3,4.3,0,0,0-1.65-3.27,4.48,4.48,0,0,0-3.68-.76A5.48,5.48,0,0,0,219.72,333.35Zm-.07-.06A6.34,6.34,0,0,1,222.9,331a4.67,4.67,0,0,1,4,.57,4.84,4.84,0,0,1,2,3.61,6.22,6.22,0,0,1-1.13,4,6.29,6.29,0,0,1-3.43,2.47,4.86,4.86,0,0,1-4.22-.73,4.64,4.64,0,0,1-1.79-3.8A6.51,6.51,0,0,1,219.65,333.29Z"/><ellipse class="cls-15" cx="222.46" cy="350.47" rx="4.07" ry="3.59" transform="translate(-152.16 529.29) rotate(-83.11)"/><path d="M219,350a3.78,3.78,0,0,0,.79,2.74A3.29,3.29,0,0,0,222,354a3.57,3.57,0,0,0,3.62-3.19,4,4,0,0,0-.52-2.67,3.13,3.13,0,0,0-2.21-1.52,3.35,3.35,0,0,0-2.65.8A4,4,0,0,0,219,350Zm-.1,0a4.94,4.94,0,0,1,1.29-2.71A3.49,3.49,0,0,1,223,346.2a3.67,3.67,0,0,1,2.66,1.66,4.77,4.77,0,0,1,.75,3.08,4.84,4.84,0,0,1-1.36,2.94,3.71,3.71,0,0,1-3.11,1.08,3.47,3.47,0,0,1-2.59-1.91A5.06,5.06,0,0,1,218.85,350Z"/><ellipse class="cls-15" cx="219.97" cy="365.93" rx="4.07" ry="3.59" transform="translate(-169.7 540.43) rotate(-83.11)"/><path d="M216.46,365.5a3.77,3.77,0,0,0,.8,2.74,3.27,3.27,0,0,0,2.28,1.26,3.55,3.55,0,0,0,3.62-3.19,4,4,0,0,0-.52-2.67,3.13,3.13,0,0,0-2.21-1.52,3.32,3.32,0,0,0-2.65.81A4,4,0,0,0,216.46,365.5Zm-.09,0a4.93,4.93,0,0,1,1.28-2.71,3.51,3.51,0,0,1,2.84-1.12,3.67,3.67,0,0,1,2.66,1.66,4.71,4.71,0,0,1,.75,3.08,4.83,4.83,0,0,1-1.35,2.94,3.74,3.74,0,0,1-3.12,1.08,3.49,3.49,0,0,1-2.59-1.91A5.06,5.06,0,0,1,216.37,365.49Z"/><ellipse class="cls-15" cx="219.97" cy="380.45" rx="4.07" ry="3.59" transform="translate(-184.11 553.21) rotate(-83.11)"/><path d="M216.46,380a3.76,3.76,0,0,0,.8,2.73,3.32,3.32,0,0,0,2.28,1.27,3.56,3.56,0,0,0,3.62-3.19,4,4,0,0,0-.52-2.67,3.12,3.12,0,0,0-2.21-1.53,3.32,3.32,0,0,0-2.65.81A4,4,0,0,0,216.46,380Zm-.09,0a4.9,4.9,0,0,1,1.28-2.7,3.49,3.49,0,0,1,2.84-1.13,3.67,3.67,0,0,1,2.66,1.66,4.73,4.73,0,0,1,.75,3.08,4.83,4.83,0,0,1-1.35,2.94,3.78,3.78,0,0,1-3.12,1.09,3.53,3.53,0,0,1-2.59-1.92A5.06,5.06,0,0,1,216.37,380Z"/><ellipse class="cls-15" cx="218.87" cy="400" rx="4.07" ry="3.59" transform="translate(-204.49 569.31) rotate(-83.11)"/><path d="M215.35,399.57a3.84,3.84,0,0,0,.8,2.74,3.31,3.31,0,0,0,2.29,1.26,3.58,3.58,0,0,0,3.62-3.19,4.08,4.08,0,0,0-.52-2.67,3.17,3.17,0,0,0-2.21-1.52,3.34,3.34,0,0,0-2.65.8A4,4,0,0,0,215.35,399.57Zm-.09,0a4.9,4.9,0,0,1,1.28-2.71,3.51,3.51,0,0,1,2.84-1.12,3.71,3.71,0,0,1,2.67,1.66,4.7,4.7,0,0,1,.74,3.08,4.78,4.78,0,0,1-1.35,2.93,3.7,3.7,0,0,1-3.12,1.09,3.53,3.53,0,0,1-2.59-1.91A5.14,5.14,0,0,1,215.26,399.56Z"/><ellipse class="cls-15" cx="218.87" cy="417.64" rx="4.07" ry="3.59" transform="matrix(0.02, -1, 1, 0.02, -202.61, 629.04)"/><path d="M215.33,417.58a3.81,3.81,0,0,0,1.07,2.64,3.34,3.34,0,0,0,2.4,1,3.57,3.57,0,0,0,3.28-3.55,4,4,0,0,0-.79-2.6,3.13,3.13,0,0,0-2.35-1.29,3.3,3.3,0,0,0-2.56,1.07A3.94,3.94,0,0,0,215.33,417.58Zm-.09,0a4.86,4.86,0,0,1,1-2.83,3.51,3.51,0,0,1,2.71-1.4,3.65,3.65,0,0,1,2.82,1.37,4.65,4.65,0,0,1,1.06,3,4.84,4.84,0,0,1-1,3.06,3.73,3.73,0,0,1-3,1.4,3.53,3.53,0,0,1-2.78-1.64A5.05,5.05,0,0,1,215.24,417.58Z"/><ellipse class="cls-15" cx="223.6" cy="435.96" rx="3.59" ry="4.07" transform="translate(-113.31 80.23) rotate(-16.29)"/><path d="M220.2,437a3.85,3.85,0,0,0,1.81,2.21,3.32,3.32,0,0,0,2.6.26,3.57,3.57,0,0,0,2.07-4.36,4,4,0,0,0-1.52-2.25,3.15,3.15,0,0,0-2.64-.53,3.32,3.32,0,0,0-2.12,1.78A4,4,0,0,0,220.2,437Zm-.09,0a4.93,4.93,0,0,1,.11-3,3.51,3.51,0,0,1,2.17-2.15,3.66,3.66,0,0,1,3.1.47,4.76,4.76,0,0,1,1.91,2.54,4.91,4.91,0,0,1-.09,3.23,3.74,3.74,0,0,1-2.44,2.23,3.52,3.52,0,0,1-3.13-.74A5.08,5.08,0,0,1,220.11,437Z"/><ellipse class="cls-15" cx="255.38" cy="335.4" rx="4.8" ry="5.44" transform="translate(-148.32 214) rotate(-35.98)"/><path d="M259.3,332.56a6.62,6.62,0,0,1,1.34,3.82,4.67,4.67,0,0,1-1.8,3.8,4.86,4.86,0,0,1-4.22.73,6.32,6.32,0,0,1-3.43-2.47,6.26,6.26,0,0,1-1.13-4,4.84,4.84,0,0,1,2-3.61,4.67,4.67,0,0,1,4-.57A6.37,6.37,0,0,1,259.3,332.56Zm-.08.05a5.45,5.45,0,0,0-3.23-2.18,4.45,4.45,0,0,0-3.67.76,4.28,4.28,0,0,0-1.66,3.27,5.55,5.55,0,0,0,1.13,3.54,5.4,5.4,0,0,0,3.06,2,4.23,4.23,0,0,0,3.45-.59,4.45,4.45,0,0,0,1.84-3.08A5.3,5.3,0,0,0,259.22,332.61Z"/><ellipse class="cls-15" cx="256.48" cy="349.73" rx="3.59" ry="4.07" transform="translate(-40.09 33.29) rotate(-6.89)"/><path d="M260.09,349.3a5.11,5.11,0,0,1-.47,3,3.55,3.55,0,0,1-2.59,1.92,3.73,3.73,0,0,1-3.12-1.09,4.86,4.86,0,0,1-.61-6,3.71,3.71,0,0,1,2.67-1.66,3.52,3.52,0,0,1,2.84,1.13A4.9,4.9,0,0,1,260.09,349.3Zm-.09,0a4,4,0,0,0-1.33-2.58,3.32,3.32,0,0,0-2.65-.81,3.12,3.12,0,0,0-2.21,1.53,4.07,4.07,0,0,0-.52,2.67,3.57,3.57,0,0,0,3.62,3.19A3.34,3.34,0,0,0,259.2,352,3.81,3.81,0,0,0,260,349.31Z"/><ellipse class="cls-15" cx="258.97" cy="365.19" rx="3.59" ry="4.07" transform="translate(-41.93 33.7) rotate(-6.89)"/><path d="M262.57,364.76a5,5,0,0,1-.47,3,3.53,3.53,0,0,1-2.59,1.92,3.71,3.71,0,0,1-3.11-1.09,4.86,4.86,0,0,1-.61-6,3.67,3.67,0,0,1,2.66-1.66,3.5,3.5,0,0,1,2.84,1.13A4.83,4.83,0,0,1,262.57,364.76Zm-.09,0a3.93,3.93,0,0,0-1.32-2.58,3.32,3.32,0,0,0-2.65-.81,3.12,3.12,0,0,0-2.21,1.53,4,4,0,0,0-.52,2.67,3.56,3.56,0,0,0,3.62,3.19,3.34,3.34,0,0,0,2.29-1.27A3.75,3.75,0,0,0,262.48,364.77Z"/><ellipse class="cls-15" cx="260.81" cy="380.45" rx="3.59" ry="4.07" transform="translate(-43.75 34.03) rotate(-6.89)"/><path d="M264.42,380a5.14,5.14,0,0,1-.47,3,3.55,3.55,0,0,1-2.59,1.92,3.76,3.76,0,0,1-3.12-1.09,4.77,4.77,0,0,1-1.35-2.94,4.72,4.72,0,0,1,.74-3.08,3.71,3.71,0,0,1,2.67-1.66,3.49,3.49,0,0,1,2.84,1.13A4.9,4.9,0,0,1,264.42,380Zm-.09,0a4,4,0,0,0-1.33-2.58,3.31,3.31,0,0,0-2.65-.81,3.12,3.12,0,0,0-2.21,1.53,4.07,4.07,0,0,0-.52,2.67,3.58,3.58,0,0,0,3.62,3.19,3.34,3.34,0,0,0,2.29-1.27A3.81,3.81,0,0,0,264.33,380Z"/><ellipse class="cls-15" cx="261.42" cy="400" rx="3.59" ry="4.07" transform="translate(-46.09 34.24) rotate(-6.89)"/><path d="M265,399.56a5.06,5.06,0,0,1-.47,3,3.52,3.52,0,0,1-2.59,1.91,3.68,3.68,0,0,1-3.11-1.09,4.84,4.84,0,0,1-.61-6,3.67,3.67,0,0,1,2.66-1.66,3.49,3.49,0,0,1,2.84,1.12A4.83,4.83,0,0,1,265,399.56Zm-.09,0a3.93,3.93,0,0,0-1.32-2.58,3.35,3.35,0,0,0-2.65-.8,3.13,3.13,0,0,0-2.21,1.52,4,4,0,0,0-.52,2.67,3.57,3.57,0,0,0,3.62,3.19,3.33,3.33,0,0,0,2.29-1.26A3.79,3.79,0,0,0,264.93,399.57Z"/><ellipse class="cls-15" cx="260.1" cy="418.38" rx="3.59" ry="4.07" transform="translate(-7.41 4.7) rotate(-1.02)"/><path d="M263.73,418.31a5,5,0,0,1-.78,3,3.52,3.52,0,0,1-2.77,1.64,3.71,3.71,0,0,1-3-1.41,4.76,4.76,0,0,1-1-3.05,4.65,4.65,0,0,1,1.06-3,3.65,3.65,0,0,1,2.81-1.38,3.52,3.52,0,0,1,2.72,1.41A4.85,4.85,0,0,1,263.73,418.31Zm-.09,0a4,4,0,0,0-1.05-2.7,3.34,3.34,0,0,0-2.56-1.07,3.16,3.16,0,0,0-2.35,1.29,4.06,4.06,0,0,0-.79,2.61,3.57,3.57,0,0,0,3.28,3.54,3.34,3.34,0,0,0,2.4-1A3.84,3.84,0,0,0,263.64,418.31Z"/><ellipse class="cls-15" cx="258.97" cy="434.54" rx="4.07" ry="3.59" transform="translate(-230.77 561.22) rotate(-73.71)"/><path d="M262.45,435.56a5,5,0,0,1-1.62,2.59,3.53,3.53,0,0,1-3.13.74,3.74,3.74,0,0,1-2.44-2.23,4.87,4.87,0,0,1,1.81-5.77,3.67,3.67,0,0,1,3.1-.47,3.47,3.47,0,0,1,2.17,2.14A4.89,4.89,0,0,1,262.45,435.56Zm-.08,0a4,4,0,0,0-.2-2.89,3.36,3.36,0,0,0-2.13-1.78,3.13,3.13,0,0,0-2.63.53,4.11,4.11,0,0,0-1.53,2.25A3.57,3.57,0,0,0,258,438a3.32,3.32,0,0,0,2.6-.26A3.85,3.85,0,0,0,262.37,435.53Z"/><ellipse class="cls-15" cx="256.27" cy="450.92" rx="4.07" ry="3.59" transform="translate(-248.43 570.41) rotate(-73.71)"/><path d="M259.76,451.93a5.07,5.07,0,0,1-1.62,2.59,3.51,3.51,0,0,1-3.14.74,3.67,3.67,0,0,1-2.43-2.22,4.79,4.79,0,0,1-.09-3.23,4.72,4.72,0,0,1,1.9-2.55,3.7,3.7,0,0,1,3.1-.47,3.53,3.53,0,0,1,2.17,2.15A4.93,4.93,0,0,1,259.76,451.93Zm-.09,0a4,4,0,0,0-.2-2.89,3.29,3.29,0,0,0-2.12-1.78,3.12,3.12,0,0,0-2.63.52,4.05,4.05,0,0,0-1.53,2.25,3.57,3.57,0,0,0,2.07,4.36,3.32,3.32,0,0,0,2.6-.26A3.79,3.79,0,0,0,259.67,451.91Z"/><ellipse class="cls-15" cx="255.41" cy="467.19" rx="4.07" ry="3.59" transform="translate(-264.67 581.29) rotate(-73.71)"/><path d="M258.9,468.21a5.1,5.1,0,0,1-1.63,2.58,3.47,3.47,0,0,1-3.13.74,3.71,3.71,0,0,1-2.44-2.22,4.79,4.79,0,0,1-.09-3.23,4.72,4.72,0,0,1,1.91-2.54,3.64,3.64,0,0,1,3.09-.48,3.48,3.48,0,0,1,2.17,2.15A5,5,0,0,1,258.9,468.21Zm-.09,0a4,4,0,0,0-.2-2.89,3.33,3.33,0,0,0-2.13-1.78,3.13,3.13,0,0,0-2.63.52,4.09,4.09,0,0,0-1.53,2.26,3.56,3.56,0,0,0,2.08,4.35,3.32,3.32,0,0,0,2.6-.26A3.83,3.83,0,0,0,258.81,468.18Z"/><ellipse class="cls-15" cx="228.71" cy="453.45" rx="3.59" ry="4.07" transform="translate(-118.01 82.36) rotate(-16.29)"/><path d="M225.31,454.44a3.88,3.88,0,0,0,1.81,2.21,3.36,3.36,0,0,0,2.6.26,3.57,3.57,0,0,0,2.08-4.36,4.11,4.11,0,0,0-1.53-2.25,3.15,3.15,0,0,0-2.64-.53,3.34,3.34,0,0,0-2.12,1.78A4,4,0,0,0,225.31,454.44Zm-.09,0a5,5,0,0,1,.12-3,3.52,3.52,0,0,1,2.16-2.15,3.69,3.69,0,0,1,3.1.48,4.72,4.72,0,0,1,1.91,2.54,4.78,4.78,0,0,1-.09,3.23A3.74,3.74,0,0,1,230,457.8a3.53,3.53,0,0,1-3.13-.74A5.08,5.08,0,0,1,225.22,454.47Z"/><ellipse class="cls-15" cx="233.75" cy="470.69" rx="3.59" ry="4.07" transform="translate(-122.65 84.47) rotate(-16.29)"/><path d="M230.35,471.69a3.83,3.83,0,0,0,1.81,2.2,3.32,3.32,0,0,0,2.6.26,3.57,3.57,0,0,0,2.08-4.36,4.11,4.11,0,0,0-1.53-2.25,3.18,3.18,0,0,0-2.64-.53,3.32,3.32,0,0,0-2.12,1.78A4,4,0,0,0,230.35,471.69Zm-.09,0a4.93,4.93,0,0,1,.11-3,3.51,3.51,0,0,1,2.17-2.15,3.66,3.66,0,0,1,3.1.47,4.76,4.76,0,0,1,1.91,2.54,4.85,4.85,0,0,1-.09,3.23A3.74,3.74,0,0,1,235,475a3.52,3.52,0,0,1-3.13-.74A5.08,5.08,0,0,1,230.26,471.71Z"/><ellipse class="cls-15" cx="142.54" cy="301.97" rx="5.47" ry="6.2"/><path d="M137.11,302a6.07,6.07,0,0,0,1.64,4.08,5,5,0,0,0,3.79,1.66,4.93,4.93,0,0,0,3.63-1.79,6.38,6.38,0,0,0,.12-8,4.91,4.91,0,0,0-3.75-1.92,5,5,0,0,0-3.91,1.79A6.35,6.35,0,0,0,137.11,302Zm-.09,0a7.16,7.16,0,0,1,1.46-4.31,5.36,5.36,0,0,1,4.06-2.12,5.47,5.47,0,0,1,4.21,2,7.05,7.05,0,0,1,1.63,4.44,7.16,7.16,0,0,1-1.51,4.54,5.51,5.51,0,0,1-4.33,2.13,5.31,5.31,0,0,1-2.38-.66,5.8,5.8,0,0,1-1.8-1.61A7.39,7.39,0,0,1,137,302Z"/><ellipse class="cls-15" cx="142.54" cy="318.1" rx="5.47" ry="6.2"/><path d="M137.11,318.1a6.09,6.09,0,0,0,1.64,4.08,5,5,0,0,0,3.79,1.65,4.92,4.92,0,0,0,3.63-1.78,6.39,6.39,0,0,0,.12-8,5,5,0,0,0-3.75-1.92,5.07,5.07,0,0,0-3.91,1.79A6.39,6.39,0,0,0,137.11,318.1Zm-.09,0a7.16,7.16,0,0,1,1.46-4.31,5.37,5.37,0,0,1,4.06-2.13,5.48,5.48,0,0,1,4.21,2,7,7,0,0,1,1.63,4.44,7.15,7.15,0,0,1-1.51,4.53,5.51,5.51,0,0,1-4.33,2.13,5.29,5.29,0,0,1-2.38-.65,5.8,5.8,0,0,1-1.8-1.61A7.41,7.41,0,0,1,137,318.1Z"/><ellipse class="cls-15" cx="142.54" cy="334.22" rx="5.47" ry="6.2"/><path d="M137.11,334.22a6.11,6.11,0,0,0,1.64,4.09,5.07,5.07,0,0,0,3.79,1.65,4.93,4.93,0,0,0,3.63-1.79,6.38,6.38,0,0,0,.12-8,4.91,4.91,0,0,0-3.75-1.92,5,5,0,0,0-3.91,1.79A6.35,6.35,0,0,0,137.11,334.22Zm-.09,0a7.11,7.11,0,0,1,1.46-4.3,5.34,5.34,0,0,1,4.06-2.13,5.45,5.45,0,0,1,4.21,2,7,7,0,0,1,1.63,4.43,7.16,7.16,0,0,1-1.51,4.54,5.51,5.51,0,0,1-4.33,2.13,5.31,5.31,0,0,1-2.38-.66,5.8,5.8,0,0,1-1.8-1.61A7.39,7.39,0,0,1,137,334.22Z"/><ellipse class="cls-15" cx="140.59" cy="350.47" rx="5.47" ry="6.2"/><path d="M135.17,350.47a6.11,6.11,0,0,0,1.63,4.08,5.06,5.06,0,0,0,3.79,1.66,4.9,4.9,0,0,0,3.63-1.79,6.25,6.25,0,0,0,1.47-3.95,6.35,6.35,0,0,0-1.34-4.05,4.93,4.93,0,0,0-3.76-1.92,5,5,0,0,0-3.9,1.79A6.29,6.29,0,0,0,135.17,350.47Zm-.09,0a7.1,7.1,0,0,1,1.46-4.31,5.4,5.4,0,0,1,4.05-2.13,5.52,5.52,0,0,1,4.22,2,7.23,7.23,0,0,1,.12,9,5.45,5.45,0,0,1-4.34,2.13,5.2,5.2,0,0,1-2.38-.65,5.65,5.65,0,0,1-1.79-1.61A7.39,7.39,0,0,1,135.08,350.47Z"/><ellipse class="cls-15" cx="134.25" cy="365.93" rx="5.47" ry="6.2"/><path d="M128.82,365.93a6.07,6.07,0,0,0,1.64,4.08,5,5,0,0,0,3.79,1.66,4.93,4.93,0,0,0,3.63-1.79,6.38,6.38,0,0,0,.12-8,4.93,4.93,0,0,0-3.75-1.92,5,5,0,0,0-3.91,1.79A6.29,6.29,0,0,0,128.82,365.93Zm-.09,0a7.16,7.16,0,0,1,1.46-4.31,5.4,5.4,0,0,1,4.06-2.13,5.51,5.51,0,0,1,4.21,2,7.05,7.05,0,0,1,1.63,4.44,7.13,7.13,0,0,1-1.51,4.53,5.45,5.45,0,0,1-4.33,2.13,5.17,5.17,0,0,1-2.38-.65,5.8,5.8,0,0,1-1.8-1.61A7.39,7.39,0,0,1,128.73,365.93Z"/><ellipse class="cls-15" cx="128.78" cy="381.39" rx="5.47" ry="6.2"/><path d="M123.35,381.39a6.07,6.07,0,0,0,1.64,4.08,5,5,0,0,0,3.79,1.66,4.93,4.93,0,0,0,3.63-1.79,6.38,6.38,0,0,0,.12-8,4.91,4.91,0,0,0-3.75-1.92,5,5,0,0,0-3.91,1.79A6.35,6.35,0,0,0,123.35,381.39Zm-.09,0a7.16,7.16,0,0,1,1.46-4.31,5.4,5.4,0,0,1,4.06-2.13,5.51,5.51,0,0,1,4.21,2,7.05,7.05,0,0,1,1.63,4.44,7.13,7.13,0,0,1-1.51,4.53,5.45,5.45,0,0,1-4.33,2.13,5.17,5.17,0,0,1-2.38-.65,5.8,5.8,0,0,1-1.8-1.61A7.39,7.39,0,0,1,123.26,381.39Z"/><ellipse class="cls-15" cx="125.32" cy="399.7" rx="5.47" ry="6.2"/><path d="M119.9,399.7a6.13,6.13,0,0,0,1.63,4.08,5.05,5.05,0,0,0,3.79,1.65,4.89,4.89,0,0,0,3.63-1.78,6.38,6.38,0,0,0,.12-8,4.94,4.94,0,0,0-3.75-1.93,5.06,5.06,0,0,0-3.9,1.79A6.34,6.34,0,0,0,119.9,399.7Zm-.09,0a7.1,7.1,0,0,1,1.46-4.31,5.37,5.37,0,0,1,4-2.13,5.49,5.49,0,0,1,4.22,2,7.23,7.23,0,0,1,.12,9,5.51,5.51,0,0,1-4.34,2.13,5.33,5.33,0,0,1-2.38-.65,5.65,5.65,0,0,1-1.79-1.61A7.41,7.41,0,0,1,119.81,399.7Z"/><ellipse class="cls-15" cx="129.91" cy="415.6" rx="4.59" ry="5.2"/><path d="M125.37,415.6a5.06,5.06,0,0,0,1.39,3.4,4.26,4.26,0,0,0,3.15,1.34,4,4,0,0,0,3-1.47,5.2,5.2,0,0,0,1.23-3.27,5.28,5.28,0,0,0-1.11-3.37,4.06,4.06,0,0,0-3.11-1.6,4.22,4.22,0,0,0-3.26,1.47A5.2,5.2,0,0,0,125.37,415.6Zm-.09,0A6,6,0,0,1,126.5,412a4.45,4.45,0,0,1,3.41-1.82,4.66,4.66,0,0,1,3.58,1.69,5.89,5.89,0,0,1,1.38,3.75,6,6,0,0,1-1.26,3.85,4.69,4.69,0,0,1-3.7,1.82,4.49,4.49,0,0,1-3.53-1.95A6.3,6.3,0,0,1,125.28,415.6Z"/><path class="cls-15" d="M318.92,216.93a169.75,169.75,0,0,0-3-27.06c-2.32-12.25-7.4-26.09-8.2-41.46-1.34-25.94-31.34-38.87-69.66-38.28-39.66.61-65.09,6.81-67.86,39.3-1.18,13.88-5.69,27.7-8,39-2.94,14.77-3.64,25.35-3.57,26.28,1.55,21.25-65.16,88.74,5.31,71,29.61-7.47-2.57,43.73,27.88,50.28,0,0,35.72-8.22,66-8.06,17.33.09,33.16,9.64,38.68,8.06,17.46-4.59,3.35-57.31,16.33-55.69C346.56,284.52,330.82,259.68,318.92,216.93Z"/><path d="M318.61,217c-.14-5.14-.58-10.16-1.19-15.21s-1.44-10.06-2.52-15c-2.25-9.89-5.3-19.66-6.79-29.78-.34-2.54-.67-5.08-.82-7.63a35.46,35.46,0,0,0-1.11-7.43A30.57,30.57,0,0,0,298.9,129a44.21,44.21,0,0,0-12-8.91,72,72,0,0,0-14.1-5.39,120.4,120.4,0,0,0-30-3.87,226,226,0,0,0-30.34,1.7,89.16,89.16,0,0,0-14.77,3.21,55.44,55.44,0,0,0-7,2.78,40.29,40.29,0,0,0-6.37,3.91A31.19,31.19,0,0,0,175,133.87a40,40,0,0,0-2.51,7,52.64,52.64,0,0,0-1.29,7.39,129.9,129.9,0,0,1-2.23,15.17c-1,5-2.26,10-3.47,14.9a219.91,219.91,0,0,0-5.38,29.9c-.14,1.26-.26,2.52-.36,3.77l-.12,1.88a8.47,8.47,0,0,0,0,.85l0,1a25.62,25.62,0,0,1-1.72,7.7,111.25,111.25,0,0,1-6.61,13.89c-4.85,9-10.18,17.66-14.42,26.82a72.16,72.16,0,0,0-2.79,7,27.12,27.12,0,0,0-1.46,7.19,8.3,8.3,0,0,0,2,6.34,7.89,7.89,0,0,0,2.86,1.83,14.64,14.64,0,0,0,3.46.88,33.84,33.84,0,0,0,7.4.11,67.34,67.34,0,0,0,7.45-1c2.48-.44,4.94-1,7.4-1.62a20.28,20.28,0,0,1,7.93-.77,8.33,8.33,0,0,1,4,1.67,8.56,8.56,0,0,1,2.45,3.48,23.07,23.07,0,0,1,1.24,7.84c.07,5.17-.41,10.23-.48,15.27s.24,10.14,2.32,14.63a14.86,14.86,0,0,0,4.57,5.65,19.66,19.66,0,0,0,6.78,3h-.13c10.16-2.39,20.44-4.25,30.77-5.77,5.16-.73,10.34-1.43,15.55-1.87,2.6-.27,5.21-.42,7.82-.62s5.22-.3,7.84-.32l3.93-.07c1.32,0,2.65,0,4,.15a62.56,62.56,0,0,1,7.85,1.1,133.83,133.83,0,0,1,15.17,4.2c2.47.8,4.94,1.63,7.39,2.19a11.67,11.67,0,0,0,3.52.38,3.64,3.64,0,0,0,.77-.16,7.75,7.75,0,0,0,.81-.28,7.19,7.19,0,0,0,1.48-.83,12.15,12.15,0,0,0,3.94-5.85,36.9,36.9,0,0,0,1.69-7.37,134.41,134.41,0,0,0,.91-15.47c.11-5.2.07-10.42.63-15.72a33.06,33.06,0,0,1,.67-4,12.49,12.49,0,0,1,1.62-4,5.56,5.56,0,0,1,1.81-1.69,4.78,4.78,0,0,1,2.5-.59l.6.05.48.05.95.1c.64.06,1.28.16,1.91.18a32.38,32.38,0,0,0,7.51-.2c2.4-.41,4.74-1.27,6.16-3l.51-.67c.15-.23.26-.5.4-.75a8.66,8.66,0,0,0,.62-1.61c.13-.58.26-1.17.34-1.77s.14-1.2.11-1.83a38.12,38.12,0,0,0-.81-7.53c-1-5-2.44-10-3.94-15C324.28,237.09,321.17,227.18,318.61,217Zm.62-.08c1.53,4.9,3.12,9.9,4.78,14.82s3.35,9.87,5,14.83,3.2,10,4.34,15.12a39,39,0,0,1,.93,8,20.32,20.32,0,0,1-.12,2.06c-.08.69-.22,1.39-.37,2.08a11.91,11.91,0,0,1-.77,2,10.11,10.11,0,0,1-.52,1l-.66.89a4.43,4.43,0,0,1-.76.8,6.29,6.29,0,0,1-.83.73,10.55,10.55,0,0,1-1.88,1.11l-1,.44-1,.31a12.4,12.4,0,0,1-2,.47,34.24,34.24,0,0,1-8.07.29c-.67,0-1.33-.12-2-.17l-1-.1-.49-.05-.38,0a2.52,2.52,0,0,0-2.25,1.25,10.25,10.25,0,0,0-1.29,3.22,31.38,31.38,0,0,0-.64,3.7c-.55,5.07-.54,10.29-.67,15.5a136.69,136.69,0,0,1-1,15.73,38.6,38.6,0,0,1-1.84,7.82,14.31,14.31,0,0,1-4.74,6.87,9.54,9.54,0,0,1-1.93,1.06,7.87,7.87,0,0,1-1,.36,5.45,5.45,0,0,1-1.15.23,13.66,13.66,0,0,1-4.22-.43c-2.63-.62-5.1-1.47-7.58-2.28a132.91,132.91,0,0,0-14.9-4.32,63,63,0,0,0-7.61-1.16c-1.27-.11-2.55-.17-3.83-.19l-3.89,0c-2.59,0-5.19.14-7.78.22s-5.19.28-7.77.52c-5.18.4-10.36,1-15.52,1.6q-15.48,2-30.8,5.1h-.14a24.73,24.73,0,0,1-3.74-1,18.19,18.19,0,0,1-3.48-1.79,16.1,16.1,0,0,1-5.16-5.89,25.47,25.47,0,0,1-2.27-7.48,55.69,55.69,0,0,1-.56-7.72c-.09-5.13.41-10.23.28-15.23a21.29,21.29,0,0,0-1.16-7.16,6.53,6.53,0,0,0-1.9-2.68,6.36,6.36,0,0,0-3-1.23,19.11,19.11,0,0,0-7.16.73c-2.48.6-5,1.19-7.51,1.63a72.68,72.68,0,0,1-7.66,1,36,36,0,0,1-7.83-.15,16.48,16.48,0,0,1-3.9-1,9.73,9.73,0,0,1-3.51-2.27,8.75,8.75,0,0,1-2.11-3.67,12.4,12.4,0,0,1-.45-4.08,28.71,28.71,0,0,1,1.57-7.71,74.65,74.65,0,0,1,2.88-7.18c4.33-9.31,9.69-18,14.54-26.9a110.62,110.62,0,0,0,6.53-13.64,23.86,23.86,0,0,0,1.63-7.12l0-.88c0-.39,0-.73,0-1l.13-1.93c.11-1.28.23-2.55.37-3.83A222.62,222.62,0,0,1,163.85,178c2.47-9.88,4.9-19.72,5.73-29.84a52.18,52.18,0,0,1,1.34-7.62,41.44,41.44,0,0,1,2.64-7.31,32.85,32.85,0,0,1,9.79-12,42.45,42.45,0,0,1,6.63-4,58.42,58.42,0,0,1,7.19-2.85,91.27,91.27,0,0,1,15-3.23c5.07-.68,10.17-1.09,15.26-1.33s10.19-.38,15.3-.31a122.08,122.08,0,0,1,30.36,4,72.58,72.58,0,0,1,14.34,5.54,45.25,45.25,0,0,1,12.32,9.24,31.61,31.61,0,0,1,7.47,13.45,36.87,36.87,0,0,1,1.1,7.64c.13,2.53.44,5,.77,7.55,1.41,10,4.38,19.8,6.58,29.76,1.06,5,1.84,10,2.44,15.09S319.14,211.86,319.23,216.89Z"/><path class="cls-15" d="M249.74,323.51c5.23,7.59,14.91,79.89,9,102.61s-7,90.65-4.15,98,5.26,18.35,8.06,21.24,17.07,18.82,17.07,18.82-1.11-14.84-2.11-19-12.76-47.71-14.38-56.13,13.88-58.25,14.94-61.94,4.23-66.88,3.17-82.31l-1.06-15.42"/><path d="M250,323.33a16.68,16.68,0,0,1,1.58,3.68c.4,1.25.75,2.51,1.08,3.78.63,2.54,1.2,5.1,1.7,7.66,1,5.13,1.86,10.29,2.61,15.46q2.25,15.51,3.41,31.15c.38,5.21.65,10.44.77,15.67s.1,10.47-.3,15.71a69.7,69.7,0,0,1-1,7.84c-.29,1.31-.58,2.59-.88,3.83s-.54,2.53-.75,3.81c-.9,5.11-1.51,10.28-2,15.46-1,10.37-1.56,20.78-1.91,31.2s-.47,20.84-.16,31.24c.07,2.6.2,5.2.39,7.78.1,1.28.22,2.58.4,3.83.08.63.21,1.24.34,1.82s.38,1.15.61,1.77c1.78,5,3.11,10,4.92,14.84a27.56,27.56,0,0,0,1.53,3.44,9.16,9.16,0,0,0,1,1.41l1.31,1.44,5.28,5.8c3.5,3.88,6.92,7.84,10,12.06h0l-.55.24c-.39-5-.81-9.92-1.43-14.84-.16-1.23-.33-2.46-.58-3.66s-.6-2.4-.91-3.6l-1.9-7.22L267,506.05c-1.24-4.82-2.47-9.64-3.59-14.5a19.64,19.64,0,0,1-.63-3.73,27.76,27.76,0,0,1,.26-3.77c.32-2.48.78-4.93,1.29-7.37,2.07-9.75,4.72-19.36,7.42-28.93q2.06-7.19,4.2-14.33l1.07-3.58.54-1.78.26-.89c.07-.3.1-.6.16-.89.32-2.42.48-4.93.67-7.4.69-9.92,1.19-19.86,1.62-29.8s.76-19.88.9-29.83c0-5,.12-9.95-.2-14.89l-1-14.89.63-.05,1,14.9c.33,5,.24,10,.21,14.94-.15,10-.49,19.91-.91,29.85S280,409,279.27,418.93c-.19,2.49-.35,4.95-.68,7.46-.06.32-.1.64-.17.95l-.26.9-.54,1.79-1.08,3.57c-1.42,4.76-2.83,9.54-4.19,14.32-2.7,9.57-5.35,19.17-7.41,28.89-.51,2.43-1,4.87-1.28,7.32a25.34,25.34,0,0,0-.25,3.67,19.16,19.16,0,0,0,.6,3.61c1.12,4.84,2.36,9.66,3.59,14.48l7.56,28.88,1.9,7.22c.31,1.2.65,2.4.92,3.63s.43,2.47.59,3.71c.62,4.95,1,9.91,1.43,14.87l.07.87-.62-.63h0c-3.9-3.5-7.49-7.27-11-11.12l-5.25-5.8-1.31-1.45a9.64,9.64,0,0,1-1.25-1.81,28.7,28.7,0,0,1-1.65-3.7c-1.84-5-3.14-10-4.88-14.89-.22-.61-.45-1.18-.65-1.94a18.91,18.91,0,0,1-.37-2c-.19-1.33-.3-2.64-.4-4-.19-2.63-.31-5.24-.38-7.86-.27-10.47-.09-20.92.28-31.36s1-20.89,2.06-31.3c.54-5.2,1.19-10.4,2.14-15.56.23-1.29.51-2.58.8-3.87s.62-2.55.89-3.79a65.16,65.16,0,0,0,1-7.67c.44-5.17.49-10.38.42-15.58s-.31-10.41-.65-15.61q-1-15.6-3.17-31.11c-.71-5.16-1.51-10.32-2.49-15.43-.47-2.57-1-5.11-1.63-7.64-.31-1.26-.66-2.51-1-3.75a16.4,16.4,0,0,0-1.46-3.52Z"/><path class="cls-15" d="M229.36,323.51c-5.24,7.59-14,79.89-8.07,102.61s28.64,88.75,28.64,96.67,1.59,19,0,22.72S232.5,567.7,232.5,567.7s-4.23-14.27-4.76-18.49-5-49.13-6.45-57.58-18.37-60.76-19.43-64.45-4.23-66.88-3.17-82.31l1.06-15.42"/><path d="M229.62,323.69a16.55,16.55,0,0,0-1.42,3.61c-.36,1.27-.68,2.56-1,3.85-.57,2.59-1.1,5.19-1.55,7.81-.92,5.24-1.65,10.51-2.3,15.78-1.31,10.56-2.33,21.15-2.91,31.77-.3,5.31-.48,10.62-.5,15.93a158.82,158.82,0,0,0,.68,15.89,57.43,57.43,0,0,0,1.33,7.76c.68,2.57,1.41,5.12,2.15,7.67,1.5,5.11,3.07,10.19,4.66,15.28l9.63,30.46c3.22,10.16,6.41,20.32,9.31,30.59.71,2.57,1.42,5.15,2,7.76.3,1.3.58,2.62.76,4,0,.36.06.74.07,1.07v1l0,2c.17,5.3.77,10.59.55,16a10.88,10.88,0,0,1-.85,4.11,27.32,27.32,0,0,1-2.25,3.42c-1.59,2.16-3.25,4.25-4.93,6.33-3.36,4.14-6.74,8.26-10.42,12.13h0l-.38.44-.16-.55c-1.42-4.85-2.8-9.71-4-14.63-.29-1.23-.58-2.46-.76-3.74s-.29-2.51-.42-3.77l-.8-7.53L223,508c-.57-5-1.12-10-1.84-15a60.26,60.26,0,0,0-1.69-7.33c-.66-2.43-1.37-4.86-2.07-7.28-2.87-9.67-5.87-19.31-8.89-28.94L204,435l-2.27-7.23a11.62,11.62,0,0,1-.38-1.9l-.19-1.89c-.13-1.26-.21-2.52-.32-3.78-.72-10.08-1.23-20.16-1.67-30.24s-.79-20.18-.94-30.28c0-5.05-.14-10.1.19-15.16l1-15.11.63.05c-2.1,20.12-1.05,40.3-.28,60.47.44,10.08.95,20.16,1.67,30.22.11,1.26.19,2.52.32,3.77l.19,1.87a10.43,10.43,0,0,0,.36,1.8l2.26,7.22,4.56,14.44c3,9.63,6,19.27,8.88,28.95.71,2.43,1.42,4.85,2.08,7.29a61.7,61.7,0,0,1,1.7,7.41c.73,5,1.28,10,1.85,15l3.22,30.11.79,7.53c.14,1.25.26,2.51.42,3.75s.46,2.46.75,3.68c1.18,4.89,2.56,9.75,4,14.59l-.54-.12h0c3.24-4.23,6.69-8.29,10-12.44,1.66-2.08,3.31-4.17,4.86-6.3a27.81,27.81,0,0,0,2.13-3.25,9.83,9.83,0,0,0,.71-3.67c.2-5.23-.43-10.56-.62-15.9l-.06-2v-1c0-.33,0-.62-.06-.93-.18-1.26-.45-2.56-.76-3.84-.61-2.57-1.32-5.13-2-7.69-6-20.42-12.64-40.66-19-61-1.58-5.09-3.14-10.18-4.64-15.3-.74-2.56-1.48-5.13-2.15-7.71a59.27,59.27,0,0,1-1.36-8,156.25,156.25,0,0,1-.67-16c0-5.34.22-10.68.52-16,.61-10.65,1.59-21.28,3-31.86.72-5.28,1.53-10.55,2.53-15.8.49-2.62,1-5.24,1.68-7.83.33-1.3.7-2.59,1.1-3.87a16.92,16.92,0,0,1,1.63-3.75Z"/><path class="cls-16" d="M333,261.09c-.09-1.51-3.22-7.44-2.19-8.4,9.14,4.89,10.44,36.08,13.16,45.57,2.39,8.35-5.57,4.93-7,13.68-.72,4.32-4.14,7.83-7.57,10.66-13.79,11.34-29.77,11.9-44.51,21.67-35.14,23.29-62.2,16.44-95.24-3.85-23.22-14.26-47.54-17-57.56-42.61-9.31-6.21,10.33-54.49,13.45-53.85,2.45,3,21.1,14.63,27.37,21.7,9.94,11.2,18.66,25.73,31.22,34.18,19.73,13.27,58.91,11,80.83,5.45,12.56-3.18,20-25.33,33.7-26.32C324.41,280.38,327.88,265.07,333,261.09Z"/><path d="M332.6,260.9a.11.11,0,0,0-.06.1l0-.09a2,2,0,0,0,0-.24l-.15-.5c-.11-.34-.24-.68-.37-1l-.79-2.06c-.26-.7-.52-1.4-.72-2.13a6.89,6.89,0,0,1-.25-1.15,3.42,3.42,0,0,1,0-.65,1.22,1.22,0,0,1,.35-.8h0l.21-.23.32.16a10.07,10.07,0,0,1,3.58,3.43,24.22,24.22,0,0,1,2.25,4.31,63.5,63.5,0,0,1,2.87,9.16c1.49,6.21,2.42,12.5,3.43,18.74.51,3.11,1,6.25,1.74,9.22a10.53,10.53,0,0,1,.55,5.24,5,5,0,0,1-1.59,2.59,18.94,18.94,0,0,1-2,1.51,7.84,7.84,0,0,0-2.8,3,8.83,8.83,0,0,0-.69,1.95,22.59,22.59,0,0,1-.55,2.41A19.84,19.84,0,0,1,332,322a57.07,57.07,0,0,1-16.41,10.21c-5.91,2.53-12,4.41-17.77,6.78a77.42,77.42,0,0,0-8.44,4c-1.36.74-2.67,1.56-4,2.4s-2.67,1.75-4.06,2.56a92.86,92.86,0,0,1-17.32,8.3,68,68,0,0,1-18.89,3.79,66.73,66.73,0,0,1-19.16-2c-12.51-3.07-24-9-34.81-15.6a158.26,158.26,0,0,0-16.58-9c-5.68-2.76-11.47-5.34-17.09-8.35A65.2,65.2,0,0,1,141.94,314,45.11,45.11,0,0,1,131.65,298l.17.22h0a5.66,5.66,0,0,1-2.13-3.22,15.1,15.1,0,0,1-.54-3.69,39.4,39.4,0,0,1,.56-7.29,104.26,104.26,0,0,1,3.46-14.12q2.16-6.93,4.93-13.65c.93-2.24,1.91-4.45,3-6.63.54-1.09,1.1-2.17,1.73-3.22.31-.53.64-1.05,1-1.56a7,7,0,0,1,.62-.74,3.76,3.76,0,0,1,.41-.36,1,1,0,0,1,.77-.2l.15,0,.12.14a18.45,18.45,0,0,0,2.36,2.08c.84.66,1.71,1.31,2.58,1.95l5.27,3.8c3.52,2.54,7,5.08,10.44,7.79,1.69,1.36,3.37,2.75,5,4.27a30,30,0,0,1,2.27,2.38c.71.82,1.43,1.64,2.12,2.48,2.78,3.34,5.43,6.78,8.1,10.18,5.35,6.8,10.86,13.55,17.66,18.85s15.14,8.19,23.56,9.82a124.44,124.44,0,0,0,25.79,1.9,164,164,0,0,0,25.78-2.59c2.12-.38,4.23-.83,6.34-1.32a24.23,24.23,0,0,0,3.07-.84A15.85,15.85,0,0,0,289,303c3.59-2.27,6.49-5.55,9.3-8.81a126.39,126.39,0,0,1,8.72-9.7,27.48,27.48,0,0,1,5.25-4,15.12,15.12,0,0,1,6.34-2h.07l.07,0a2.92,2.92,0,0,0,2.44-.57,9.28,9.28,0,0,0,2-2,41.28,41.28,0,0,0,3-5.07c.92-1.76,1.81-3.54,2.81-5.29a29.84,29.84,0,0,1,1.64-2.55,12.31,12.31,0,0,1,1-1.2,7.14,7.14,0,0,1,.54-.56l.3-.27C332.53,260.89,332.52,260.92,332.6,260.9Zm.84.38a3,3,0,0,1-.41.4l-.26.24c-.17.16-.33.33-.49.51a12.25,12.25,0,0,0-.9,1.12A25.41,25.41,0,0,0,329.8,266c-1,1.71-1.87,3.48-2.8,5.25a41.51,41.51,0,0,1-3.09,5.19,10,10,0,0,1-2.17,2.24,3.89,3.89,0,0,1-3.2.71h.14a14.28,14.28,0,0,0-5.95,1.89,27,27,0,0,0-5.07,3.86,128.36,128.36,0,0,0-8.64,9.64c-2.84,3.27-5.76,6.6-9.53,9a16.27,16.27,0,0,1-3,1.49,28.18,28.18,0,0,1-3.19.88c-2.12.49-4.25.94-6.39,1.33A165.71,165.71,0,0,1,251,310.1a125.74,125.74,0,0,1-26-1.92,72.6,72.6,0,0,1-12.58-3.54,44.2,44.2,0,0,1-11.38-6.46c-6.91-5.39-12.46-12.2-17.82-19-2.68-3.41-5.32-6.84-8.09-10.16-.68-.84-1.39-1.65-2.1-2.47a30.42,30.42,0,0,0-2.21-2.33c-1.54-1.48-3.21-2.86-4.89-4.21-3.38-2.68-6.89-5.22-10.4-7.75l-5.28-3.82c-.87-.64-1.74-1.29-2.6-2a19.11,19.11,0,0,1-2.51-2.22l.27.16c.09,0,0,0-.07.06a1.87,1.87,0,0,0-.27.24,5.7,5.7,0,0,0-.54.64c-.34.47-.65,1-1,1.48-.6,1-1.15,2.09-1.69,3.16-1.06,2.15-2,4.35-2.95,6.57q-2.76,6.68-4.91,13.57a103,103,0,0,0-3.42,14,37.91,37.91,0,0,0-.55,7.12,13.77,13.77,0,0,0,.5,3.46,4.78,4.78,0,0,0,1.76,2.71h0l.12.09,0,.13a44,44,0,0,0,10.28,15.52,63.69,63.69,0,0,0,15.43,10.61c5.59,2.89,11.41,5.38,17.16,8.06a159.48,159.48,0,0,1,16.81,9c10.82,6.41,22.17,12.18,34.34,15.06A66.77,66.77,0,0,0,245,357.66a65.27,65.27,0,0,0,18.2-3.71,89.76,89.76,0,0,0,16.84-8.13c1.35-.79,2.64-1.68,4-2.51s2.72-1.74,4.13-2.52a80.54,80.54,0,0,1,8.71-4.14c5.92-2.43,12-4.33,17.69-6.81a56.15,56.15,0,0,0,15.7-9.73A17.4,17.4,0,0,0,335.4,313a22.52,22.52,0,0,0,.51-2.21,10.85,10.85,0,0,1,.92-2.51,10.22,10.22,0,0,1,3.62-3.86,18.14,18.14,0,0,0,1.8-1.29,2.64,2.64,0,0,0,.87-1.37,4.71,4.71,0,0,0,0-1.88c-.11-.69-.32-1.37-.53-2.21-.74-3.19-1.13-6.32-1.58-9.47-.86-6.27-1.68-12.53-2.95-18.68a61.65,61.65,0,0,0-2.46-9.05,24.49,24.49,0,0,0-2-4.17,9.11,9.11,0,0,0-3-3.24l.54-.07h0a1.17,1.17,0,0,0,0,.66,6.56,6.56,0,0,0,.22,1c.19.68.44,1.37.7,2.05l.79,2.07c.13.34.26.69.38,1.06.06.18.11.36.17.55a2.65,2.65,0,0,1,.06.3l0,.18A.91.91,0,0,1,333.44,261.28Z"/><path d="M338.93,267.5a12.86,12.86,0,0,1-1.75,5.25,36,36,0,0,1-3,4.53,89.47,89.47,0,0,1-7,8.16c-4.85,5.23-10.11,10-15.09,15.06-1.24,1.26-2.47,2.52-3.61,3.83s-2.15,2.78-3.31,4.14a106.57,106.57,0,0,1-7.3,7.87c-2.55,2.5-5.21,4.89-7.92,7.2q-2,1.72-4.12,3.41l-2.09,1.66a23.18,23.18,0,0,1-2.24,1.58,72.06,72.06,0,0,1-9.59,4.88c-3.28,1.42-6.62,2.67-10,3.8a149.86,149.86,0,0,1-63.33,6.46l.1-.92A147.46,147.46,0,0,0,241,342.79a145.94,145.94,0,0,0,20.51-5.29c3.35-1.13,6.66-2.37,9.89-3.78a71.12,71.12,0,0,0,9.36-4.8,19.63,19.63,0,0,0,2.11-1.5l2.06-1.67q2.06-1.68,4.05-3.41c2.67-2.32,5.27-4.71,7.77-7.21a102.87,102.87,0,0,0,7.1-7.81c1.13-1.34,2.09-2.78,3.3-4.2s2.43-2.66,3.68-3.94c2.5-2.54,5.05-5,7.56-7.51s5-5,7.49-7.53,4.84-5.14,7.07-7.84a46.53,46.53,0,0,0,3.08-4.23,12.59,12.59,0,0,0,2-4.64Z"/><path d="M137.81,259.43a5.39,5.39,0,0,0-.2,2.81,9.68,9.68,0,0,0,1.07,2.73c.48.9,1,1.78,1.56,2.75s.88,1.9,1.37,2.83a95.66,95.66,0,0,0,6.43,10.7,51.45,51.45,0,0,0,7.87,9.5,70.28,70.28,0,0,0,9.77,7.61,157.31,157.31,0,0,0,22,11.81c7.64,3.4,15.42,6.54,23.27,9.46,15.68,5.76,32.17,9.18,48.78,11.27A295.42,295.42,0,0,0,310,332.62l.06.93a267.25,267.25,0,0,1-50.51-.61,211.17,211.17,0,0,1-49.39-11c-7.91-2.93-15.78-5.95-23.47-9.48a160.09,160.09,0,0,1-22.31-12.13,72.67,72.67,0,0,1-10-7.94,53.49,53.49,0,0,1-8-10,100.77,100.77,0,0,1-6.36-11c-.45-.94-.91-2-1.3-2.87l-1.33-2.86a11.44,11.44,0,0,1-.95-3.22,6.14,6.14,0,0,1,.6-3.36Z"/><path class="cls-17" d="M214,304.74c2-6.7,9.34-6.24,24.06-5.1s14.75,3.45,23.07,6.62c3.45-3-.84,105.57-3.81,108-3.82,3.11-16.66-13-42.5-10C211.15,404.68,216.6,306.62,214,304.74Z"/><ellipse class="cls-15" cx="209.37" cy="291.6" rx="5.47" ry="6.2"/><path d="M204,291.6a6.13,6.13,0,0,0,1.63,4.09,5.05,5.05,0,0,0,3.79,1.65,4.9,4.9,0,0,0,3.63-1.79,6.25,6.25,0,0,0,1.47-3.95,6.34,6.34,0,0,0-1.35-4.05,5,5,0,0,0-3.75-1.92,5.06,5.06,0,0,0-3.9,1.79A6.26,6.26,0,0,0,204,291.6Zm-.09,0a7.09,7.09,0,0,1,1.46-4.3,5.34,5.34,0,0,1,4.05-2.13,5.45,5.45,0,0,1,4.22,2,7,7,0,0,1,1.62,4.43,7.09,7.09,0,0,1-1.5,4.54,5.2,5.2,0,0,1-6.72,1.48A5.81,5.81,0,0,1,205.2,296,7.39,7.39,0,0,1,203.86,291.6Z"/><ellipse class="cls-15" cx="204.58" cy="311.07" rx="5.47" ry="6.2"/><path d="M199.15,311.07a6.11,6.11,0,0,0,1.63,4.08,5.08,5.08,0,0,0,3.8,1.66A4.89,4.89,0,0,0,208.2,315a6.25,6.25,0,0,0,1.47-3.95,6.35,6.35,0,0,0-1.34-4.05,4.93,4.93,0,0,0-3.75-1.92,5,5,0,0,0-3.91,1.79A6.29,6.29,0,0,0,199.15,311.07Zm-.09,0a7.1,7.1,0,0,1,1.46-4.31,5.37,5.37,0,0,1,4.06-2.13,5.51,5.51,0,0,1,4.21,2,7.05,7.05,0,0,1,1.63,4.44,7.15,7.15,0,0,1-1.51,4.53,5.48,5.48,0,0,1-4.33,2.13,5.21,5.21,0,0,1-2.39-.65,5.76,5.76,0,0,1-1.79-1.61A7.39,7.39,0,0,1,199.06,311.07Z"/><ellipse class="cls-15" cx="200.58" cy="329.72" rx="5.47" ry="6.2"/><path d="M195.16,329.72a6.13,6.13,0,0,0,1.63,4.08,5.1,5.1,0,0,0,3.79,1.66,4.9,4.9,0,0,0,3.63-1.79,6.38,6.38,0,0,0,.12-8,4.9,4.9,0,0,0-3.75-1.92,5,5,0,0,0-3.9,1.79A6.24,6.24,0,0,0,195.16,329.72Zm-.09,0a7.1,7.1,0,0,1,1.46-4.31,5.37,5.37,0,0,1,4.05-2.13,5.49,5.49,0,0,1,4.22,2,7.23,7.23,0,0,1,.12,9,5.48,5.48,0,0,1-4.34,2.13,5.33,5.33,0,0,1-2.38-.65,5.65,5.65,0,0,1-1.79-1.61A7.32,7.32,0,0,1,195.07,329.72Z"/><ellipse class="cls-15" cx="195.11" cy="350.47" rx="5.47" ry="6.2"/><path d="M189.69,350.47a6.11,6.11,0,0,0,1.63,4.08,5.06,5.06,0,0,0,3.79,1.66,4.9,4.9,0,0,0,3.63-1.79,6.38,6.38,0,0,0,.12-8,4.9,4.9,0,0,0-3.75-1.92,5,5,0,0,0-3.9,1.79A6.24,6.24,0,0,0,189.69,350.47Zm-.09,0a7.1,7.1,0,0,1,1.46-4.31,5.4,5.4,0,0,1,4.05-2.13,5.52,5.52,0,0,1,4.22,2,7.23,7.23,0,0,1,.12,9,5.45,5.45,0,0,1-4.34,2.13,5.2,5.2,0,0,1-2.38-.65,5.65,5.65,0,0,1-1.79-1.61A7.39,7.39,0,0,1,189.6,350.47Z"/><ellipse class="cls-15" cx="189.64" cy="372.13" rx="5.47" ry="6.2"/><path d="M184.22,372.13a6.15,6.15,0,0,0,1.63,4.09,5.09,5.09,0,0,0,3.79,1.65,4.9,4.9,0,0,0,3.63-1.79,6.25,6.25,0,0,0,1.47-3.95,6.32,6.32,0,0,0-1.35-4.05,4.9,4.9,0,0,0-3.75-1.92,5,5,0,0,0-3.9,1.79A6.29,6.29,0,0,0,184.22,372.13Zm-.09,0a7,7,0,0,1,1.46-4.3,5.34,5.34,0,0,1,4-2.13,5.45,5.45,0,0,1,4.22,2,7,7,0,0,1,1.62,4.43,7.09,7.09,0,0,1-1.5,4.54,5.51,5.51,0,0,1-4.34,2.13,5.34,5.34,0,0,1-2.38-.66,5.65,5.65,0,0,1-1.79-1.61A7.39,7.39,0,0,1,184.13,372.13Z"/><ellipse class="cls-15" cx="190.14" cy="393.79" rx="5.47" ry="6.2"/><path d="M184.72,393.79a6.13,6.13,0,0,0,1.63,4.09,5.05,5.05,0,0,0,3.79,1.65,4.86,4.86,0,0,0,3.63-1.79,6.25,6.25,0,0,0,1.47-3.95,6.34,6.34,0,0,0-1.35-4.05,5,5,0,0,0-3.75-1.92,5.06,5.06,0,0,0-3.9,1.79A6.26,6.26,0,0,0,184.72,393.79Zm-.09,0a7.09,7.09,0,0,1,1.46-4.3,5.34,5.34,0,0,1,4-2.13,5.45,5.45,0,0,1,4.22,2,7,7,0,0,1,1.62,4.43,7.09,7.09,0,0,1-1.5,4.54,5.2,5.2,0,0,1-6.72,1.48A5.78,5.78,0,0,1,186,398.2,7.35,7.35,0,0,1,184.63,393.79Z"/><ellipse class="cls-15" cx="193.64" cy="418.58" rx="5.47" ry="6.2"/><path d="M188.21,418.58a6.07,6.07,0,0,0,1.64,4.08,5,5,0,0,0,3.79,1.66,4.93,4.93,0,0,0,3.63-1.79,6.38,6.38,0,0,0,.12-8,4.93,4.93,0,0,0-3.75-1.92,5,5,0,0,0-3.91,1.79A6.29,6.29,0,0,0,188.21,418.58Zm-.09,0a7.16,7.16,0,0,1,1.46-4.31,5.4,5.4,0,0,1,4.06-2.13,5.51,5.51,0,0,1,4.21,2,7.05,7.05,0,0,1,1.63,4.44,7.13,7.13,0,0,1-1.51,4.53,5.45,5.45,0,0,1-4.33,2.13,5.17,5.17,0,0,1-2.38-.65,5.8,5.8,0,0,1-1.8-1.61A7.39,7.39,0,0,1,188.12,418.58Z"/><ellipse class="cls-15" cx="196.96" cy="442.7" rx="5.47" ry="6.2"/><path d="M191.54,442.7a6.11,6.11,0,0,0,1.63,4.08,5.06,5.06,0,0,0,3.79,1.66,4.9,4.9,0,0,0,3.63-1.79,6.38,6.38,0,0,0,.12-8,4.9,4.9,0,0,0-3.75-1.92,5,5,0,0,0-3.9,1.79A6.24,6.24,0,0,0,191.54,442.7Zm-.09,0a7.1,7.1,0,0,1,1.46-4.31,5.37,5.37,0,0,1,4.05-2.13,5.52,5.52,0,0,1,4.22,2,7.23,7.23,0,0,1,.12,9,5.45,5.45,0,0,1-4.34,2.13,5.2,5.2,0,0,1-2.38-.65,5.65,5.65,0,0,1-1.79-1.61A7.32,7.32,0,0,1,191.45,442.7Z"/><ellipse class="cls-15" cx="195.11" cy="468.65" rx="5.47" ry="6.2"/><path d="M189.69,468.65a6.13,6.13,0,0,0,1.63,4.08,5.1,5.1,0,0,0,3.79,1.66,4.9,4.9,0,0,0,3.63-1.79,6.38,6.38,0,0,0,.12-8,4.9,4.9,0,0,0-3.75-1.92,5,5,0,0,0-3.9,1.79A6.24,6.24,0,0,0,189.69,468.65Zm-.09,0a7.1,7.1,0,0,1,1.46-4.31,5.37,5.37,0,0,1,4.05-2.13,5.49,5.49,0,0,1,4.22,2,7.23,7.23,0,0,1,.12,9,5.48,5.48,0,0,1-4.34,2.13,5.33,5.33,0,0,1-2.38-.65,5.65,5.65,0,0,1-1.79-1.61A7.39,7.39,0,0,1,189.6,468.65Z"/><ellipse class="cls-15" cx="270.56" cy="294.27" rx="3.59" ry="5.14" transform="translate(-5.2 4.86) rotate(-1.02)"/><path d="M274.19,294.21a7.88,7.88,0,0,1-.59,3.46,4.32,4.32,0,0,1-1.1,1.51,3.1,3.1,0,0,1-1.84.75,3.3,3.3,0,0,1-1.94-.6,4.5,4.5,0,0,1-1.29-1.43,7.39,7.39,0,0,1,0-7,3.64,3.64,0,0,1,3-2,3.47,3.47,0,0,1,2.87,2A7.54,7.54,0,0,1,274.19,294.21Zm-.1,0a6,6,0,0,0-.95-3.24,3.22,3.22,0,0,0-2.67-1.58,3.06,3.06,0,0,0-2.42,1.79,6.44,6.44,0,0,0,.26,6.18,3,3,0,0,0,2.33,1.53,3.14,3.14,0,0,0,2.47-1.5A5.69,5.69,0,0,0,274.09,294.21Z"/><ellipse class="cls-15" cx="272.16" cy="314.12" rx="3.59" ry="5.14" transform="translate(-5.55 4.9) rotate(-1.02)"/><path d="M275.8,314.05a8.18,8.18,0,0,1-.59,3.46,4.48,4.48,0,0,1-1.1,1.51,3.11,3.11,0,0,1-1.85.76,3.44,3.44,0,0,1-1.93-.6,4.64,4.64,0,0,1-1.29-1.44,7.11,7.11,0,0,1-.88-3.55,7,7,0,0,1,.91-3.5,3.63,3.63,0,0,1,3-2,3.45,3.45,0,0,1,2.87,2A7.61,7.61,0,0,1,275.8,314.05Zm-.1,0a6,6,0,0,0-.95-3.23,3.19,3.19,0,0,0-2.67-1.58,3,3,0,0,0-2.42,1.78,6.37,6.37,0,0,0,.26,6.18,3,3,0,0,0,2.32,1.53,3.13,3.13,0,0,0,2.48-1.49A5.7,5.7,0,0,0,275.7,314.05Z"/><ellipse class="cls-15" cx="276.51" cy="337.46" rx="3.59" ry="5.14" transform="matrix(0.99, -0.13, 0.13, 0.99, -41.59, 38.88)"/><path d="M280.11,337a7.86,7.86,0,0,1-.2,3.5,4.29,4.29,0,0,1-.92,1.63,3.11,3.11,0,0,1-1.75.95,3.27,3.27,0,0,1-2-.37,4.63,4.63,0,0,1-1.45-1.29,7.41,7.41,0,0,1-.76-7,3.63,3.63,0,0,1,2.75-2.3,3.5,3.5,0,0,1,3.08,1.65A7.51,7.51,0,0,1,280.11,337Zm-.1,0a6,6,0,0,0-1.3-3.11,3.21,3.21,0,0,0-2.84-1.27,3,3,0,0,0-2.2,2.05,6.32,6.32,0,0,0-.3,3.2,6.12,6.12,0,0,0,1.26,2.91,3,3,0,0,0,2.48,1.26,3.14,3.14,0,0,0,2.29-1.77A5.63,5.63,0,0,0,280,337Z"/><ellipse class="cls-15" cx="280.42" cy="361.12" rx="3.59" ry="5.14" transform="translate(-7.79 6.19) rotate(-1.25)"/><path d="M284.06,361a7.89,7.89,0,0,1-.58,3.47,4.41,4.41,0,0,1-1.09,1.51,3.08,3.08,0,0,1-1.84.76,3.29,3.29,0,0,1-1.94-.59,4.5,4.5,0,0,1-1.29-1.43,7.13,7.13,0,0,1-.9-3.55,7,7,0,0,1,.9-3.5,3.66,3.66,0,0,1,3-2,3.49,3.49,0,0,1,2.88,2A7.54,7.54,0,0,1,284.06,361Zm-.1,0a6.05,6.05,0,0,0-1-3.24,3.22,3.22,0,0,0-2.68-1.57,3.06,3.06,0,0,0-2.41,1.8,6.34,6.34,0,0,0-.65,3.15,6.2,6.2,0,0,0,.93,3,3,3,0,0,0,2.34,1.52,3.15,3.15,0,0,0,2.47-1.51A5.67,5.67,0,0,0,284,361.05Z"/><ellipse class="cls-15" cx="280.97" cy="386.37" rx="5.14" ry="3.59" transform="translate(-163.66 561.11) rotate(-75.43)"/><path d="M284.49,387.29a7.91,7.91,0,0,1-1.5,3.17,4.42,4.42,0,0,1-1.46,1.16,3.11,3.11,0,0,1-2,.23,3.31,3.31,0,0,1-1.7-1.09A4.65,4.65,0,0,1,277,389a7.43,7.43,0,0,1,1.92-6.78,3.66,3.66,0,0,1,3.42-1.09,3.47,3.47,0,0,1,2.24,2.68A7.49,7.49,0,0,1,284.49,387.29Zm-.1,0a5.94,5.94,0,0,0,0-3.37,3.21,3.21,0,0,0-2.16-2.24,3.07,3.07,0,0,0-2.81,1.07,6.44,6.44,0,0,0-1.41,6,3,3,0,0,0,1.83,2.1,3.15,3.15,0,0,0,2.79-.77A5.64,5.64,0,0,0,284.39,387.26Z"/><ellipse class="cls-15" cx="274.28" cy="409.6" rx="5.14" ry="3.59" transform="translate(-209.94 501.97) rotate(-66.99)"/><path d="M277.63,411a8.06,8.06,0,0,1-1.95,2.92,4.41,4.41,0,0,1-1.62.93,3.09,3.09,0,0,1-2-.06,3.4,3.4,0,0,1-1.52-1.33,4.69,4.69,0,0,1-.6-1.84,7.14,7.14,0,0,1,.65-3.61,7,7,0,0,1,2.25-2.82,3.64,3.64,0,0,1,3.54-.58,3.47,3.47,0,0,1,1.82,3A7.63,7.63,0,0,1,277.63,411Zm-.1,0a5.92,5.92,0,0,0,.46-3.34,3.21,3.21,0,0,0-1.8-2.53,3.05,3.05,0,0,0-2.94.64,6.29,6.29,0,0,0-1.88,2.61,6.08,6.08,0,0,0-.39,3.14,3,3,0,0,0,1.5,2.35,3.17,3.17,0,0,0,2.87-.36A5.62,5.62,0,0,0,277.53,411Z"/><ellipse class="cls-15" cx="266.3" cy="431.03" rx="5.14" ry="3.59" transform="translate(-183.61 664.01) rotate(-85.67)"/><path d="M269.92,431.3a7.91,7.91,0,0,1-.91,3.39,4.31,4.31,0,0,1-1.23,1.4,3.09,3.09,0,0,1-1.91.58,3.37,3.37,0,0,1-1.87-.77,4.68,4.68,0,0,1-1.15-1.56,7.36,7.36,0,0,1,.68-7,3.66,3.66,0,0,1,3.17-1.69,3.47,3.47,0,0,1,2.68,2.25A7.53,7.53,0,0,1,269.92,431.3Zm-.1,0a6,6,0,0,0-.64-3.31,3.2,3.2,0,0,0-2.52-1.82,3.06,3.06,0,0,0-2.57,1.55,6.46,6.46,0,0,0-.32,6.18,3,3,0,0,0,2.18,1.74,3.15,3.15,0,0,0,2.6-1.26A5.65,5.65,0,0,0,269.82,431.29Z"/><ellipse class="cls-15" cx="267.88" cy="453.45" rx="3.59" ry="5.14" transform="translate(-61.57 42.55) rotate(-8.15)"/><path d="M271.48,452.93a8.19,8.19,0,0,1-.16,3.51,4.35,4.35,0,0,1-.9,1.64,3.11,3.11,0,0,1-1.74,1,3.24,3.24,0,0,1-2-.35,4.49,4.49,0,0,1-1.46-1.27,7.1,7.1,0,0,1-1.31-3.41,7,7,0,0,1,.46-3.58,3.66,3.66,0,0,1,2.73-2.34,3.48,3.48,0,0,1,3.1,1.62A7.71,7.71,0,0,1,271.48,452.93Zm-.11,0a6,6,0,0,0-1.33-3.1,3.22,3.22,0,0,0-2.85-1.23,3,3,0,0,0-2.18,2.07,6.41,6.41,0,0,0,1,6.1,3,3,0,0,0,2.5,1.23,3.14,3.14,0,0,0,2.27-1.79A5.66,5.66,0,0,0,271.37,453Z"/><ellipse class="cls-15" cx="272.81" cy="473.76" rx="3.59" ry="5.14" transform="translate(-64.4 43.45) rotate(-8.15)"/><path d="M276.41,473.24a7.88,7.88,0,0,1-.16,3.51,4.35,4.35,0,0,1-.9,1.64,3.11,3.11,0,0,1-1.74,1,3.24,3.24,0,0,1-2-.35,4.6,4.6,0,0,1-1.46-1.27,7.42,7.42,0,0,1-.85-7,3.67,3.67,0,0,1,2.73-2.34,3.48,3.48,0,0,1,3.1,1.62A7.58,7.58,0,0,1,276.41,473.24Zm-.1,0a6,6,0,0,0-1.34-3.09,3.2,3.2,0,0,0-2.85-1.24,3,3,0,0,0-2.18,2.07,6.36,6.36,0,0,0-.27,3.21,6.16,6.16,0,0,0,1.3,2.89,3,3,0,0,0,2.49,1.23,3.14,3.14,0,0,0,2.27-1.79A5.66,5.66,0,0,0,276.31,473.26Z"/><path class="cls-15" d="M165.93,215.49c2.17,12.26,5,22.37,15.88,31S197,256.62,196.24,261s-7.14-6.49-15.12,25.26-5.58,25.26-8.94,44-8.41,25.26-6.25,33.92,2.89,13.71,2.89,19.48.72,2.16,2.16,15.88,2.89,4.33,2.89,21.65,2.16,46.18.72,54.84-2.16,10.83-2.16,15.16,8.66,19.48,12.26,26,11.63,14.44,11.63,14.44,3.53,9.38,4.25,13,10.83-4.33,5.77-20.93-8.66-57-8.66-57,.73-26-.72-34.64-9.38-63-3.61-71.93,20.47-87.31,24.14-81.22c4.95,8.21,50.64,7.2,53.44.36,1.22-3-1.08,35.16,1.81,41.66s6.49,32.95,7.93,39.2.72,22.86,0,28.63-2.16,12-7.21,23-7.94,12.4-7.94,24.67,0,10.82,2.16,21.65,2.89,5.05,5.06,18,3.6,7.94,2.88,20.93-.72,10.82-3.61,20.2-3.6,15.16-4.33,18,0,5.05,2.89,5.77,8.16-4.33,10.94-5.05,9.27-10.83,11.43-14.44,6.5-23.09,5.77-32.47-7.21-33.2-7.21-40.41,2.88-51.24,4.33-54.13,7.94-19.48,9.38-23.09,2.89-20.93,3.61-23.09-1.45-30.69,0-36.27-3.61-20-4.33-22.18-8.66-15.88-10.83-18.77-7.94-12.26-7.94-12.26,9.39-5.06,18-18.77,10.82-16,10.82-16"/><path d="M166.24,215.43c.88,3.47,1.76,6.93,2.86,10.28a47.09,47.09,0,0,0,4.3,9.53,38,38,0,0,0,6.54,8,102.27,102.27,0,0,0,8.25,6.64l4.3,3.23c.72.56,1.44,1.12,2.15,1.76a10.46,10.46,0,0,1,2,2.25,5.44,5.44,0,0,1,.86,3.23,4.28,4.28,0,0,1-.43,1.83,2.24,2.24,0,0,1-1,.93,3.48,3.48,0,0,1-1,.27,6.83,6.83,0,0,0-2.29.47,6.51,6.51,0,0,0-1.8,1.32,17.3,17.3,0,0,0-2.82,4.13A45.44,45.44,0,0,0,186,274.1a105.05,105.05,0,0,0-3.19,10.11c-1.77,6.89-3.51,13.86-5.1,20.8-.79,3.48-1.52,6.95-2.07,10.45s-1,7.08-1.64,10.61-1.22,7.08-2,10.6-1.75,7-2.76,10.43c-.5,1.72-1,3.43-1.47,5.14a37.13,37.13,0,0,0-1.09,5.1,18.5,18.5,0,0,0,0,5c.28,1.61.78,3.42,1.16,5.16a81.53,81.53,0,0,1,1.78,10.72c.15,1.81.22,3.64.21,5.44,0,.88,0,1.76.1,2.57a20.36,20.36,0,0,0,.5,2.52A105.34,105.34,0,0,1,172,399.52c.2,1.76.38,3.53.72,5.23a17.88,17.88,0,0,0,.64,2.47,22.15,22.15,0,0,1,.86,2.64,31,31,0,0,1,.52,5.51c.06,1.8.06,3.6.06,5.39,0,3.57.06,7.13.15,10.71l.69,21.44c.12,3.58.2,7.16.22,10.74s0,7.18-.34,10.8c-.21,1.85-.56,3.57-.88,5.34l-1,5.27a35.94,35.94,0,0,0-.6,5.24,7.42,7.42,0,0,0,.27,2.5,21.79,21.79,0,0,0,.82,2.48A105.63,105.63,0,0,0,178.6,505c1.64,3.17,3.34,6.31,5.07,9.44.87,1.57,1.68,3.16,2.65,4.63s2,2.91,3.13,4.31a101.42,101.42,0,0,0,7.08,8h0l0,0,0,.08a82,82,0,0,1,4.67,11.31c.16.49.29,1,.42,1.53,0,.11.05.1,0,0s-.07-.08-.12-.07-.05,0,0,0a2.09,2.09,0,0,0,.74-.39,6.37,6.37,0,0,0,.9-.84,13.42,13.42,0,0,0,2.51-4.85,23.41,23.41,0,0,0,.14-11.38c-.21-1-.46-1.89-.73-2.84l-.82-3c-.48-2-1-4-1.35-6-1.62-8-2.77-16-3.81-24.06s-1.92-16.09-2.62-24.18v-.13c.24-8.54.36-17.1.12-25.62-.09-2.12-.17-4.25-.37-6.34s-.58-4.18-.88-6.31c-.62-4.25-1.18-8.5-1.71-12.75-1-8.52-2-17.05-2.56-25.61-.3-4.28-.52-8.57-.58-12.88,0-2.15,0-4.3.08-6.46a47.74,47.74,0,0,1,.66-6.49,17.69,17.69,0,0,1,.87-3.24,7.35,7.35,0,0,1,.39-.8l.2-.39.19-.32a10.89,10.89,0,0,0,.67-1.37,61.17,61.17,0,0,0,2.1-6c1.25-4.07,2.35-8.21,3.42-12.34,2.13-8.29,4.12-16.62,6.15-24.94s4.08-16.63,6.23-24.95c.55-2.08,1.12-4.15,1.74-6.24.32-1,.65-2.07,1.06-3.12a13.9,13.9,0,0,1,.73-1.59,5,5,0,0,1,.61-.88,2.31,2.31,0,0,1,.64-.52,1.93,1.93,0,0,1,.65-.19,1.66,1.66,0,0,1,.83.15,2,2,0,0,1,.81.74l.18.23a3.17,3.17,0,0,0,.41.41,6.31,6.31,0,0,0,1.09.74,14.89,14.89,0,0,0,2.71,1.09,37,37,0,0,0,6,1.23,132.22,132.22,0,0,0,25.17.44c2.1-.14,4.18-.38,6.24-.64a37,37,0,0,0,6-1.25,10.29,10.29,0,0,0,2.52-1.11,2.22,2.22,0,0,0,.66-.61c0-.06,0,.07.09-.14.28.25-.47-1.33,2.38-.59.67.78.42.75.53.95a2.3,2.3,0,0,1,.05.32,7.85,7.85,0,0,1,.06.92c0,2.25-.09,4.36-.17,6.51-.34,8.56-.52,17.13-.1,25.62a51.39,51.39,0,0,0,.65,6.27,10.6,10.6,0,0,0,.35,1.45c.07.25.14.38.25.67l.3.79a16.19,16.19,0,0,1,.52,1.58c.16.52.32,1.05.44,1.57,1.09,4.2,1.88,8.42,2.65,12.64s1.47,8.45,2.17,12.68l1.08,6.32c.19,1,.37,2.1.59,3.12l.32,1.61c.1.55.15,1.09.23,1.64a107.77,107.77,0,0,1,.35,12.94c-.11,4.31-.31,8.59-.78,12.9a60.19,60.19,0,0,1-2.92,12.65,115.44,115.44,0,0,1-5,11.94c-.92,1.95-1.91,3.87-2.91,5.76a51.31,51.31,0,0,0-2.73,5.71c-1.54,3.87-1.75,8.14-1.75,12.38s-.17,8.57.51,12.7c.35,2.09.8,4.18,1.21,6.28s.82,4.2,1.39,6.22a20.68,20.68,0,0,0,1,2.92,22.93,22.93,0,0,1,1.27,3,53.32,53.32,0,0,1,1.45,6.35c.37,2.13.71,4.2,1.18,6.28.23,1,.5,2.05.8,3.06s.65,2,.91,3.12a26,26,0,0,1,.39,6.56c-.07,2.15-.21,4.29-.33,6.43s-.26,4.28-.51,6.44a29.66,29.66,0,0,1-1.5,6.35c-1.33,4.07-2.59,8.13-3.6,12.28-.51,2.07-1,4.15-1.38,6.25l-.63,3.15a11.24,11.24,0,0,0-.47,3,3,3,0,0,0,1.15,2.38,3.9,3.9,0,0,0,1.26.62,2.65,2.65,0,0,0,1.33.09,9.64,9.64,0,0,0,2.79-1.15c.92-.51,1.81-1.08,2.71-1.66s1.81-1.16,2.8-1.67c.25-.13.52-.24.78-.36a7,7,0,0,0,.76-.27c.09,0,.19-.07.29-.13l.29-.21a4.1,4.1,0,0,0,.59-.46,32.72,32.72,0,0,0,4.11-4.77c1.26-1.71,2.46-3.47,3.63-5.26.58-.89,1.15-1.8,1.71-2.7a15.08,15.08,0,0,0,.73-1.35c.19-.49.4-1,.57-1.46.69-2,1.25-4.06,1.75-6.13s1-4.16,1.36-6.25a100.32,100.32,0,0,0,1.67-12.67c.37-4.25-.35-8.44-1.12-12.65-1.56-8.4-3.57-16.73-5.09-25.18a59.31,59.31,0,0,1-.87-6.4c-.11-2.19.05-4.31.13-6.46.21-4.28.47-8.56.75-12.83.57-8.55,1.19-17.09,2-25.62.21-2.13.43-4.26.72-6.39.13-1.07.3-2.12.53-3.2l.24-.83c.1-.24.22-.47.33-.72l.64-1.46c1.67-3.94,3.25-7.92,4.83-11.9l2.37-6,1.18-3a20.45,20.45,0,0,0,.77-3.06c.76-4.19,1.23-8.46,1.76-12.7.27-2.13.5-4.25.87-6.38,0-.27.1-.54.17-.82a5.79,5.79,0,0,0,.13-.74c0-.51.05-1,.06-1.57,0-1.07,0-2.13,0-3.2L308.21,330c-.13-4.28-.25-8.56-.16-12.86.05-1.07.07-2.15.18-3.22a13.31,13.31,0,0,1,.23-1.63l.26-1.55a25.33,25.33,0,0,0-.5-6.3,95,95,0,0,0-3.29-12.36,26.88,26.88,0,0,0-1.08-3c-.44-1-1-1.9-1.46-2.84q-1.53-2.82-3.14-5.59a120.56,120.56,0,0,0-6.83-10.85c-2.4-3.55-4.67-7.19-6.93-10.83l0-.06-.16-.25.28-.19A58.77,58.77,0,0,0,293.9,251a80.88,80.88,0,0,0,7-8.74c1.07-1.53,2.09-3.09,3.13-4.7s2.1-3.17,3.2-4.73,2.22-3.1,3.38-4.62a49.37,49.37,0,0,1,3.73-4.4l.46.44c-2.06,3.1-4,6.42-6,9.63s-3.89,6.47-6.08,9.68a58.22,58.22,0,0,1-7.53,8.77,37.67,37.67,0,0,1-9.37,6.74l.12-.44,0,.06c2.26,3.63,4.52,7.27,6.91,10.81a122.74,122.74,0,0,1,6.84,10.89q1.62,2.78,3.15,5.61c.51.94,1,1.88,1.48,2.87a31.06,31.06,0,0,1,1.1,3.05,98.67,98.67,0,0,1,3.31,12.44,26.89,26.89,0,0,1,.5,6.47c-.08.54-.19,1.12-.28,1.62a13.13,13.13,0,0,0-.21,1.55c-.12,1.06-.14,2.12-.19,3.19-.09,4.27,0,8.55.16,12.82l.42,12.84c0,1.07,0,2.15,0,3.22,0,.54,0,1.08-.06,1.64,0,.27-.08.61-.14.84a5.85,5.85,0,0,0-.16.75c-.36,2.09-.6,4.23-.87,6.35-.53,4.25-1,8.5-1.77,12.74a20.37,20.37,0,0,1-.81,3.16l-1.18,3-2.37,6c-1.59,4-3.17,8-4.84,11.91l-.64,1.47c-.11.25-.24.5-.34.74l-.2.72c-.21,1-.38,2.08-.5,3.14-.28,2.11-.49,4.24-.69,6.37-.81,8.52-1.4,17.06-1.94,25.6q-.4,6.42-.71,12.82c-.07,2.13-.23,4.29-.11,6.38a61.94,61.94,0,0,0,.88,6.32c1.54,8.4,3.58,16.73,5.17,25.16.4,2.1.76,4.22,1,6.37a34.25,34.25,0,0,1,.16,6.48,99.63,99.63,0,0,1-1.65,12.79c-.39,2.11-.83,4.22-1.34,6.31s-1.06,4.17-1.76,6.22c-.17.51-.39,1-.59,1.53a12.73,12.73,0,0,1-.8,1.47q-.84,1.38-1.71,2.73c-1.17,1.81-2.37,3.59-3.65,5.32a33.1,33.1,0,0,1-4.25,5,4.6,4.6,0,0,1-.67.53,2.93,2.93,0,0,1-.8.45c-.34.15-.51.19-.75.28s-.46.19-.69.31c-.91.47-1.8,1-2.7,1.63s-1.8,1.17-2.76,1.71a10.82,10.82,0,0,1-3.12,1.27,4.08,4.08,0,0,1-.93.06,4,4,0,0,1-.91-.17,5.43,5.43,0,0,1-1.6-.79,4.09,4.09,0,0,1-1.58-3.19,11.92,11.92,0,0,1,.47-3.31l.63-3.14q.61-3.16,1.36-6.3c1-4.18,2.27-8.31,3.59-12.37a29.26,29.26,0,0,0,1.43-6.14c.23-2.09.35-4.23.48-6.36s.25-4.28.3-6.4a25.19,25.19,0,0,0-.37-6.23c-.24-1-.6-2-.9-3s-.6-2.09-.83-3.15c-.49-2.1-.85-4.25-1.22-6.33a49.85,49.85,0,0,0-1.42-6.17,22.76,22.76,0,0,0-1.22-2.88,20.72,20.72,0,0,1-1.14-3.11c-.6-2.1-1-4.22-1.43-6.31s-.88-4.19-1.24-6.33a41.9,41.9,0,0,1-.53-6.5c0-2.15,0-4.29-.05-6.43,0-4.28.18-8.76,1.81-12.9a53.92,53.92,0,0,1,2.78-5.89c1-1.89,2-3.78,2.87-5.71,3.6-7.7,6.77-15.7,7.65-24.13.45-4.2.64-8.48.73-12.74a103.48,103.48,0,0,0-.38-12.72c-.07-.51-.12-1-.22-1.54l-.3-1.54c-.24-1.07-.43-2.12-.62-3.18L278,350.2c-.72-4.22-1.43-8.44-2.21-12.64s-1.59-8.4-2.66-12.49c-.12-.51-.27-1-.43-1.51a13.33,13.33,0,0,0-.49-1.47l-.27-.71c-.08-.22-.23-.57-.31-.83a13.53,13.53,0,0,1-.41-1.67,53.76,53.76,0,0,1-.7-6.5c-.46-8.62-.22-17.19-.43-25.75-.06-2.12-.09-4.3-.25-6.33,0-.25-.05-.5-.08-.68l0-.07c.08.07-.2-.1.38.58,2.71.65,1.89-.72,2.12-.37a1.91,1.91,0,0,1-.1.21,5,5,0,0,1-1.48,1.75,13.47,13.47,0,0,1-3.23,1.71,53.13,53.13,0,0,1-13,2.73,98.08,98.08,0,0,1-13,.42c-2.17-.06-4.35-.2-6.52-.43a62.92,62.92,0,0,1-6.5-1,41.6,41.6,0,0,1-6.43-1.79,17.21,17.21,0,0,1-3.14-1.54,8,8,0,0,1-1.49-1.17,6.33,6.33,0,0,1-.66-.77l-.28-.43a.86.86,0,0,0,.25.18.83.83,0,0,0,.71,0c.09,0,.06-.06,0,0a2.55,2.55,0,0,0-.33.42,11.83,11.83,0,0,0-.69,1.28c-.44.92-.83,1.9-1.21,2.89-.76,2-1.41,4-2,6-2.49,8.16-4.44,16.51-6.48,24.82s-4,16.65-6.14,25c-1.08,4.15-2.18,8.29-3.43,12.41-.64,2.05-1.3,4.1-2.16,6.13a13.25,13.25,0,0,1-.74,1.52l-.22.37-.16.32a5.46,5.46,0,0,0-.32.64,16.38,16.38,0,0,0-.78,2.95,45.11,45.11,0,0,0-.57,6.29c-.09,2.12-.08,4.25,0,6.38.09,4.26.35,8.52.68,12.78.68,8.51,1.66,17,2.77,25.48q.84,6.36,1.82,12.7c.31,2.1.73,4.2.95,6.4s.33,4.32.43,6.47c.33,8.61.28,17.17.13,25.76v-.14c.8,8,1.69,16.07,2.73,24.07s2.21,16,3.82,23.87c.38,2,.86,3.91,1.33,5.85l.79,2.88c.29,1,.57,2,.8,3a25.89,25.89,0,0,1-.17,12.64,14.83,14.83,0,0,1-3.11,5.8,7.82,7.82,0,0,1-1.35,1.19,4.11,4.11,0,0,1-2,.76,2.62,2.62,0,0,1-.76-.09,2,2,0,0,1-.78-.44,2,2,0,0,1-.5-.67,4.31,4.31,0,0,1-.21-.64c-.08-.46-.19-.93-.3-1.41-.93-3.85-2.13-7.74-3.11-11.67l.08.11h0a105,105,0,0,1-7.22-8c-1.13-1.4-2.21-2.83-3.22-4.34s-1.85-3.1-2.74-4.64c-1.76-3.12-3.5-6.24-5.18-9.41a104.66,104.66,0,0,1-4.65-9.73,22.58,22.58,0,0,1-.89-2.59,8.51,8.51,0,0,1-.33-2.82,36.07,36.07,0,0,1,.55-5.41l.92-5.29c.29-1.76.63-3.54.8-5.26.3-3.5.26-7.08.21-10.64s-.17-7.14-.31-10.71l-.82-21.44c-.12-3.58-.2-7.17-.22-10.75,0-1.79,0-3.57-.09-5.34a30.59,30.59,0,0,0-.51-5.16,20.17,20.17,0,0,0-.83-2.44,22.62,22.62,0,0,1-.72-2.71c-.36-1.81-.57-3.6-.78-5.39a99.79,99.79,0,0,0-1.56-10.5,24.11,24.11,0,0,1-.55-2.74,26.48,26.48,0,0,1-.13-2.78c0-1.77-.08-3.52-.24-5.27a79.55,79.55,0,0,0-1.8-10.43c-.39-1.75-.87-3.38-1.22-5.3a20.56,20.56,0,0,1,0-5.65,39.17,39.17,0,0,1,1.13-5.38c.47-1.75,1-3.47,1.47-5.19,1-3.42,1.93-6.85,2.71-10.31s1.39-6.95,2-10.48,1.08-7,1.62-10.59,1.28-7.1,2.07-10.6c1.6-7,3.31-13.93,5.08-20.89a106.83,106.83,0,0,1,3.25-10.35,45.76,45.76,0,0,1,2.22-5,19.56,19.56,0,0,1,3.22-4.7,8.64,8.64,0,0,1,2.51-1.81,8.79,8.79,0,0,1,2.93-.67A1,1,0,0,0,195,261s-.07.05,0,.05a2.38,2.38,0,0,0,.12-.78,3,3,0,0,0-.5-1.85,8.61,8.61,0,0,0-1.57-1.74c-.62-.56-1.31-1.1-2-1.63l-4.28-3.2a107.27,107.27,0,0,1-8.47-6.8,36.42,36.42,0,0,1-6.83-8.65,41.21,41.21,0,0,1-4-10.2,73.2,73.2,0,0,1-1.83-10.65Z"/><ellipse class="cls-15" cx="144.67" cy="284.45" rx="5.47" ry="6.2"/><path d="M139.25,284.45a6.13,6.13,0,0,0,1.63,4.09,5.05,5.05,0,0,0,3.79,1.65,4.9,4.9,0,0,0,3.63-1.79,6.25,6.25,0,0,0,1.47-3.95,6.32,6.32,0,0,0-1.35-4.05,4.93,4.93,0,0,0-3.75-1.92,5.06,5.06,0,0,0-3.9,1.79A6.24,6.24,0,0,0,139.25,284.45Zm-.09,0a7.09,7.09,0,0,1,1.46-4.3,5.34,5.34,0,0,1,4-2.13,5.45,5.45,0,0,1,4.22,2,7,7,0,0,1,1.62,4.43A7.09,7.09,0,0,1,149,289a5.2,5.2,0,0,1-6.72,1.48,5.81,5.81,0,0,1-1.79-1.62A7.39,7.39,0,0,1,139.16,284.45Z"/><ellipse class="cls-15" cx="331.79" cy="292.28" rx="5.47" ry="6.2" transform="translate(-55.97 79.78) rotate(-12.65)"/><path d="M326.5,293.46a6.05,6.05,0,0,0,2.49,3.63,5,5,0,0,0,4.06.78,4.9,4.9,0,0,0,3.15-2.54,6.3,6.3,0,0,0,.57-4.17,6.38,6.38,0,0,0-2.21-3.66,4.93,4.93,0,0,0-4.08-1.05,5.05,5.05,0,0,0-3.42,2.6A6.3,6.3,0,0,0,326.5,293.46Zm-.09,0a7.18,7.18,0,0,1,.48-4.52,5.34,5.34,0,0,1,3.49-3,5.47,5.47,0,0,1,4.55,1,7.2,7.2,0,0,1,2.08,8.73,5.5,5.5,0,0,1-3.76,3,5.29,5.29,0,0,1-2.47-.12,5.74,5.74,0,0,1-2.1-1.18A7.39,7.39,0,0,1,326.41,293.48Z"/><ellipse class="cls-15" cx="337.26" cy="309.68" rx="6.2" ry="5.47" transform="translate(12.17 632.11) rotate(-87.32)"/><path d="M331.84,309.43a6.16,6.16,0,0,0,1.44,4.16,5.07,5.07,0,0,0,3.71,1.83,4.92,4.92,0,0,0,3.71-1.62,6.27,6.27,0,0,0,1.65-3.88,6.41,6.41,0,0,0-1.15-4.11,4.93,4.93,0,0,0-3.66-2.09,5.05,5.05,0,0,0-4,1.6A6.37,6.37,0,0,0,331.84,309.43Zm-.09,0a7.21,7.21,0,0,1,1.66-4.24,5.33,5.33,0,0,1,4.15-1.93,5.48,5.48,0,0,1,4.12,2.19,7.23,7.23,0,0,1-.3,9,5.51,5.51,0,0,1-4.43,1.92,5.22,5.22,0,0,1-2.35-.76,5.66,5.66,0,0,1-1.71-1.7A7.3,7.3,0,0,1,331.75,309.43Z"/><ellipse class="cls-15" cx="341.97" cy="331.26" rx="5.47" ry="6.2"/><path d="M336.54,331.26a6.09,6.09,0,0,0,1.64,4.08A5.08,5.08,0,0,0,342,337a5,5,0,0,0,3.63-1.79,6.38,6.38,0,0,0,.12-8,4.93,4.93,0,0,0-3.75-1.92,5,5,0,0,0-3.91,1.79A6.29,6.29,0,0,0,336.54,331.26Zm-.09,0a7.16,7.16,0,0,1,1.46-4.31,5.37,5.37,0,0,1,4.06-2.13,5.48,5.48,0,0,1,4.21,2,7,7,0,0,1,1.63,4.44,7.15,7.15,0,0,1-1.51,4.53,5.48,5.48,0,0,1-4.33,2.13,5.29,5.29,0,0,1-2.38-.65,5.8,5.8,0,0,1-1.8-1.61A7.41,7.41,0,0,1,336.45,331.26Z"/><ellipse class="cls-15" cx="345.33" cy="352.83" rx="5.47" ry="6.2"/><path d="M339.9,352.83a6.11,6.11,0,0,0,1.63,4.08,5.08,5.08,0,0,0,3.8,1.66,4.89,4.89,0,0,0,3.62-1.79,6.25,6.25,0,0,0,1.47-3.95,6.37,6.37,0,0,0-1.34-4.05,4.93,4.93,0,0,0-3.75-1.92,5,5,0,0,0-3.91,1.79A6.29,6.29,0,0,0,339.9,352.83Zm-.09,0a7,7,0,0,1,1.46-4.3,5.34,5.34,0,0,1,4.06-2.13,5.45,5.45,0,0,1,4.21,2,7,7,0,0,1,1.63,4.43,7.16,7.16,0,0,1-1.51,4.54,5.51,5.51,0,0,1-4.33,2.13,5.35,5.35,0,0,1-2.39-.66,5.76,5.76,0,0,1-1.79-1.61A7.39,7.39,0,0,1,339.81,352.83Z"/><ellipse class="cls-15" cx="338.46" cy="373.76" rx="6.2" ry="5.47" transform="translate(-135.8 545.02) rotate(-67.69)"/><path d="M333.45,371.7a6,6,0,0,0,0,4.4,5,5,0,0,0,2.88,3,4.9,4.9,0,0,0,4-.27,6.26,6.26,0,0,0,2.86-3.1,6.37,6.37,0,0,0,.29-4.26,5,5,0,0,0-2.74-3.2,5,5,0,0,0-4.29.17A6.33,6.33,0,0,0,333.45,371.7Zm-.09,0a7.17,7.17,0,0,1,3-3.43,5.38,5.38,0,0,1,4.57-.43,5.49,5.49,0,0,1,3.14,3.45,7.19,7.19,0,0,1-3.3,8.34,5.48,5.48,0,0,1-4.82.33,5.27,5.27,0,0,1-1.95-1.51,5.83,5.83,0,0,1-1.05-2.17A7.39,7.39,0,0,1,333.36,371.67Z"/><ellipse class="cls-15" cx="327.35" cy="397.52" rx="6.2" ry="5.47" transform="translate(-187.18 418.32) rotate(-52.84)"/><path d="M323,394.24a6.09,6.09,0,0,0-1.17,4.24,5,5,0,0,0,2,3.61,4.94,4.94,0,0,0,4,.77,6.4,6.4,0,0,0,4.93-6.31,5,5,0,0,0-1.83-3.79,5,5,0,0,0-4.2-.93A6.28,6.28,0,0,0,323,394.24Zm-.08-.05a7.14,7.14,0,0,1,3.77-2.55,5.36,5.36,0,0,1,4.52.75,5.48,5.48,0,0,1,2.15,4.14,7.19,7.19,0,0,1-5.32,7.22,5.51,5.51,0,0,1-4.75-.92,5.42,5.42,0,0,1-1.5-2,5.71,5.71,0,0,1-.45-2.37A7.29,7.29,0,0,1,323,394.19Z"/><ellipse class="cls-15" cx="318.68" cy="419.24" rx="6.2" ry="5.47" transform="translate(-189.04 559.03) rotate(-68.15)"/><path d="M313.65,417.23a6.13,6.13,0,0,0,0,4.4,5.08,5.08,0,0,0,2.91,2.94,4.87,4.87,0,0,0,4-.31,6.36,6.36,0,0,0,3.09-7.38,4.94,4.94,0,0,0-2.77-3.18,5,5,0,0,0-4.29.21A6.33,6.33,0,0,0,313.65,417.23Zm-.09,0a7.17,7.17,0,0,1,3-3.45,5.36,5.36,0,0,1,4.56-.47,5.46,5.46,0,0,1,3.16,3.43,7,7,0,0,1-.14,4.72,7.06,7.06,0,0,1-3.08,3.65,5.52,5.52,0,0,1-4.82.36,5.37,5.37,0,0,1-2-1.49,5.81,5.81,0,0,1-1.06-2.16A7.35,7.35,0,0,1,313.56,417.19Z"/><ellipse class="cls-15" cx="314.59" cy="443.87" rx="4.59" ry="5.2"/><path d="M310.05,443.87a5,5,0,0,0,1.39,3.4,4.25,4.25,0,0,0,3.15,1.34,4.08,4.08,0,0,0,3-1.47,5.2,5.2,0,0,0,1.23-3.27,5.28,5.28,0,0,0-1.11-3.37,4.06,4.06,0,0,0-3.11-1.6,4.24,4.24,0,0,0-3.27,1.47A5.24,5.24,0,0,0,310.05,443.87Zm-.1,0a6.16,6.16,0,0,1,1.22-3.62,4.47,4.47,0,0,1,3.42-1.82,4.62,4.62,0,0,1,3.57,1.69,6.11,6.11,0,0,1,.13,7.6,4.7,4.7,0,0,1-3.7,1.82,4.45,4.45,0,0,1-3.53-2A6.34,6.34,0,0,1,310,443.87Z"/><ellipse class="cls-15" cx="321.38" cy="273.9" rx="5.47" ry="6.2" transform="translate(-74.06 125.81) rotate(-19.91)"/><path d="M316.28,275.75a6.09,6.09,0,0,0,2.93,3.28,5.05,5.05,0,0,0,4.12.27,4.94,4.94,0,0,0,2.81-2.92,6.39,6.39,0,0,0-2.61-7.56,4.9,4.9,0,0,0-4.18-.53,5,5,0,0,0-3.07,3A6.31,6.31,0,0,0,316.28,275.75Zm-.09,0a7.16,7.16,0,0,1-.09-4.55,5.37,5.37,0,0,1,3.09-3.38,5.45,5.45,0,0,1,4.64.45,7,7,0,0,1,3,3.61,7.13,7.13,0,0,1,.13,4.78,5.51,5.51,0,0,1-3.35,3.48,5.42,5.42,0,0,1-2.46.2,6,6,0,0,1-2.24-.91A7.45,7.45,0,0,1,316.19,275.78Z"/><path class="cls-15" d="M167.71,259.2c-9.57,6.51-16.36,1.73-19.21,19.06s-5.3,17.67-3.33,33.73.31,21.84-.64,32.66-3.11,13.72-6.7,22.39S127.76,388.7,128.51,401s10.06,25.25,8.93,32.47-5.35,4.73-5.35,4.73-6.41-.39-8.58-4.72-16.64-26.67-7.31-51.94,13.63-46.21,12.9-55.59-1.5-31.75-1.5-31.75,7.28-47,29.65-44.11"/><path d="M167.88,259.46a23.21,23.21,0,0,1-5.37,3.28c-1.91.88-3.9,1.51-5.64,2.36a11.44,11.44,0,0,0-2.39,1.52,10.17,10.17,0,0,0-1.83,2.09,19.21,19.21,0,0,0-2.23,5.39c-.53,1.94-.83,3.9-1.19,6s-.74,4.07-1.15,6.1c-.81,4.06-1.91,8.05-2.34,12a55.2,55.2,0,0,0,.33,12.1c.48,4.06,1,8.23,1.08,12.39a89.59,89.59,0,0,1-.49,12.48l-.66,6.15c-.23,2-.36,4.07-.62,6.17a49.78,49.78,0,0,1-1.11,6.22,43.58,43.58,0,0,1-2.05,6c-.8,1.93-1.66,3.81-2.47,5.69l-2.43,5.68c-3.27,7.52-6.4,15.14-7.51,23.15a32.89,32.89,0,0,0,.5,11.91,79.15,79.15,0,0,0,3.85,11.56c.76,1.91,1.54,3.83,2.26,5.78a37.49,37.49,0,0,1,1.79,6.08,12.47,12.47,0,0,1,.23,3.31,12.93,12.93,0,0,1-.72,3.26,4.89,4.89,0,0,1-2.26,2.83,3.2,3.2,0,0,1-3.52-.5h0l.15,0a14.85,14.85,0,0,1-4.74-1.21,8.52,8.52,0,0,1-3.8-3.13c-1.55-2.83-3.11-5.62-4.45-8.55a67.75,67.75,0,0,1-5.67-18.37A52,52,0,0,1,114,388a67.62,67.62,0,0,1,2.86-9.2c.56-1.5,1.08-3,1.6-4.52s1-3,1.52-4.55c2-6.08,3.78-12.22,5.31-18.43a134.18,134.18,0,0,0,3.39-18.83l.16-2.38c0-.8,0-1.59.05-2.38-.05-1.58-.19-3.18-.29-4.78-.2-3.2-.36-6.39-.51-9.59q-.45-9.6-.78-19.19v-.06a123.13,123.13,0,0,1,3.3-14.09,89.93,89.93,0,0,1,5.13-13.54,41.06,41.06,0,0,1,8.21-11.92,18.83,18.83,0,0,1,6.12-4,15.07,15.07,0,0,1,7.25-.86l-.08.63a14.39,14.39,0,0,0-6.94.82,18,18,0,0,0-5.91,3.84,40.2,40.2,0,0,0-8.08,11.73,89.38,89.38,0,0,0-5.09,13.45,120.63,120.63,0,0,0-3.28,14v-.06q.34,9.58.78,19.18c.15,3.2.31,6.39.51,9.58.1,1.6.24,3.18.29,4.81,0,.81,0,1.61-.05,2.42l-.16,2.41a134.68,134.68,0,0,1-3.41,18.92c-1.53,6.23-3.33,12.38-5.32,18.47q-.73,2.3-1.53,4.56T117.43,379a66.29,66.29,0,0,0-2.84,9.12,51.5,51.5,0,0,0-.54,19,66.94,66.94,0,0,0,5.62,18.2c1.32,2.89,2.89,5.7,4.41,8.48a7.8,7.8,0,0,0,3.52,2.88,14.16,14.16,0,0,0,4.51,1.16l.15,0h0a3,3,0,0,0,2.39-.39,4.38,4.38,0,0,0,1.33-2,9.84,9.84,0,0,0,.37-5.59c-.79-3.86-2.5-7.65-4-11.47a82.84,82.84,0,0,1-4-11.84,35.09,35.09,0,0,1-.59-12.63c1.11-8.39,4.31-16.2,7.55-23.76l2.4-5.69c.81-1.91,1.65-3.79,2.42-5.66a42.48,42.48,0,0,0,3-11.63c.24-2,.39-4.07.63-6.13l.68-6.14a87.1,87.1,0,0,0,.52-12.18c-.11-4.08-.56-8.11-1-12.23a57.2,57.2,0,0,1-.29-12.56c.48-4.23,1.6-8.21,2.41-12.22.42-2,.82-4,1.16-6s.69-4.11,1.25-6.14a21.44,21.44,0,0,1,2.51-6,11.46,11.46,0,0,1,2.25-2.52,12.72,12.72,0,0,1,2.86-1.72c2-.87,4-1.36,5.9-2,1-.32,1.9-.68,2.83-1.07s1.83-.86,2.74-1.33Z"/><path class="cls-15" d="M326.63,251.59c6.09,8.64,17.82,24.7,20.71,39.14s9.49,28.23,10.93,50.85-11.39,41.73-21.56,61.27c-9.36,17.95-9.58,26.43-11,32.21s-6.5,22.37-5.77,24.53-12.27,3.61-9.39-10.1,8.66-41.86,11.55-44.74,25.26-45.47,22.37-59.9-15.15-55.57-16.6-58.45S314.57,264,314.57,264"/><path d="M326.89,251.41c5.34,7.41,10.63,14.93,14.89,23.09a72.6,72.6,0,0,1,5.29,12.75c.34,1.1.56,2.24.85,3.37s.48,2.22.76,3.32c.54,2.21,1.14,4.41,1.78,6.6,1.26,4.38,2.62,8.76,3.83,13.18s2.27,8.91,3.09,13.44a128.07,128.07,0,0,1,1.76,13.69,60.38,60.38,0,0,1-.6,13.89c-1.48,9.2-5,17.88-9,26.14s-8.64,16.2-12.73,24.32a117.88,117.88,0,0,0-5.42,12.44,79.94,79.94,0,0,0-3.52,13l-.66,3.39c-.25,1.16-.54,2.29-.83,3.39l-1.8,6.63c-1.18,4.4-2.42,8.84-3.2,13.19-.07.53-.16,1.08-.17,1.52a.91.91,0,0,0,0,.25.11.11,0,0,1,0,.05v0c0,.05,0-.05,0,.11a1.91,1.91,0,0,1,.06.75,1.76,1.76,0,0,1-.21.67,2.41,2.41,0,0,1-.66.78,4.82,4.82,0,0,1-2.25.85,8.55,8.55,0,0,1-5.88-1.35,7.72,7.72,0,0,1-2.66-3.15,13.14,13.14,0,0,1-.67-7.56c.21-1.23.46-2.28.69-3.42l.7-3.36c1.88-9,3.78-17.92,6.05-26.83.57-2.23,1.18-4.45,1.87-6.68.35-1.11.71-2.22,1.16-3.34a17.09,17.09,0,0,1,.78-1.72,5.77,5.77,0,0,1,.66-1l.27-.33a1.58,1.58,0,0,0,.19-.25,66.29,66.29,0,0,0,3.42-5.71q1.64-3,3.16-6a228,228,0,0,0,10.89-25,92.84,92.84,0,0,0,3.71-12.95,31.44,31.44,0,0,0,.63-6.47l0-.78-.11-.75a13.43,13.43,0,0,0-.3-1.6c-.24-1.1-.48-2.21-.75-3.31-2.12-8.84-4.59-17.65-7.11-26.42L331,301.2c-1.3-4.37-2.61-8.78-4-13.05a10.85,10.85,0,0,0-.55-1.41c-.23-.47-.53-1-.78-1.47l-1.63-3-3.3-6c-2.19-4-4.36-8.05-6.43-12.14l.54-.33c2.66,3.74,5.21,7.54,7.71,11.38q1.88,2.88,3.69,5.8l1.81,2.93c.31.51.59,1,.89,1.53a13.3,13.3,0,0,1,.76,1.74c1.62,4.38,2.95,8.73,4.3,13.12s2.61,8.78,3.87,13.18c2.51,8.81,5,17.63,7.1,26.59.27,1.11.51,2.24.75,3.38a16,16,0,0,1,.33,1.77l.13,1,0,.93a33.55,33.55,0,0,1-.69,7.15,95.85,95.85,0,0,1-3.87,13.4,232.1,232.1,0,0,1-11.09,25.28Q329,396,327.34,399c-.56,1-1.13,2-1.72,3s-1.18,2-1.93,3c-.08.12-.2.26-.33.42s-.29.33-.28.33a3.79,3.79,0,0,0-.3.45c-.22.43-.43.9-.63,1.4-.41,1-.76,2.07-1.1,3.14-.67,2.14-1.27,4.33-1.84,6.53-2.27,8.8-4.18,17.75-6.08,26.68-.8,4.46-2.56,9.09-1,12.58a5.13,5.13,0,0,0,4.25,2.94,5.7,5.7,0,0,0,1.37,0,2.7,2.7,0,0,0,1-.28s0,0-.11.14a.88.88,0,0,0-.05.59,5.12,5.12,0,0,1-.1-1.26,17,17,0,0,1,.21-1.89c.87-4.65,2.14-9,3.35-13.45l1.84-6.6c.31-1.1.59-2.18.83-3.26l.67-3.34a83.37,83.37,0,0,1,3.72-13.39,121.46,121.46,0,0,1,5.62-12.66c4.2-8.19,8.85-16.06,12.89-24.21s7.49-16.61,9-25.51a61.74,61.74,0,0,0,.7-13.45,128.24,128.24,0,0,0-1.57-13.53c-.75-4.48-1.75-8.92-2.89-13.33s-2.45-8.79-3.67-13.21c-.61-2.21-1.18-4.43-1.7-6.68-.27-1.11-.48-2.25-.72-3.37s-.47-2.21-.8-3.29a70.58,70.58,0,0,0-5-12.62c-4.11-8.13-9.29-15.69-14.54-23.17Z"/><path class="cls-8" d="M205.6,197.84h5.11l.81-13.83H207.6a1.26,1.26,0,0,0-1.26,1.19Z"/><path d="M212.88,184,212,204.26a3.3,3.3,0,0,1-3.49,2.8c-1.86,0-3.31-1.26-3.23-2.8l.4-7.57c2.29,0,4.31-3.33,4.5-7.4a10,10,0,0,0-1-5.28Z"/><path d="M199.62,209.35a18,18,0,0,0,3.75,1.35,16.16,16.16,0,0,0,3.86.44,14.8,14.8,0,0,0,7.51-2.14l.4.47a11,11,0,0,1-7.87,3.46,11.65,11.65,0,0,1-4.38-.68,9.12,9.12,0,0,1-3.65-2.41Z"/><path class="cls-8" d="M267.53,197.84h5.11l.8-13.83h-3.91a1.26,1.26,0,0,0-1.26,1.19Z"/><path d="M274.81,184l-.87,20.25a3.31,3.31,0,0,1-3.5,2.8c-1.86,0-3.31-1.26-3.23-2.8l.41-7.57c2.29,0,4.31-3.33,4.5-7.4a10.09,10.09,0,0,0-1-5.28Z"/><path d="M261.54,209.35a18.37,18.37,0,0,0,3.75,1.35,16.21,16.21,0,0,0,3.86.44,14.83,14.83,0,0,0,7.52-2.14l.4.47a11,11,0,0,1-7.88,3.46,11.6,11.6,0,0,1-4.37-.68,9,9,0,0,1-3.65-2.41Z"/><g class="cls-18"><circle class="cls-8" cx="273.44" cy="196.32" r="21.19"/></g><path d="M252.86,196.32a20.26,20.26,0,0,0,20.58,20,21.12,21.12,0,0,0,7.62-1.6,20.26,20.26,0,0,0,12.33-18.39,20.28,20.28,0,0,0-19.95-20.47,20.69,20.69,0,0,0-14.62,5.85,19.75,19.75,0,0,0-4.49,6.7A20.69,20.69,0,0,0,252.86,196.32Zm-1.22,0A22.53,22.53,0,0,1,258.09,181a22.05,22.05,0,0,1,31.06-.35,22.2,22.2,0,0,1,6.73,15.7,22.12,22.12,0,0,1-38.06,15.62A22.14,22.14,0,0,1,251.64,196.32Z"/><rect x="193.46" y="165.51" width="24.28" height="4.56" rx="2.28"/><rect x="262.67" y="165.51" width="24.28" height="4.56" rx="2.28"/><circle class="cls-19" cx="295.78" cy="210.64" r="2.03"/><line class="cls-20" x1="291.39" y1="207.59" x2="294.55" y2="209.56"/><path class="cls-19" d="M283,177.42l1.51-2.29a21.71,21.71,0,0,1,12.7,19.39l-2.61,1.8"/><path class="cls-21" d="M227.41,197.14l5.19-1a36.71,36.71,0,0,1,14.47,0l5.18,1v-3.39l-5.18-1a36.71,36.71,0,0,0-14.47,0l-5.19,1Z"/></g><path class="cls-22" d="M311.6,1.65h0a25.47,25.47,0,0,0-4,8.58c-1.58,5.63-6.7,130.87-6.7,130.87H176S170,12.51,168.42,8.27A16.6,16.6,0,0,0,164,1.65H311.6Z"/><rect class="cls-23" x="171.76" y="115.26" width="132.97" height="19.66"/><path d="M172.09,134.59l132.65-.14-.47.47V115.26l.47.46h-133l.47-.46c.16,1.61.22,3.19.27,4.77s.05,3.15,0,4.75-.06,3.18-.15,4.82S172.21,132.88,172.09,134.59Zm-.65.66c-.12-1.57-.2-3.19-.27-4.84s-.1-3.34-.15-5,0-3.39,0-5.09.12-3.38.28-5l0-.47H305.2v20.59h-.46Z"/><path class="cls-22" d="M319.79,145.59h-.44c-50.85-3.3-105.76-2.94-163.51,0,0,0-2.44-13.46-1.28-18.6,3-.33,3.47,4.31,5.65,6.08a10.43,10.43,0,0,0,3.91,1.85H311.51a10.63,10.63,0,0,0,3.92-1.85c2.17-1.77,2.51-5.7,5.63-6.08C322.23,132.13,319.79,145.59,319.79,145.59Z"/></svg>