<svg id="Layer_1" data-name="Layer 1" xmlns="http://www.w3.org/2000/svg" xmlns:xlink="http://www.w3.org/1999/xlink" viewBox="0 0 480 480"><defs><style>.cls-1,.cls-17{fill:none;}.cls-2{clip-path:url(#clip-path);}.cls-11,.cls-3{fill:#333;}.cls-13,.cls-14,.cls-16,.cls-17,.cls-21,.cls-3,.cls-4,.cls-5{stroke:#000;}.cls-13,.cls-14,.cls-16,.cls-17,.cls-19,.cls-21,.cls-3,.cls-4,.cls-5,.cls-6{stroke-miterlimit:10;}.cls-3{stroke-width:0.76px;}.cls-4{fill:#101317;}.cls-17,.cls-4{stroke-width:0.71px;}.cls-5,.cls-9{fill:#f1f3f4;}.cls-5{stroke-width:2.96px;}.cls-6,.cls-7{fill:#ffdff8;}.cls-6{stroke:#200b17;stroke-width:2.82px;}.cls-8{fill:#200b17;}.cls-10{fill:#242a39;}.cls-12,.cls-16{fill:#fff;}.cls-13,.cls-14{fill:#4d4d4d;}.cls-13{stroke-width:0.78px;}.cls-14{stroke-width:0.77px;}.cls-15{opacity:0.2;}.cls-16{stroke-width:2.49px;}.cls-18{fill:#f1fdfb;}.cls-19{fill:#708b36;stroke:#101317;stroke-width:0.44px;}.cls-20{clip-path:url(#clip-path-2);}.cls-21{fill:#1e1411;stroke-width:4.38px;}</style><clipPath id="clip-path"><rect class="cls-1" x="26.17" y="26.17" width="427.65" height="427.65" rx="150.64" transform="translate(240 -99.41) rotate(45)"/></clipPath><clipPath id="clip-path-2"><rect class="cls-1" x="516.17" y="26.17" width="427.65" height="427.65" rx="150.64" transform="translate(383.52 -445.89) rotate(45)"/></clipPath></defs><title>PANDA</title><g class="cls-2"><path class="cls-3" d="M242.93,477.94c-168.7,0-286.15-63.38-281.86-81.49S56.9,339.87,65.49,337.6s20.74-10.56,35-33.2,17.16-95.06,14.22-106.58L242.93,211.6l128.19-13.78c-2.95,11.52-.08,83.95,14.22,106.58s26.46,30.94,35,33.2,100.13,40.74,104.42,58.85S411.64,477.94,242.93,477.94Z"/><path class="cls-4" d="M-37,377.69V735.37H529.73V377.69c-81-28.59-144.39-73.29-156-114.43C363.3,226.47,311,271.8,241.35,272c-66.43.13-124.17-42-129.56-6.19C105.71,306.13,43.52,351.21-37,377.69ZM243.73,665.87,107.83,362.68H375Z"/><polygon class="cls-5" points="385.42 349.55 315.5 522.71 307.7 541.99 305.99 546.21 298.19 565.54 246.26 675.75 208.02 626.01 174.16 541.42 166.01 521.11 97.28 349.55 385.42 349.55"/><path class="cls-6" d="M259.88,421.54c5.77,19.24,26.23,146.28,26.23,146.28L245,687S198.18,577.46,199.9,570.83c5.69-22,11.48-106.54,18.3-128.27,2.48-7.92,4.38-15.58,8.88-22.38C238.24,420.18,248.72,421.54,259.88,421.54Z"/><path class="cls-7" d="M295.9,372c-6.13,8.88-35.75,50.43-35.75,50.43H226.82s-37.37-48.68-36.76-51.2c1.06-4.35,9.72-9.89,12.82-13.31,8.51-9.36,21.78-20.85,43.82-19.6S285.65,355.55,295.9,372Z"/><path class="cls-8" d="M297.31,372c-1.3,2.14-2.69,4.29-4.06,6.45s-2.77,4.32-4.18,6.49q-4.26,6.49-8.7,13c-1.47,2.18-3,4.34-4.49,6.51s-3,4.32-4.57,6.46a131.51,131.51,0,0,1-10,12.29l-.63.67-.52-.08h0c-2.78.49-5.56.75-8.33,1s-5.56.32-8.34.37-5.55,0-8.33-.16a51.86,51.86,0,0,1-8.33-1.17l-1-.23-.13-.32h0C215.12,411,205.4,398.15,196,384.94c-2.34-3.33-4.66-6.59-6.85-10.2-.27-.47-.54-.93-.81-1.48a8.93,8.93,0,0,1-.42-1,4.37,4.37,0,0,1-.12-.49,2.88,2.88,0,0,1,0-1.09l.17-.52a10.54,10.54,0,0,1,1.89-3.29,35.75,35.75,0,0,1,4.57-4.56l4.63-3.9c.72-.64,1.46-1.28,2-1.9s1.39-1.5,2.11-2.23a70.17,70.17,0,0,1,9.38-8.22,50.51,50.51,0,0,1,23.16-9.34,54.63,54.63,0,0,1,12.52-.23,49.34,49.34,0,0,1,12.25,2.7c1,.37,2,.67,2.93,1.11l2.86,1.28a59,59,0,0,1,5.43,3.06c1.79,1.06,3.44,2.32,5.12,3.54s3.22,2.59,4.72,4a79.55,79.55,0,0,1,8.42,9c.67.78,1.26,1.62,1.88,2.44s1.23,1.64,1.8,2.49l.87,1.27.44.63c.14.21.33.51.48.77A35.89,35.89,0,0,1,297.31,372Zm-2.82-.07a20.27,20.27,0,0,1-1.52-1.81l-.34-.5-.44-.6-.88-1.2c-.57-.81-1.18-1.59-1.8-2.36s-1.22-1.57-1.88-2.31a76.07,76.07,0,0,0-8.26-8.48c-1.46-1.33-3-2.52-4.57-3.72s-3.2-2.28-4.9-3.25a51.82,51.82,0,0,0-10.57-4.93A45.51,45.51,0,0,0,248,340.43a50.1,50.1,0,0,0-11.61.36,46.39,46.39,0,0,0-11.11,3.08,50.24,50.24,0,0,0-10.05,5.71,66,66,0,0,0-8.75,7.75c-.7.71-1.33,1.43-2,2.17a32.49,32.49,0,0,1-2.37,2.25l-4.61,3.91a31,31,0,0,0-4,4,6.33,6.33,0,0,0-1.14,1.9l-.07.19a1.72,1.72,0,0,0,0-.71.5.5,0,0,0,0-.12,3.81,3.81,0,0,0,.16.36c.17.35.42.77.65,1.17,2,3.28,4.37,6.59,6.68,9.85,9.4,13,19.17,25.86,28.17,39.27h0l-1.12-.55a53,53,0,0,1,8.33-1.16c2.78-.2,5.56-.21,8.33-.16s5.56.16,8.34.36,5.55.48,8.33,1h0l-1.15.59a122.67,122.67,0,0,1,7.87-12.93q2.13-3.09,4.36-6.14c1.49-2,2.94-4.08,4.46-6.1,3-4.07,6.05-8.12,9.17-12.19,1.57-2,3.13-4.08,4.76-6.12S292.82,374,294.49,371.94Z"/><path class="cls-9" d="M244.82,354.19l-96,31.3s-61.34-35.68-58.23-49.18c0,0,1.56-7.34,5-25.34,3.65-18.94,8.65-33.44,15.17-39.24C140.27,250.5,244.82,354.19,244.82,354.19Z"/><path d="M246.14,354.51c-7.2,2.9-14.93,5.84-22.79,8.79s-16,5.84-24.27,8.61L192.9,374l-6.22,2c-4.14,1.35-8.31,2.62-12.47,3.88-8.33,2.5-16.65,4.87-24.94,6.91l-.68.16-.42-.28h0c-10.55-6.25-20.85-12.83-30.85-19.93-5-3.56-9.89-7.25-14.58-11.26A89.91,89.91,0,0,1,96,349.13a32,32,0,0,1-5.71-7.64,11,11,0,0,1-.89-2.43,6.6,6.6,0,0,1-.11-2.81l.89-4.54,1.77-9c1.2-6,2.31-11.95,3.6-18,.66-3,1.37-6,2.2-8.95s1.71-5.93,2.77-8.84a64.59,64.59,0,0,1,3.72-8.56,28.67,28.67,0,0,1,5.68-7.72l.05,0,.06,0a17.65,17.65,0,0,1,5-2.38,22.53,22.53,0,0,1,5.38-.72A37.12,37.12,0,0,1,130.83,269a95,95,0,0,1,19,8c12.08,6.52,23.3,14.36,34.2,22.56s21.38,16.94,31.65,25.89q7.7,6.74,15.21,13.65,3.75,3.47,7.47,7l3.69,3.52,1.84,1.78.92.89.46.45a3,3,0,0,1,.42.47A2.25,2.25,0,0,1,246.14,354.51Zm-2.65-.63a.83.83,0,0,0-.05.81c.21.31,0,.05,0,0l-.45-.45-.91-.89-1.83-1.76-3.69-3.52q-3.69-3.5-7.44-7-7.49-6.9-15.15-13.6c-10.23-8.92-20.69-17.58-31.5-25.77s-22-15.92-33.85-22.33a92.71,92.71,0,0,0-18.48-7.79,34.67,34.67,0,0,0-9.67-1.42,19.86,19.86,0,0,0-4.7.62,15.28,15.28,0,0,0-4.16,2l.11-.09a26.42,26.42,0,0,0-5.09,7,63.18,63.18,0,0,0-3.56,8.21c-1,2.82-1.91,5.71-2.71,8.63s-1.51,5.86-2.16,8.82c-1.27,5.91-2.39,11.94-3.59,17.93l-1.78,9-.87,4.44a3.91,3.91,0,0,0,.09,1.72,7.92,7.92,0,0,0,.68,1.86,30,30,0,0,0,5.23,6.95c2.06,2.16,4.29,4.19,6.57,6.16,4.6,3.92,9.45,7.58,14.39,11.1,9.91,7,20.19,13.6,30.64,19.79h0l-1.11-.11c7.71-3.18,15.38-6,23-8.75,3.84-1.35,7.67-2.68,11.53-3.94l5.77-1.9,5.82-1.83c7.75-2.46,15.63-4.76,23.71-7S234.7,356.19,243.49,353.88Z"/><path class="cls-9" d="M241.4,354.2l96,31.3s61.35-35.68,58.23-49.18c0,0-1.56-7.35-5-25.34-3.65-19-8.64-33.44-15.16-39.25C345.94,250.51,241.4,354.2,241.4,354.2Z"/><path d="M242.72,353.88c8.93,2.29,17.15,4.54,25.15,6.88,4,1.17,7.91,2.38,11.82,3.59s7.82,2.41,11.69,3.66q11.64,3.72,23.19,7.72c7.72,2.68,15.45,5.48,23.22,8.48l-1.11.11h0c10.45-6.19,20.74-12.76,30.64-19.79,4.95-3.52,9.8-7.18,14.39-11.11a89.25,89.25,0,0,0,6.58-6.15,30.54,30.54,0,0,0,5.23-6.95,8.39,8.39,0,0,0,.68-1.86,3.9,3.9,0,0,0,.08-1.72l-.87-4.44-1.77-9c-1.2-6-2.33-12-3.59-17.93-.66-3-1.36-5.9-2.17-8.82s-1.67-5.8-2.7-8.62a64,64,0,0,0-3.56-8.21,26.23,26.23,0,0,0-5.1-7l.11.09a14.73,14.73,0,0,0-4.16-2,19.71,19.71,0,0,0-4.69-.62,34.32,34.32,0,0,0-9.68,1.42,92.67,92.67,0,0,0-18.48,7.78c-11.87,6.42-23,14.19-33.84,22.34s-21.27,16.85-31.5,25.77q-7.66,6.7-15.16,13.6-3.74,3.45-7.44,6.95L246,351.62l-1.83,1.77-.91.89-.45.44c-.05,0-.25.29,0,0A.83.83,0,0,0,242.72,353.88Zm-2.65.63a2.3,2.3,0,0,1,.4-1.26,3.31,3.31,0,0,1,.43-.47l.46-.45.91-.89,1.84-1.78,3.7-3.53q3.7-3.51,7.47-7,7.52-6.93,15.21-13.65c10.26-9,20.77-17.66,31.65-25.89s22.12-16,34.2-22.57a95.42,95.42,0,0,1,19-8,37.12,37.12,0,0,1,10.44-1.51,22.05,22.05,0,0,1,5.39.72,17.33,17.33,0,0,1,5,2.38l.06,0,.05.05a28.55,28.55,0,0,1,5.69,7.72,67.32,67.32,0,0,1,3.72,8.56c1.06,2.91,2,5.86,2.77,8.83s1.54,6,2.2,9c1.28,6,2.4,12,3.6,18l1.76,9,.89,4.54a6.6,6.6,0,0,1-.11,2.81,10.46,10.46,0,0,1-.88,2.43,32.58,32.58,0,0,1-5.71,7.64,92.15,92.15,0,0,1-6.78,6.35c-4.69,4-9.59,7.7-14.58,11.26-10,7.1-20.3,13.68-30.85,19.93h0l-.45.29-.66-.17c-8.22-2.23-16.49-4.65-24.77-7.18s-16.56-5.19-24.79-7.93c-4.13-1.36-8.21-2.77-12.29-4.16s-8.18-2.8-12.18-4.24C254.92,360.41,247.14,357.45,240.07,354.51Z"/><path class="cls-10" d="M112.39,263.27C97.67,268.1,40.89,335.18,43,349.41s47.62,29.35,47.62,29.35L74.62,425S203,671.6,241.35,687,99.55,331,99.55,331Z"/><path d="M112.16,263.53c-.15.15-.19.27-.3.31l-.54.25c-.4.18-.78.4-1.16.6-.75.44-1.49.91-2.21,1.41-1.44,1-2.83,2.09-4.19,3.21-2.72,2.25-5.31,4.66-7.85,7.11-5.08,4.93-9.92,10.09-14.62,15.38A348.23,348.23,0,0,0,55,325.07C53,328,51.06,331,49.26,334a67,67,0,0,0-4.73,9.43,16,16,0,0,0-1.19,5A8.7,8.7,0,0,0,45,353.2a30.48,30.48,0,0,0,7.55,7.21,114.2,114.2,0,0,0,18.52,10.21c6.44,2.9,13,5.51,19.71,7.81l.34.11-.12.34L75,425.13h0l0-.28q20.48,38.86,41.93,77.2c14.29,25.56,28.87,51,44,76Q172.16,596.91,184,615.4c7.92,12.31,16,24.49,24.67,36.29,4.33,5.89,8.78,11.69,13.5,17.25,2.37,2.77,4.8,5.49,7.37,8.06a58.92,58.92,0,0,0,8.19,7.07,18.6,18.6,0,0,0,4.62,2.42,2.68,2.68,0,0,0,2.06-.06,2.78,2.78,0,0,0,1.14-1.74,16,16,0,0,0,.31-5.17c-.13-1.78-.39-3.57-.7-5.36A182.52,182.52,0,0,0,239.59,653c-4.42-13.92-9.55-27.64-14.85-41.28s-10.87-27.17-16.54-40.67C196.85,544.09,185,517.3,173,490.6s-24.29-53.29-36.7-79.82l-18.74-39.73-9.45-19.82-4.76-9.9c-1.58-3.3-3.28-6.54-4.14-10.19h0l0-.05v-.17a48.51,48.51,0,0,1,1-8.47l1.64-8.35,3.32-16.69Zm.47-.53-5.84,33.84L103.69,314l-1.58,8.59a50.62,50.62,0,0,1-2.21,8.46l0-.22h0c2.33,2.94,3.8,6.29,5.4,9.59l4.74,9.91,9.43,19.84,18.69,39.77q18.57,39.81,36.6,79.89c12,26.72,23.78,53.55,35.1,80.57,5.65,13.51,11.19,27.08,16.49,40.74s10.41,27.4,14.83,41.4a180.77,180.77,0,0,1,5.57,21.34,53.59,53.59,0,0,1,.72,5.53,17.57,17.57,0,0,1-.38,5.74,4.34,4.34,0,0,1-1.89,2.67,4.2,4.2,0,0,1-3.28.2,20.05,20.05,0,0,1-5.08-2.64,61.66,61.66,0,0,1-8.41-7.27c-2.6-2.62-5.05-5.37-7.43-8.17-4.75-5.6-9.22-11.43-13.55-17.35-8.64-11.85-16.76-24.06-24.67-36.4s-15.58-24.82-23.1-37.39c-15-25.15-29.51-50.62-43.7-76.24s-28.09-51.41-41.64-77.38l-.07-.14.05-.14h0l16-46.24.23.45q-10.08-3.45-19.78-7.83A114.67,114.67,0,0,1,52.12,361a31.05,31.05,0,0,1-7.73-7.4,9.33,9.33,0,0,1-1.76-5.15,16.44,16.44,0,0,1,1.24-5.26,65.89,65.89,0,0,1,4.78-9.54c1.81-3.06,3.73-6,5.74-9a348.62,348.62,0,0,1,26.36-33.34c4.72-5.3,9.57-10.48,14.66-15.42,2.55-2.46,5.16-4.88,7.89-7.14,1.37-1.14,2.78-2.23,4.24-3.25.73-.52,1.49-1,2.27-1.44.4-.22.79-.44,1.2-.63.23-.1.37-.18.67-.29A3.05,3.05,0,0,1,112.63,263Z"/><path class="cls-10" d="M370.53,268.86c17.44,2.67,78.5,71.36,76.35,85.32s-47.8,28.8-47.8,28.8l16.09,45.38C414.61,428.71,268.9,681,245,687c-40.12,10,143.45-342.6,144.33-347.47C386.31,285,370.53,268.86,370.53,268.86Z"/><path d="M370.22,268.7a1.32,1.32,0,0,1,.64-.13,1.6,1.6,0,0,1,.25,0l.17,0c.23.05.45.12.68.18.44.13.88.29,1.31.46a24.75,24.75,0,0,1,2.5,1.17,49.67,49.67,0,0,1,4.68,2.87c3,2.06,5.86,4.33,8.64,6.68,5.55,4.71,10.8,9.75,15.9,14.93a336,336,0,0,1,28.48,33q3.27,4.38,6.28,8.93a82.27,82.27,0,0,1,5.45,9.48,25.29,25.29,0,0,1,1.87,5.19,7.5,7.5,0,0,1,.14,2.84,9.47,9.47,0,0,1-.94,2.66,17.94,17.94,0,0,1-3.41,4.36,37.31,37.31,0,0,1-4.22,3.52,109.76,109.76,0,0,1-19.12,10.51q-10,4.43-20.34,7.9l.23-.46,16.09,45.38h0l0,.1-.19.31L393.54,466q-11,18.72-22.09,37.36c-14.83,24.86-29.79,49.64-45.1,74.2s-30.93,48.95-47.57,72.69c-4.17,5.93-8.42,11.8-12.86,17.55-2.22,2.87-4.49,5.71-6.85,8.49a89.11,89.11,0,0,1-7.57,8,22.32,22.32,0,0,1-4.66,3.41l-.73.32a7.44,7.44,0,0,1-2.41.5,4.88,4.88,0,0,1-3.45-1.12,6.14,6.14,0,0,1-1.77-2.94,13.21,13.21,0,0,1-.51-3,33.09,33.09,0,0,1,.23-5.66A88,88,0,0,1,240.3,665c.88-3.55,1.89-7,3-10.52,4.33-13.89,9.52-27.43,14.94-40.87s11.12-26.75,17-40c11.68-26.5,23.88-52.76,36.3-78.91s25.1-52.16,37.91-78.12l38.46-77.35,0,.36-.61-9.19-.86-9.17c-.4-3-.78-6.09-1.24-9.12s-1-6.06-1.68-9.05a135.69,135.69,0,0,0-4.87-17.71,82.78,82.78,0,0,0-3.53-8.48c-.69-1.36-1.39-2.72-2.17-4-.37-.66-.81-1.29-1.21-1.94L371,270c-.11-.16-.24-.3-.35-.45l-.18-.22A1,1,0,0,1,370.22,268.7Zm.62.32c.16,0,.14-.24.16-.18l.19.22c.13.15.27.29.39.45l.74.91c.45.64.93,1.26,1.35,1.91s.87,1.3,1.26,2l1.17,2a85.5,85.5,0,0,1,3.95,8.46,114.73,114.73,0,0,1,5.57,17.8c.8,3,1.31,6.07,1.94,9.12s1,6.13,1.5,9.2.78,6.16,1.1,9.25l.74,9.28v.18l0,.18a1.92,1.92,0,0,1-.11.41l-.08.21-.14.35-.29.65-.57,1.26-1.17,2.47L386.14,350l-4.8,9.74-9.67,19.43-19.35,38.85q-19.26,38.9-38,78c-12.45,26.11-24.68,52.32-36.38,78.77-5.84,13.22-11.55,26.51-17,39.89s-10.63,26.88-15,40.6c-1.07,3.44-2.08,6.89-3,10.36a85.23,85.23,0,0,0-2.08,10.46,30.13,30.13,0,0,0-.24,5.17c.09,1.63.49,3.33,1.33,4a2.11,2.11,0,0,0,1.59.48,6,6,0,0,0,1.07-.15l.48-.16.51-.22a20.22,20.22,0,0,0,4.07-3,88.44,88.44,0,0,0,7.37-7.72c2.33-2.73,4.59-5.53,6.81-8.37,4.43-5.68,8.69-11.52,12.87-17.4,16.69-23.59,32.35-47.93,47.82-72.37s30.64-49.09,45.65-73.82q11.26-18.56,22.39-37.19l11.11-18.64,5.54-9.33,2.77-4.67,1.39-2.33.7-1.16.35-.58.18-.3.09-.14a.83.83,0,0,1,.21-.25l-.15.41h0L398.74,383.1l-.12-.34.35-.11c6.86-2.31,13.64-4.94,20.26-7.88a109.15,109.15,0,0,0,19-10.43c2.87-2.14,5.71-4.53,7.42-7.64a8.72,8.72,0,0,0,.86-2.45,6.79,6.79,0,0,0-.13-2.57,25.13,25.13,0,0,0-1.82-5,80.33,80.33,0,0,0-5.4-9.39c-2-3-4.09-6-6.25-8.9a335.87,335.87,0,0,0-28.43-32.92c-5.08-5.17-10.32-10.19-15.85-14.88-2.77-2.34-5.61-4.59-8.58-6.64a47.45,47.45,0,0,0-4.61-2.83,24.41,24.41,0,0,0-2.43-1.14c-.41-.16-.83-.31-1.25-.43-.22-.06-.43-.13-.64-.17l-.16,0-.09,0A.25.25,0,0,0,370.84,269Z"/><path class="cls-11" d="M328,123.72c-5-3.27-7.39-10.09-6.84-15.83s3.5-10.54,6.84-14.69c6.45-8,21.2-12.43,31.79-9.62,8.19,2.18,15.44,10.32,17.05,19.14a25.91,25.91,0,0,1-4.31,19c-3.56,5.25-6,12-11.09,15.61-3.25,2.27-6.92,4.51-11.09,3.79-1.93-.33-3.91-1.29-5.74-.95"/><path d="M327.81,124.05a15.72,15.72,0,0,1-6.18-7.58,19.77,19.77,0,0,1-1.32-9.85,25.51,25.51,0,0,1,3.28-9.42,41,41,0,0,1,2.72-4.14c.48-.65,1-1.3,1.61-2s1.2-1.21,1.81-1.82a36.12,36.12,0,0,1,18.17-8.06,33.51,33.51,0,0,1,10.15-.09c.85.16,1.7.32,2.55.53a20.07,20.07,0,0,1,2.51.86,23.73,23.73,0,0,1,4.59,2.52c.73.48,1.39,1,2.07,1.58s1.31,1.14,1.89,1.78a28.7,28.7,0,0,1,3.28,4A29.16,29.16,0,0,1,377.46,97a26.81,26.81,0,0,1,1.59,5A28,28,0,0,1,375.17,122l-1.31,2c-.4.64-.79,1.3-1.18,2-.77,1.35-1.53,2.76-2.36,4.17a27.4,27.4,0,0,1-6.48,8c-.36.28-.75.54-1.12.8s-.69.45-1.05.67c-.72.42-1.46.84-2.23,1.22a20.94,20.94,0,0,1-2.42,1,14.2,14.2,0,0,1-2.63.62,10.59,10.59,0,0,1-5.32-.61c-1.57-.59-2.89-1.34-4.37-1.37l-.14-.76c1.73-.58,3.53-.1,5,.07a9.17,9.17,0,0,0,4.16-.33,16.47,16.47,0,0,0,3.81-1.93c.62-.41,1.23-.86,1.83-1.32l.92-.7c.26-.23.53-.43.78-.66a29.88,29.88,0,0,0,5.13-7.12l2.37-4.17c.41-.71.84-1.42,1.28-2.13l1.3-2a23.31,23.31,0,0,0,3.37-16.69,23.66,23.66,0,0,0-9.29-14.34,18.31,18.31,0,0,0-3.76-2.16c-.33-.13-.65-.29-1-.4l-1-.33c-.69-.2-1.41-.35-2.12-.52a30.18,30.18,0,0,0-9-.18,37,37,0,0,0-8.83,2.23,29.32,29.32,0,0,0-7.87,4.44,24.46,24.46,0,0,0-3.15,3.2c-1,1.21-1.9,2.45-2.74,3.74a23.18,23.18,0,0,0-3.48,8.38,18,18,0,0,0,.69,9,15,15,0,0,0,5.21,7.46Z"/><path class="cls-11" d="M152.56,119.76c4.39-4,5.65-11.16,4.18-16.73s-5.17-9.84-9.14-13.38c-7.66-6.85-22.94-8.82-32.93-4.33C106.94,88.8,101.12,98,101,107a25.88,25.88,0,0,0,7.35,18.09c4.37,4.61,7.89,10.92,13.48,13.6,3.57,1.71,7.56,3.33,11.56,1.94,1.85-.64,3.64-1.91,5.51-1.87"/><path d="M152.3,119.47a14.91,14.91,0,0,0,4.1-8.16,18.16,18.16,0,0,0-.65-9.14,23.52,23.52,0,0,0-4.76-7.9,43.32,43.32,0,0,0-3.31-3.33A23.19,23.19,0,0,0,144,88.19a30,30,0,0,0-8.63-3.29,37.34,37.34,0,0,0-9.25-.85,31,31,0,0,0-9.05,1.62,19.88,19.88,0,0,0-7.56,4.8,24.54,24.54,0,0,0-7.21,16.25,24.27,24.27,0,0,0,6.27,16.59c4.53,4.59,7.81,10.47,12.79,13.6.31.19.63.36.94.54l1,.52c.7.34,1.4.66,2.1.95a15.12,15.12,0,0,0,4.28,1.15,9.54,9.54,0,0,0,4.3-.56c1.44-.49,3-1.34,4.84-1.16l0,.78a12.67,12.67,0,0,0-4.2,1.79,10.41,10.41,0,0,1-5,1.25,16.31,16.31,0,0,1-5-.94c-.8-.26-1.56-.58-2.32-.9l-1.12-.5c-.39-.2-.78-.39-1.16-.6a27.89,27.89,0,0,1-7.36-6.79l-3-3.74c-.5-.61-1-1.21-1.51-1.79l-1.62-1.79a27,27,0,0,1-6.84-18.49,26.29,26.29,0,0,1,.7-5A29.26,29.26,0,0,1,102,96.88a27.54,27.54,0,0,1,2.48-4.36c.45-.71,1-1.34,1.51-2s1.1-1.27,1.72-1.84a21.7,21.7,0,0,1,8.55-5.27,33.07,33.07,0,0,1,9.78-1.58,38.8,38.8,0,0,1,9.78,1.07A31.63,31.63,0,0,1,145,86.56a26,26,0,0,1,3.92,3,39,39,0,0,1,3.36,3.56,25.25,25.25,0,0,1,4.82,8.56,19.52,19.52,0,0,1,.43,9.8,15.8,15.8,0,0,1-4.69,8.52Z"/><path class="cls-12" d="M378.64,192.11c-1.49,7.18.86,14.54,1.17,22.07a142.88,142.88,0,0,1-12,63.2c-3.14,7.27-8.12,12.67-13.5,18.31-2.42,2.54-2.5,4.38-4.09,7.27-1.95,3.55-6,5.23-8.39,8.44-2,2.68-1.59,6.76-4.27,9.32-2.34,2.22-5.54,3-8.59,4-3.72,1.19-3.08.49-6,3.43-3.88,3.87-8.69,6.42-12.25,10.37-3.78,4.19-9.28,5.14-14.54,3.2-1.83,3.19-6.64,4.56-9.81,5.26-2.58.57-3.67,2-6.5,3.3-5.64,2.66-11.2,1.82-16.91,1.91-2.34,0-3.58,1.26-6.32,2.06-6.94,2-13.84.86-20.38-1.39-3.24-1.12-5.85,1-9.47,1.15-3.16.16-3.6-2.31-5.92-2.7-3.29-.55-5.46,2.06-8.44-1.08-.88-.92-1.61-3.6-2.66-4.14s-2.91.42-4,.52c-9.15.78-18.9-6.74-27.29-9.52-4.4-1.46-10.72-2.67-14.49-5.63-1.81-1.42-3.4-3.77-4.61-4.8a44.75,44.75,0,0,1-4.27-4.31c-3-3.46-7.64-3.09-10.86-6.21-1.13-1.1-1.07-2.91-2.11-4s-2.78-1.28-4.05-2.25c-1.92-1.46-3-3.57-4.5-5.48-4.48-5.92-8.94-11.64-12.53-18.17-8.55-15.53-14.77-33.1-15.26-50.83-.27-9.87.39-19.65.39-29.6,0-7.65-.07-15.68,1.77-23.15a97.13,97.13,0,0,1,4.86-13.37c1.36-3.3,1.06-5.54,1.89-8.93,1-4.33,6.34-6.9,7.74-10.87.56-1.58-.49-2.94.46-5s2.93-3.5,4.36-5.08c.9-1,2-1.21,2.57-2.36.94-1.82.3-4.39,1.33-6.42,1.92-3.79,6.09-5.9,10-7.13,2-6.54,9.26-7.79,13.75-11.93C172.79,95,202.1,88.25,225.46,91a24.81,24.81,0,0,0,7.19.29,26.84,26.84,0,0,0,5.13-1.77c9.31-3.7,19.82-4,29.8-2.4a144.87,144.87,0,0,1,82,42.27c3.22,3.28,3.54,3.87,5.22,7.74,1.48,3.41,4.64,5.64,7.36,8.93,3.48,4.21,2.63,5.82,4,10,1,3.16,4.17,5.68,5.55,8.86,1.18,2.74.57,5.89,1.68,8.61s3.66,5.34,5.22,7.88c2.14,3.47,1.7,4.78.47,8.78C378.93,190.85,378.77,191.48,378.64,192.11Z"/><path d="M379.9,192.37c-1.48,7.36,1.25,15.13,1.33,23.22a142.82,142.82,0,0,1-1.16,23.83c-.52,4-1.24,7.87-2.07,11.77s-1.9,7.74-3.05,11.55-2.51,7.56-4,11.27c-.78,1.85-1.45,3.67-2.35,5.55a44.43,44.43,0,0,1-3,5.33,75.62,75.62,0,0,1-7.61,9.38l-2,2.17a12.44,12.44,0,0,0-1.67,2,15.21,15.21,0,0,0-1.18,2.39,29.41,29.41,0,0,1-1.31,2.83,16.64,16.64,0,0,1-4.37,4.85,25.67,25.67,0,0,0-4.06,3.73c-.94,1.12-1.31,2.9-1.92,4.9a13.53,13.53,0,0,1-1.34,3.1,7.82,7.82,0,0,1-1.14,1.45,11.68,11.68,0,0,1-1.32,1.15,19.49,19.49,0,0,1-5.84,2.69l-2.85.88c-.93.3-2.09.56-2.53.79a10.76,10.76,0,0,0-1.84,1.61c-.68.68-1.48,1.43-2.25,2.09-1.55,1.34-3.17,2.53-4.73,3.71a53.69,53.69,0,0,0-4.43,3.64c-.69.64-1.23,1.27-2.07,2.11a14.24,14.24,0,0,1-2.68,1.95,13,13,0,0,1-3.11,1.18,13.18,13.18,0,0,1-3.24.3,12.47,12.47,0,0,1-6-1.84h0l.38-.14a9.38,9.38,0,0,1-4.53,4.35,23.28,23.28,0,0,1-2.89,1.21c-.49.17-1,.32-1.49.46s-1,.26-1.39.38a10.79,10.79,0,0,0-2.37,1.2c-.81.52-1.7,1.12-2.65,1.61a20.72,20.72,0,0,1-6.05,2c-4.18.71-8.3.29-12.17.36a6.19,6.19,0,0,0-2.43.62c-.86.37-1.84.84-2.86,1.18a27,27,0,0,1-6.19,1.21A35.5,35.5,0,0,1,239.14,355c-1-.27-2-.58-2.93-.9l-.36-.12-.29-.09c-.19-.06-.39-.08-.58-.12a4.88,4.88,0,0,0-1.21,0c-1.68.14-3.59,1-5.78,1.33a9.39,9.39,0,0,1-1.72.11,5.69,5.69,0,0,1-1.88-.39,12.69,12.69,0,0,1-2.68-1.86,2.49,2.49,0,0,0-.92-.44,4.81,4.81,0,0,0-1.16-.08,24.5,24.5,0,0,0-2.84.47,6.61,6.61,0,0,1-1.84,0,4.86,4.86,0,0,1-1.85-.65,7.32,7.32,0,0,1-1.42-1.12l-.35-.38c-.1-.14-.2-.28-.28-.41s-.3-.51-.42-.75l-.67-1.35a5.39,5.39,0,0,0-.63-1c0-.07-.08-.08-.1-.12h0a.67.67,0,0,0-.27,0,5.27,5.27,0,0,0-1.18.22c-.46.13-.94.29-1.57.41a7.94,7.94,0,0,1-.89.06l-.8,0a12.16,12.16,0,0,1-1.6-.06,13.64,13.64,0,0,1-1.58-.19,30,30,0,0,1-6-1.65c-3.85-1.46-7.42-3.36-11-5.09a57.52,57.52,0,0,0-5.39-2.35c-1.81-.67-3.74-1.17-5.67-1.75a52.48,52.48,0,0,1-5.81-2,16.45,16.45,0,0,1-5.38-3.46c-.76-.75-1.42-1.54-2.07-2.29-.32-.38-.64-.74-1-1.07-.16-.16-.3-.3-.47-.44l-.58-.52c-.77-.7-1.5-1.42-2.2-2.17l-1-1.12-.51-.57-.45-.47a13.49,13.49,0,0,0-4.85-2.61,15,15,0,0,1-5.6-3.2,8.21,8.21,0,0,1-1.52-3.05,2.63,2.63,0,0,0-.54-.92,3,3,0,0,0-.9-.64,18.86,18.86,0,0,1-2.85-1.38,12,12,0,0,1-2.34-2.33c-.66-.84-1.22-1.69-1.79-2.5s-1.15-1.57-1.76-2.38l-3.6-4.82a116.76,116.76,0,0,1-6.74-10.06c-2-3.52-3.86-7.08-5.56-10.75a125.58,125.58,0,0,1-8.11-22.76,98.6,98.6,0,0,1-2.15-11.92,102.12,102.12,0,0,1-.63-12.09c0-8,.45-16,.51-24s-.1-16.11,1.76-24.05a71.23,71.23,0,0,1,4-11.43l1.16-2.77a16.51,16.51,0,0,0,.85-2.75c.38-1.89.5-3.94,1-5.94a12.07,12.07,0,0,1,3.31-5.25,30.73,30.73,0,0,0,3.89-4.42l.34-.62.28-.64a3,3,0,0,0,.16-1.28,8,8,0,0,1,.1-3.14c.7-2.13,2.38-3.5,3.77-4.89.36-.35.68-.68,1-1.06a7.54,7.54,0,0,1,1.25-1,3.66,3.66,0,0,0,1-.88,3.49,3.49,0,0,0,.52-1.23,23.75,23.75,0,0,0,.35-2.93,7,7,0,0,1,.93-3,12.78,12.78,0,0,1,4.34-4.31,23.73,23.73,0,0,1,5.55-2.46l.11,0-.2.21a10.51,10.51,0,0,1,2.42-4.19,18.61,18.61,0,0,1,3.78-3c2.7-1.68,5.56-3,7.83-5.16a71.29,71.29,0,0,1,15.67-10.71A99.45,99.45,0,0,1,207,90.17a95.22,95.22,0,0,1,19,.27,33.47,33.47,0,0,0,4.63.38,12,12,0,0,0,4.39-.91c1.43-.57,2.91-1.21,4.43-1.73a46.53,46.53,0,0,1,4.61-1.32,59.81,59.81,0,0,1,19-1c1.59.15,3.17.36,4.74.6l4.69.81c1.56.26,3.1.64,4.66,1s3.09.69,4.63,1.09a145.88,145.88,0,0,1,35.3,14A149.09,149.09,0,0,1,347.64,126c1.13,1.12,2.29,2.2,3.4,3.35a19.22,19.22,0,0,1,3.12,3.88,23.89,23.89,0,0,1,1.1,2.21l.49,1.09a9.73,9.73,0,0,0,.47,1A16.88,16.88,0,0,0,359,141c2.13,2.24,4.6,4.42,6.23,7.5a17.83,17.83,0,0,1,1.45,4.8,22.49,22.49,0,0,0,.57,2.18,8.64,8.64,0,0,0,.87,1.91,42.89,42.89,0,0,0,2.7,3.74,14.39,14.39,0,0,1,2.46,4.49,31,31,0,0,1,.71,4.87,12,12,0,0,0,.41,2.1,9.18,9.18,0,0,0,.88,1.89c1.49,2.55,3.82,4.79,5.36,7.93a7.67,7.67,0,0,1,.78,2.68,8.94,8.94,0,0,1-.25,2.74c-.2.84-.44,1.6-.66,2.36S380.09,191.64,379.9,192.37Zm-2.51-.52c.21-.8.41-1.66.64-2.4s.46-1.49.63-2.2a6.52,6.52,0,0,0,.22-1.95,5.58,5.58,0,0,0-.54-1.83c-1.21-2.59-3.49-4.85-5.2-7.76a11,11,0,0,1-1.09-2.4,14.07,14.07,0,0,1-.5-2.54,28.41,28.41,0,0,0-.6-4.49,12.18,12.18,0,0,0-2.06-3.76,47.88,47.88,0,0,1-2.81-4,11,11,0,0,1-1.06-2.4,23.34,23.34,0,0,1-.62-2.39,15.77,15.77,0,0,0-1.22-4.26,17.7,17.7,0,0,0-2.58-3.6c-1-1.14-2.13-2.23-3.24-3.4a19.87,19.87,0,0,1-3-4c-.21-.37-.39-.8-.56-1.16l-.46-1.07a22.55,22.55,0,0,0-1-2,16.92,16.92,0,0,0-2.79-3.48c-1.08-1.13-2.22-2.21-3.33-3.32a147,147,0,0,0-29.92-22.62,143.64,143.64,0,0,0-34.8-14.06c-1.51-.4-3-.8-4.57-1.11s-3.06-.71-4.61-1l-4.63-.83c-1.55-.25-3.1-.46-4.65-.61a58.12,58.12,0,0,0-18.61.9,44,44,0,0,0-4.49,1.25c-1.47.5-2.89,1.09-4.4,1.68a13.17,13.17,0,0,1-4.83,1,34.12,34.12,0,0,1-4.79-.42,93.54,93.54,0,0,0-18.78-.38A98.27,98.27,0,0,0,171,101.06a70.62,70.62,0,0,0-15.56,10.49c-2.38,2.21-5.32,3.56-8,5.19a17.91,17.91,0,0,0-3.67,2.84,9.85,9.85,0,0,0-2.3,3.92l0,.16-.16,0-.11,0a23.1,23.1,0,0,0-5.37,2.45,12,12,0,0,0-4.06,4.1c-1.05,1.63-.71,3.67-1.14,5.73a4.5,4.5,0,0,1-.64,1.53,4.57,4.57,0,0,1-1.21,1.09,7.11,7.11,0,0,0-1.1.89c-.32.36-.69.74-1,1.09-1.4,1.4-2.94,2.77-3.48,4.53a7.37,7.37,0,0,0,0,2.82,3.87,3.87,0,0,1-.21,1.67l-.31.74-.37.7a31.47,31.47,0,0,1-4,4.63,11.09,11.09,0,0,0-3,4.79c-.46,1.9-.55,3.87-.94,5.91a16.46,16.46,0,0,1-.89,3l-1.13,2.78a71.08,71.08,0,0,0-3.81,11.26c-1.73,7.73-1.48,15.76-1.48,23.76s-.43,16-.37,24a97.77,97.77,0,0,0,.68,11.88,94.71,94.71,0,0,0,2.18,11.69,124,124,0,0,0,8.11,22.36c1.69,3.59,3.55,7.14,5.53,10.54a113.47,113.47,0,0,0,6.68,9.84l3.61,4.78c.6.79,1.23,1.59,1.83,2.44s1.13,1.65,1.72,2.38a9.7,9.7,0,0,0,1.9,1.89,20.11,20.11,0,0,0,2.56,1.19,5.37,5.37,0,0,1,1.53,1.1,5.1,5.1,0,0,1,1,1.64,7.25,7.25,0,0,0,1.06,2.32,13,13,0,0,0,4.78,2.63,15.66,15.66,0,0,1,5.62,3.09l.59.61.49.55,1,1.07c.67.71,1.37,1.4,2.08,2.05l.54.47c.21.18.43.39.62.59.38.39.72.78,1.05,1.16.66.76,1.29,1.51,2,2.17a14.27,14.27,0,0,0,4.67,3,50.79,50.79,0,0,0,5.54,1.89c1.91.56,3.86,1.06,5.81,1.78a57.68,57.68,0,0,1,5.62,2.43c3.63,1.75,7.15,3.61,10.8,5a27.09,27.09,0,0,0,5.55,1.52,8.23,8.23,0,0,0,1.4.16,9.24,9.24,0,0,0,1.39.06l.7,0a4.51,4.51,0,0,0,.61,0c.35-.06.83-.21,1.33-.35a7,7,0,0,1,1.77-.31,2.87,2.87,0,0,1,1.2.19,2.61,2.61,0,0,1,1.06.78,7.35,7.35,0,0,1,1,1.51l.66,1.34a3.53,3.53,0,0,0,.62.94,4.38,4.38,0,0,0,.93.73,2.89,2.89,0,0,0,2.11.31,26.84,26.84,0,0,1,3.08-.5,7.16,7.16,0,0,1,1.82.14,5.11,5.11,0,0,1,1.78.82,12.66,12.66,0,0,0,2.21,1.59,4.48,4.48,0,0,0,2.32.12c1.78-.22,3.58-1.11,5.9-1.36a8.16,8.16,0,0,1,1.78,0,8.79,8.79,0,0,1,.89.19l.43.13.36.11c.93.31,1.86.61,2.8.87a33.28,33.28,0,0,0,11.44,1.31,24.85,24.85,0,0,0,5.58-1.1c.87-.29,1.7-.69,2.67-1.12a9,9,0,0,1,3.35-.83c4.13-.06,8.07.32,11.81-.34a18.19,18.19,0,0,0,5.3-1.77c.83-.44,1.62-.93,2.5-1.48a10.62,10.62,0,0,1,3-1.37l2.94-.63a25.7,25.7,0,0,0,2.76-.8,10.29,10.29,0,0,0,4.73-3l.19-.22.19.08h0c3.9.56,7.62.13,10.54-1.74a14.74,14.74,0,0,0,2-1.58c.56-.56,1.31-1.41,2.06-2.12a55.88,55.88,0,0,1,4.68-3.9c1.58-1.2,3.13-2.36,4.55-3.6.73-.63,1.36-1.24,2.07-1.95.36-.36.71-.71,1.11-1.08a7.32,7.32,0,0,1,1.53-1.13,8.82,8.82,0,0,1,1.7-.62l1.39-.41,2.8-.89a16.41,16.41,0,0,0,4.85-2.22,7.06,7.06,0,0,0,.9-.79,4.58,4.58,0,0,0,.68-.88,9.93,9.93,0,0,0,1-2.32c.27-.88.51-1.85.85-2.88a10.44,10.44,0,0,1,1.61-3.12,26.34,26.34,0,0,1,4.6-4.28,13.47,13.47,0,0,0,3.55-3.82c.43-.79.79-1.61,1.18-2.53a18.58,18.58,0,0,1,1.45-2.89,15.78,15.78,0,0,1,2.08-2.53l2-2.13a71.49,71.49,0,0,0,7.31-8.93,40.21,40.21,0,0,0,2.84-4.92c.81-1.67,1.54-3.55,2.3-5.33q2.17-5.43,4-11c1.15-3.72,2.2-7.48,3.07-11.28s1.59-7.64,2.13-11.5a140.17,140.17,0,0,0,1.33-23.35A97.31,97.31,0,0,0,377.34,204,37.23,37.23,0,0,1,377.39,191.85Z"/><path class="cls-12" d="M264.07,291.55h-1.31c-2.75,0-5.21,2.11-8.1,1.29-1.17-.34-2.25-1.82-3.39-2s-.91.16-2,.94-2.54,1.8-3.8,1.67c-1.72-.17-1.67-1.81-2.93-2.59-6.32-3.95-13.33,4.46-19.57,3.13-1.55-.33-2.38-1.56-3.76-2.1-1.09-.43-1.74.09-2.94.26-2.71.37-5.27-1.47-5.82-5-3.89.11-8.92-2.74-7.47-8.36-4.58.33-6.23-6.51-7.81-10.85-2.18-6-8.29-9.76-8.31-20.95s6-21.85,6-21.85H293.17s7.43,9.17,7.45,19.54-6.46,19.1-9.31,25.65c-1.27,2.93-2.95,5.59-4.42,8.32s-3.31,5.84-6.21,5.56c-.42,4-7.39,8.58-9.68,5.64A12,12,0,0,1,264.07,291.55Z"/><path d="M264.08,292.22c-.62,0-1.33,0-1.83.11a7.62,7.62,0,0,0-1.67.47,18.53,18.53,0,0,1-3.79,1.23,5.77,5.77,0,0,1-2.26-.11,5.16,5.16,0,0,1-2-1.12,6.54,6.54,0,0,0-1.28-.89l-.25-.06-.25,0s.16-.05.16-.07l-.26.24a6.07,6.07,0,0,1-.87.7l-.81.55a9,9,0,0,1-1.91,1,3.66,3.66,0,0,1-2.59,0,3,3,0,0,1-1.13-.85,7.38,7.38,0,0,1-.62-.89,3.6,3.6,0,0,0-.44-.59,1.24,1.24,0,0,0-.22-.18,2,2,0,0,0-.33-.18l-.73-.38-.77-.22a7.35,7.35,0,0,0-3.33,0,47.43,47.43,0,0,0-6.94,2.6,18.45,18.45,0,0,1-3.78,1.15,11.58,11.58,0,0,1-2,.16,7.36,7.36,0,0,1-2.12-.44c-1.39-.63-2.21-1.66-3.16-2a2.38,2.38,0,0,0-1.49.09,6.43,6.43,0,0,1-2.07.22,5.38,5.38,0,0,1-3.67-1.87,7.06,7.06,0,0,1-1.57-3.7v0l.43.36a8.85,8.85,0,0,1-6.29-2.39,6.25,6.25,0,0,1-1.7-3,7.58,7.58,0,0,1,.08-3.45v0l.44.52a4.78,4.78,0,0,1-3.78-1.39,11.54,11.54,0,0,1-2.25-3.23c-1.16-2.3-1.85-4.79-2.79-7a50.55,50.55,0,0,0-3.83-6.28A27.6,27.6,0,0,1,187,254.3a25.08,25.08,0,0,1-1-7.68,38,38,0,0,1,.91-7.61,50.17,50.17,0,0,1,5.59-14.1v0l.13-.22H293.37l.12.16a36.3,36.3,0,0,1,7.43,15.2,24.14,24.14,0,0,1,.24,8.6,36.46,36.46,0,0,1-2.3,8.25c-2.11,5.32-5.22,10-7.45,15.08-1.28,2.55-2.8,4.9-4.15,7.33a18.42,18.42,0,0,1-2.5,3.53,6.18,6.18,0,0,1-1.81,1.37,4,4,0,0,1-2.29.39h0l.45-.37a6.37,6.37,0,0,1-1.42,3.14,11.52,11.52,0,0,1-2.49,2.29,8.71,8.71,0,0,1-3.1,1.39,4.31,4.31,0,0,1-1.79,0,2.86,2.86,0,0,1-1.6-1l0,0,.57.09a9.91,9.91,0,0,1-3.44,1.59A17.49,17.49,0,0,1,264.08,292.22Zm0-1.35a17.66,17.66,0,0,0,3.5-.2,9.06,9.06,0,0,0,3.2-1.23l.28-.17.29.26v0a2.57,2.57,0,0,0,2.57.65,8.14,8.14,0,0,0,2.8-1.27,10.46,10.46,0,0,0,2.29-2.11,5.67,5.67,0,0,0,1.26-2.71l0-.36h.44a4,4,0,0,0,3.21-1.66,17.5,17.5,0,0,0,2.15-3.42c1.29-2.5,2.73-4.9,3.88-7.39.56-1.22,1.12-2.56,1.76-3.82l1.93-3.73c1.3-2.47,2.52-4.95,3.56-7.49a35.14,35.14,0,0,0,2.28-7.84,24.83,24.83,0,0,0-.09-8.07,32.8,32.8,0,0,0-2.48-7.8,41.21,41.21,0,0,0-4.1-7.16l.33.16H192.83l.37-.22,0,0a60.41,60.41,0,0,0-2.77,6.89,52.22,52.22,0,0,0-1.91,7.14,30.85,30.85,0,0,0,.17,14.43,26.33,26.33,0,0,0,3.1,6.55,42.07,42.07,0,0,1,3.81,6.61c.93,2.43,1.53,4.81,2.52,7a10.23,10.23,0,0,0,1.86,3,3.88,3.88,0,0,0,3,1.32l.56,0-.12.55v0a6.56,6.56,0,0,0-.08,3.05,5.28,5.28,0,0,0,1.48,2.6,8,8,0,0,0,5.66,2.15h.36l.07.37v0a6.13,6.13,0,0,0,1.51,3.13,4.22,4.22,0,0,0,3,1.37,5,5,0,0,0,1.68-.26,6.85,6.85,0,0,1,1-.24,2.8,2.8,0,0,1,1.22.09c1.48.49,2.36,1.56,3.33,1.9a5.55,5.55,0,0,0,1.58.28,10.08,10.08,0,0,0,1.72-.2,16.79,16.79,0,0,0,3.42-1.15,43.71,43.71,0,0,1,7.18-2.88,9.38,9.38,0,0,1,4.19-.09l1,.3,1,.47c.17.1.31.14.5.27a3.57,3.57,0,0,1,.51.42,5.69,5.69,0,0,1,.71.91c.37.58.6.87.84.94a1.58,1.58,0,0,0,1.12-.06,7.08,7.08,0,0,0,1.44-.78l.75-.52a4.5,4.5,0,0,0,.61-.49,4.64,4.64,0,0,1,.43-.41,1.86,1.86,0,0,1,1-.38,4.39,4.39,0,0,1,.7,0,3.47,3.47,0,0,1,.67.17,7.64,7.64,0,0,1,1.88,1.19,3.41,3.41,0,0,0,1.23.72,4.07,4.07,0,0,0,1.49.13,20.88,20.88,0,0,0,3.51-.78,10.13,10.13,0,0,1,2-.33C262.86,290.78,263.42,290.85,264.06,290.87Z"/><path class="cls-12" d="M186.83,141.14l6.73,87.42c-.68,25.51,28.52,31.75,45.8,34.66,7.11,1.2,5.47-24.29,4.87-29.09.62,5-.79,27.51,5.08,28.83,5.64,1.27,17.51-2.46,22.49-4.81,11.44-5.42,22.05-16.18,22.05-29.59l11.84-87.42"/><path d="M187.2,141.11,188.75,163l1.67,21.86,1.74,21.85,1.77,21.85v0a20.65,20.65,0,0,0,2.84,11.07,20.91,20.91,0,0,0,3.48,4.38,31.11,31.11,0,0,0,4.24,3.46,70.78,70.78,0,0,0,9.54,5.45c1.68.8,3.42,1.51,5.2,2.17s3.57,1.26,5.41,1.8,3.68,1.07,5.56,1.53,3.75.93,5.66,1.34l2.86.63.71.16.35.07h0s-.05,0,0,.08a2.62,2.62,0,0,0,.9-1.14,15.2,15.2,0,0,0,.88-2.35A61.12,61.12,0,0,0,243.33,246c.27-3.89.5-7.84.53-11.77l.74-.1h0a42.74,42.74,0,0,1,1.34,5.79c.34,1.92.63,3.83.92,5.72a95.55,95.55,0,0,0,2,10.85,13.3,13.3,0,0,0,.79,2.22,3,3,0,0,0,.69,1.08s0-.06-.08-.06-.07-.06-.11-.07l-.07,0h0a8.68,8.68,0,0,0,1,.11,8.37,8.37,0,0,0,1.13,0l1.22-.06a61.8,61.8,0,0,0,10.55-2c1.77-.48,3.54-1,5.25-1.6.85-.28,1.65-.61,2.5-1s1.65-.75,2.47-1.15a41.71,41.71,0,0,0,9.2-6,32.42,32.42,0,0,0,3.91-4c.59-.72,1.13-1.47,1.69-2.22s1-1.56,1.44-2.39a24.07,24.07,0,0,0,2.9-10.78v-.07c1.09-7.27,2.07-14.55,3.11-21.83l3.06-21.85,3-21.85,2.83-21.87.74.1L303,163l-3,21.86-2.86,21.87c-.93,7.29-1.93,14.58-2.81,21.88v-.07c.11,7.89-3.23,15.67-8.49,21.73a45.11,45.11,0,0,1-9,8.11c-.85.56-1.69,1.13-2.59,1.63s-1.78,1-2.72,1.48a55.28,55.28,0,0,1-5.6,2.34,48.26,48.26,0,0,1-12,2.78,18.8,18.8,0,0,1-5.31-.27l-.34-.09-.41-.14a5.09,5.09,0,0,1-.78-.34,6.18,6.18,0,0,1-1.25-.9,9.22,9.22,0,0,1-2.38-3.73,20.09,20.09,0,0,1-.87-3.31,50.92,50.92,0,0,1-.31-12.1c.27-3.91,1-7.77,1.55-11.57h0l.74-.1c.47,2,.81,3.93,1.08,5.91s.51,4,.65,6a52.44,52.44,0,0,1-.31,12.29,16.23,16.23,0,0,1-.9,3.29,7.38,7.38,0,0,1-2.63,3.5,5.65,5.65,0,0,1-1.35.61,5.16,5.16,0,0,1-1.48.2l-.72,0-.38-.05-.74-.09c-1-.13-2-.26-3-.41a112.07,112.07,0,0,1-11.88-2.4,69.46,69.46,0,0,1-11.64-4.1,32.71,32.71,0,0,1-10.42-7.17,26.18,26.18,0,0,1-3.84-5.17,29.17,29.17,0,0,1-1.43-2.85,30.16,30.16,0,0,1-1-3,37.92,37.92,0,0,1-1.41-12v0l-1.6-21.86L190,184.86,188.27,163l-1.81-21.85Z"/><path class="cls-13" d="M272.58,132.13c-7.21,2.7-9.53,10-9.6,17.13-.1,10.59-5.92,24.15-2.85,34.22,3.38,11.1,18.3,10.41,25.3,17.12,6.56,6.31,6.17,11.53,17,11.81,1.59,5.21,8.12,5.73,12.91,6.27,5.91.68,15,1.37,20.58-1.29,1.75-.83,2.41-2.52,3.35-3.1,10-6.14,5.4-5.71,6.41-15.6.57-5.6,4.77-6.93,3.14-12.95a83.92,83.92,0,0,0-3.69-10.39,73.06,73.06,0,0,0-6.36-11.11c-1.48-2.09-3.88-3.05-5.23-5-1.74-2.51-.58-4.57-1.7-7-1.87-4.13-6.85-5.8-9.45-9.26s-1.32-.13-2.08-4.41c-.88-5,1.83-3.79-3.19-6.7-1.62-.93-4-1.16-5.5-1.92-3.42-1.78-6-4.2-9.81-5.56-6.33-2.22-17.77-3.65-21.87,3.27C278.72,129.65,274.88,131.27,272.58,132.13Z"/><path class="cls-12" d="M284.28,167h7.36l-.74-19.88h-6.35a1,1,0,0,0-1,1Z"/><path d="M292.86,147.12l1.48,29.13c.12,2.21-2,4-4.65,4s-4.94-1.81-5-4l-.44-10.9c3.3,0,5.75-4.79,5.48-10.64a15.5,15.5,0,0,0-2.21-7.59Z"/><path d="M303.69,184.36a14.67,14.67,0,0,1-5.32,3.28,17.44,17.44,0,0,1-6.24,1,16.62,16.62,0,0,1-6.22-1.23,13.26,13.26,0,0,1-5.13-3.62l.58-.68a24.9,24.9,0,0,0,5.27,2.29,22.78,22.78,0,0,0,5.55.93,20.58,20.58,0,0,0,5.63-.58,20,20,0,0,0,5.34-2.14Z"/><path d="M212.25,197.81c11.26,7.08,32.8,10,32.8,10s21-4.43,27.73-9.32c4.36-3.15,3.31,14.95,1,18.32-4.08,6-12.47,8.07-18.85,9.94-6,1.75-10.33,3.06-11.12,8.95,1.64-8.17-16.71-8.66-22.41-11.56C211.71,219.22,206.67,210.92,212.25,197.81Z"/><path class="cls-14" d="M215.37,132.13c7,2.7,9.28,10,9.35,17.13.1,10.59,4,23,1,33-3.29,11.1-14.18,10.93-21,17.64-6.4,6.3-7.93,12.21-18.46,12.49-1.56,5.21-7.92,5.73-12.59,6.27-5.76.68-14.59,1.37-20.05-1.29-1.71-.83-2.35-2.52-3.27-3.1-9.73-6.14-5.26-5.71-6.25-15.6-.55-5.6-4.65-6.93-3.06-12.95a88.29,88.29,0,0,1,3.59-10.39,74.79,74.79,0,0,1,6.2-11.11c1.45-2.09,3.79-3.05,5.1-5,1.7-2.51.57-4.57,1.66-7,1.82-4.13,6.68-5.8,9.21-9.26s1.28-.13,2-4.41c.87-5-1.78-3.79,3.12-6.7,1.57-.93,3.94-1.16,5.36-1.92,3.33-1.78,5.8-4.2,9.56-5.56,6.17-2.22,17.32-3.65,21.31,3.27C209.38,129.65,213.13,131.27,215.37,132.13Z"/><path class="cls-12" d="M186.47,170.64h7.36L195,150.71h-5.64a1.81,1.81,0,0,0-1.81,1.71Z"/><path d="M197,150.71l-1.26,29.18c-.09,2.22-2.36,4-5,4s-4.77-1.82-4.66-4l.58-10.91c3.31,0,6.22-4.8,6.49-10.67a14.51,14.51,0,0,0-1.5-7.6Z"/><path d="M177.84,187.22a25.82,25.82,0,0,0,5.4,2,23.28,23.28,0,0,0,5.57.63,21.82,21.82,0,0,0,5.55-.8,22.12,22.12,0,0,0,5.28-2.29l.57.68a14.16,14.16,0,0,1-5.12,3.63,17.27,17.27,0,0,1-6.22,1.35,16.53,16.53,0,0,1-6.31-1,13.28,13.28,0,0,1-5.26-3.46Z"/><rect x="273.94" y="134.84" width="27.32" height="5.13" rx="2.57"/><rect x="180" y="134.84" width="27.32" height="5.13" rx="2.57"/><path class="cls-12" d="M270.73,222.3a19.52,19.52,0,0,1-8-2.85c-.11,2.34-1.56,3.81-2.6,5.75,2.82.13,9.22.77,10.3-2.9"/><path class="cls-12" d="M215.26,223.33a19.52,19.52,0,0,0,8-2.85c.11,2.34,1.56,3.81,2.6,5.75-2.82.13-9.22.77-10.3-2.9"/><g class="cls-15"><path class="cls-12" d="M226.49,145.48V174a36.72,36.72,0,0,1-36.73,36.73h-5.94A36.72,36.72,0,0,1,147.11,174V145.48A183.55,183.55,0,0,1,226.49,145.48Z"/></g><path d="M186.79,143.62A183.3,183.3,0,0,1,224,147.49V174a34.3,34.3,0,0,1-34.25,34.25h-5.94A34.28,34.28,0,0,1,149.6,174V147.49a182.86,182.86,0,0,1,37.19-3.87m0-2.48a184.7,184.7,0,0,0-39.68,4.34V174a36.72,36.72,0,0,0,36.71,36.73h5.94A36.72,36.72,0,0,0,226.49,174V145.48a185,185,0,0,0-39.7-4.34Z"/><polygon points="122.89 139.57 147.11 145.48 147.11 156.36 122.89 144.4 122.89 139.57"/><polygon points="359.82 138.89 335.59 145.48 335.59 156.36 359.82 143.72 359.82 138.89"/><rect class="cls-16" x="226.49" y="152.74" width="14.86" height="3.63"/><g class="cls-15"><path class="cls-12" d="M293,209.5A35.53,35.53,0,0,1,257.46,174V146.48a182.3,182.3,0,0,1,76.89,0V174a35.52,35.52,0,0,1-35.46,35.49Z"/><path d="M295.91,143.62a183,183,0,0,1,37.2,3.87V174a34.28,34.28,0,0,1-34.22,34.25H293A34.29,34.29,0,0,1,258.7,174V147.49a183.13,183.13,0,0,1,37.21-3.87m0-2.48a185,185,0,0,0-39.7,4.34V174A36.73,36.73,0,0,0,293,210.74h5.94A36.71,36.71,0,0,0,335.59,174V145.48a184.7,184.7,0,0,0-39.68-4.34Z"/></g><path d="M295.91,143.62a183,183,0,0,1,37.2,3.87V174a34.28,34.28,0,0,1-34.22,34.25H293A34.29,34.29,0,0,1,258.7,174V147.49a183.13,183.13,0,0,1,37.21-3.87m0-2.48a185,185,0,0,0-39.7,4.34V174A36.73,36.73,0,0,0,293,210.74h5.94A36.71,36.71,0,0,0,335.59,174V145.48a184.7,184.7,0,0,0-39.68-4.34Z"/><rect class="cls-16" x="241.35" y="152.74" width="14.86" height="3.63"/><ellipse cx="254.26" cy="184.23" rx="2.66" ry="6.44" transform="translate(-34.45 60.81) rotate(-12.78)"/><line class="cls-17" x1="257.35" y1="173.72" x2="254.26" y2="182.13"/><line class="cls-17" x1="262.6" y1="191.39" x2="254.94" y2="186.77"/><ellipse cx="229.57" cy="184.23" rx="6.44" ry="2.66" transform="translate(-0.88 367.37) rotate(-77.22)"/><line class="cls-17" x1="226.49" y1="173.72" x2="229.57" y2="182.13"/><line class="cls-17" x1="221.23" y1="191.39" x2="228.9" y2="186.77"/><path d="M146.29,154.76a51.51,51.51,0,0,1-.78,8.17c-.24,1.34-.46,2.69-.8,4s-.81,2.62-1.28,3.92a34.24,34.24,0,0,0-1.9,7.95c-.36,2.7-.51,5.45-.95,8.14a60.54,60.54,0,0,1-1.92,8c-.8,2.61-1.74,5.19-2.48,7.82-.38,1.31-.74,2.62-1,3.95a39.52,39.52,0,0,0-.5,4.08,23.86,23.86,0,0,1-.69,4c-.34,1.32-.69,2.64-1.08,3.94-1.58,5.23-3.51,10.35-4.85,15.63-.68,2.64-1.22,5.32-1.8,8a58.56,58.56,0,0,1-2.27,7.88,127.74,127.74,0,0,1-6.86,15,60.5,60.5,0,0,1-4.17,7.15,16.08,16.08,0,0,1-2.89,3.2,5.94,5.94,0,0,1-1,.66l-.51.3-.59.22a5.37,5.37,0,0,1-2.6.26l.63-2.41a3.25,3.25,0,0,0,3-.47,12.26,12.26,0,0,0,2.81-2.6,34.22,34.22,0,0,0,4.09-6.89c2.27-4.9,3.51-10.23,5.22-15.34.8-2.58,1.72-5.12,2.74-7.64s2-5.06,2.82-7.66a158.9,158.9,0,0,0,3.53-15.91c.27-1.33.56-2.66.87-4a25.42,25.42,0,0,1,1.22-3.89,34.25,34.25,0,0,0,1.37-3.87c.34-1.31.58-2.65.81-4,.46-2.69.72-5.41,1.07-8.11a69.76,69.76,0,0,1,1.5-8c.68-2.63,1.63-5.21,2.35-7.84a32.66,32.66,0,0,0,1.27-8.06c.06-1.37.1-2.74.27-4.09s.46-2.68.72-4a56,56,0,0,1,2.15-7.88Z"/><path d="M339.05,152.5a58.49,58.49,0,0,1,2.35,8c.28,1.36.6,2.71.81,4.08s.28,2.77.36,4.17A33.85,33.85,0,0,0,344,177c.78,2.67,1.8,5.28,2.54,8a72.27,72.27,0,0,1,1.69,8.15c.42,2.75.74,5.52,1.26,8.25.26,1.36.54,2.72.91,4.06a34.88,34.88,0,0,0,1.46,3.92,24.38,24.38,0,0,1,1.31,3.95c.35,1.35.68,2.69,1,4a162.19,162.19,0,0,0,3.91,16.18c.87,2.63,1.93,5.2,3,7.76s2.06,5.14,2.93,7.76c1.83,5.19,3.19,10.6,5.58,15.57a35.87,35.87,0,0,0,4.26,7,12.92,12.92,0,0,0,2.89,2.66,3.36,3.36,0,0,0,3.07.52l.63,2.4a5.35,5.35,0,0,1-2.66-.27c-.19-.08-.4-.14-.59-.24l-.52-.3a6.81,6.81,0,0,1-1-.67,18,18,0,0,1-2.95-3.25,64.61,64.61,0,0,1-4.34-7.25A133.77,133.77,0,0,1,361.23,250a64.28,64.28,0,0,1-2.47-8c-.64-2.73-1.24-5.45-2-8.13-1.46-5.36-3.52-10.56-5.22-15.86-.43-1.33-.81-2.67-1.17-4a23.59,23.59,0,0,1-.8-4.1,40.24,40.24,0,0,0-.59-4.15c-.32-1.36-.71-2.69-1.12-4-.81-2.66-1.8-5.28-2.67-7.93a65.15,65.15,0,0,1-2.11-8.07c-.5-2.74-.72-5.54-1.14-8.3a35.53,35.53,0,0,0-2.1-8.07c-.49-1.32-1-2.63-1.37-4s-.62-2.71-.9-4.08a53.39,53.39,0,0,1-1-8.32Z"/><path class="cls-18" d="M393.14,420.09l-1,1.33-4.08,5.39a32.85,32.85,0,0,0-2.64-9.63l-.9,1.41-5.91,9.31L380.49,417l.29-1.64a32.57,32.57,0,0,0-8.55,5.43l.19-7.18,0-1.66q-13.12,8.31-14.59,24.16H358a11,11,0,0,0,7,11.39L376.57,452a11,11,0,0,0,13.95-5.64A30.21,30.21,0,0,0,393.14,420.09Z"/><path class="cls-19" d="M390.81,446.58c.67-1.48,1.28-3.44.74-4.94-2,1.26-7.34,6.2-9.6,5.83-1.37-.22-1.38-2.1-1.86-3.31a7.77,7.77,0,0,1-2.24,2.42,12.12,12.12,0,0,1-2-3.14,8.61,8.61,0,0,1-2.47,1.26c-1.8-2.44-1.74-3-4.71-1.6-1.38-3.47-3.65-.59-6-2.44-2.23-1.71-3.17-7.89-3-10.34-2.41,1.05-2.49,5.22-2,7.53.7,3.64.87,6,3.83,8.29,3.34,2.54,4.94,1.43,4.22,6.38-1.24,8.5-4.82,16.86-7.73,24.87,2.21,2.86,5.44-6.34,6-7.52,2.23-5,4.22-10.32,7-15,1.44-2.42,4.94-1.59,7.72-1.43,2.48.14,4.77.47,7.06-.57A9.19,9.19,0,0,0,390.81,446.58Z"/></g><g class="cls-20"><path class="cls-21" d="M734.44,668.8,463.32,466.14,600.36,357c74-51.65,194.11-51.65,268.16,0l137,109.15Z"/></g></svg>