<svg id="Layer_1" data-name="Layer 1" xmlns="http://www.w3.org/2000/svg" xmlns:xlink="http://www.w3.org/1999/xlink" viewBox="0 0 480 480"><defs><style>.cls-1,.cls-10,.cls-8{fill:none;}.cls-2{clip-path:url(#clip-path);}.cls-12,.cls-17,.cls-3{fill:#dfcfb4;}.cls-14,.cls-15,.cls-16,.cls-17,.cls-3{stroke:#161413;}.cls-10,.cls-14,.cls-15,.cls-16,.cls-17,.cls-3,.cls-5,.cls-6,.cls-7,.cls-8{stroke-miterlimit:10;}.cls-3{stroke-width:3.71px;}.cls-4,.cls-5,.cls-6{fill:#d5929b;}.cls-10,.cls-5,.cls-6,.cls-7,.cls-8{stroke:#000;}.cls-5{stroke-width:3.23px;}.cls-6,.cls-7{stroke-width:2.66px;}.cls-7{fill:#ae7f85;}.cls-8{stroke-width:1.72px;}.cls-9{fill:#a85967;}.cls-10,.cls-16{stroke-width:0.94px;}.cls-11{fill:#ffc7fb;}.cls-13{fill:#161413;}.cls-14,.cls-15{fill:#c7a18c;}.cls-14{stroke-width:0.35px;}.cls-15{stroke-width:1.33px;}.cls-16{fill:#ffcfb4;}.cls-17{stroke-width:3.63px;}</style><clipPath id="clip-path"><rect class="cls-1" x="26.17" y="26.17" width="427.65" height="427.65" rx="150.64" transform="translate(240 -99.41) rotate(45)"/></clipPath></defs><title>PIG</title><g class="cls-2"><path class="cls-3" d="M423.08,402.42s12.38-41.13-175-41.13S56.75,402.42,56.75,402.42l.46,19.82,364.59-2.5Z"/><path class="cls-4" d="M83.78,432.19H399.17l18.38-32.37s-62.1-70-174-70S61.46,403.41,61.46,403.41Z"/><path d="M85.05,429.58l314.12-.29-2.52,1.47L415,398.39l.35,3.35h0c-1.24-1.4-2.69-2.89-4.1-4.3s-2.88-2.81-4.36-4.18c-3-2.74-6-5.4-9.17-7.95A233.09,233.09,0,0,0,378.07,371a242.36,242.36,0,0,0-43.24-22.4,251,251,0,0,0-144.16-12A264.37,264.37,0,0,0,144,351.19a280.85,280.85,0,0,0-43.36,22.71c-3.45,2.19-6.8,4.53-10.12,6.91s-6.52,4.91-9.66,7.52c-1.56,1.31-3.11,2.65-4.63,4s-3,2.76-4.46,4.17a96,96,0,0,0-8.18,8.91h0l.19-3.78C70.93,410.89,78,420.17,85.05,429.58Zm-2.55,5.21c-7.82-9.78-15.64-19.68-23.33-29.61l-1.54-2,1.73-1.79h0c3.34-2.76,6.53-5.29,9.85-7.82q2.45-1.9,5-3.75t5-3.67q10-7.29,20.35-14A283.88,283.88,0,0,1,143.1,349.1a266.5,266.5,0,0,1,47.05-14.87,255.18,255.18,0,0,1,49-5.71q12.36-.25,24.72.59t24.56,2.94a255.67,255.67,0,0,1,92.13,35A235.83,235.83,0,0,1,401,381.27c3.27,2.55,6.48,5.18,9.61,7.92q2.35,2.06,4.63,4.21c1.53,1.45,3,2.87,4.5,4.5h0l1.38,1.54-1,1.81-18.38,32.37-.84,1.47h-1.68Z"/><path class="cls-4" d="M365.31,290.61V321.7a53.54,53.54,0,0,1-53.54,53.54H299.31a90.11,90.11,0,0,1-31.8,5.75h-56a90.15,90.15,0,0,1-31.8-5.75H167.24a53.55,53.55,0,0,1-53.55-53.54V290.61A53.38,53.38,0,0,1,121,263.56c-1-33,2.94-63.18,16.83-87.62,0-30.36,57.68-56.09,68.85-56.09h65.61c11.17,0,68.84,25.73,68.84,56.09,14.09,24.45,17.7,54.78,16.83,87.62A53.19,53.19,0,0,1,365.31,290.61Z"/><path d="M366.83,290.61c.14,10.65.34,21.24.42,31.93l-.14,4.14a16,16,0,0,1-.21,2.06l-.28,2.05-.28,2.06-.47,2-.48,2a16.87,16.87,0,0,1-.55,2,56.12,56.12,0,0,1-7.2,15,55.41,55.41,0,0,1-25.84,20.53l-2,.73a15.46,15.46,0,0,1-2,.66l-4.07,1.05a16.4,16.4,0,0,1-2.07.39l-2.08.32-2.07.31-2.1.12c-1.39.06-2.83.17-4.17.18s-2.66-.08-4-.17-2.66-.25-4-.49a27.3,27.3,0,0,1-4-.91l.47-.08h0a83.91,83.91,0,0,1-14.67,4.63,92.65,92.65,0,0,1-15.31,1.94c-2.6.08-5.08.07-7.61.1l-7.56,0-15.13,0-15.12-.08c-5.07,0-10,0-15.18-.2a86.88,86.88,0,0,1-30-6.47l.47.09H167.51c-.82,0-1.66-.08-2.49-.11a37.58,37.58,0,0,1-5-.42A54.22,54.22,0,0,1,141.13,370a55.18,55.18,0,0,1-25.46-29.66,57.51,57.51,0,0,1-3.31-19.56V291.5a58.19,58.19,0,0,1,.75-9.93,54.88,54.88,0,0,1,6.76-18.68l-.18.71h0c-.17-7.56,0-15.13.36-22.68a201.33,201.33,0,0,1,2.41-22.57,147.08,147.08,0,0,1,5.39-22.07,139.85,139.85,0,0,1,8.85-21l-.18.66h0a31.37,31.37,0,0,1,4.71-15.67,58.32,58.32,0,0,1,10.22-12.51,121.45,121.45,0,0,1,26.15-18.39,140.3,140.3,0,0,1,14.47-6.8c2.48-1,5-1.91,7.58-2.68,1.29-.39,2.61-.73,4-1a19.84,19.84,0,0,1,2.11-.3c.36,0,.75-.06,1.1-.06h65.37c.34,0,.74,0,1.1.06a19.65,19.65,0,0,1,2.1.3c1.36.28,2.67.62,4,1,2.58.77,5.1,1.69,7.58,2.68a142.29,142.29,0,0,1,14.47,6.8,121.39,121.39,0,0,1,26.14,18.39,58,58,0,0,1,10.22,12.51,31.38,31.38,0,0,1,4.72,15.67l-.18-.67a112,112,0,0,1,9.2,20.89,147,147,0,0,1,5.28,22.14c2.41,15,2.9,30.19,2.53,45.29h0l-.19-.7a56.12,56.12,0,0,1,5.68,13.34A55,55,0,0,1,366.83,290.61Zm-3,0A52.37,52.37,0,0,0,362.1,277a50.76,50.76,0,0,0-5.26-12.73l-.19-.32v-.39h0a243.68,243.68,0,0,0-2.49-44.79c-2.37-14.72-6.74-29.22-14.16-42.12l-.17-.3v-.37a28.7,28.7,0,0,0-4.34-14.31,55.52,55.52,0,0,0-9.77-11.95,118.61,118.61,0,0,0-25.56-18,136.88,136.88,0,0,0-14.2-6.67c-2.42-1-4.88-1.87-7.35-2.61-1.24-.37-2.48-.69-3.72-.94-.61-.11-1.23-.22-1.81-.27l-.88,0H206.82l-.88,0c-.58,0-1.21.16-1.81.27-1.24.25-2.48.57-3.72.94-2.48.74-4.93,1.64-7.35,2.61a135.92,135.92,0,0,0-14.2,6.67,118.61,118.61,0,0,0-25.56,18,55.22,55.22,0,0,0-9.77,11.95,28.5,28.5,0,0,0-4.34,14.31h0l-.05.45-.13.21a95,95,0,0,0-9.25,20.31,145,145,0,0,0-5.17,21.79A198.84,198.84,0,0,0,122.34,241c-.36,7.48-.27,15,0,22.47h0v.39l-.19.32A52.32,52.32,0,0,0,115.74,282a53.66,53.66,0,0,0-.71,9.49v29.25a54.48,54.48,0,0,0,3.15,18.66,52.46,52.46,0,0,0,24.22,28.21,51.57,51.57,0,0,0,18,5.78,35.8,35.8,0,0,0,4.74.4c.79,0,1.57.09,2.38.1h12.38l.27.09a94.55,94.55,0,0,0,29.14,5l15.08-.14,15.12-.07c10.06-.06,20.22.05,30.2.11a89.69,89.69,0,0,0,14.72-1.31A97.65,97.65,0,0,0,298.84,374h0l.47-.09a27.3,27.3,0,0,1,4-.91,38.76,38.76,0,0,1,4-.48c1.33-.1,2.66-.17,4-.17s2.52-.12,3.79-.18l1.89-.09,1.86-.28,1.87-.28a14.35,14.35,0,0,0,1.85-.34l3.66-.93a14.36,14.36,0,0,0,1.79-.58l1.77-.64A50.25,50.25,0,0,0,343,361.76a27,27,0,0,0,2.92-2.4,29.55,29.55,0,0,0,2.76-2.6c.86-.93,1.74-1.84,2.58-2.78l2.32-3,.58-.75.5-.81,1-1.61,1-1.61c.31-.55.57-1.13.86-1.69l.86-1.7a14.3,14.3,0,0,0,.81-1.73l1.38-3.56a14.19,14.19,0,0,0,.56-1.82l.51-1.84.51-1.85.32-1.89.32-1.89a13.42,13.42,0,0,0,.26-1.89l.26-3.84C363.53,311.91,363.62,301.23,363.79,290.61Z"/><path class="cls-5" d="M187.37,130.4c-9.21-16.88-7.92-21-27.2-28.06C147.41,97.62,134,91.62,125.37,80.5a3.23,3.23,0,0,0-5.78,1.67c-2.77,29-3,85.51,31.27,85.1"/><path class="cls-6" d="M291,134c9.2-16.87,7.92-20.95,27.19-28.06,13.48-5,27.72-11.39,36.18-23.74a2.3,2.3,0,0,1,4.16,1.08c3,28.11,4.2,88-31,87.59"/><path class="cls-7" d="M242.94,286.22h-6.87c-7.21,0-39.91,21.85-39.91,2.9v-5.8c0-18.95,15.36-42.74,34.31-42.74h18.07c19,0,34.31,23.79,34.31,42.74v5.8C282.85,308.07,250.15,286.22,242.94,286.22Z"/><path class="cls-8" d="M199.86,247c0-8.63,14-19.47,31.38-19.47h16.53c17.33,0,31.38,10.84,31.38,19.47"/><path class="cls-8" d="M206.94,227.51c0-4.74,12.23-10.68,27.33-10.68h14.4c15.1,0,27.34,5.94,27.34,10.68"/><path d="M259.2,264.46c-1.55-2.91-4.07-5.56-4.92-.6-.62,3.65,6,18.39,11.51,15.36C269.43,277.24,263.37,266.94,259.2,264.46Z"/><path d="M220,264.46c1.56-2.91,4.07-5.56,4.92-.6.63,3.65-5.95,18.39-11.51,15.36C209.78,277.24,215.84,266.94,220,264.46Z"/><path class="cls-9" d="M175,137.26c-10.43-6.52-12.62-19.92-24.26-26.38-6.89-3.82-15.07-5.38-22.26-8.44-.25,22.06,10.25,35.13,24.12,52"/><path class="cls-9" d="M307.13,137.26c10.43-6.52,12.63-19.92,24.27-26.38,6.88-3.82,15.06-5.38,22.26-8.44.24,22.06-10.25,35.13-24.13,52"/><path class="cls-8" d="M255.12,367.88c-.27,1.68-8,4.48-13.37,4.48s-13.93-2.32-13.93-4.48"/><path d="M290.48,324.45a22.77,22.77,0,0,1-5.07,4.14,43.61,43.61,0,0,1-5.78,3,63,63,0,0,1-12.42,3.87,101.36,101.36,0,0,1-25.75,1.71,131.69,131.69,0,0,1-25.4-3.62,89.91,89.91,0,0,1-12.26-4c-2-.86-3.94-1.73-5.83-2.76a32.51,32.51,0,0,1-5.44-3.54l.46-.71a56.84,56.84,0,0,0,5.92,1.93c1,.28,2,.53,3,.8l3,.69c4,.89,8.12,1.58,12.2,2.18,8.17,1.17,16.4,1.92,24.67,2.38a153.74,153.74,0,0,0,24.57-.34,80.79,80.79,0,0,0,12.08-2c1-.21,2-.54,3-.8s1.95-.64,2.92-1l1.44-.55,1.41-.61a22.41,22.41,0,0,0,2.7-1.44Z"/><path d="M184.58,200.2l-1,23.53c-.07,1.78-1.9,3.25-4.06,3.25s-3.84-1.47-3.75-3.25l.47-8.8c2.66,0,5-3.87,5.23-8.6a11.67,11.67,0,0,0-1.21-6.13Z"/><rect x="162.95" y="181.45" width="36.91" height="6.93" rx="3.47"/><rect x="277.17" y="181.45" width="36.91" height="6.93" rx="3.47"/><line class="cls-10" x1="181.15" y1="200.98" x2="178.18" y2="194.86"/><line class="cls-10" x1="184.12" y1="200.98" x2="186.14" y2="194.48"/><line class="cls-10" x1="183.69" y1="204.57" x2="188.58" y2="199.84"/><path d="M302,200.2l-1,23.53c-.08,1.78-1.91,3.25-4.06,3.25s-3.85-1.47-3.75-3.25l.46-8.8c2.67,0,5-3.87,5.23-8.6a11.57,11.57,0,0,0-1.21-6.13Z"/><line class="cls-10" x1="298.6" y1="200.98" x2="295.62" y2="194.86"/><line class="cls-10" x1="301.57" y1="200.98" x2="303.58" y2="194.48"/><line class="cls-10" x1="301.14" y1="204.57" x2="306.03" y2="199.84"/><circle class="cls-11" cx="297.11" cy="262.57" r="1.75"/><circle class="cls-11" cx="332.15" cy="262.57" r="1.75"/><circle class="cls-11" cx="316.83" cy="285.15" r="1.75"/><circle class="cls-11" cx="137.3" cy="262.57" r="1.75"/><circle class="cls-11" cx="172.34" cy="262.57" r="1.75"/><circle class="cls-11" cx="157.02" cy="285.15" r="1.75"/><path class="cls-6" d="M301.62,137c6.71,2.53,14.09,2.08,20.12,7.18,3.8,3.22,8.83,7.39,8.79,12.75"/><path class="cls-6" d="M181.83,137c-6.72,2.53-14.1,2.08-20.12,7.18-3.8,3.22-8.83,7.39-8.79,12.75"/><path class="cls-12" d="M214.08,158c21.89-21,51.2-27.19,63.09-31.94L266.88,97.4a18.58,18.58,0,0,0-23.45-11.81l-48,15.84a18.58,18.58,0,0,0-11.81,23.45l7,21.27A18.57,18.57,0,0,0,214.08,158Z"/><path class="cls-13" d="M213.15,156.41c.53-.35,1.06-.74,1.59-1.14l1.77-1.31,3.58-2.77q3.6-2.73,7.35-5.23a108.88,108.88,0,0,1,15.81-8.59c5.46-2.47,11.07-4.58,16.72-6.49,2.83-1,5.66-1.87,8.49-2.78s5.67-1.8,8.4-2.86l-.48,1.07-8.05-22.47-2-5.61a18.85,18.85,0,0,0-2.52-5.13,17.44,17.44,0,0,0-20.05-6.34c-3.76,1.29-7.52,2.61-11.29,3.84-7.55,2.52-15.11,5-22.63,7.56L198.53,102l-2.81,1a16,16,0,0,0-2.5,1.11,17,17,0,0,0-4.3,3.33,17.16,17.16,0,0,0-4.46,9.72,16.54,16.54,0,0,0,.29,5.39,21.22,21.22,0,0,0,.78,2.67l1,2.83,3.81,11.3,1.91,5.65c.16.49.31.92.46,1.33s.33.83.53,1.23a15.71,15.71,0,0,0,1.34,2.32,16.68,16.68,0,0,0,8.42,6.33,17.47,17.47,0,0,0,5.26.88,15.91,15.91,0,0,0,2.67-.18c.45-.08.89-.15,1.32-.26A4.23,4.23,0,0,1,213.15,156.41Zm1.87,3.11a13.26,13.26,0,0,1-1.94.63c-.52.14-1.06.24-1.6.34a20,20,0,0,1-9.72-.77A20.53,20.53,0,0,1,191.44,152a18.69,18.69,0,0,1-1.64-2.84c-.25-.49-.44-1-.65-1.51s-.37-1-.51-1.49l-1.83-5.68-3.66-11.35-.92-2.84a26.54,26.54,0,0,1-.84-3.06,20.17,20.17,0,0,1,10.38-21.86,19.9,19.9,0,0,1,3-1.26l2.85-.92L209,95.5c7.58-2.41,15.12-4.94,22.68-7.41,3.77-1.25,7.57-2.43,11.36-3.63a19.62,19.62,0,0,1,12.42.2,19.9,19.9,0,0,1,9.77,7.48,21,21,0,0,1,2.66,5.56l2,5.61,8.1,22.43.28.77-.76.3c-5.61,2.2-11.29,3.88-16.87,5.91s-11.09,4.16-16.43,6.67a138.35,138.35,0,0,0-15.47,8.53,72.26,72.26,0,0,0-7.15,5.14,39.79,39.79,0,0,0-3.3,2.92c-.53.54-1,1-1.57,1.64S215.58,158.86,215,159.52Z"/><path class="cls-12" d="M253.61,114.89c.53,3.29,5.16,6.46,10,7.7,7.25,1.85,22.64,1.83,28.68-2.69,10.82-8.1-2.39-17.35-14.29-21.34,6.42-3.94,18.66-12.16,6.22-15.58-3.9-1.08-9.39.22-11.71,3.35,5.36-5.67-1.3-11.92-6.71-14.59-12.51-6.17-29.74-3.14-37.19,6.69-6.42,8.46,4.27,20.68,13,23.84"/><path class="cls-13" d="M254.07,114.81a6.65,6.65,0,0,0,2.34,3.61,16.22,16.22,0,0,0,3.84,2.46,26.71,26.71,0,0,0,9,2.13,60.54,60.54,0,0,0,9.33.14,40.83,40.83,0,0,0,9.15-1.55,14.89,14.89,0,0,0,4.11-1.93,11.12,11.12,0,0,0,3.15-3.19,6.54,6.54,0,0,0,.81-2,6,6,0,0,0,0-2.15,9.25,9.25,0,0,0-2.07-3.92,26.61,26.61,0,0,0-7.27-5.63A50.69,50.69,0,0,0,277.88,99h0l-.94-.3.84-.54a64.84,64.84,0,0,0,7.36-5.37,16.44,16.44,0,0,0,2.95-3.26,4.67,4.67,0,0,0,.77-1.83,2.17,2.17,0,0,0-.4-1.64A7,7,0,0,0,285,84a11.06,11.06,0,0,0-4.26-.59,11.42,11.42,0,0,0-7.79,3.22h0l-.72-.6.74-1.11a11.74,11.74,0,0,0,.5-1.17,4.68,4.68,0,0,0,.22-1.21,3.16,3.16,0,0,0,0-.61l-.07-.6a7.11,7.11,0,0,0-.32-1.18,6.89,6.89,0,0,0-.56-1.12l-.32-.55-.39-.52a11.38,11.38,0,0,0-.85-1A19.94,19.94,0,0,0,267,73.61a16.94,16.94,0,0,0-2.39-1.25,22.89,22.89,0,0,0-2.52-1,33.52,33.52,0,0,0-21.54,0,25.84,25.84,0,0,0-9.3,5.5l-.5.46-.44.51-.89,1A8.71,8.71,0,0,0,228.13,81a8.87,8.87,0,0,0-.6,2.5,11.37,11.37,0,0,0,.13,2.6,19.66,19.66,0,0,0,5.21,9.39,25.47,25.47,0,0,0,9,6.29l-.32.89a25.71,25.71,0,0,1-9.59-6.28,20.4,20.4,0,0,1-5.83-10,13.2,13.2,0,0,1-.21-3,10.7,10.7,0,0,1,.67-3,10.52,10.52,0,0,1,1.51-2.65l1-1.13.47-.57.53-.51a27.08,27.08,0,0,1,9.91-6.06,35.51,35.51,0,0,1,22.86-.12,22.72,22.72,0,0,1,9.91,6.2,9.74,9.74,0,0,1,2.61,5.54,6.78,6.78,0,0,1-2.43,5.54l-.72-.61h0a8,8,0,0,1,1.67-1.81,11.46,11.46,0,0,1,2.1-1.26,13.59,13.59,0,0,1,4.7-1.12,12.38,12.38,0,0,1,4.8.69,13.31,13.31,0,0,1,2.24,1,5.85,5.85,0,0,1,2,1.69,3.7,3.7,0,0,1,.63,2.72,6.12,6.12,0,0,1-1,2.37A18.13,18.13,0,0,1,286,93.77a57.69,57.69,0,0,1-7.7,5.19l-.1-.85h0a52.1,52.1,0,0,1,8.69,3.82,27.52,27.52,0,0,1,7.53,5.86,10.14,10.14,0,0,1,2.27,4.33,7.11,7.11,0,0,1,0,2.52,7.63,7.63,0,0,1-.93,2.33,12.26,12.26,0,0,1-3.41,3.47A16.37,16.37,0,0,1,288,122.5a41.11,41.11,0,0,1-9.37,1.59,61.23,61.23,0,0,1-9.48-.14,27.76,27.76,0,0,1-9.27-2.22,16.9,16.9,0,0,1-4.06-2.6,7.64,7.64,0,0,1-2.65-4.17Z"/><ellipse class="cls-12" cx="171.89" cy="117.5" rx="95.02" ry="58.08" transform="translate(-36.32 116.68) rotate(-34.13)"/><path class="cls-13" d="M94.4,170A36.81,36.81,0,0,0,105,180a47.82,47.82,0,0,0,13.56,5.64c9.62,2.35,19.77,2.26,29.63.82A122.93,122.93,0,0,0,177,178.33c4.63-1.94,9.18-4.07,13.59-6.46s8.73-5,12.91-7.77a150.16,150.16,0,0,0,23.2-19.18,122.2,122.2,0,0,0,18.41-23.73c5-8.64,8.89-18.08,10.28-27.95a48.37,48.37,0,0,0-.22-14.81,35.56,35.56,0,0,0-16-24,48.29,48.29,0,0,0-13.68-5.92c-9.73-2.51-20-2.52-30-1.14a120.71,120.71,0,0,0-29.15,8.09,147.13,147.13,0,0,0-26.67,14.44q-6.27,4.29-12.12,9.14a139.25,139.25,0,0,0-11.08,10.37,119.63,119.63,0,0,0-18.21,24.11c-4.93,8.75-8.65,18.29-9.89,28.2a48.54,48.54,0,0,0,.43,14.79A37.08,37.08,0,0,0,94.4,170Zm-2.34,1.59A39.8,39.8,0,0,1,86.23,157,50.84,50.84,0,0,1,86,141.46c1.46-10.3,5.45-20,10.6-28.85a122.89,122.89,0,0,1,18.79-24.19A158.24,158.24,0,0,1,139,68.91c4.24-2.84,8.61-5.5,13.09-7.94s9.1-4.62,13.8-6.61A122.15,122.15,0,0,1,195.26,46c10.11-1.47,20.56-1.52,30.6.95a50.21,50.21,0,0,1,14.28,6A37.73,37.73,0,0,1,257.39,78a51.09,51.09,0,0,1,.45,15.56c-1.31,10.33-5.17,20.13-10.22,29.09A120.39,120.39,0,0,1,229,147.22a154,154,0,0,1-23.56,19.84,150,150,0,0,1-27.07,14.75,119.52,119.52,0,0,1-29.74,8.3c-10.23,1.4-20.81,1.36-31-1.27a51.34,51.34,0,0,1-14.39-6.23A39.85,39.85,0,0,1,92.06,171.61Z"/><circle class="cls-14" cx="339.59" cy="159.96" r="2.62"/><line class="cls-15" x1="339.59" y1="159.96" x2="346.63" y2="174.42"/><circle class="cls-16" cx="346.63" cy="174.42" r="7.03"/><path class="cls-17" d="M395.4,412.93c-11.22,0-20.8-3.71-24.69-8.94a1.41,1.41,0,0,0-2.29,0c-3.88,5.23-13.47,8.94-24.69,8.94S322.92,409.22,319,404a1.41,1.41,0,0,0-2.29,0c-3.89,5.23-13.48,8.94-24.7,8.94s-20.81-3.71-24.69-8.94a1.41,1.41,0,0,0-2.29,0c-3.88,5.23-13.47,8.94-24.69,8.94s-20.81-3.71-24.7-8.94a1.4,1.4,0,0,0-2.28,0c-3.89,5.23-13.48,8.94-24.7,8.94S167.89,409.22,164,404a1.41,1.41,0,0,0-2.29,0c-3.88,5.23-13.47,8.94-24.69,8.94s-20.81-3.71-24.7-8.94a1.41,1.41,0,0,0-2.29,0c-3.88,5.23-13.47,8.94-24.69,8.94-12.1,0-22.31-4.32-25.5-10.21a1.38,1.38,0,0,0-1.23-.69h0a1.39,1.39,0,0,0-1.41,1.38V498a1.4,1.4,0,0,0,1.41,1.38H420.38A1.4,1.4,0,0,0,421.8,498V402h-.55C418.51,408.27,408,412.93,395.4,412.93Z"/></g></svg>