<svg id="Layer_1" data-name="Layer 1" xmlns="http://www.w3.org/2000/svg" xmlns:xlink="http://www.w3.org/1999/xlink" viewBox="0 0 480 480"><defs><style>.cls-1{fill:none;}.cls-2{clip-path:url(#clip-path);}.cls-3{fill:#333;stroke-width:0.76px;}.cls-12,.cls-13,.cls-16,.cls-18,.cls-3,.cls-4,.cls-6,.cls-7,.cls-9{stroke:#000;}.cls-12,.cls-13,.cls-14,.cls-16,.cls-18,.cls-3,.cls-4,.cls-6,.cls-7,.cls-9{stroke-miterlimit:10;}.cls-4{fill:#101317;stroke-width:0.71px;}.cls-5{clip-path:url(#clip-path-2);}.cls-6{fill:#242a39;stroke-width:3.11px;}.cls-7,.cls-9{fill:#f1f3f4;}.cls-7{stroke-width:1.82px;}.cls-8{fill:#a3a28c;}.cls-9{stroke-width:1.49px;}.cls-10{fill:#c7b299;}.cls-11,.cls-16,.cls-18{fill:#e3e1e2;}.cls-12{fill:#9c6044;stroke-width:0.62px;}.cls-13,.cls-19{fill:#503629;}.cls-13,.cls-16{stroke-width:0.92px;}.cls-14{fill:#13161a;stroke:#13161a;stroke-width:3.35px;}.cls-15{fill:#e6e6e6;}.cls-17{fill:#f5f4f9;}.cls-18{stroke-width:0.82px;}</style><clipPath id="clip-path"><rect class="cls-1" x="516.17" y="26.17" width="427.65" height="427.65" rx="150.64" transform="translate(383.52 -445.89) rotate(45)"/></clipPath><clipPath id="clip-path-2"><rect class="cls-1" x="42.53" y="60.61" width="394.93" height="394.93" rx="139.11" transform="translate(-112.19 245.29) rotate(-45)"/></clipPath></defs><title>RHINO</title><g class="cls-2"><path class="cls-3" d="M732.93,477.94c-168.7,0-286.15-63.38-281.86-81.49s95.83-56.58,104.42-58.85,20.74-10.56,35-33.2,17.16-95.06,14.22-106.58L732.93,211.6l128.19-13.78c-3,11.52-.08,83.95,14.22,106.58s26.46,30.94,35,33.2,100.13,40.74,104.42,58.85S901.64,477.94,732.93,477.94Z"/><path class="cls-4" d="M453,377.69V735.37h566.76V377.69c-81-28.59-144.39-73.29-156-114.43C853.3,226.47,801,271.8,731.35,272c-66.43.13-124.17-42-129.56-6.19C595.71,306.13,533.52,351.21,453,377.69ZM733.73,665.87,597.83,362.68H865Z"/></g><g class="cls-5"><path class="cls-6" d="M74.57,423.15v248H405.43v-248c-91.94-38.52-84.67-73.5-168.35-73.3C155.35,350.05,164,388.23,74.57,423.15ZM236.79,653,154.25,399.89H320Z"/><polygon class="cls-7" points="319.68 399.51 238.83 663.88 154.25 399.89 319.68 399.51"/><path class="cls-8" d="M282.47,521.18l-4.87,15L246.18,636.85l-7.35,27-6.34-23.51-13.28-37.73-18.62-61.89-5.83-19.38a338.86,338.86,0,0,1,12.12-61.21c.21-.6.49-1.33.85-2.17.68-1.63,1.61-3.65,2.68-5.9,2.88-6,6.8-13.65,9.84-19.46,2.65-5.11,4.64-8.82,4.64-8.82l13.2-4.43.69-.23.66.23,13.21,4.43s2,3.71,4.64,8.82c4.75,9.1,11.69,22.67,13.36,27.53C271.76,463.34,279.5,490.54,282.47,521.18Z"/><polygon class="cls-8" points="199.69 415.02 224.82 430.52 253.16 430.52 273.44 415.02 251.95 397.15 221.35 396.27 199.69 415.02"/><path class="cls-9" d="M319.68,399.51l-39.17,12.68-8.11,2.62L238.83,395l69.44-43.36s8.44,12.55,9.9,24A217,217,0,0,1,319.68,399.51Z"/><path class="cls-9" d="M237.11,395.48,199.69,415,190.26,412l-37.85-12.24s.74-10.85,2.38-22.13c1.75-11.88,8.52-24.9,8.52-24.9Z"/><polygon class="cls-8" points="231.3 453.66 231.3 454.03 230.63 453.84 231.3 453.66"/><polygon class="cls-8" points="230.63 453.84 229.94 454.03 229.94 453.66 230.63 453.84"/><path class="cls-10" d="M257.28,432.63h-37c2.65-5.11,4.63-8.82,4.63-8.82l13.2-4.44.69-.23.67.23,13.2,4.44S254.63,427.52,257.28,432.63Z"/><path class="cls-10" d="M274.74,545.34,208.4,458c-.37.88-.67,1.65-.89,2.28-1.12,3.22-9.23,31.19-12.51,61.93l-.24,2.46L200.9,545l1.07.28,60.9,16.52,6.19,1.69Z"/></g><path class="cls-11" d="M275.6,115.72C274.08,113.42,290,102,290,102a172.58,172.58,0,0,1,14.6-36c3.22-6,13.47-19.41,18.58-18.23,5.6,1.29,6.86,56.41-13,91.07-6.34,11-19.74,12.54-29.91,12.7"/><path d="M275.26,115.94a1.29,1.29,0,0,1-.13-.92,2.68,2.68,0,0,1,.27-.69,7.54,7.54,0,0,1,.75-1.12,21.09,21.09,0,0,1,1.74-1.91c1.22-1.2,2.5-2.32,3.8-3.41,2.61-2.18,5.3-4.25,8-6.25h0l-.15.22a182.86,182.86,0,0,1,8.21-22.92c1.64-3.72,3.42-7.37,5.3-11a60.19,60.19,0,0,1,6.56-10.29,44.56,44.56,0,0,1,8.56-8.74A10.89,10.89,0,0,1,321,47.46a5.17,5.17,0,0,1,1.64-.26,2.71,2.71,0,0,1,.9.18,2.16,2.16,0,0,1,.72.6,8.7,8.7,0,0,1,1.31,2.91,29.08,29.08,0,0,1,.66,3,81.49,81.49,0,0,1,1,12.17c.07,4.07-.06,8.14-.31,12.19a180.36,180.36,0,0,1-3.2,24.16,144.11,144.11,0,0,1-6.75,23.43c-1.48,3.8-3.09,7.54-4.89,11.22s-4.27,7.42-7.86,9.74a29.48,29.48,0,0,1-11.67,4.52,49.11,49.11,0,0,1-6.15.63c-2.05.05-4.1,0-6.13-.1l0-.81a92.79,92.79,0,0,0,11.89-1.76,32.42,32.42,0,0,0,10.76-4.43,27.63,27.63,0,0,0,2.3-1.73,24.42,24.42,0,0,0,2-2c.31-.36.65-.71.94-1.1l.83-1.19c.56-.78,1.06-1.69,1.57-2.54a77.11,77.11,0,0,0,5.26-10.86,141.52,141.52,0,0,0,6.8-23.2,179.85,179.85,0,0,0,3.3-24c.27-4,.41-8.08.37-12.11a82,82,0,0,0-.89-12,25.67,25.67,0,0,0-.63-2.92,8,8,0,0,0-1.13-2.62,1.15,1.15,0,0,0-1-.47,4.27,4.27,0,0,0-1.35.21,10.38,10.38,0,0,0-2.57,1.35,44,44,0,0,0-8.42,8.55,57.55,57.55,0,0,0-6.53,10.15c-1.86,3.59-3.62,7.24-5.25,10.94a181.83,181.83,0,0,0-8.11,22.85l0,.13-.11.08h0c-2.72,2-5.41,4-8,6.21-1.29,1.09-2.56,2.2-3.75,3.37a20.67,20.67,0,0,0-1.68,1.84,7.42,7.42,0,0,0-.67,1,1.06,1.06,0,0,0-.18.79Z"/><path class="cls-12" d="M299.21,136.84a27.66,27.66,0,0,1,3-26.91c-4.45-3.26-3.9-10-2.43-15.33a94.64,94.64,0,0,1,19.1-35.91c3.72,16.09,1.21,33.73-6.23,48.48C307.74,116.82,300.91,126.17,299.21,136.84Z"/><path class="cls-11" d="M201.79,117.77c1.81-2.09-12.46-15.5-12.46-15.5a172.4,172.4,0,0,0-9.8-37.64c-2.41-6.38-10.84-21-16.05-20.49-5.72.55-14.13,55.05,1.1,92,4.85,11.78,17.94,15,28,16.48"/><path d="M201.49,117.5a1.11,1.11,0,0,0-.08-.81,7.49,7.49,0,0,0-.53-1.06,23.4,23.4,0,0,0-1.43-2c-1-1.32-2.14-2.58-3.28-3.82-2.29-2.48-4.68-4.88-7.12-7.2h0l-.1-.1,0-.14a180.4,180.4,0,0,0-5.08-23.7q-1.69-5.82-3.79-11.53a56.68,56.68,0,0,0-5.14-10.92,44.25,44.25,0,0,0-7.23-9.58,10.1,10.1,0,0,0-2.38-1.68c-.85-.36-1.87-.68-2.41,0a8.09,8.09,0,0,0-1.48,2.45,26.91,26.91,0,0,0-1,2.82A81.72,81.72,0,0,0,158,62c-.57,4-1,8-1.22,12.06a179.89,179.89,0,0,0,.13,24.24,142,142,0,0,0,3.71,23.92,92.83,92.83,0,0,0,3.62,11.53c.37.93.72,1.89,1.17,2.77l.65,1.33c.23.43.52.84.77,1.26a18.85,18.85,0,0,0,3.9,4.39A31.55,31.55,0,0,0,181,149.06c3.78,1.25,7.7,2,11.61,3.15l-.12.81a34.89,34.89,0,0,1-6.12-.62,46,46,0,0,1-5.95-1.64,30.06,30.06,0,0,1-10.73-6.21,24.73,24.73,0,0,1-6.52-10.45,107.66,107.66,0,0,1-3.58-11.67A143.09,143.09,0,0,1,156,98.34,179.88,179.88,0,0,1,155.89,74c.27-4,.67-8.1,1.25-12.12a83.26,83.26,0,0,1,2.52-11.95,27.92,27.92,0,0,1,1.05-2.9,8.59,8.59,0,0,1,1.66-2.71,2.17,2.17,0,0,1,.78-.49,2.59,2.59,0,0,1,.9-.06,4.84,4.84,0,0,1,1.58.47A10.72,10.72,0,0,1,168.2,46a44.94,44.94,0,0,1,7.35,9.77,59.49,59.49,0,0,1,5.18,11c1.4,3.81,2.69,7.66,3.84,11.56a180.69,180.69,0,0,1,5.16,23.79l-.12-.23h0c2.46,2.34,4.86,4.73,7.16,7.23,1.15,1.25,2.27,2.53,3.33,3.88a22.88,22.88,0,0,1,1.48,2.12,8.4,8.4,0,0,1,.6,1.2,3.13,3.13,0,0,1,.17.73,1.3,1.3,0,0,1-.25.9Z"/><path class="cls-12" d="M175.65,135.65a27.7,27.7,0,0,0,.56-27.07c4.84-2.65,5.17-9.42,4.39-14.88a94.51,94.51,0,0,0-14.27-38.09c-5.77,15.47-5.58,33.29-.12,48.88C169.79,114.69,175.35,124.84,175.65,135.65Z"/><path class="cls-11" d="M305.36,349.36a7.79,7.79,0,0,1,1.58,3.11c6.9,60.47-148.25,58.65-139.77-3.11a2.09,2.09,0,0,1-.59-.17c-11.93-4.93-22.35-99.7-3.27-136,2-10.16,1-27,7.39-43.41,6.57-16.83,16.06-43,29.09-60.49,15.66-21,45.23-26.45,73.88.93,13.85,8.31,30.46,44.79,32.24,60A328.05,328.05,0,0,0,312,205.76C328.61,241.78,323.61,354.25,305.36,349.36Z"/><path d="M305.69,349.6a.21.21,0,0,0,.15-.23s0,0,0,0l0,0,.05.07.21.31.42.65a6.06,6.06,0,0,1,.69,1.45,10.34,10.34,0,0,1,.21,1.56c.05.51.07,1,.1,1.52a30.73,30.73,0,0,1-.32,6.06A29.54,29.54,0,0,1,303,372.32a37,37,0,0,1-8.1,9,54.87,54.87,0,0,1-10.2,6.46,88.84,88.84,0,0,1-22.91,7.35,130.36,130.36,0,0,1-47.91-.3A93.2,93.2,0,0,1,191,387.35c-7.19-3.54-14-8.33-18.73-15a31.37,31.37,0,0,1-5-11,33.19,33.19,0,0,1-.49-12.08l.35.46a4.12,4.12,0,0,1-2.11-1.18,10.06,10.06,0,0,1-1.43-1.78,24.45,24.45,0,0,1-2-4,67.56,67.56,0,0,1-2.75-8.4,164.41,164.41,0,0,1-3.42-17.28,290.1,290.1,0,0,1-2.91-35.07,252,252,0,0,1,1.46-35.17A145.81,145.81,0,0,1,157,229.56a74.63,74.63,0,0,1,6-16.6h0l0,.11c.72-4,1-8.08,1.34-12.15s.7-8.17,1.28-12.23A94,94,0,0,1,168,176.61,114.16,114.16,0,0,1,172.05,165c5.89-15.25,11.87-30.58,20-44.85a117.72,117.72,0,0,1,6.67-10.36,47.59,47.59,0,0,1,8.4-9.08,42.55,42.55,0,0,1,10.55-6.48,41.35,41.35,0,0,1,12-3,44.22,44.22,0,0,1,12.37.63,52.65,52.65,0,0,1,11.77,3.84,75.74,75.74,0,0,1,20.2,14.1l-.1-.08c3.88,2.4,6.84,5.81,9.59,9.27a102.27,102.27,0,0,1,7.34,11,155.51,155.51,0,0,1,11.24,24,92.59,92.59,0,0,1,3.79,12.72c.22,1.09.41,2.19.55,3.3l.4,3.27c.27,2.18.55,4.36.87,6.53,1.22,8.69,2.9,17.3,4.8,25.89l0-.12A86.46,86.46,0,0,1,318,223.59c1.27,6.16,2.17,12.38,2.85,18.63a327.92,327.92,0,0,1,1.71,37.6,304.24,304.24,0,0,1-2.51,37.55,134.17,134.17,0,0,1-3.7,18.49,44.42,44.42,0,0,1-3.47,8.82,13.86,13.86,0,0,1-2.93,3.83,6.17,6.17,0,0,1-2.18,1.23,4.79,4.79,0,0,1-1.92.14l-.16,0s0,0,0,0A.29.29,0,0,0,305.69,349.6Zm-.66-.47a1.67,1.67,0,0,1,.55-.11,2.19,2.19,0,0,1,.28,0l.13,0a3.14,3.14,0,0,0,.53,0,3.31,3.31,0,0,0,1-.15,5.21,5.21,0,0,0,1.88-1.07,13.06,13.06,0,0,0,2.74-3.61,43,43,0,0,0,3.37-8.65,131.44,131.44,0,0,0,3.63-18.37,304.08,304.08,0,0,0,2.43-37.44,328.08,328.08,0,0,0-1.8-37.48c-.69-6.21-1.59-12.41-2.87-18.52A86.21,86.21,0,0,0,311.47,206l0-.06v-.06c-1.92-8.58-3.63-17.24-4.87-26-.33-2.18-.61-4.36-.89-6.55s-.48-4.35-.95-6.47A91.51,91.51,0,0,0,301,154.37a158.5,158.5,0,0,0-11.13-23.75,101.21,101.21,0,0,0-7.22-10.93c-2.69-3.4-5.61-6.75-9.24-9l-.06,0-.05,0A74.37,74.37,0,0,0,253.4,96.7a51.52,51.52,0,0,0-11.5-3.79,42.82,42.82,0,0,0-12.06-.63,39.7,39.7,0,0,0-11.69,2.94,41.65,41.65,0,0,0-10.31,6.3,46.52,46.52,0,0,0-8.23,8.87A117.43,117.43,0,0,0,193,120.65c-8.15,14.16-14.15,29.43-20.07,44.67a116.15,116.15,0,0,0-4.07,11.53,95,95,0,0,0-2.45,12c-.57,4-.94,8.1-1.29,12.18s-.64,8.17-1.38,12.23v.06l0,.06h0a73.55,73.55,0,0,0-5.9,16.41,144.26,144.26,0,0,0-3,17.26,250.15,250.15,0,0,0-1.47,35.05,290.31,290.31,0,0,0,2.9,35,164.27,164.27,0,0,0,3.41,17.19,66,66,0,0,0,2.71,8.3,23.91,23.91,0,0,0,2,3.84c.76,1.16,1.76,2.36,3,2.6l.4.08-.06.38a32.41,32.41,0,0,0,.48,11.78,30.39,30.39,0,0,0,4.89,10.71c4.61,6.48,11.31,11.21,18.42,14.71A92.85,92.85,0,0,0,214,394a127.5,127.5,0,0,0,23.79,2.36,125.84,125.84,0,0,0,23.81-2.07,88.48,88.48,0,0,0,22.7-7.27,54.47,54.47,0,0,0,10.05-6.36,36.34,36.34,0,0,0,7.92-8.77,28.77,28.77,0,0,0,4.11-11,29.93,29.93,0,0,0,.31-5.91c0-.49,0-1-.1-1.48a8.21,8.21,0,0,0-.18-1.4,4.77,4.77,0,0,0-.6-1.25l-.4-.62-.21-.31-.05-.07,0,0-.06-.12A.81.81,0,0,1,305,349.13Z"/><path class="cls-13" d="M239.22,89.78c-10.79-2.55-23.14-1.13-31.33,6.34-6.74,6.15-10.22,15.82-18.27,20.1a43.72,43.72,0,0,0,13-5.12l-6.26,15c8.3-7.5,16.81-15.12,27.09-19.51s22.84-5,32.15,1.15c2.74,1.83,8,6.61,11.43,3.45,2.41-2.2.55-5.83-1.08-7.91C260.49,96.25,247.57,91.76,239.22,89.78Z"/><path class="cls-14" d="M311.26,1.68a2,2,0,0,1,1.82,2.94,31.09,31.09,0,0,0-2.22,5.77c-1.48,5.29-6.06,114.84-6.72,130.87a2,2,0,0,1-2,2H179.18a2,2,0,0,1-2-1.94c-.76-16.23-6.13-128.89-7.57-132.89a16.9,16.9,0,0,0-.73-1.71,3.45,3.45,0,0,1,3.07-5Z"/><rect class="cls-15" x="172.96" y="116.98" width="134.97" height="19.95"/><path d="M173.29,136.6l134.64-.13-.47.47V117l.47.47H173l.47-.47c.16,1.64.23,3.25.28,4.85s0,3.2,0,4.81-.07,3.24-.15,4.9S173.41,134.87,173.29,136.6Zm-.66.67c-.12-1.59-.2-3.24-.27-4.91s-.13-3.37-.16-5.08,0-3.44,0-5.16.12-3.44.28-5.14l0-.47H308.4v20.9h-.47Z"/><path class="cls-14" d="M323.2,147.77h-.45c-51.61-3.35-107.33-3-165.95,0,0,0-2.48-13.66-1.3-18.88,3.07-.34,3.52,4.37,5.73,6.17a10.6,10.6,0,0,0,4,1.88H314.8a10.72,10.72,0,0,0,4-1.88c2.2-1.8,2.54-5.79,5.72-6.17C325.68,134.11,323.2,147.77,323.2,147.77Z"/><path class="cls-11" d="M223.05,198.87c-6.15-50.25,5.38-70.4,19.29-115.68,6,41.74,8,64.55,16.31,115.68C246.32,216.12,234.42,217.58,223.05,198.87Z"/><path d="M222.62,199A208,208,0,0,1,221,169.28a151.62,151.62,0,0,1,3.59-29.48c2.13-9.69,5.15-19.13,8.2-28.53S239,92.5,241.89,83.05l.61-2,.29,2c2.78,19.28,5.18,38.61,7.74,57.91s5.44,38.55,8.57,57.77l0,.19-.11.15h0a42,42,0,0,1-7.54,9,23.08,23.08,0,0,1-4.93,3.39,14.9,14.9,0,0,1-5.88,1.57,13.08,13.08,0,0,1-6-1.23,20,20,0,0,1-4.93-3.42,32.13,32.13,0,0,1-3.91-4.43A55,55,0,0,1,222.62,199Zm.87-.31c1,1.49,2.1,3.11,3.29,4.6a34.7,34.7,0,0,0,3.89,4.14,18.28,18.28,0,0,0,4.63,3.07,11.9,11.9,0,0,0,5.3,1,13.34,13.34,0,0,0,5.24-1.45,25.17,25.17,0,0,0,4.63-3.14,49.35,49.35,0,0,0,4.08-4c1.27-1.42,2.5-2.89,3.72-4.39h0l-.08.34q-4.71-28.83-8.57-57.8c-2.57-19.3-5-38.62-7.74-57.89l.9.07c-2.91,9.45-6.05,18.83-9.13,28.22s-6.07,18.81-8.18,28.45a150.45,150.45,0,0,0-3.57,29.3A211.73,211.73,0,0,0,223.49,198.72Z"/><path d="M227.55,212.81a21.77,21.77,0,0,0,4.14,1.61,21.09,21.09,0,0,0,4.38.66,21.65,21.65,0,0,0,8.65-1.41,29.68,29.68,0,0,0,7.63-4.49c.57-.48,1.15-1,1.73-1.42l1.63-1.56c1.11-1,2-2.19,3.12-3.27l.71.55-1.4,1.85-.7.92c-.24.3-.52.57-.78.86l-1.59,1.7q-.85.8-1.74,1.56a27.42,27.42,0,0,1-8.05,4.78,21.54,21.54,0,0,1-9.3,1.32,20.1,20.1,0,0,1-4.62-.9,20.64,20.64,0,0,1-4.26-2Z"/><path d="M195.28,177.58l1.3,34.92a4.41,4.41,0,0,1-4.28,4.8,4.93,4.93,0,0,1-4.57-4.92l-.36-13.07c3,0,5.25-5.69,5-12.68a22.57,22.57,0,0,0-2-9Z"/><path d="M281.17,177.59l1.29,34.92a4.39,4.39,0,0,1-4.27,4.79,4.92,4.92,0,0,1-4.57-4.92l-.36-13.06c3,0,5.25-5.7,5-12.69a22.62,22.62,0,0,0-2-9Z"/><path class="cls-16" d="M173.69,353.8a74.58,74.58,0,0,0,119.64-2.08"/><path class="cls-11" d="M175.9,246.21c-2.64,10-5.11,18-6.29,28.33-.9,7.79-.65,11.5-8.7,15.73a4.25,4.25,0,0,0-1.87,1.4,2.59,2.59,0,0,0,.44,2.78,11.07,11.07,0,0,0,2.31,1.87c6.17,4.41,6.65,14.61,7.52,21.41,1.34,10.4,4,20.69,6.14,31,.62,3,3.56,4.9,4.14,7.92,6,31.49,101.82,34.77,104.3,2.9.89-11.41,13.49-25.35,14.71-32.87.66-4.06-1.59-14.61-1.22-18.7.33-3.68.62-6.27,3.39-9a19.76,19.76,0,0,0,3.92-4.41,3.53,3.53,0,0,0,.48-2.38c-.29-1.37-1.68-2.15-2.83-2.94a11.86,11.86,0,0,1-4.09-4.41c-.75-1.69-.5-3.89-.63-5.74-.33-4.59,1.94-2.7,1.29-7.25-1.35-9.38-6.94-17.41-13.53-24.62C269.16,225.93,214.42,185.39,175.9,246.21Z"/><path d="M176.32,246.39l-2.77,11.12c-.93,3.72-1.74,7.46-2.36,11.23q-.48,2.82-.81,5.67c-.22,1.9-.37,3.81-.68,5.76a19.38,19.38,0,0,1-.68,2.93,11.35,11.35,0,0,1-1.37,2.77,15.12,15.12,0,0,1-4.53,4c-.82.52-1.74,1-2.54,1.42s-1.12.85-1,1.55a3,3,0,0,0,1.25,1.88c.35.28.73.54,1.13.82a15,15,0,0,1,1.19.95,14,14,0,0,1,3.48,4.9,27.59,27.59,0,0,1,1.78,5.62c.82,3.81,1.07,7.68,1.56,11.47s1.14,7.58,1.87,11.35,1.6,7.51,2.43,11.27l1.25,5.63a22.28,22.28,0,0,0,.66,2.73,10.56,10.56,0,0,0,1.38,2.4c.56.77,1.16,1.54,1.67,2.4a7.66,7.66,0,0,1,.65,1.39c.18.49.27,1,.39,1.44a16.19,16.19,0,0,0,2.21,5.1,22,22,0,0,0,3.63,4.25,32.92,32.92,0,0,0,4.5,3.36,52.29,52.29,0,0,0,10.21,4.79,80.52,80.52,0,0,0,10.93,3,129.32,129.32,0,0,0,22.55,2.52,114.81,114.81,0,0,0,22.61-1.53,61.84,61.84,0,0,0,10.91-2.93,33.22,33.22,0,0,0,9.74-5.47,16.09,16.09,0,0,0,5.67-9.31l.41-2.85.1-.73.19-.71.36-1.43a45.28,45.28,0,0,1,2.1-5.44c1.62-3.52,3.54-6.87,5.46-10.2a84.28,84.28,0,0,0,5.24-10.16l.45-1.31c.12-.43.2-.87.3-1.31a13.47,13.47,0,0,0,.08-2.71c-.11-1.87-.37-3.76-.62-5.66s-.56-3.8-.76-5.74c-.11-1-.2-1.94-.25-2.94,0-.51,0-1,0-1.55s.07-1,.12-1.48a14.14,14.14,0,0,1,1.62-6,11.63,11.63,0,0,1,2-2.51c.72-.69,1.43-1.33,2.06-2a9.73,9.73,0,0,0,1.58-2,2.4,2.4,0,0,0,.41-1.83c-.25-1-2.36-1.93-3.88-3.31a13.14,13.14,0,0,1-2.13-2.32,6.94,6.94,0,0,1-1.29-3.11,21.68,21.68,0,0,1-.18-3c0-.48,0-.93,0-1.38a12.35,12.35,0,0,1,0-1.61,5.44,5.44,0,0,1,.43-1.77,14.89,14.89,0,0,1,.76-1.29,4,4,0,0,0,.16-2.18,32.89,32.89,0,0,0-1.22-5.4c-2.32-7.11-6.93-13.32-12-18.93l0,0,0,0a84.78,84.78,0,0,0-11.23-11.82,103.11,103.11,0,0,0-13.1-9.79c-9.23-5.76-19.58-10-30.42-11a48.38,48.38,0,0,0-16.13,1.16,49.84,49.84,0,0,0-14.89,6.43C189.56,228.73,182.25,237.35,176.32,246.39Zm-.83-.36,2.32-3.5,1.17-1.75c.39-.58.83-1.11,1.24-1.67l2.52-3.3c.89-1.07,1.83-2.1,2.74-3.14a64.91,64.91,0,0,1,12.52-11,51.29,51.29,0,0,1,15.24-6.84,50.17,50.17,0,0,1,16.69-1.34c11.2,1,21.85,5.24,31.33,11a100,100,0,0,1,13.43,9.91,86.45,86.45,0,0,1,11.55,12.1l-.06-.07c5.21,5.7,10.05,12.11,12.55,19.7a34.49,34.49,0,0,1,1.33,5.83,9.52,9.52,0,0,1,.08,1.63,4.26,4.26,0,0,1-.47,1.84c-.32.6-.59.91-.7,1.19a3.26,3.26,0,0,0-.23,1,10.76,10.76,0,0,0,0,1.27c0,.51.05,1,.06,1.5a19.09,19.09,0,0,0,.16,2.71,7,7,0,0,0,2.68,4.07,19,19,0,0,0,2.22,1.63,8.35,8.35,0,0,1,1.28,1,4.28,4.28,0,0,1,1.06,1.64,3.85,3.85,0,0,1,.08,2,6.24,6.24,0,0,1-.65,1.65,12.32,12.32,0,0,1-1.94,2.51c-.71.73-1.43,1.38-2.1,2a10.41,10.41,0,0,0-1.6,2,12.15,12.15,0,0,0-1.37,5.06c-.05.45-.11,1-.14,1.39a11.65,11.65,0,0,0,0,1.33c0,.92.07,1.86.16,2.81l.54,5.72c.18,1.93.36,3.85.39,5.83a14.29,14.29,0,0,1-.22,3c-.13.5-.25,1-.4,1.49l-.54,1.4a89.85,89.85,0,0,1-5.7,10.13A97.44,97.44,0,0,0,287.16,350c-.42.86-.74,1.76-1.11,2.63s-.6,1.8-.88,2.71l-.32,1.37-.17.69-.08.7-.18,1.39-.17,1.48a16.38,16.38,0,0,1-2,5.61,20.62,20.62,0,0,1-3.72,4.64,35.06,35.06,0,0,1-9.94,6.35,62.81,62.81,0,0,1-11.16,3.66,83.94,83.94,0,0,1-11.56,1.91c-1.95.2-3.89.31-5.84.41s-3.91.09-5.86.05a100.78,100.78,0,0,1-23.18-3c-7.54-2-15-4.77-21.45-9.31a28.57,28.57,0,0,1-8.15-8.49,18.6,18.6,0,0,1-2.18-5.51c-.13-.5-.19-.93-.33-1.34a7.51,7.51,0,0,0-.54-1.24c-.45-.8-1-1.56-1.57-2.36a12,12,0,0,1-1.47-2.6,23.8,23.8,0,0,1-.69-2.87l-1.22-5.63L171,330c-.79-3.77-1.51-7.56-2.05-11.38s-.88-7.65-1.75-11.35-2.25-7.32-5-9.71c-.36-.28-.68-.58-1.07-.84s-.81-.54-1.22-.87a4.38,4.38,0,0,1-1.8-2.83,2.72,2.72,0,0,1,.41-1.88,3.76,3.76,0,0,1,1.35-1.15c.89-.48,1.67-.9,2.48-1.4a13.62,13.62,0,0,0,4-3.61,10.78,10.78,0,0,0,1.18-2.38,17.76,17.76,0,0,0,.64-2.68c.31-1.85.47-3.77.71-5.69s.52-3.83.85-5.74c.68-3.81,1.59-7.57,2.58-11.29.49-1.87,1-3.72,1.56-5.57Z"/><path class="cls-11" d="M290.18,242.24l.11.14c1.33,1.69,5.83,4.34,6,6.58.47,4.8-6.39,2.54-8.45,1.16-16.21-10.87-32.19-23.86-51.51-26.6-21.25-3-43.08,7.76-56.3,24.66a11.81,11.81,0,0,1-3.34,3.34,3.68,3.68,0,0,1-4.4-.36c-1.1-1.21-.87-3.11-.39-4.67,1.64-5.37,5.21-9.93,9-14,8.11-8.71,18-16.21,29.57-19.15,10.55-2.68,21.71-1.38,32.36.88,10,2.14,20,5.17,28.82,10.37a51.59,51.59,0,0,1,11.85,9.78c3.44,3.74,7.67,8.13,9.87,12.73a7.69,7.69,0,0,1,.59,5.67A4.69,4.69,0,0,1,289.7,256c-2.07-.09-3.68-1.81-4.92-3.48a45.69,45.69,0,0,1-5.52-9.74"/><path class="cls-17" d="M195.41,262.9c-10.31-52.35,1.15-130.58,32.08-203.52,13.27,67.24,13.58,150.25,27.57,203.52C234.4,280.86,214.45,282.38,195.41,262.9Z"/><path d="M194.87,263.18l-1.11-6.56-.55-3.28c-.18-1.09-.26-2.17-.39-3.25l-.71-6.51c-.14-1.08-.21-2.16-.27-3.25l-.19-3.27c-.12-2.17-.28-4.35-.37-6.52l-.1-6.54c-.13-4.36,0-8.71.16-13.07A369,369,0,0,1,197.05,159a457.76,457.76,0,0,1,12.21-50.76,486.5,486.5,0,0,1,17.68-49.13l.76-1.82.38,1.94c3.32,16.83,5.69,33.82,7.72,50.83s3.65,34.07,5.31,51.12,3.32,34.09,5.48,51.06,4.81,33.91,9,50.47h0l.09.36-.28.25a67.64,67.64,0,0,1-13.88,9.85,39.18,39.18,0,0,1-16.5,4.64,33,33,0,0,1-16.68-4,35.34,35.34,0,0,1-3.7-2.2l-1.76-1.23c-.3-.2-.6-.4-.88-.61l-.82-.69-1.64-1.38a17.87,17.87,0,0,1-1.61-1.44Zm1.07-.56a57.28,57.28,0,0,0,13.26,9.66A32.12,32.12,0,0,0,225,276a38.77,38.77,0,0,0,15.79-4.28,74,74,0,0,0,13.86-9.24l-.19.6h0c-4.26-16.64-6.89-33.62-9.08-50.61s-3.82-34.06-5.48-51.11-3.3-34.09-5.31-51.09-4.4-33.95-7.7-50.74l1.15.12a487.3,487.3,0,0,0-17.64,49,458.7,458.7,0,0,0-12.17,50.63A365.42,365.42,0,0,0,192.55,211c-.11,4.33-.3,8.67-.16,13l.1,6.5c.09,2.17.24,4.33.36,6.5l.2,3.25c0,1.08.12,2.16.26,3.24l.71,6.46c.13,1.07.21,2.16.38,3.22l.52,3.15Z"/><path class="cls-11" d="M266.74,336.9c6.78,7.88-60.92,8.81-66.49,0"/><path d="M267.05,336.63a1.91,1.91,0,0,1,1.12,1.17,2.53,2.53,0,0,1-.26,2,6.9,6.9,0,0,1-2.09,2.19,15,15,0,0,1-4.48,2,33.3,33.3,0,0,1-4.55.84c-1.51.2-3,.35-4.51.48a153.31,153.31,0,0,1-17.92.31,140.14,140.14,0,0,1-17.8-1.81,70.58,70.58,0,0,1-8.77-2.06,29.55,29.55,0,0,1-4.25-1.68,12.47,12.47,0,0,1-2-1.2,5.35,5.35,0,0,1-1.64-1.79l.69-.43a8,8,0,0,0,3.57,1.88,30.58,30.58,0,0,0,4.19.9c2.83.49,5.74.68,8.63.89,5.79.34,11.62.42,17.43.3s11.63-.39,17.36-.93c1.43-.14,2.85-.3,4.26-.5s2.79-.45,4.16-.63,2.72-.32,4-.45c.61-.06,1.21-.16,1.59-.19.19,0,.3.08.49,0s.21-.41.19-.79Z"/><path d="M193.86,265.12a40.25,40.25,0,0,0,14,10.6A38.3,38.3,0,0,0,225,278.91a47.37,47.37,0,0,0,17-4.15,66.18,66.18,0,0,0,15.08-9.41l.81.88A55.64,55.64,0,0,1,243,276.88a44.61,44.61,0,0,1-17.91,4.5,38.24,38.24,0,0,1-18.1-3.74c-1.39-.68-2.7-1.53-4.05-2.28s-2.5-1.83-3.73-2.76l-3.34-3.2-2.94-3.54Z"/><path d="M302.7,292.37a4,4,0,0,1-2.82,2.06,29.23,29.23,0,0,0-3.47.71c-2.05.76-3.81,2.79-6,2.69a4.15,4.15,0,0,1-3.12-2,12.06,12.06,0,0,1-1.43-3.69C283.51,282.7,299.91,289.87,302.7,292.37Z"/><path d="M161.91,292.37a4,4,0,0,0,2.83,2.06,29.49,29.49,0,0,1,3.46.71c2.05.76,3.81,2.79,6,2.69a4.15,4.15,0,0,0,3.12-2,11.81,11.81,0,0,0,1.43-3.69C181.11,282.7,164.71,289.87,161.91,292.37Z"/><path class="cls-18" d="M280.8,291a11.41,11.41,0,0,0,9.35,10.35"/><path class="cls-18" d="M184.76,288.1a10.37,10.37,0,0,1-3,8.81,20.5,20.5,0,0,1-8.23,4.89"/><rect class="cls-19" x="180.98" y="155.11" width="24.77" height="4.56" rx="2.27"/><rect class="cls-19" x="265.02" y="155.11" width="24.77" height="4.56" rx="2.27"/><path class="cls-13" d="M310.63,202.9c3.21,15.79,5.76,36.06,1.35,53.61l6.65,1.57,2.73-3.51S317.53,211.3,310.63,202.9Z"/><path class="cls-13" d="M163.44,213.06c-3.21,15.79-5.77,36.06-1.36,53.61l-6.65,1.56-2.72-3.5S156.53,221.46,163.44,213.06Z"/><path class="cls-9" d="M319.68,399.51l-39.17,12.68-8.11,2.62L238.83,395l69.44-43.36s8.44,12.55,9.9,24A217,217,0,0,1,319.68,399.51Z"/><path class="cls-9" d="M237.11,395.48,199.69,415,190.26,412l-37.85-12.24s.74-10.85,2.38-22.13c1.75-11.88,8.52-24.9,8.52-24.9Z"/></svg>