<svg id="Layer_1" data-name="Layer 1" xmlns="http://www.w3.org/2000/svg" xmlns:xlink="http://www.w3.org/1999/xlink" viewBox="0 0 480 480"><defs><style>.cls-1,.cls-14,.cls-15,.cls-19{fill:none;}.cls-2{clip-path:url(#clip-path);}.cls-13,.cls-3{fill:#9a9c8f;}.cls-11,.cls-19,.cls-3,.cls-4,.cls-5{stroke:#000;}.cls-11,.cls-14,.cls-15,.cls-19,.cls-24,.cls-3,.cls-4,.cls-5{stroke-miterlimit:10;}.cls-3,.cls-4{stroke-width:1.49px;}.cls-4{fill:#f1f3f4;}.cls-5,.cls-9{fill:#e3e1e2;}.cls-19,.cls-5{stroke-width:2.71px;}.cls-6{clip-path:url(#clip-path-2);}.cls-11,.cls-7{fill:#4d3928;}.cls-8{fill:#a3a28c;}.cls-10{fill:#4d4c4c;opacity:0.5;}.cls-11{stroke-width:2.81px;}.cls-12{fill:#9c6044;}.cls-14{stroke:#828282;}.cls-14,.cls-15{stroke-width:0.8px;}.cls-15{stroke:#99582e;}.cls-16{fill:#4d4e48;}.cls-17{fill:#999;}.cls-18{clip-path:url(#clip-path-3);}.cls-20{fill:#503629;}.cls-21{fill:#59a28c;}.cls-22{fill:#030805;}.cls-23{clip-path:url(#clip-path-4);}.cls-24{fill:#dfcfb4;stroke:#161413;stroke-width:3.63px;}</style><clipPath id="clip-path"><rect class="cls-1" x="26.17" y="26.17" width="427.65" height="427.65" rx="150.64" transform="translate(240 -99.41) rotate(45)"/></clipPath><clipPath id="clip-path-2"><polygon class="cls-1" points="184.96 399.67 290.07 399.67 300.55 230.75 174.48 230.75 184.96 399.67"/></clipPath><clipPath id="clip-path-3"><path class="cls-1" d="M200.51,228.82l2.82,4s.94,75.69,3.29,83.68-5.17,13-6.11,17.8,3.73,12.76,8,17,2,6.58.54,8-.53,5.64,4.65,6.11,8.49,7.05,21.79,7.05,16-8.34,19.23-8.34,6-4.35,3.17-6.23-2.83-6.05,1.95-7.26,12.63-11.69,9.81-16.32S261.39,323.07,262,316s5.29-84.62,5.29-84.62l5.43-4.73"/></clipPath><clipPath id="clip-path-4"><rect class="cls-1" x="26.17" y="-463.83" width="427.65" height="427.65" rx="150.64" transform="translate(-106.48 -242.93) rotate(45)"/></clipPath></defs><title>ZEBRA</title><g class="cls-2"><path class="cls-3" d="M98.71,399.67V608.86H381.29V399.67c-78.53-32.5-72.32-62-143.78-61.85C167.7,338,175.13,370.2,98.71,399.67ZM237.26,593.56,170.94,390.89H304.13Z"/><polygon class="cls-4" points="304.1 394.07 271.78 489.8 268.18 500.46 267.39 502.79 263.78 513.48 243.78 572.68 237.23 592.07 231.58 575.21 222.1 546.91 206.45 500.14 202.68 488.92 170.91 394.07 304.1 394.07"/><polygon class="cls-5" points="184.96 399.67 290.07 399.67 300.55 230.75 174.48 230.75 184.96 399.67"/><g class="cls-6"><path class="cls-7" d="M306.4,286.85a73.06,73.06,0,0,1-23.49,19.89A96.57,96.57,0,0,1,253.58,317a122.18,122.18,0,0,1-31,1.42,147.09,147.09,0,0,1-30.25-5.51c10.18,1,20.31,1.86,30.4,2a161.33,161.33,0,0,0,30-2.36,116.66,116.66,0,0,0,28.53-8.95A98.83,98.83,0,0,0,306.4,286.85Z"/><path class="cls-7" d="M161.45,322.18c4,2.39,8.3,3.64,12.7,4.78s8.81,2.11,13.25,2.92a261.21,261.21,0,0,0,27,3.09c4.52.31,9.06.55,13.61.79s9.13.45,13.65.66c9,.32,18.09.2,27-2.26a48.44,48.44,0,0,1-13.14,4.4A90.83,90.83,0,0,1,241.63,338c-9.22.26-18.36.15-27.58-.46a156.18,156.18,0,0,1-27.39-4.17,104.9,104.9,0,0,1-13.21-4.28C169.21,327.35,164.8,325.4,161.45,322.18Z"/><path class="cls-7" d="M310,342.81l-3.46,1.86a32.14,32.14,0,0,1-3.56,1.69c-2.44,1-4.88,2.05-7.4,2.78s-5,1.59-7.61,2.17-5.13,1.24-7.72,1.67a195.88,195.88,0,0,1-31.39,3.16,220.68,220.68,0,0,1-31.48-1.6c-10.41-1.32-20.83-3.35-30.62-7.14a249.5,249.5,0,0,0,31,3.59c10.34.62,20.7.79,31,.59s20.68-.85,30.94-2.1c1.28-.17,2.58-.25,3.85-.49s2.54-.42,3.82-.6,2.58-.33,3.83-.62L295,347c2.57-.41,5-1.2,7.55-1.81a31.41,31.41,0,0,0,3.72-1.15Z"/><path class="cls-7" d="M159.23,354.38c8.62,2.1,17.15,4.22,25.71,6.1s17.17,3.52,25.8,4.95,17.31,2.62,26,3.58,17.48,1.7,26.31,2.48a164.78,164.78,0,0,1-26.56,1.07,206.54,206.54,0,0,1-52.46-8.65A165.26,165.26,0,0,1,159.23,354.38Z"/><path class="cls-7" d="M318.89,365.78a51.58,51.58,0,0,1-13.85,8.9,95.79,95.79,0,0,1-15.64,5.41,176.29,176.29,0,0,1-32.56,4.83,252.47,252.47,0,0,1-32.78-.18,210.39,210.39,0,0,1-32.38-4.59c10.91,0,21.72,0,32.52-.12s21.55-.43,32.27-1.08a300.78,300.78,0,0,0,31.93-3.45A136.16,136.16,0,0,0,304,371.94,69.89,69.89,0,0,0,318.89,365.78Z"/></g><path class="cls-8" d="M271.78,489.8l-3.6,10.66-24.4,72.22-6.55,19.39-5.65-16.86-9.48-28.3-19.42-58c2.62-21.62,5.12-40.74,6.09-43a61.68,61.68,0,0,1,3.14-5.79c2.57-4.32,6.05-9.79,8.77-14,2.36-3.66,4.13-6.32,4.13-6.32l11.76-3.19.62-.16.6.16,11.76,3.19s1.76,2.66,4.13,6.32c4.24,6.53,10.42,16.27,11.91,19.75C266.58,448.21,269.14,467.82,271.78,489.8Z"/><polygon class="cls-8" points="214.2 407.9 226.47 421.73 251.73 421.73 263.25 407.9 247.75 382.46 222.96 384.68 214.2 407.9"/><path class="cls-4" d="M304.11,394.08,269.2,408.4l-7.22,3-24.19-23.13s43.45-57.09,56.15-48.18c5,1.17,7.52,14.17,8.82,27.12C304.11,380.65,304.11,394.08,304.11,394.08Z"/><path class="cls-4" d="M237.24,388.23l-24.19,23.13-8.4-3.45-33.73-13.83s.66-12.26,2.12-25c1.56-13.41,4-27.36,7.6-28.12C193.2,325.94,237.24,388.23,237.24,388.23Z"/><path class="cls-9" d="M303.19,245.53c0,39.08-31.24,65.68-69.42,64.72-36.09-.9-65.43-26.41-66-63.57-.27-17.36,5.62-28,15.58-40.33l1-9a17.43,17.43,0,0,1-.49-4.13l-2.2-12c0-7,14.07-30.39,17.75-55.19a14.35,14.35,0,0,1,14-12.49h45.68a14.27,14.27,0,0,1,14,12.25c4.08,27.12,17.49,48.3,17.49,55.43l-2.19,12a17.38,17.38,0,0,1-1.49,7.1l.67,6C297.33,218.42,303.19,228.61,303.19,245.53Z"/><path d="M304.49,245.53a70.44,70.44,0,0,1-1.65,16,64.61,64.61,0,0,1-5.36,15.23,61.66,61.66,0,0,1-21.42,24,69.57,69.57,0,0,1-14.55,7.18,75.76,75.76,0,0,1-15.76,3.66,77.31,77.31,0,0,1-32-2.74A74,74,0,0,1,199,302.41a67.15,67.15,0,0,1-12.84-9.7,63.11,63.11,0,0,1-16.54-27.18,67,67,0,0,1-2.72-15.75A64.5,64.5,0,0,1,168,233.85a54.65,54.65,0,0,1,5.48-15,114.52,114.52,0,0,1,8.76-13.35h0l-.31.73c.37-1.48.65-3,.9-4.46.14-.74.22-1.49.34-2.24s.17-1.5.2-2.25h0l0,.34a19.38,19.38,0,0,1-.38-4.36v.16l-1-6-1.07-6,0-.09v0c.06-.57.11-1.15.19-1.7l.39-1.6c.31-1,.63-2.06,1-3.07.72-2,1.51-4,2.3-5.94,1.59-3.92,3.23-7.81,4.76-11.74a162.22,162.22,0,0,0,7.62-24c.22-1,.47-2.05.65-3.08l.53-3.1.28-1.57a12.86,12.86,0,0,1,.38-1.63,16.71,16.71,0,0,1,1.25-3.11,16,16,0,0,1,4.34-5.06,15.22,15.22,0,0,1,6.12-2.71,18.87,18.87,0,0,1,3.32-.26h9.51l12.67,0,12.68,0,6.34,0h3.17a19.15,19.15,0,0,1,3.34.23,15.59,15.59,0,0,1,6.22,2.66,15.32,15.32,0,0,1,5.74,8.22,13.34,13.34,0,0,1,.39,1.66l.28,1.57c.36,2.06.71,4.12,1.2,6.16a155.88,155.88,0,0,0,7.5,24c1.55,3.92,3.19,7.79,4.83,11.7.82,2,1.63,3.92,2.37,5.94.39,1,.71,2.06,1,3.11l.4,1.65c.09.59.14,1.21.2,1.81v.08l0,.16-2.14,12,0-.25a18.87,18.87,0,0,1-1.58,7.68h0l.12-.74.67,6h0l-.31-.73c2.25,2.84,4.43,5.76,6.41,8.84a58.64,58.64,0,0,1,5.24,9.68,51.54,51.54,0,0,1,3.17,10.58A61.38,61.38,0,0,1,304.49,245.53Zm-2.59,0A51.34,51.34,0,0,0,298,225a55.81,55.81,0,0,0-5.08-9.24c-2-2.93-4.18-5.73-6.46-8.49l-.25-.31-.05-.42h0l-.67-6,0-.38.16-.36h0a16,16,0,0,0,1.4-6.52v-.13l0-.12,2.25-12,0,.24-.14-1.34-.34-1.43c-.29-1-.57-1.95-.94-2.92-.69-1.95-1.47-3.9-2.27-5.86-1.59-3.9-3.21-7.82-4.73-11.78a164,164,0,0,1-7.44-24.4c-.48-2.08-.83-4.19-1.18-6.29a28.5,28.5,0,0,0-.6-3,13.24,13.24,0,0,0-1.09-2.71,13.76,13.76,0,0,0-3.81-4.4,13.48,13.48,0,0,0-5.34-2.31,15.85,15.85,0,0,0-3-.22h-3.17l-6.34,0-12.68,0-12.67,0-6.34,0h-3.17a17.11,17.11,0,0,0-3,.22,13.29,13.29,0,0,0-5.39,2.35,14,14,0,0,0-3.87,4.47,14.16,14.16,0,0,0-1.13,2.76,11.78,11.78,0,0,0-.35,1.45c-.09.47-.18,1-.28,1.54l-.56,3.15c-.19,1.05-.45,2.08-.67,3.12A164.07,164.07,0,0,1,191,157.76c-1.56,3.94-3.22,7.83-4.83,11.73-.81,1.95-1.6,3.91-2.31,5.87a21,21,0,0,0-1.49,5.89v-.13l1.13,6,1.21,6v.15a15.92,15.92,0,0,0,.58,3.9l.05.15,0,.19h0c-.13.74-.22,1.49-.3,2.24s-.14,1.5-.17,2.26c-.08,1.51-.15,3-.11,4.54v.26l-.31.47h0a78.54,78.54,0,0,0-9.23,12.53,45.89,45.89,0,0,0-5.5,14.41,49.66,49.66,0,0,0-.92,7.7,69.63,69.63,0,0,0,.06,7.78,64.58,64.58,0,0,0,2.84,15.23A59.27,59.27,0,0,0,188,290.74a64.63,64.63,0,0,0,12.48,9,70.21,70.21,0,0,0,14.22,5.84,76.66,76.66,0,0,0,30.51,2.12,71.52,71.52,0,0,0,14.88-3.62,69,69,0,0,0,13.63-6.85,61.21,61.21,0,0,0,28.14-51.71Z"/><path class="cls-10" d="M208.39,146a28.25,28.25,0,0,1-6.62-.69c-3.8-1-7-3.48-10.12-5.89a3.13,3.13,0,0,1-1.17-1.33c-.43-1.25.77-2.43,1.87-3.16,10.9-7.32,24.58-9,37.71-9.46,9.32-.34,18.75-.18,27.84,2a53.21,53.21,0,0,1,15.77,6.39c1.75,1.09,5.34,2.74,5,5.19-.39,2.65-4.29,3-6.22,3.35a326.25,326.25,0,0,1-40.59,3.5Q220.13,146.26,208.39,146Z"/><path class="cls-11" d="M267.17,356.46c-3,5.67-11,16.07-15.26,18.1s-10.84,3.53-17.42,3.86a49.73,49.73,0,0,1-17.41-3.86c-4.3-2-13.73-12.37-16.69-18,3.79-12.69-7.55-22.34.94-24.42,1.38-.79,5.43-28.6,5.4-37.85q14,.15,28,.46c9.34-.21,16.69-.36,26-.46,1.94,10.39,6.06,37.51,7.44,38.3C276.74,334.63,263.38,343.77,267.17,356.46Z"/><path class="cls-9" d="M200.51,228.82l2.82,4s.94,75.69,3.29,83.68-5.17,13-6.11,17.8,3.73,12.76,8,17,2,6.58.54,8-.53,5.64,4.65,6.11,8.49,7.05,21.79,7.05,16-8.34,19.23-8.34,6-4.35,3.17-6.23-2.83-6.05,1.95-7.26,12.63-11.69,9.81-16.32S261.39,323.07,262,316s5.29-84.62,5.29-84.62l5.43-4.73"/><path class="cls-9" d="M214.05,122.63,197.8,137.91a10.6,10.6,0,0,1-4.13-3.35c-5.11-6.48-6.66-18.85-6.93-20.7-.17-1.18,1.22-15.36,2.63-28.74,1.28-12.46,2.57-24.26,2.57-24.26s3.26-1.3,4.56,0,15.28,43.89,15.28,43.89Z"/><path class="cls-12" d="M202.57,113.57l-8.9,21c-5.11-6.48-6.66-18.85-6.93-20.7-.17-1.18,1.22-15.36,2.63-28.74l1.81-1.58L192,82Z"/><path d="M215.36,123.1l-16.93,15.48L198,139l-.54-.24a11.35,11.35,0,0,1-4.22-3.39,24.47,24.47,0,0,1-2.7-4.48,47.77,47.77,0,0,1-3.13-9.73c-.36-1.66-.66-3.33-.93-5l-.19-1.26-.09-.63,0-.31,0-.39c0-.9.09-1.72.15-2.57.27-3.36.6-6.71.94-10l4.17-40.14,0-.35.31-.11a8.18,8.18,0,0,1,3.39-.61,2.67,2.67,0,0,1,1.82.76,4,4,0,0,1,.49.86l.33.76c.81,2,1.54,4,2.27,6l4.31,12.08,8.43,24.22,0,.08,0,.11C213.7,110.73,214.53,116.89,215.36,123.1Zm-2.62-.94c-.68-5.71-1.36-11.46-2-17.28l0,.2c-2.51-8.17-5.17-16.29-7.82-24.41-1.33-4-2.65-8.11-4.09-12.13-.71-2-1.43-4-2.21-6l-.31-.72c-.09-.2-.24-.5-.27-.54a1.62,1.62,0,0,0-1.07-.42,7.31,7.31,0,0,0-2.87.52l.35-.47-2.2,20c-.73,6.69-1.36,13.38-2,20.07-.31,3.35-.62,6.7-.86,10,0,.82-.11,1.69-.12,2.46v.24l0,.31.1.62.19,1.24c.27,1.65.61,3.28,1,4.9a46.24,46.24,0,0,0,3.27,9.35c1.46,2.87,3.4,5.73,6.22,6.87l-1,.18Z"/><path class="cls-9" d="M191.68,63.31s19.07,50.33,16.89,58.56l-2.18,8.22"/><path d="M192.13,63.14C196.34,74,200.36,84.9,204,96c1.81,5.54,3.54,11.1,4.88,16.83.32,1.44.62,2.89.84,4.37.11.75.2,1.5.25,2.28a9.84,9.84,0,0,1-.12,2.5c-.69,2.93-1.41,5.67-2.11,8.51l-2.7-.72c.77-2.77,1.6-5.64,2.31-8.34a13.51,13.51,0,0,0,0-3.9c-.17-1.39-.42-2.8-.7-4.21-1.16-5.62-2.74-11.21-4.39-16.76-3.33-11.1-7.06-22.11-11-33Z"/><path class="cls-9" d="M286.35,113.86c-.27,1.85-1.83,14.25-6.94,20.73a10.69,10.69,0,0,1-4.11,3.32L259,122.63l2.27-17.88s14-42.59,15.29-43.89,4.55,0,4.55,0,1.28,11.81,2.58,24.29C285.12,98.53,286.51,112.68,286.35,113.86Z"/><path class="cls-12" d="M285.83,113.86c-.27,1.85-1.83,14.25-6.94,20.73l-8.91-21L280.56,82l.81,1.57,1.84,1.61C284.6,98.53,286,112.68,285.83,113.86Z"/><path d="M287.73,114.05a68.09,68.09,0,0,1-3.37,13.54,30.87,30.87,0,0,1-3.24,6.31,12.65,12.65,0,0,1-5.51,4.75l-.5.2-.36-.35c-2.65-2.61-5.27-5.25-7.94-7.84l-8-7.78-.13-.12,0-.17.58-4.47c.19-1.49.39-3,.55-4.47l1-9v0l0-.06c1.27-4.08,2.53-8.16,4.07-12.15l2-6.08,2-6.1L272.75,68c.67-2,1.33-4.06,2.1-6.11l.3-.78.18-.42a1.77,1.77,0,0,1,.12-.24c.07-.13.16-.25.24-.37a3.37,3.37,0,0,1,2.21-1,9,9,0,0,1,3.75.52h0l.75.28.11.85c1.07,8.82,2,17.64,3,26.47.48,4.42.87,8.84,1.28,13.27l.58,6.64.26,3.34.1,1.68,0,.87,0,.45C287.76,113.6,287.74,113.85,287.73,114.05Zm-2.76-.39,0-.58-.05-.8-.12-1.64-.3-3.3-.66-6.61L282.43,87.5l-1.38-13.24L279.78,61l.85,1.13h0a6.85,6.85,0,0,0-2.51-.6,1.18,1.18,0,0,0-.67.16l0,0s0,.08-.06.11l-.17.3-.32.69c-.84,1.92-1.63,3.91-2.4,5.89-1.54,4-3.08,8-4.53,12l-2.14,6-2.05,6.07c-.35,1-.66,2-.92,3.06s-.63,2-1,3l-2.09,6.06,0-.1-1.3,8.92c-.23,1.48-.41,3-.6,4.47l-.55,4.47-.11-.3,8.26,7.51c2.75,2.5,5.55,5,8.32,7.44l-.86-.16a10.89,10.89,0,0,0,4.48-4.35,28.66,28.66,0,0,0,2.7-6,56.68,56.68,0,0,0,1.73-6.48C284.35,118.12,284.7,115.92,285,113.66Z"/><path class="cls-9" d="M281.42,63.31s-19.08,50.33-16.9,58.56l2.18,8.22"/><path d="M282.17,63.6c-4,10.9-7.75,21.89-11.13,33-1.68,5.54-3.29,11.12-4.47,16.73-.28,1.4-.54,2.81-.72,4.2a13.43,13.43,0,0,0-.07,3.88c.7,2.7,1.52,5.57,2.27,8.35l-2.69.72c-.72-2.84-1.45-5.57-2.16-8.5a10.44,10.44,0,0,1-.13-2.51c0-.78.13-1.54.24-2.28.21-1.49.5-2.94.82-4.38,1.31-5.74,3-11.32,4.8-16.87,3.6-11.08,7.56-22,11.73-32.88Z"/><path class="cls-13" d="M200.59,113s-9.41,7.64-8.66,18.59c-1.41,1.07-3.85,5.3-.06,7.84,1.71,1.57,3.23-2.87,10.1-6Z"/><path d="M200.49,113.26c.06.07.26,0,.23,0l0,0-.06,0-.12.11-.25.22-.47.45c-.32.31-.63.62-.92.94-.6.64-1.17,1.31-1.71,2a27,27,0,0,0-2.81,4.44,21.58,21.58,0,0,0-1.77,4.92,18.63,18.63,0,0,0-.4,5.21l.07.44a5.15,5.15,0,0,0-1.32,1.58,5,5,0,0,0-.67,2,3.25,3.25,0,0,0,.37,2,4.36,4.36,0,0,0,1.44,1.52l0,0,0,0c.58.6,1.27-.31,1.93-1a20.54,20.54,0,0,1,2.23-2.13,19.87,19.87,0,0,1,5.35-3.27h0l-.48.79c-.13-3.3-.22-6.61-.31-10S200.65,116.74,200.49,113.26Zm.2-.46c.3,3.34.65,6.72,1,10.17s.73,7,1.06,10.49l0,.53-.52.26h0a31,31,0,0,0-5,3.07c-.79.58-1.51,1.27-2.37,1.85a8.81,8.81,0,0,1-1.43.83,2,2,0,0,1-1,.17,1.52,1.52,0,0,1-.89-.45l0,0A5.22,5.22,0,0,1,190,138a4.41,4.41,0,0,1-.52-2.41,6.68,6.68,0,0,1,.64-2.37,6.19,6.19,0,0,1,1.49-2l.08.45a18.86,18.86,0,0,1,.41-5.35,21.49,21.49,0,0,1,1.8-5,26,26,0,0,1,2.87-4.52c.55-.7,1.13-1.38,1.74-2,.3-.33.61-.65.94-1l.49-.46.25-.22.13-.11.06-.06,0,0S200.61,112.75,200.69,112.8Z"/><path class="cls-13" d="M270,110.46a28.87,28.87,0,0,1,8.93,23c2,.49,3.62,9.48.13,9.57-.73,1.8-2-.2-3.36-2S270,110.46,270,110.46Z"/><path d="M269.59,109.76a.86.86,0,0,1,.66,0,.69.69,0,0,1,.27.16l0,0,0,0,.05.09.12.19c.08.12.15.25.23.36s.31.46.47.68c.32.44.66.86,1,1.28.69.83,1.43,1.63,2,2.52a27.89,27.89,0,0,1,2.91,5.77,30.17,30.17,0,0,1,1.55,6.26c.14,1.06.26,2.13.3,3.21,0,.53,0,1.07,0,1.61a2.38,2.38,0,0,0,.45,1.64l-.61-.84h0a2.31,2.31,0,0,1,.72.85,7.84,7.84,0,0,1,.35.72,9.11,9.11,0,0,1,.55,1.35,15.1,15.1,0,0,1,.63,2.8,8.76,8.76,0,0,1-.05,2.93,3.49,3.49,0,0,1-.65,1.47,2.47,2.47,0,0,1-1.59.86h0l.55-.38a2.06,2.06,0,0,1-.41.65,1.16,1.16,0,0,1-1,.41,2.22,2.22,0,0,1-1.31-.77,15.9,15.9,0,0,1-1.48-1.81,3.29,3.29,0,0,1-.38-.55,4.15,4.15,0,0,1-.25-.61c-.13-.38-.23-.75-.33-1.12-.2-.74-.37-1.48-.54-2.22-.64-3-1.19-5.92-1.73-8.89l-1.55-8.91L269.9,115l-.36-2.23-.18-1.11-.09-.56,0-.28,0-.14v0a.57.57,0,0,1,0-.17A1,1,0,0,1,269.59,109.76Zm.78,1.41a.74.74,0,0,0,.43-.63c0-.16,0-.1,0-.1v0l0,.14,0,.28.08.55.17,1.12.33,2.23.69,4.46,1.44,8.91c.5,3,1,5.92,1.62,8.85.16.73.32,1.46.5,2.18.09.36.18.71.29,1,.06.16.12.34.17.44s.17.25.26.38a21,21,0,0,0,1.34,1.72,1.54,1.54,0,0,0,.56.41s-.07,0,0,0a1.27,1.27,0,0,0,.15-.31l.11-.3.45-.09h0c.65.14,1.2-.48,1.44-1.31a8,8,0,0,0,.28-2.65,10.25,10.25,0,0,0-.52-2.69,5.33,5.33,0,0,0-.58-1.2,1.52,1.52,0,0,0-.48-.41c-.18-.07-.4-.08-.44.09h0l-.62-.84a2.05,2.05,0,0,0,.59-1.54c0-.53,0-1.06,0-1.58a23.63,23.63,0,0,0-.28-3.15,27.15,27.15,0,0,0-1.72-6.07,31,31,0,0,0-3-5.53,27.23,27.23,0,0,0-1.79-2.6,9,9,0,0,0-1.13-1.1,5,5,0,0,0-.64-.46,2.37,2.37,0,0,0-.35-.19l-.18-.09-.09,0h0s0,0,0,0a.66.66,0,0,0,.25.14A.77.77,0,0,0,270.37,111.17Z"/><path class="cls-13" d="M195.74,132.42s-1.17-37.57,39-39.36,41.94,38.86,41.94,38.86C250.41,122.49,223.48,135.42,195.74,132.42Z"/><path class="cls-14" d="M200.59,112.61c27.62-14.41,44.39-13.1,69.91-1.26"/><path class="cls-15" d="M252.85,95.72a77.74,77.74,0,0,1,2.66,28.43"/><path class="cls-15" d="M267.18,106.39a42.53,42.53,0,0,1,1,20.31"/><path class="cls-15" d="M236.2,93c1.14,10.85,2.38,20.83,1.71,30.18"/><path class="cls-15" d="M220.16,95.72a189,189,0,0,0,1.09,28.21"/><path class="cls-15" d="M204.71,106.33c-1.14,8-1.43,15.42,0,21.46"/><path d="M195.22,133.39a1,1,0,0,1-.29-.63v-.48l0-.51.06-1c0-.67.11-1.34.19-2,.16-1.33.38-2.64.65-4a46.57,46.57,0,0,1,2.25-7.65,37,37,0,0,1,8.66-13.25,35.81,35.81,0,0,1,6.31-4.81,39.74,39.74,0,0,1,7.19-3.33,52.72,52.72,0,0,1,15.55-2.73,44.67,44.67,0,0,1,15.68,2.07A33.74,33.74,0,0,1,265,103.43a41,41,0,0,1,8.68,13.32,52.52,52.52,0,0,1,3.82,15.49h0l.06,1.2L276.4,133a81.67,81.67,0,0,0-19.73-4.32,125.06,125.06,0,0,0-20.3-.15c-6.77.45-13.52,1.29-20.26,2.22L206,132.22l-5.07.7-2.54.34A19.9,19.9,0,0,1,195.22,133.39Zm1.05-1.23a8.5,8.5,0,0,1,1.9-.5l2.53-.34,5.06-.7,10.13-1.44c6.76-.93,13.54-1.77,20.38-2.23a125.92,125.92,0,0,1,20.55.16,83.09,83.09,0,0,1,20.12,4.4l-1.08.8h0a50.52,50.52,0,0,0-3.43-15.07,39.64,39.64,0,0,0-8.22-13,33.05,33.05,0,0,0-13-8.25,44,44,0,0,0-15.39-2.23,50.29,50.29,0,0,0-15.4,2.53,33.86,33.86,0,0,0-13.17,8.17,36.12,36.12,0,0,0-8.13,13.15,44.15,44.15,0,0,0-2,7.51c-.22,1.27-.38,2.56-.49,3.85,0,.64-.09,1.29-.11,1.93l0,1v.92A.86.86,0,0,0,196.27,132.16Z"/><path class="cls-16" d="M279.12,136a28.26,28.26,0,0,0-1.12,3.89c-.4,1.92-.66,3.41-1.17,3.66-2.06,1.1-.94-16.48-40.62-14.2-38.28,2.18-42,10.81-42,10.81a9.88,9.88,0,0,1-2.58-4.57,2.74,2.74,0,0,1-.07-.9,3.2,3.2,0,0,1,.18-1c4.35-13.37,84.57-16.87,87.72-.93A5.79,5.79,0,0,1,279.12,136Z"/><path class="cls-17" d="M279.46,132.81a6.59,6.59,0,0,1-.43,1.84,28.77,28.77,0,0,0-1.12,3.9c-1.91.08-1.91-17.67-41.77-15.31-39.71,2.36-43.46,11.63-43.46,11.63a8.43,8.43,0,0,1-.94-1.13C196.09,120.37,276.31,116.87,279.46,132.81Z"/><path d="M277.22,144.33a1.24,1.24,0,0,1-1.11,0,1.69,1.69,0,0,1-.53-.46,6.38,6.38,0,0,1-.44-.72l-.65-1.24a20.35,20.35,0,0,0-1.43-2.28,18.64,18.64,0,0,0-3.79-3.84,28.35,28.35,0,0,0-10-4.6c-7.3-1.59-14.84-1.34-22.24-.79l-11.16.91-2.79.2-2.79.24c-1.86.13-3.71.37-5.57.6a57.14,57.14,0,0,0-10.89,2.5c-.89.28-1.75.65-2.61,1s-1.69.77-2.49,1.22c-.4.24-.8.46-1.19.7s-.75.53-1.11.81a10.56,10.56,0,0,0-1,.9,3.77,3.77,0,0,0-.42.49,3.19,3.19,0,0,0-.29.46l-.33.75-.62-.55h0a10.94,10.94,0,0,1-2.06-3.08,10.78,10.78,0,0,1-.58-1.77,3.66,3.66,0,0,1-.09-1,5.5,5.5,0,0,1,.16-1,6.36,6.36,0,0,1,2.17-3,16.06,16.06,0,0,1,3-1.93,56.45,56.45,0,0,1,13.47-4.15,133.3,133.3,0,0,1,13.91-1.94q7-.68,14-.8c4.68-.09,9.37,0,14,.31a104.61,104.61,0,0,1,14,1.74,44.23,44.23,0,0,1,6.83,1.94,15.21,15.21,0,0,1,6.14,3.93,6.06,6.06,0,0,1,1.51,3.61,6.48,6.48,0,0,1-.2,2c-.08.32-.19.63-.29.92s-.19.52-.28.79a32.68,32.68,0,0,0-.83,3.31c-.12.58-.23,1.15-.37,1.75-.07.3-.15.6-.26.93a3,3,0,0,1-.24.53A1.56,1.56,0,0,1,277.22,144.33Zm-.77-1.5c-.13.09-.08.07-.06,0a1.18,1.18,0,0,0,.12-.27,6.07,6.07,0,0,0,.23-.75c.13-.54.25-1.11.38-1.68a32.87,32.87,0,0,1,.92-3.47c.1-.29.2-.58.31-.86s.18-.5.25-.75a4.66,4.66,0,0,0-.92-4.27,14.24,14.24,0,0,0-5.48-3.69,43.1,43.1,0,0,0-6.58-2.1,90,90,0,0,0-13.79-2.06c-4.65-.39-9.32-.46-14-.4A150.93,150.93,0,0,0,210,125.36c-2.28.47-4.54,1-6.76,1.69a37.12,37.12,0,0,0-6.45,2.54,14.84,14.84,0,0,0-2.84,1.87,5.4,5.4,0,0,0-1.82,2.6,3.66,3.66,0,0,0-.11.77,2.69,2.69,0,0,0,.08.72,7.38,7.38,0,0,0,.56,1.55,9.83,9.83,0,0,0,1.92,2.66h0l-1,.19a3.44,3.44,0,0,1,.52-.69,5.5,5.5,0,0,1,.54-.54,14,14,0,0,1,1.15-.92,26,26,0,0,1,2.49-1.45c.84-.44,1.72-.81,2.59-1.18s1.76-.7,2.66-1c3.57-1.24,7.25-2.09,10.91-3,1.84-.41,3.68-.86,5.54-1.17s3.72-.71,5.59-.91c3.75-.51,7.51-.71,11.28-.88a93.35,93.35,0,0,1,11.34.36,67.94,67.94,0,0,1,11.17,1.92A32.28,32.28,0,0,1,270,134.76a18.61,18.61,0,0,1,4.31,3.91,17.52,17.52,0,0,1,1.61,2.45l.68,1.23a3.43,3.43,0,0,0,.3.48c0,.06.07.06,0,0A.54.54,0,0,0,276.45,142.83Z"/><path class="cls-7" d="M234.23,159.61a56.94,56.94,0,0,1,7.47,10.91,61.83,61.83,0,0,1,2.82,6.06A58.13,58.13,0,0,1,246.6,183a41.74,41.74,0,0,1,1.2,6.68,40.11,40.11,0,0,1,.16,6.85,38.17,38.17,0,0,1-3.32,13.36l.17-.53c-.09.74-.15,1.71-.17,2.59s0,1.82.05,2.73a39.91,39.91,0,0,0,.69,5.43,41.59,41.59,0,0,0,1.4,5.29c.34.85.61,1.73,1,2.56l.54,1.26.59,1.45a24.17,24.17,0,0,1,1,3.05,19.82,19.82,0,0,1,.47,3.27,16.5,16.5,0,0,1-1,6.56c-1.47,4.11-4.16,7.16-5.07,10.28l-.25,1.16-.16,1.34c-.13.88-.13,1.85-.22,2.77-.1,1.88-.16,3.79-.17,5.7s0,3.83.07,5.75.09,3.84.16,5.76c.18,3.84.38,7.69.72,11.52.17,1.92.35,3.83.62,5.74.17.94.25,1.91.48,2.84.1.47.19.95.31,1.41l.46,1.37-.68-1.29c-.19-.45-.35-.91-.52-1.37-.37-.91-.59-1.85-.88-2.79-.5-1.88-1-3.78-1.33-5.69-.75-3.82-1.37-7.66-1.83-11.52s-.84-7.74-1.05-11.65c-.1-2-.16-3.91-.17-5.9,0-1,0-2,.11-3l.14-1.54c.08-.55.2-1.13.31-1.69a26.28,26.28,0,0,1,2.5-5.74,34,34,0,0,0,2.3-4.91,12.2,12.2,0,0,0,.65-4.84,15,15,0,0,0-.37-2.45,20.13,20.13,0,0,0-.82-2.45l-.51-1.23-.61-1.4c-.42-.93-.72-1.91-1.08-2.86a46.62,46.62,0,0,1-1.53-5.91,42.82,42.82,0,0,1-.66-6.08c0-1,0-2.05,0-3.07a26.85,26.85,0,0,1,.33-3.18l.05-.29.12-.25a36,36,0,0,0,3.44-11.88,43.28,43.28,0,0,0-.48-12.58,62.22,62.22,0,0,0-3.62-12.34A73.65,73.65,0,0,0,234.23,159.61Z"/><path class="cls-7" d="M259.39,209.28c.74,3.75,1.09,7.53,1.51,11.29s.7,7.54.94,11.31c.54,7.55.85,15.09,1,22.64.08,3.77.13,7.55.15,11.32v5.65c0,.91,0,2-.07,2.95s-.17,2-.3,2.92a74.32,74.32,0,0,1-2.44,11.27c-.56,1.83-1.14,3.65-1.83,5.43-.35.89-.7,1.78-1.09,2.65-.2.44-.42.87-.64,1.29a3.15,3.15,0,0,1-.84,1.16,1.36,1.36,0,0,0,.31-.61c.07-.22.14-.45.2-.68.11-.45.22-.91.31-1.37.2-.92.37-1.85.53-2.78.32-1.85.63-3.7.86-5.56.53-3.71.92-7.44,1.08-11.1q.06-1.37,0-2.73c0-.91-.06-1.73-.13-2.71-.13-1.9-.21-3.78-.3-5.67-.17-3.78-.29-7.55-.38-11.33-.17-7.55-.2-15.1,0-22.65S258.83,216.86,259.39,209.28Z"/><path class="cls-7" d="M289.58,225a45.87,45.87,0,0,0-1,16.79,40,40,0,0,0,1.87,8c.9,2.62,2,5.24,3,8a40.79,40.79,0,0,1,2.34,8.77,20.38,20.38,0,0,1-.85,9.37,51.71,51.71,0,0,1-3.81,8c-1.43,2.53-2.84,5.06-4.44,7.51.67-2.85,1.53-5.62,2.38-8.39a79.81,79.81,0,0,0,2.41-8.1,19.32,19.32,0,0,0,0-7.76,31.61,31.61,0,0,0-1-3.91c-.39-1.3-.86-2.62-1.36-3.95-1-2.66-2-5.39-2.84-8.29a34.23,34.23,0,0,1-1.32-9A31.51,31.51,0,0,1,289.58,225Z"/><path class="cls-7" d="M239.63,130.09c3,4.72,5.49,9.61,8,14.47s5,9.71,7.51,14.49c1.25,2.39,2.63,4.81,3.77,7.45a26.41,26.41,0,0,1,2.27,8.5c.44,5.93-1.15,11.48-3.4,16.54.42-5.54.92-11-.15-16s-3.89-9.36-6.51-14.3a123.92,123.92,0,0,1-6.76-15.2A126.09,126.09,0,0,1,239.63,130.09Z"/><path class="cls-7" d="M251.09,131.55a65.31,65.31,0,0,1,11.49,7.19,60,60,0,0,1,9.82,9.5,46.24,46.24,0,0,1,7.09,11.85,31.48,31.48,0,0,1,2.41,13.47,74,74,0,0,0-5.64-11.9,85.57,85.57,0,0,0-7.39-10.54c-2.72-3.34-5.66-6.54-8.69-9.73S254,135,251.09,131.55Z"/><path class="cls-7" d="M234.84,159.61a73.65,73.65,0,0,0-5.92,11.64,61.56,61.56,0,0,0-3.62,12.34,42.93,42.93,0,0,0-.48,12.58,36,36,0,0,0,3.44,11.88l.12.25.05.29a26.85,26.85,0,0,1,.33,3.18c.06,1,.05,2,0,3.07a44.31,44.31,0,0,1-.65,6.08,46.62,46.62,0,0,1-1.53,5.91c-.36.95-.67,1.93-1.09,2.86l-.6,1.4-.51,1.23a20.19,20.19,0,0,0-.83,2.45,16.1,16.1,0,0,0-.36,2.45,12,12,0,0,0,.65,4.84,34,34,0,0,0,2.3,4.91,26.27,26.27,0,0,1,2.49,5.74c.12.56.23,1.14.32,1.69l.13,1.54c.1,1,.09,2,.12,3,0,2-.07,3.95-.18,5.9-.2,3.91-.56,7.78-1,11.65s-1.08,7.7-1.83,11.52c-.37,1.91-.83,3.81-1.33,5.69-.29.94-.51,1.88-.88,2.79-.18.46-.33.92-.52,1.37l-.68,1.29.45-1.37c.12-.46.21-.94.32-1.41.23-.93.3-1.9.48-2.84.26-1.91.44-3.82.62-5.74.34-3.83.54-7.68.72-11.52.06-1.92.14-3.84.16-5.76s.06-3.84.06-5.75-.06-3.82-.16-5.7c-.09-.92-.1-1.89-.22-2.77L225,255l-.26-1.16c-.91-3.12-3.59-6.17-5.07-10.28a16.87,16.87,0,0,1-1-6.56,20.94,20.94,0,0,1,.47-3.27,27.89,27.89,0,0,1,1-3.05l.6-1.45.53-1.26c.39-.83.66-1.71,1-2.56a41.63,41.63,0,0,0,1.41-5.29,38.37,38.37,0,0,0,.68-5.43c.06-.91.06-1.82,0-2.73a22.67,22.67,0,0,0-.17-2.59l.17.53a38.39,38.39,0,0,1-3.32-13.36,41.16,41.16,0,0,1,.16-6.85,42.9,42.9,0,0,1,1.21-6.68,58.13,58.13,0,0,1,2.08-6.39,59.59,59.59,0,0,1,2.82-6.06A56.49,56.49,0,0,1,234.84,159.61Z"/><path class="cls-7" d="M209.67,209.28c.57,7.58,1,15.13,1.1,22.69s.15,15.1,0,22.65c-.09,3.78-.21,7.55-.38,11.33-.1,1.89-.18,3.77-.31,5.67-.06,1-.1,1.8-.12,2.71s0,1.82,0,2.73c.17,3.66.56,7.39,1.08,11.1.24,1.86.55,3.71.86,5.56.16.93.34,1.86.54,2.78.09.46.19.92.31,1.37.06.23.12.46.2.68a1.36,1.36,0,0,0,.31.61,3.15,3.15,0,0,1-.84-1.16c-.23-.42-.44-.85-.64-1.29-.39-.87-.75-1.76-1.1-2.65-.68-1.78-1.26-3.6-1.83-5.43a75.53,75.53,0,0,1-2.43-11.27c-.13-1-.23-1.94-.31-2.92s-.07-2-.07-2.95v-5.65c0-3.77.07-7.55.15-11.32.18-7.55.48-15.09,1-22.64.25-3.77.58-7.54.94-11.31S208.94,213,209.67,209.28Z"/><path class="cls-7" d="M179.49,218.26a31.58,31.58,0,0,1,4.57,17,33.88,33.88,0,0,1-1.31,9c-.81,2.9-1.88,5.63-2.85,8.29-.49,1.32-1,2.64-1.36,4a33.28,33.28,0,0,0-1,3.9,19.19,19.19,0,0,0,0,7.77A80.41,80.41,0,0,0,180,276.3c.85,2.78,1.71,5.55,2.38,8.4-1.6-2.45-3-5-4.44-7.51a51.23,51.23,0,0,1-3.81-8,20.58,20.58,0,0,1-.86-9.38,40.87,40.87,0,0,1,2.35-8.76c1-2.75,2.11-5.38,3-8a40.35,40.35,0,0,0,1.88-8A46.14,46.14,0,0,0,179.49,218.26Z"/><path class="cls-7" d="M229.44,130.09A127.77,127.77,0,0,1,224.68,146a123.92,123.92,0,0,1-6.76,15.2c-2.63,4.94-5.53,9.32-6.52,14.3s-.56,10.5-.14,16c-2.25-5.06-3.84-10.61-3.41-16.54a26.93,26.93,0,0,1,2.27-8.5c1.15-2.64,2.52-5.06,3.77-7.45,2.55-4.78,5-9.63,7.52-14.49S226.47,134.81,229.44,130.09Z"/><path class="cls-7" d="M218,131.55c-2.94,3.47-6.08,6.63-9.1,9.84s-6,6.39-8.68,9.73a85.57,85.57,0,0,0-7.39,10.54,74,74,0,0,0-5.64,11.9,31.18,31.18,0,0,1,2.41-13.47,45.93,45.93,0,0,1,7.08-11.85,60.46,60.46,0,0,1,9.83-9.5A65.31,65.31,0,0,1,218,131.55Z"/><g class="cls-18"><path class="cls-7" d="M257.81,300.42c-5.69-6.26-14.78-8.52-23.21-7.88s-16.46,3.81-24.32,6.94a63.47,63.47,0,0,0-8.1-23.12,252.15,252.15,0,0,0-8.85,50c-.49,6.59-.71,13.28.66,19.75,2.14,10.09,8,19,14.25,27.18,4.28,5.63,9.13,11.34,15.78,13.76,9,3.29,19-.22,27.94-3.71,3.89-1.52,7.87-3.08,11-5.83,6.11-5.36,7.85-14.06,8.82-22.12,3-24.81,4.22-51.44-4.29-75.33C266.26,281.8,256.25,298.7,257.81,300.42Z"/></g><path class="cls-19" d="M200.51,228.82l2.82,4s.94,75.69,3.29,83.68-5.17,13-6.11,17.8,3.73,12.76,8,17,2,6.58.54,8-.53,5.64,4.65,6.11,8.49,7.05,21.79,7.05,16-8.34,19.23-8.34,6-4.35,3.17-6.23-2.83-6.05,1.95-7.26,12.63-11.69,9.81-16.32S261.39,323.07,262,316s5.29-84.62,5.29-84.62l5.43-4.73"/><path d="M203.9,179.84l1.3,35a4.41,4.41,0,0,1-4.28,4.8,4.93,4.93,0,0,1-4.58-4.92l-.36-13.1c3,0,5.26-5.7,5-12.71a22.63,22.63,0,0,0-2-9.05Z"/><path d="M271,179.84l1.3,35a4.41,4.41,0,0,1-4.29,4.8,4.94,4.94,0,0,1-4.58-4.92l-.36-13.1c3,0,5.26-5.7,5-12.71a22.62,22.62,0,0,0-2-9.05Z"/><rect class="cls-20" x="192.18" y="167.53" width="22.85" height="4.21" rx="2.09"/><rect class="cls-20" x="258.56" y="167.53" width="22.85" height="4.21" rx="2.09"/><polygon class="cls-8" points="234.23 416.33 234.23 416.66 233.63 416.5 234.23 416.33"/><polygon class="cls-8" points="233.63 416.5 233.01 416.66 233.01 416.33 233.63 416.5"/><path class="cls-21" d="M253.68,426.17h-33c2.36-3.66,4.13-6.32,4.13-6.32l11.76-3.19.62-.16.6.16,11.76,3.19S251.31,422.51,253.68,426.17Z"/><path class="cls-21" d="M267.39,502.79l-3.61,10.69-6.9-1.62-50.43-11.72-3.77-11.22c2.62-21.62,5.12-40.74,6.09-43a61.68,61.68,0,0,1,3.14-5.79L266.67,502Z"/><path class="cls-22" d="M222.51,349.64a2.82,2.82,0,0,0,.26-.58c.84-2.6-2.17-11.21-4.53-12.64s-11.47-3.49-13.36-1c-2.3,3.07,7.25,10.9,9.36,12.38C216,349.08,221,352.16,222.51,349.64Z"/><path class="cls-22" d="M246.66,349.64a2.39,2.39,0,0,1-.27-.58c-.84-2.6,2.17-11.21,4.53-12.64s11.47-3.49,13.37-1c2.29,3.07-7.26,10.9-9.37,12.38C253.16,349.08,248.2,352.16,246.66,349.64Z"/></g><g class="cls-23"><path class="cls-24" d="M395.4-77.07c-11.22,0-20.8-3.71-24.69-8.94a1.41,1.41,0,0,0-2.29,0c-3.88,5.23-13.47,8.94-24.69,8.94S322.92-80.78,319-86a1.41,1.41,0,0,0-2.29,0c-3.89,5.23-13.48,8.94-24.7,8.94S271.24-80.78,267.36-86a1.41,1.41,0,0,0-2.29,0c-3.88,5.23-13.47,8.94-24.69,8.94s-20.81-3.71-24.7-8.94a1.4,1.4,0,0,0-2.28,0c-3.89,5.23-13.48,8.94-24.7,8.94S167.89-80.78,164-86a1.41,1.41,0,0,0-2.29,0c-3.88,5.23-13.47,8.94-24.69,8.94s-20.81-3.71-24.7-8.94A1.41,1.41,0,0,0,110-86c-3.88,5.23-13.47,8.94-24.69,8.94-12.1,0-22.31-4.32-25.5-10.21A1.38,1.38,0,0,0,58.62-88h0a1.39,1.39,0,0,0-1.41,1.38V8A1.4,1.4,0,0,0,58.62,9.4H420.38A1.4,1.4,0,0,0,421.8,8V-88h-.55C418.51-81.73,408-77.07,395.4-77.07Z"/></g></svg>